%TF.GenerationSoftware,KiCad,Pcbnew,10.0.4*%
%TF.CreationDate,2026-09-19T08:13:50+12:00*%
%TF.ProjectId,MicroDev128,4d696372-6f44-4657-9631-32382e6b6963,Rev 1B*%
%TF.SameCoordinates,PX5f5e100PY5f5e100*%
%TF.FileFunction,Legend,Bot*%
%TF.FilePolarity,Positive*%
%FSLAX46Y46*%
G04 Gerber Fmt 4.6, Leading zero omitted, Abs format (unit mm)*
G04 Created by KiCad (PCBNEW 10.0.4) date 2026-09-19 08:13:50*
%MOMM*%
%LPD*%
G01*
G04 APERTURE LIST*
%ADD10C,0.120000*%
%ADD11C,0.000000*%
G04 APERTURE END LIST*
%TO.C,J3*%
D10*
X62701458Y-28496270D02*
X62701458Y-25736270D01*
X95831458Y-25736270D02*
X62701458Y-25736270D01*
X95831458Y-28496270D02*
X62701458Y-28496270D01*
X95831458Y-28496270D02*
X95831458Y-25736270D01*
X97101458Y-28496270D02*
X98481458Y-28496270D01*
X98481458Y-28496270D02*
X98481458Y-27116270D01*
D11*
%TO.C,G\u002A\u002A\u002A*%
G36*
X93754535Y-19119973D02*
G01*
X93754501Y-19231637D01*
X93753620Y-19688360D01*
X93751639Y-20114257D01*
X93748675Y-20500316D01*
X93744847Y-20837529D01*
X93740271Y-21116883D01*
X93735065Y-21329370D01*
X93729347Y-21465977D01*
X93723235Y-21517695D01*
X93697467Y-21526168D01*
X93592940Y-21537923D01*
X93429907Y-21545996D01*
X93230259Y-21548995D01*
X92768584Y-21548995D01*
X92768584Y-20639961D01*
X92768584Y-19730927D01*
X91982169Y-19705333D01*
X91769307Y-19697303D01*
X91451738Y-19678073D01*
X91202651Y-19649237D01*
X91005765Y-19606803D01*
X90844802Y-19546780D01*
X90703482Y-19465177D01*
X90565526Y-19358002D01*
X90495374Y-19290779D01*
X90354930Y-19122945D01*
X90243139Y-18949737D01*
X90189902Y-18841920D01*
X90150584Y-18732611D01*
X90128231Y-18609585D01*
X90118214Y-18446131D01*
X90115903Y-18215539D01*
X90116791Y-18110216D01*
X91081786Y-18110216D01*
X91088320Y-18274238D01*
X91091364Y-18312961D01*
X91115351Y-18474207D01*
X91163266Y-18587284D01*
X91249997Y-18690525D01*
X91271549Y-18710703D01*
X91419375Y-18811662D01*
X91575488Y-18874949D01*
X91648245Y-18887060D01*
X91818482Y-18903028D01*
X92033579Y-18914193D01*
X92263870Y-18918670D01*
X92768584Y-18919790D01*
X92768584Y-18239014D01*
X92768584Y-17558238D01*
X92203674Y-17558238D01*
X92029148Y-17559692D01*
X91769170Y-17572074D01*
X91574541Y-17601423D01*
X91427021Y-17652916D01*
X91308369Y-17731731D01*
X91200344Y-17843047D01*
X91147677Y-17909433D01*
X91098288Y-18001252D01*
X91081786Y-18110216D01*
X90116791Y-18110216D01*
X90117661Y-18007029D01*
X90126594Y-17837274D01*
X90147337Y-17711007D01*
X90184504Y-17601541D01*
X90242708Y-17482191D01*
X90366071Y-17287421D01*
X90592712Y-17059493D01*
X90890580Y-16881773D01*
X90921135Y-16868009D01*
X90989904Y-16841838D01*
X91068959Y-16821352D01*
X91170245Y-16805671D01*
X91305705Y-16793916D01*
X91487286Y-16785206D01*
X91726931Y-16778662D01*
X92036586Y-16773405D01*
X92428195Y-16768556D01*
X93754535Y-16753551D01*
X93754535Y-18239014D01*
X93754535Y-19119973D01*
G37*
G36*
X87749684Y-16835967D02*
G01*
X87950592Y-16844602D01*
X88104019Y-16862956D01*
X88234440Y-16894091D01*
X88366333Y-16941068D01*
X88481322Y-16989789D01*
X88891706Y-17220874D01*
X89240571Y-17513498D01*
X89519795Y-17859804D01*
X89721259Y-18251936D01*
X89729681Y-18274589D01*
X89791665Y-18512794D01*
X89833527Y-18805269D01*
X89853000Y-19118005D01*
X89847816Y-19416994D01*
X89815707Y-19668227D01*
X89780962Y-19807408D01*
X89617894Y-20214228D01*
X89377101Y-20576904D01*
X89066142Y-20887392D01*
X88692574Y-21137650D01*
X88263956Y-21319634D01*
X88255600Y-21322263D01*
X88013837Y-21373224D01*
X87716511Y-21400489D01*
X87397610Y-21403663D01*
X87091123Y-21382356D01*
X86831038Y-21336175D01*
X86818789Y-21332949D01*
X86497877Y-21220703D01*
X86181647Y-21051716D01*
X85845586Y-20812973D01*
X85574307Y-20600055D01*
X85869120Y-20302598D01*
X86163933Y-20005141D01*
X86360978Y-20178586D01*
X86427225Y-20233316D01*
X86609719Y-20363702D01*
X86787610Y-20469275D01*
X86871618Y-20509616D01*
X86983454Y-20549723D01*
X87109458Y-20573037D01*
X87276181Y-20583866D01*
X87510173Y-20586519D01*
X87718908Y-20584757D01*
X87888582Y-20575815D01*
X88014810Y-20555058D01*
X88124283Y-20517868D01*
X88243691Y-20459628D01*
X88386941Y-20371201D01*
X88624558Y-20165030D01*
X88818421Y-19920366D01*
X88944206Y-19664806D01*
X89005884Y-19388410D01*
X89022015Y-19064838D01*
X88987372Y-18749303D01*
X88903207Y-18478060D01*
X88739814Y-18205432D01*
X88488538Y-17940352D01*
X88187330Y-17742419D01*
X88163026Y-17730648D01*
X88035687Y-17678492D01*
X87904371Y-17647459D01*
X87739170Y-17632524D01*
X87510173Y-17628663D01*
X87386275Y-17629375D01*
X87199506Y-17637144D01*
X87058425Y-17658369D01*
X86931235Y-17699043D01*
X86786142Y-17765163D01*
X86656112Y-17835665D01*
X86471455Y-17953718D01*
X86325329Y-18066820D01*
X86142521Y-18231976D01*
X85852133Y-17939057D01*
X85561744Y-17646139D01*
X85726070Y-17504485D01*
X85915339Y-17350475D01*
X86250094Y-17128258D01*
X86605898Y-16959367D01*
X86646016Y-16943689D01*
X86785555Y-16894620D01*
X86916003Y-16862683D01*
X87063097Y-16844309D01*
X87252575Y-16835929D01*
X87510173Y-16833975D01*
X87749684Y-16835967D01*
G37*
G36*
X75020417Y-20471662D02*
G01*
X75007281Y-20668565D01*
X74922095Y-20977597D01*
X74763515Y-21238271D01*
X74538254Y-21440926D01*
X74253025Y-21575902D01*
X73989308Y-21627101D01*
X73649873Y-21612031D01*
X73311636Y-21512944D01*
X72990748Y-21332949D01*
X72891571Y-21263693D01*
X72791991Y-21198550D01*
X72744260Y-21173395D01*
X72739041Y-21178150D01*
X72726082Y-21243538D01*
X72720894Y-21361195D01*
X72720894Y-21548995D01*
X72154395Y-21548995D01*
X71587897Y-21548995D01*
X71603413Y-20128755D01*
X71604788Y-20006082D01*
X71607465Y-19802622D01*
X72720894Y-19802622D01*
X72720894Y-20202479D01*
X72720894Y-20602335D01*
X72892780Y-20708566D01*
X72901618Y-20713909D01*
X73084636Y-20789668D01*
X73296480Y-20829537D01*
X73500463Y-20829782D01*
X73659896Y-20786667D01*
X73751204Y-20719008D01*
X73847413Y-20568358D01*
X73879921Y-20389699D01*
X73845605Y-20210913D01*
X73741340Y-20059884D01*
X73706510Y-20030953D01*
X73545785Y-19943531D01*
X73319608Y-19879273D01*
X73014332Y-19833939D01*
X72720894Y-19802622D01*
X71607465Y-19802622D01*
X71609876Y-19619319D01*
X71615699Y-19312076D01*
X71622968Y-19073092D01*
X71632395Y-18891105D01*
X71644694Y-18754855D01*
X71660575Y-18653079D01*
X71680752Y-18574516D01*
X71705938Y-18507905D01*
X71748548Y-18424494D01*
X71916835Y-18211131D01*
X72142733Y-18031298D01*
X72399821Y-17907846D01*
X72588124Y-17857757D01*
X72930333Y-17806419D01*
X73317434Y-17784774D01*
X73722772Y-17792933D01*
X74119687Y-17831009D01*
X74481523Y-17899113D01*
X74716273Y-17957313D01*
X74729772Y-18391602D01*
X74731415Y-18456452D01*
X74730159Y-18654114D01*
X74718161Y-18781051D01*
X74696298Y-18825890D01*
X74659838Y-18818642D01*
X74552819Y-18784658D01*
X74411750Y-18732247D01*
X74237606Y-18671939D01*
X73891151Y-18593551D01*
X73551874Y-18565842D01*
X73252854Y-18592793D01*
X73074968Y-18646359D01*
X72888367Y-18751205D01*
X72765289Y-18884457D01*
X72720894Y-19033554D01*
X72721630Y-19065975D01*
X72739270Y-19125041D01*
X72799845Y-19149631D01*
X72928772Y-19154541D01*
X72932066Y-19154547D01*
X73086539Y-19161677D01*
X73289486Y-19179689D01*
X73497893Y-19204785D01*
X73732704Y-19242965D01*
X74141079Y-19345327D01*
X74466874Y-19484434D01*
X74713897Y-19663452D01*
X74885957Y-19885550D01*
X74986861Y-20153898D01*
X75011762Y-20389699D01*
X75020417Y-20471662D01*
G37*
G36*
X85339154Y-19119328D02*
G01*
X85343775Y-20042552D01*
X85351314Y-21548995D01*
X84212352Y-21548180D01*
X84006239Y-21547419D01*
X83541318Y-21539203D01*
X83154566Y-21520081D01*
X82834905Y-21487681D01*
X82571257Y-21439633D01*
X82352544Y-21373562D01*
X82167690Y-21287099D01*
X82005615Y-21177871D01*
X81855241Y-21043506D01*
X81791050Y-20978159D01*
X81671778Y-20839399D01*
X81594497Y-20705916D01*
X81550792Y-20553009D01*
X81532246Y-20355975D01*
X81530446Y-20090112D01*
X81531022Y-20050141D01*
X81532868Y-20007480D01*
X82682701Y-20007480D01*
X82693354Y-20113090D01*
X82742045Y-20257350D01*
X82800761Y-20386850D01*
X82887027Y-20489857D01*
X83020443Y-20566878D01*
X83079761Y-20591013D01*
X83225622Y-20628900D01*
X83414685Y-20649392D01*
X83672003Y-20655913D01*
X84129767Y-20656944D01*
X84129767Y-20042552D01*
X84129767Y-19428161D01*
X83593106Y-19443939D01*
X83412757Y-19451407D01*
X83171080Y-19475063D01*
X82997458Y-19518921D01*
X82875857Y-19590402D01*
X82790238Y-19696929D01*
X82724566Y-19845923D01*
X82708122Y-19894216D01*
X82682701Y-20007480D01*
X81532868Y-20007480D01*
X81542760Y-19778831D01*
X81572279Y-19577036D01*
X81626753Y-19423530D01*
X81713357Y-19297090D01*
X81839263Y-19176494D01*
X81857420Y-19161405D01*
X81990986Y-19066189D01*
X82149578Y-18985260D01*
X82366502Y-18901228D01*
X82419066Y-18875281D01*
X82406608Y-18842744D01*
X82319550Y-18784748D01*
X82238008Y-18728260D01*
X82062625Y-18562481D01*
X81918268Y-18369090D01*
X81832035Y-18181610D01*
X81815465Y-18113605D01*
X81808092Y-18046243D01*
X83001392Y-18046243D01*
X83021357Y-18234895D01*
X83098962Y-18401135D01*
X83233366Y-18518466D01*
X83281145Y-18538622D01*
X83474630Y-18577894D01*
X83751834Y-18591140D01*
X84129767Y-18591140D01*
X84129767Y-18068946D01*
X84129767Y-17546752D01*
X83718953Y-17567167D01*
X83673133Y-17569768D01*
X83467641Y-17589671D01*
X83303044Y-17618733D01*
X83205843Y-17652543D01*
X83137754Y-17707689D01*
X83039910Y-17861675D01*
X83001392Y-18046243D01*
X81808092Y-18046243D01*
X81785837Y-17842929D01*
X81804977Y-17573924D01*
X81871000Y-17346962D01*
X81948177Y-17206997D01*
X82072227Y-17057837D01*
X82233815Y-16936481D01*
X82440856Y-16840859D01*
X82701267Y-16768899D01*
X83022965Y-16718531D01*
X83413866Y-16687684D01*
X83881886Y-16674286D01*
X84434942Y-16676268D01*
X85326994Y-16689661D01*
X85333897Y-18068946D01*
X85339154Y-19119328D01*
G37*
G36*
X78726107Y-16840862D02*
G01*
X78734220Y-16872122D01*
X78766606Y-16999416D01*
X78817019Y-17199237D01*
X78882288Y-17458954D01*
X78959240Y-17765937D01*
X79044704Y-18107555D01*
X79135508Y-18471178D01*
X79159694Y-18567881D01*
X79267294Y-18991030D01*
X79355789Y-19325669D01*
X79425963Y-19574477D01*
X79478602Y-19740136D01*
X79514492Y-19825327D01*
X79534418Y-19832730D01*
X79545542Y-19791067D01*
X79574025Y-19666750D01*
X79616093Y-19474674D01*
X79668986Y-19228139D01*
X79729944Y-18940445D01*
X79796205Y-18624893D01*
X79865009Y-18294782D01*
X79933596Y-17963414D01*
X79999204Y-17644088D01*
X80059074Y-17350105D01*
X80110446Y-17094765D01*
X80150557Y-16891368D01*
X80176648Y-16753215D01*
X80185959Y-16693606D01*
X80188993Y-16690914D01*
X80254377Y-16681216D01*
X80392102Y-16673364D01*
X80585010Y-16668105D01*
X80815943Y-16666186D01*
X81445927Y-16666186D01*
X80838598Y-19066451D01*
X80789059Y-19262033D01*
X80674882Y-19711235D01*
X80568011Y-20129537D01*
X80470674Y-20508346D01*
X80385102Y-20839065D01*
X80313523Y-21113100D01*
X80258167Y-21321857D01*
X80221262Y-21456741D01*
X80205038Y-21509157D01*
X80198655Y-21513581D01*
X80121679Y-21527098D01*
X79973768Y-21536292D01*
X79772842Y-21540376D01*
X79536820Y-21538560D01*
X78894831Y-21525520D01*
X78513384Y-20023117D01*
X78448180Y-19768928D01*
X78360617Y-19436165D01*
X78281327Y-19144689D01*
X78213160Y-18904475D01*
X78158968Y-18725496D01*
X78121604Y-18617726D01*
X78103920Y-18591140D01*
X78097785Y-18610268D01*
X78069276Y-18711625D01*
X78021957Y-18886753D01*
X77958896Y-19124081D01*
X77883157Y-19412037D01*
X77797806Y-19739048D01*
X77705908Y-20093543D01*
X77335913Y-21525520D01*
X76673810Y-21538534D01*
X76011707Y-21551547D01*
X75965693Y-21374209D01*
X75948147Y-21306041D01*
X75905185Y-21137459D01*
X75846116Y-20904468D01*
X75773546Y-20617432D01*
X75690079Y-20286715D01*
X75598320Y-19922680D01*
X75500874Y-19535692D01*
X75400346Y-19136113D01*
X75299341Y-18734309D01*
X75200463Y-18340642D01*
X75106318Y-17965477D01*
X75019510Y-17619177D01*
X74942644Y-17312106D01*
X74878325Y-17054628D01*
X74829158Y-16857107D01*
X74797747Y-16729907D01*
X74786698Y-16683392D01*
X74787904Y-16682301D01*
X74845410Y-16676003D01*
X74976436Y-16670883D01*
X75163431Y-16667444D01*
X75388844Y-16666186D01*
X75990990Y-16666186D01*
X76336739Y-18262489D01*
X76406296Y-18580959D01*
X76483506Y-18927956D01*
X76553422Y-19235248D01*
X76613597Y-19492406D01*
X76661584Y-19689002D01*
X76694938Y-19814606D01*
X76711212Y-19858792D01*
X76724241Y-19827613D01*
X76757119Y-19714885D01*
X76806364Y-19529820D01*
X76869330Y-19282819D01*
X76943372Y-18984285D01*
X77025845Y-18644620D01*
X77114106Y-18274226D01*
X77488276Y-16689661D01*
X78083733Y-16676537D01*
X78679190Y-16663413D01*
X78726107Y-16840862D01*
G37*
G36*
X69297135Y-19013100D02*
G01*
X69376211Y-19266594D01*
X69465875Y-19548808D01*
X69544088Y-19789262D01*
X69606872Y-19975940D01*
X69650248Y-20096825D01*
X69670237Y-20139902D01*
X69685891Y-20109835D01*
X69727906Y-20001670D01*
X69791346Y-19826089D01*
X69872010Y-19594976D01*
X69965699Y-19320216D01*
X70068214Y-19013690D01*
X70441617Y-17886888D01*
X71035847Y-17886888D01*
X71630077Y-17886888D01*
X70959901Y-19671963D01*
X70289725Y-21457037D01*
X70441867Y-21843405D01*
X70507734Y-22007263D01*
X70564370Y-22129537D01*
X70611856Y-22194750D01*
X70662894Y-22219512D01*
X70730187Y-22220433D01*
X70784158Y-22216407D01*
X70927835Y-22205179D01*
X71139788Y-22188342D01*
X71405498Y-22167056D01*
X71710448Y-22142481D01*
X72040118Y-22115777D01*
X72522150Y-22077413D01*
X73079296Y-22035782D01*
X73592542Y-22001288D01*
X74081574Y-21973022D01*
X74566077Y-21950072D01*
X75065736Y-21931529D01*
X75600236Y-21916482D01*
X76189263Y-21904022D01*
X76852502Y-21893237D01*
X77771074Y-21887244D01*
X79403460Y-21909582D01*
X81098322Y-21972022D01*
X82842103Y-22073320D01*
X84621243Y-22212233D01*
X86422187Y-22387516D01*
X88231377Y-22597925D01*
X90035254Y-22842217D01*
X91820261Y-23119147D01*
X93572842Y-23427472D01*
X94118874Y-23529501D01*
X94188791Y-23880875D01*
X94217118Y-24025332D01*
X94236137Y-24143485D01*
X94233906Y-24201278D01*
X94208803Y-24216587D01*
X94159209Y-24207284D01*
X94154448Y-24206104D01*
X94034522Y-24179870D01*
X93835036Y-24139909D01*
X93568149Y-24088441D01*
X93246020Y-24027683D01*
X92880809Y-23959857D01*
X92484674Y-23887180D01*
X92069774Y-23811873D01*
X91648269Y-23736155D01*
X91232318Y-23662246D01*
X90834080Y-23592364D01*
X90465713Y-23528728D01*
X90139378Y-23473559D01*
X89100820Y-23304690D01*
X87621671Y-23080336D01*
X86192761Y-22884490D01*
X84791530Y-22714662D01*
X83395418Y-22568364D01*
X81981867Y-22443106D01*
X80528316Y-22336399D01*
X79012206Y-22245753D01*
X78964189Y-22243251D01*
X78586575Y-22227467D01*
X78144208Y-22214588D01*
X77651505Y-22204614D01*
X77122886Y-22197544D01*
X76572771Y-22193379D01*
X76015578Y-22192121D01*
X75465725Y-22193768D01*
X74937633Y-22198321D01*
X74445720Y-22205782D01*
X74004405Y-22216149D01*
X73628107Y-22229424D01*
X73331245Y-22245606D01*
X73119317Y-22260649D01*
X72745067Y-22288213D01*
X72369777Y-22316975D01*
X72005284Y-22345935D01*
X71663424Y-22374090D01*
X71356034Y-22400437D01*
X71094950Y-22423975D01*
X70892008Y-22443701D01*
X70759047Y-22458614D01*
X70707900Y-22467712D01*
X70705981Y-22479341D01*
X70723742Y-22555215D01*
X70766208Y-22673850D01*
X70842130Y-22863598D01*
X70237855Y-22863598D01*
X69633580Y-22863598D01*
X69575238Y-22722748D01*
X69558303Y-22679911D01*
X69538456Y-22640224D01*
X69507840Y-22612406D01*
X69454616Y-22595762D01*
X69366947Y-22589599D01*
X69232993Y-22593222D01*
X69040916Y-22605937D01*
X68778878Y-22627048D01*
X68435040Y-22655863D01*
X68430205Y-22656266D01*
X68148669Y-22678126D01*
X67897238Y-22694663D01*
X67691765Y-22705073D01*
X67548100Y-22708549D01*
X67482094Y-22704286D01*
X67434728Y-22680861D01*
X67423863Y-22652872D01*
X67473833Y-22625285D01*
X67591196Y-22596581D01*
X67782510Y-22565241D01*
X68054333Y-22529744D01*
X68413223Y-22488573D01*
X68523103Y-22476425D01*
X68807665Y-22444375D01*
X69054047Y-22415785D01*
X69248455Y-22392305D01*
X69377094Y-22375588D01*
X69426168Y-22367284D01*
X69426400Y-22365794D01*
X69411418Y-22313319D01*
X69367989Y-22185233D01*
X69295615Y-21980167D01*
X69193798Y-21696751D01*
X69062039Y-21333617D01*
X68899839Y-20889394D01*
X68706701Y-20362712D01*
X68482126Y-19752204D01*
X68225616Y-19056498D01*
X67936672Y-18274226D01*
X67793496Y-17886888D01*
X68371052Y-17886888D01*
X68948607Y-17886888D01*
X69297135Y-19013100D01*
G37*
%TO.C,J4*%
D10*
X62701458Y-13285281D02*
X62701458Y-10525281D01*
X95831458Y-10525281D02*
X62701458Y-10525281D01*
X95831458Y-13285281D02*
X62701458Y-13285281D01*
X95831458Y-13285281D02*
X95831458Y-10525281D01*
X97101458Y-13285281D02*
X98481458Y-13285281D01*
X98481458Y-13285281D02*
X98481458Y-11905281D01*
%TD*%
M02*
