%TF.GenerationSoftware,KiCad,Pcbnew,10.0.4*%
%TF.CreationDate,2026-09-12T17:22:50+12:00*%
%TF.ProjectId,MicroDev128,4d696372-6f44-4657-9631-32382e6b6963,Rev 1B*%
%TF.SameCoordinates,PX5f5e100PY5f5e100*%
%TF.FileFunction,Legend,Bot*%
%TF.FilePolarity,Positive*%
%FSLAX46Y46*%
G04 Gerber Fmt 4.6, Leading zero omitted, Abs format (unit mm)*
G04 Created by KiCad (PCBNEW 10.0.4) date 2026-09-12 17:22:50*
%MOMM*%
%LPD*%
G01*
G04 APERTURE LIST*
%ADD10C,0.120000*%
%ADD11C,0.000000*%
G04 APERTURE END LIST*
%TO.C,J3*%
D10*
X62701458Y-28496270D02*
X62701458Y-25736270D01*
X95831458Y-25736270D02*
X62701458Y-25736270D01*
X95831458Y-28496270D02*
X62701458Y-28496270D01*
X95831458Y-28496270D02*
X95831458Y-25736270D01*
X97101458Y-28496270D02*
X98481458Y-28496270D01*
X98481458Y-28496270D02*
X98481458Y-27116270D01*
D11*
%TO.C,G\u002A\u002A\u002A*%
G36*
X9984104Y38897045D02*
G01*
X9984070Y38785381D01*
X9983189Y38328658D01*
X9981208Y37902761D01*
X9978244Y37516702D01*
X9974416Y37179489D01*
X9969840Y36900135D01*
X9964634Y36687648D01*
X9958916Y36551041D01*
X9952804Y36499323D01*
X9927036Y36490850D01*
X9822509Y36479095D01*
X9659476Y36471022D01*
X9459828Y36468023D01*
X8998153Y36468023D01*
X8998153Y37377057D01*
X8998153Y38286091D01*
X8211738Y38311685D01*
X7998876Y38319715D01*
X7681307Y38338945D01*
X7432220Y38367781D01*
X7235334Y38410215D01*
X7074371Y38470238D01*
X6933051Y38551841D01*
X6795095Y38659016D01*
X6724943Y38726239D01*
X6584499Y38894073D01*
X6472708Y39067281D01*
X6419471Y39175098D01*
X6380153Y39284407D01*
X6357800Y39407433D01*
X6347783Y39570887D01*
X6345472Y39801479D01*
X6346360Y39906802D01*
X7311355Y39906802D01*
X7317889Y39742780D01*
X7320933Y39704057D01*
X7344920Y39542811D01*
X7392835Y39429734D01*
X7479566Y39326493D01*
X7501118Y39306315D01*
X7648944Y39205356D01*
X7805057Y39142069D01*
X7877814Y39129958D01*
X8048051Y39113990D01*
X8263148Y39102825D01*
X8493439Y39098348D01*
X8998153Y39097228D01*
X8998153Y39778004D01*
X8998153Y40458780D01*
X8433243Y40458780D01*
X8258717Y40457326D01*
X7998739Y40444944D01*
X7804110Y40415595D01*
X7656590Y40364102D01*
X7537938Y40285287D01*
X7429913Y40173971D01*
X7377246Y40107585D01*
X7327857Y40015766D01*
X7311355Y39906802D01*
X6346360Y39906802D01*
X6347230Y40009989D01*
X6356163Y40179744D01*
X6376906Y40306011D01*
X6414073Y40415477D01*
X6472277Y40534827D01*
X6595640Y40729597D01*
X6822281Y40957525D01*
X7120149Y41135245D01*
X7150704Y41149009D01*
X7219473Y41175180D01*
X7298528Y41195666D01*
X7399814Y41211347D01*
X7535274Y41223102D01*
X7716855Y41231812D01*
X7956500Y41238356D01*
X8266155Y41243613D01*
X8657764Y41248462D01*
X9984104Y41263467D01*
X9984104Y39778004D01*
X9984104Y38897045D01*
G37*
G36*
X3979253Y41181051D02*
G01*
X4180161Y41172416D01*
X4333588Y41154062D01*
X4464009Y41122927D01*
X4595902Y41075950D01*
X4710891Y41027229D01*
X5121275Y40796144D01*
X5470140Y40503520D01*
X5749364Y40157214D01*
X5950828Y39765082D01*
X5959250Y39742429D01*
X6021234Y39504224D01*
X6063096Y39211749D01*
X6082569Y38899013D01*
X6077385Y38600024D01*
X6045276Y38348791D01*
X6010531Y38209610D01*
X5847463Y37802790D01*
X5606670Y37440114D01*
X5295711Y37129626D01*
X4922143Y36879368D01*
X4493525Y36697384D01*
X4485169Y36694755D01*
X4243406Y36643794D01*
X3946080Y36616529D01*
X3627179Y36613355D01*
X3320692Y36634662D01*
X3060607Y36680843D01*
X3048358Y36684069D01*
X2727446Y36796315D01*
X2411216Y36965302D01*
X2075155Y37204045D01*
X1803876Y37416963D01*
X2098689Y37714420D01*
X2393502Y38011877D01*
X2590547Y37838432D01*
X2656794Y37783702D01*
X2839288Y37653316D01*
X3017179Y37547743D01*
X3101187Y37507402D01*
X3213023Y37467295D01*
X3339027Y37443981D01*
X3505750Y37433152D01*
X3739742Y37430499D01*
X3948477Y37432261D01*
X4118151Y37441203D01*
X4244379Y37461960D01*
X4353852Y37499150D01*
X4473260Y37557390D01*
X4616510Y37645817D01*
X4854127Y37851988D01*
X5047990Y38096652D01*
X5173775Y38352212D01*
X5235453Y38628608D01*
X5251584Y38952180D01*
X5216941Y39267715D01*
X5132776Y39538958D01*
X4969383Y39811586D01*
X4718107Y40076666D01*
X4416899Y40274599D01*
X4392595Y40286370D01*
X4265256Y40338526D01*
X4133940Y40369559D01*
X3968739Y40384494D01*
X3739742Y40388355D01*
X3615844Y40387643D01*
X3429075Y40379874D01*
X3287994Y40358649D01*
X3160804Y40317975D01*
X3015711Y40251855D01*
X2885681Y40181353D01*
X2701024Y40063300D01*
X2554898Y39950198D01*
X2372090Y39785042D01*
X2081702Y40077961D01*
X1791313Y40370879D01*
X1955639Y40512533D01*
X2144908Y40666543D01*
X2479663Y40888760D01*
X2835467Y41057651D01*
X2875585Y41073329D01*
X3015124Y41122398D01*
X3145572Y41154335D01*
X3292666Y41172709D01*
X3482144Y41181089D01*
X3739742Y41183043D01*
X3979253Y41181051D01*
G37*
G36*
X-8750014Y37545356D02*
G01*
X-8763150Y37348453D01*
X-8848336Y37039421D01*
X-9006916Y36778747D01*
X-9232177Y36576092D01*
X-9517406Y36441116D01*
X-9781123Y36389917D01*
X-10120558Y36404987D01*
X-10458795Y36504074D01*
X-10779683Y36684069D01*
X-10878860Y36753325D01*
X-10978440Y36818468D01*
X-11026171Y36843623D01*
X-11031390Y36838868D01*
X-11044349Y36773480D01*
X-11049537Y36655823D01*
X-11049537Y36468023D01*
X-11616036Y36468023D01*
X-12182534Y36468023D01*
X-12167018Y37888263D01*
X-12165643Y38010936D01*
X-12162966Y38214396D01*
X-11049537Y38214396D01*
X-11049537Y37814539D01*
X-11049537Y37414683D01*
X-10877651Y37308452D01*
X-10868813Y37303109D01*
X-10685795Y37227350D01*
X-10473951Y37187481D01*
X-10269968Y37187236D01*
X-10110535Y37230351D01*
X-10019227Y37298010D01*
X-9923018Y37448660D01*
X-9890510Y37627319D01*
X-9924826Y37806105D01*
X-10029091Y37957134D01*
X-10063921Y37986065D01*
X-10224646Y38073487D01*
X-10450823Y38137745D01*
X-10756099Y38183079D01*
X-11049537Y38214396D01*
X-12162966Y38214396D01*
X-12160555Y38397699D01*
X-12154732Y38704942D01*
X-12147463Y38943926D01*
X-12138036Y39125913D01*
X-12125737Y39262163D01*
X-12109856Y39363939D01*
X-12089679Y39442502D01*
X-12064493Y39509113D01*
X-12021883Y39592524D01*
X-11853596Y39805887D01*
X-11627698Y39985720D01*
X-11370610Y40109172D01*
X-11182307Y40159261D01*
X-10840098Y40210599D01*
X-10452997Y40232244D01*
X-10047659Y40224085D01*
X-9650744Y40186009D01*
X-9288908Y40117905D01*
X-9054158Y40059705D01*
X-9040659Y39625416D01*
X-9039016Y39560566D01*
X-9040272Y39362904D01*
X-9052270Y39235967D01*
X-9074133Y39191128D01*
X-9110593Y39198376D01*
X-9217612Y39232360D01*
X-9358681Y39284771D01*
X-9532825Y39345079D01*
X-9879280Y39423467D01*
X-10218557Y39451176D01*
X-10517577Y39424225D01*
X-10695463Y39370659D01*
X-10882064Y39265813D01*
X-11005142Y39132561D01*
X-11049537Y38983464D01*
X-11048801Y38951043D01*
X-11031161Y38891977D01*
X-10970586Y38867387D01*
X-10841659Y38862477D01*
X-10838365Y38862471D01*
X-10683892Y38855341D01*
X-10480945Y38837329D01*
X-10272538Y38812233D01*
X-10037727Y38774053D01*
X-9629352Y38671691D01*
X-9303557Y38532584D01*
X-9056534Y38353566D01*
X-8884474Y38131468D01*
X-8783570Y37863120D01*
X-8758669Y37627319D01*
X-8750014Y37545356D01*
G37*
G36*
X1568723Y38897690D02*
G01*
X1573344Y37974466D01*
X1580883Y36468023D01*
X441921Y36468838D01*
X235808Y36469599D01*
X-229113Y36477815D01*
X-615865Y36496937D01*
X-935526Y36529337D01*
X-1199174Y36577385D01*
X-1417887Y36643456D01*
X-1602741Y36729919D01*
X-1764816Y36839147D01*
X-1915190Y36973512D01*
X-1979381Y37038859D01*
X-2098653Y37177619D01*
X-2175934Y37311102D01*
X-2219639Y37464009D01*
X-2238185Y37661043D01*
X-2239985Y37926906D01*
X-2239409Y37966877D01*
X-2237563Y38009538D01*
X-1087730Y38009538D01*
X-1077077Y37903928D01*
X-1028386Y37759668D01*
X-969670Y37630168D01*
X-883404Y37527161D01*
X-749988Y37450140D01*
X-690670Y37426005D01*
X-544809Y37388118D01*
X-355746Y37367626D01*
X-98428Y37361105D01*
X359336Y37360074D01*
X359336Y37974466D01*
X359336Y38588857D01*
X-177325Y38573079D01*
X-357674Y38565611D01*
X-599351Y38541955D01*
X-772973Y38498097D01*
X-894574Y38426616D01*
X-980193Y38320089D01*
X-1045865Y38171095D01*
X-1062309Y38122802D01*
X-1087730Y38009538D01*
X-2237563Y38009538D01*
X-2227671Y38238187D01*
X-2198152Y38439982D01*
X-2143678Y38593488D01*
X-2057074Y38719928D01*
X-1931168Y38840524D01*
X-1913011Y38855613D01*
X-1779445Y38950829D01*
X-1620853Y39031758D01*
X-1403929Y39115790D01*
X-1351365Y39141737D01*
X-1363823Y39174274D01*
X-1450881Y39232270D01*
X-1532423Y39288758D01*
X-1707806Y39454537D01*
X-1852163Y39647928D01*
X-1938396Y39835408D01*
X-1954966Y39903413D01*
X-1962339Y39970775D01*
X-769039Y39970775D01*
X-749074Y39782123D01*
X-671469Y39615883D01*
X-537065Y39498552D01*
X-489286Y39478396D01*
X-295801Y39439124D01*
X-18597Y39425878D01*
X359336Y39425878D01*
X359336Y39948072D01*
X359336Y40470266D01*
X-51478Y40449851D01*
X-97298Y40447250D01*
X-302790Y40427347D01*
X-467387Y40398285D01*
X-564588Y40364475D01*
X-632677Y40309329D01*
X-730521Y40155343D01*
X-769039Y39970775D01*
X-1962339Y39970775D01*
X-1984594Y40174089D01*
X-1965454Y40443094D01*
X-1899431Y40670056D01*
X-1822254Y40810021D01*
X-1698204Y40959181D01*
X-1536616Y41080537D01*
X-1329575Y41176159D01*
X-1069164Y41248119D01*
X-747466Y41298487D01*
X-356565Y41329334D01*
X111455Y41342732D01*
X664511Y41340750D01*
X1556563Y41327357D01*
X1563466Y39948072D01*
X1568723Y38897690D01*
G37*
G36*
X-5044324Y41176156D02*
G01*
X-5036211Y41144896D01*
X-5003825Y41017602D01*
X-4953412Y40817781D01*
X-4888143Y40558064D01*
X-4811191Y40251081D01*
X-4725727Y39909463D01*
X-4634923Y39545840D01*
X-4610737Y39449137D01*
X-4503137Y39025988D01*
X-4414642Y38691349D01*
X-4344468Y38442541D01*
X-4291829Y38276882D01*
X-4255939Y38191691D01*
X-4236013Y38184288D01*
X-4224889Y38225951D01*
X-4196406Y38350268D01*
X-4154338Y38542344D01*
X-4101445Y38788879D01*
X-4040487Y39076573D01*
X-3974226Y39392125D01*
X-3905422Y39722236D01*
X-3836835Y40053604D01*
X-3771227Y40372930D01*
X-3711357Y40666913D01*
X-3659985Y40922253D01*
X-3619874Y41125650D01*
X-3593783Y41263803D01*
X-3584472Y41323412D01*
X-3581438Y41326104D01*
X-3516054Y41335802D01*
X-3378329Y41343654D01*
X-3185421Y41348913D01*
X-2954488Y41350832D01*
X-2324504Y41350832D01*
X-2931833Y38950567D01*
X-2981372Y38754985D01*
X-3095549Y38305783D01*
X-3202420Y37887481D01*
X-3299757Y37508672D01*
X-3385329Y37177953D01*
X-3456908Y36903918D01*
X-3512264Y36695161D01*
X-3549169Y36560277D01*
X-3565393Y36507861D01*
X-3571776Y36503437D01*
X-3648752Y36489920D01*
X-3796663Y36480726D01*
X-3997589Y36476642D01*
X-4233611Y36478458D01*
X-4875600Y36491498D01*
X-5257047Y37993901D01*
X-5322251Y38248090D01*
X-5409814Y38580853D01*
X-5489104Y38872329D01*
X-5557271Y39112543D01*
X-5611463Y39291522D01*
X-5648827Y39399292D01*
X-5666511Y39425878D01*
X-5672646Y39406750D01*
X-5701155Y39305393D01*
X-5748474Y39130265D01*
X-5811535Y38892937D01*
X-5887274Y38604981D01*
X-5972625Y38277970D01*
X-6064523Y37923475D01*
X-6434518Y36491498D01*
X-7096621Y36478484D01*
X-7758724Y36465471D01*
X-7804738Y36642809D01*
X-7822284Y36710977D01*
X-7865246Y36879559D01*
X-7924315Y37112550D01*
X-7996885Y37399586D01*
X-8080352Y37730303D01*
X-8172111Y38094338D01*
X-8269557Y38481326D01*
X-8370085Y38880905D01*
X-8471090Y39282709D01*
X-8569968Y39676376D01*
X-8664113Y40051541D01*
X-8750921Y40397841D01*
X-8827787Y40704912D01*
X-8892106Y40962390D01*
X-8941273Y41159911D01*
X-8972684Y41287111D01*
X-8983733Y41333626D01*
X-8982527Y41334717D01*
X-8925021Y41341015D01*
X-8793995Y41346135D01*
X-8607000Y41349574D01*
X-8381587Y41350832D01*
X-7779441Y41350832D01*
X-7433692Y39754529D01*
X-7364135Y39436059D01*
X-7286925Y39089062D01*
X-7217009Y38781770D01*
X-7156834Y38524612D01*
X-7108847Y38328016D01*
X-7075493Y38202412D01*
X-7059219Y38158226D01*
X-7046190Y38189405D01*
X-7013312Y38302133D01*
X-6964067Y38487198D01*
X-6901101Y38734199D01*
X-6827059Y39032733D01*
X-6744586Y39372398D01*
X-6656325Y39742792D01*
X-6282155Y41327357D01*
X-5686698Y41340481D01*
X-5091241Y41353605D01*
X-5044324Y41176156D01*
G37*
G36*
X-14473296Y39003918D02*
G01*
X-14394220Y38750424D01*
X-14304556Y38468210D01*
X-14226343Y38227756D01*
X-14163559Y38041078D01*
X-14120183Y37920193D01*
X-14100194Y37877116D01*
X-14084540Y37907183D01*
X-14042525Y38015348D01*
X-13979085Y38190929D01*
X-13898421Y38422042D01*
X-13804732Y38696802D01*
X-13702217Y39003328D01*
X-13328814Y40130130D01*
X-12734584Y40130130D01*
X-12140354Y40130130D01*
X-12810530Y38345055D01*
X-13480706Y36559981D01*
X-13328564Y36173613D01*
X-13262697Y36009755D01*
X-13206061Y35887481D01*
X-13158575Y35822268D01*
X-13107537Y35797506D01*
X-13040244Y35796585D01*
X-12986273Y35800611D01*
X-12842596Y35811839D01*
X-12630643Y35828676D01*
X-12364933Y35849962D01*
X-12059983Y35874537D01*
X-11730313Y35901241D01*
X-11248281Y35939605D01*
X-10691135Y35981236D01*
X-10177889Y36015730D01*
X-9688857Y36043996D01*
X-9204354Y36066946D01*
X-8704695Y36085489D01*
X-8170195Y36100536D01*
X-7581168Y36112996D01*
X-6917929Y36123781D01*
X-5999357Y36129774D01*
X-4366971Y36107436D01*
X-2672109Y36044996D01*
X-928328Y35943698D01*
X850812Y35804785D01*
X2651756Y35629502D01*
X4460946Y35419093D01*
X6264823Y35174801D01*
X8049830Y34897871D01*
X9802411Y34589546D01*
X10348443Y34487517D01*
X10418360Y34136143D01*
X10446687Y33991686D01*
X10465706Y33873533D01*
X10463475Y33815740D01*
X10438372Y33800431D01*
X10388778Y33809734D01*
X10384017Y33810914D01*
X10264091Y33837148D01*
X10064605Y33877109D01*
X9797718Y33928577D01*
X9475589Y33989335D01*
X9110378Y34057161D01*
X8714243Y34129838D01*
X8299343Y34205145D01*
X7877838Y34280863D01*
X7461887Y34354772D01*
X7063649Y34424654D01*
X6695282Y34488290D01*
X6368947Y34543459D01*
X5330389Y34712328D01*
X3851240Y34936682D01*
X2422330Y35132528D01*
X1021099Y35302356D01*
X-375013Y35448654D01*
X-1788564Y35573912D01*
X-3242115Y35680619D01*
X-4758225Y35771265D01*
X-4806242Y35773767D01*
X-5183856Y35789551D01*
X-5626223Y35802430D01*
X-6118926Y35812404D01*
X-6647545Y35819474D01*
X-7197660Y35823639D01*
X-7754853Y35824897D01*
X-8304706Y35823250D01*
X-8832798Y35818697D01*
X-9324711Y35811236D01*
X-9766026Y35800869D01*
X-10142324Y35787594D01*
X-10439186Y35771412D01*
X-10651114Y35756369D01*
X-11025364Y35728805D01*
X-11400654Y35700043D01*
X-11765147Y35671083D01*
X-12107007Y35642928D01*
X-12414397Y35616581D01*
X-12675481Y35593043D01*
X-12878423Y35573317D01*
X-13011384Y35558404D01*
X-13062531Y35549306D01*
X-13064450Y35537677D01*
X-13046689Y35461803D01*
X-13004223Y35343168D01*
X-12928301Y35153420D01*
X-13532576Y35153420D01*
X-14136851Y35153420D01*
X-14195193Y35294270D01*
X-14212128Y35337107D01*
X-14231975Y35376794D01*
X-14262591Y35404612D01*
X-14315815Y35421256D01*
X-14403484Y35427419D01*
X-14537438Y35423796D01*
X-14729515Y35411081D01*
X-14991553Y35389970D01*
X-15335391Y35361155D01*
X-15340226Y35360752D01*
X-15621762Y35338892D01*
X-15873193Y35322355D01*
X-16078666Y35311945D01*
X-16222331Y35308469D01*
X-16288337Y35312732D01*
X-16335703Y35336157D01*
X-16346568Y35364146D01*
X-16296598Y35391733D01*
X-16179235Y35420437D01*
X-15987921Y35451777D01*
X-15716098Y35487274D01*
X-15357208Y35528445D01*
X-15247328Y35540593D01*
X-14962766Y35572643D01*
X-14716384Y35601233D01*
X-14521976Y35624713D01*
X-14393337Y35641430D01*
X-14344263Y35649734D01*
X-14344031Y35651224D01*
X-14359013Y35703699D01*
X-14402442Y35831785D01*
X-14474816Y36036851D01*
X-14576633Y36320267D01*
X-14708392Y36683401D01*
X-14870592Y37127624D01*
X-15063730Y37654306D01*
X-15288305Y38264814D01*
X-15544815Y38960520D01*
X-15833759Y39742792D01*
X-15976935Y40130130D01*
X-15399379Y40130130D01*
X-14821824Y40130130D01*
X-14473296Y39003918D01*
G37*
%TO.C,J4*%
D10*
X62701458Y-13285281D02*
X62701458Y-10525281D01*
X95831458Y-10525281D02*
X62701458Y-10525281D01*
X95831458Y-13285281D02*
X62701458Y-13285281D01*
X95831458Y-13285281D02*
X95831458Y-10525281D01*
X97101458Y-13285281D02*
X98481458Y-13285281D01*
X98481458Y-13285281D02*
X98481458Y-11905281D01*
%TD*%
M02*
