%TF.GenerationSoftware,KiCad,Pcbnew,10.0.4*%
%TF.CreationDate,2026-09-19T08:13:50+12:00*%
%TF.ProjectId,MicroDev128,4d696372-6f44-4657-9631-32382e6b6963,Rev 1B*%
%TF.SameCoordinates,PX5f5e100PY5f5e100*%
%TF.FileFunction,Copper,L3,Inr*%
%TF.FilePolarity,Positive*%
%FSLAX46Y46*%
G04 Gerber Fmt 4.6, Leading zero omitted, Abs format (unit mm)*
G04 Created by KiCad (PCBNEW 10.0.4) date 2026-09-19 08:13:50*
%MOMM*%
%LPD*%
G01*
G04 APERTURE LIST*
%TA.AperFunction,ComponentPad*%
%ADD10R,1.700000X1.700000*%
%TD*%
%TA.AperFunction,ComponentPad*%
%ADD11C,1.700000*%
%TD*%
%TA.AperFunction,ViaPad*%
%ADD12C,0.500000*%
%TD*%
%TA.AperFunction,Conductor*%
%ADD13C,0.400000*%
%TD*%
%TA.AperFunction,Conductor*%
%ADD14C,1.000000*%
%TD*%
%TA.AperFunction,Conductor*%
%ADD15C,2.000000*%
%TD*%
%TA.AperFunction,Conductor*%
%ADD16C,0.200000*%
%TD*%
G04 APERTURE END LIST*
D10*
%TO.N,Net-(J1-Pin_1)*%
%TO.C,J1*%
X58483083Y-17480000D03*
D11*
%TO.N,Net-(J1-Pin_2)*%
X58483083Y-20020000D03*
%TO.N,GND*%
X58483083Y-22560000D03*
%TD*%
D10*
%TO.N,Net-(J3-Pin_1)*%
%TO.C,J3*%
X97101458Y-27116270D03*
D11*
%TO.N,Net-(J3-Pin_2)*%
X94561458Y-27116270D03*
%TO.N,Net-(J3-Pin_3)*%
X92021458Y-27116270D03*
%TO.N,Net-(J3-Pin_4)*%
X89481458Y-27116270D03*
%TO.N,Net-(J3-Pin_5)*%
X86941458Y-27116270D03*
%TO.N,Net-(J3-Pin_6)*%
X84401458Y-27116270D03*
%TO.N,Net-(J3-Pin_7)*%
X81861458Y-27116270D03*
%TO.N,Net-(J3-Pin_8)*%
X79321458Y-27116270D03*
%TO.N,Net-(J3-Pin_9)*%
X76781458Y-27116270D03*
%TO.N,Net-(J3-Pin_10)*%
X74241458Y-27116270D03*
%TO.N,Net-(J3-Pin_11)*%
X71701458Y-27116270D03*
%TO.N,Net-(J3-Pin_12)*%
X69161458Y-27116270D03*
%TO.N,Net-(J3-Pin_13)*%
X66621458Y-27116270D03*
%TO.N,Net-(J3-Pin_14)*%
X64081458Y-27116270D03*
%TD*%
D10*
%TO.N,EXT IO V*%
%TO.C,J4*%
X97101458Y-11905281D03*
D11*
%TO.N,VDC*%
X94561458Y-11905281D03*
%TO.N,GND*%
X92021458Y-11905281D03*
X89481458Y-11905281D03*
%TO.N,+3.3V*%
X86941458Y-11905281D03*
%TO.N,+5V*%
X84401458Y-11905281D03*
%TO.N,Net-(J4-Pin_7)*%
X81861458Y-11905281D03*
%TO.N,Net-(J4-Pin_8)*%
X79321458Y-11905281D03*
%TO.N,Net-(J4-Pin_9)*%
X76781458Y-11905281D03*
%TO.N,Net-(J4-Pin_10)*%
X74241458Y-11905281D03*
%TO.N,Net-(J4-Pin_11)*%
X71701458Y-11905281D03*
%TO.N,Net-(J4-Pin_12)*%
X69161458Y-11905281D03*
%TO.N,Net-(J4-Pin_13)*%
X66621458Y-11905281D03*
%TO.N,Net-(J4-Pin_14)*%
X64081458Y-11905281D03*
%TD*%
D12*
%TO.N,+5V*%
X80362206Y-25439124D03*
X97643083Y-14000000D03*
X79803083Y-25460000D03*
X97238083Y-13595000D03*
X71691024Y-22740000D03*
X83653083Y-19570000D03*
X99493083Y-16910000D03*
X79803083Y-24890000D03*
X99553083Y-20170000D03*
X62703083Y-26040000D03*
X99543083Y-23170000D03*
X85563083Y-17908626D03*
%TO.N,GND*%
X104503083Y-18850000D03*
X90763083Y-19130000D03*
X89763083Y-18130000D03*
X76563083Y-22880000D03*
X69353083Y-22900000D03*
X62623083Y-17440000D03*
X98563083Y-21090000D03*
X68353083Y-21900000D03*
X69353083Y-21900000D03*
X83213083Y-18780000D03*
X90763083Y-20130000D03*
X68353083Y-20900000D03*
X104503083Y-19800000D03*
X68353083Y-22900000D03*
X88763083Y-18130000D03*
X88763083Y-20130000D03*
X69353083Y-20900000D03*
X83453083Y-20480000D03*
X90763083Y-18130000D03*
X76563083Y-19170000D03*
X62513083Y-24500000D03*
X98453083Y-13390000D03*
X89763083Y-20130000D03*
X95633083Y-15420000D03*
X103513083Y-11820000D03*
X58123083Y-26270000D03*
X58023083Y-14070000D03*
X88763083Y-19130000D03*
X89763083Y-19130000D03*
X104723083Y-26200000D03*
X98553083Y-17640000D03*
%TO.N,+3.3V*%
X71223083Y-21410000D03*
X102643083Y-19890000D03*
X70623083Y-23760000D03*
X79123083Y-17960000D03*
X80168083Y-17690000D03*
X79483083Y-19300000D03*
%TO.N,Net-(J4-Pin_7)*%
X83168894Y-15005811D03*
%TO.N,/F1*%
X85852023Y-18808626D03*
X101163083Y-26120000D03*
%TO.N,Net-(J1-Pin_2)*%
X84253083Y-20510000D03*
%TO.N,Net-(U2-RT)*%
X71987207Y-23654124D03*
X72141024Y-21470000D03*
X66153083Y-22690000D03*
%TO.N,Net-(J3-Pin_13)*%
X92053083Y-22370000D03*
%TO.N,Net-(J3-Pin_12)*%
X92553083Y-21890000D03*
%TO.N,Net-(J3-Pin_11)*%
X93016540Y-22271065D03*
%TO.N,Net-(J3-Pin_10)*%
X93395264Y-20127819D03*
%TO.N,Net-(J3-Pin_9)*%
X93473083Y-19460000D03*
%TO.N,Net-(J3-Pin_8)*%
X93104848Y-18482941D03*
%TO.N,Net-(J3-Pin_7)*%
X93071046Y-17883891D03*
%TO.N,Net-(J3-Pin_6)*%
X93239142Y-17307917D03*
%TO.N,Net-(J3-Pin_5)*%
X92533083Y-16850000D03*
%TO.N,Net-(U1-VDDIO2)*%
X91060908Y-15776588D03*
X92433083Y-15050000D03*
%TO.N,Net-(J4-Pin_8)*%
X90461334Y-15753965D03*
%TO.N,Net-(J4-Pin_9)*%
X89869504Y-15655291D03*
%TO.N,Net-(J4-Pin_10)*%
X89233083Y-15650000D03*
%TO.N,Net-(J4-Pin_11)*%
X86503083Y-15890000D03*
%TO.N,Net-(J4-Pin_12)*%
X87061157Y-16335529D03*
%TO.N,Net-(J4-Pin_13)*%
X86573083Y-16790000D03*
%TO.N,Net-(J4-Pin_14)*%
X85883083Y-17240000D03*
%TO.N,Net-(J3-Pin_1)*%
X86302022Y-21284173D03*
%TO.N,Net-(J3-Pin_2)*%
X87032702Y-21355000D03*
%TO.N,Net-(J3-Pin_3)*%
X87538083Y-21678403D03*
%TO.N,Net-(J3-Pin_4)*%
X88033083Y-22260000D03*
%TO.N,Net-(J3-Pin_14)*%
X91543083Y-22710000D03*
%TD*%
%TO.N,+3.3V*%
D13*
X70623083Y-21990000D02*
X70623083Y-23760000D01*
D14*
X80168083Y-17690000D02*
X79393083Y-17690000D01*
D13*
X85583894Y-24520000D02*
X85583894Y-25060811D01*
D15*
X79483083Y-19220000D02*
X80168083Y-18535000D01*
X86941458Y-13142436D02*
X81163894Y-18920000D01*
D13*
X79593894Y-20490000D02*
X72143083Y-20490000D01*
D15*
X81163894Y-18920000D02*
X79863083Y-18920000D01*
D13*
X85583894Y-25060811D02*
X86043083Y-25520000D01*
D15*
X79483083Y-19300000D02*
X79483083Y-19220000D01*
X81863083Y-18220811D02*
X81863083Y-20799189D01*
X81863083Y-20799189D02*
X85583894Y-24520000D01*
X80168083Y-18535000D02*
X80168083Y-17690000D01*
D13*
X71203083Y-21410000D02*
X70623083Y-21990000D01*
X72143083Y-20490000D02*
X71223083Y-21410000D01*
X81163894Y-18920000D02*
X79593894Y-20490000D01*
D14*
X79393083Y-17690000D02*
X79123083Y-17960000D01*
D13*
X71223083Y-21410000D02*
X71203083Y-21410000D01*
X95083083Y-25520000D02*
X100713083Y-19890000D01*
D15*
X86941458Y-11905281D02*
X86941458Y-13142436D01*
D13*
X100713083Y-19890000D02*
X102643083Y-19890000D01*
D15*
X79863083Y-18920000D02*
X79483083Y-19300000D01*
X86941458Y-13142436D02*
X81863083Y-18220811D01*
D13*
X86043083Y-25520000D02*
X95083083Y-25520000D01*
%TO.N,Net-(J4-Pin_7)*%
D16*
X83168894Y-13212717D02*
X81861458Y-11905281D01*
X83168894Y-15005811D02*
X83168894Y-13212717D01*
%TO.N,/F1*%
X93554848Y-18669338D02*
X90724186Y-21500000D01*
X103119477Y-18669338D02*
X93554848Y-18669338D01*
X101163083Y-26120000D02*
X104873083Y-22410000D01*
X103843083Y-20540000D02*
X103843083Y-19392944D01*
X103843083Y-19392944D02*
X103119477Y-18669338D01*
X104873083Y-22410000D02*
X104873083Y-21570000D01*
X88543397Y-21500000D02*
X85852023Y-18808626D01*
X90724186Y-21500000D02*
X88543397Y-21500000D01*
X104873083Y-21570000D02*
X103843083Y-20540000D01*
%TO.N,Net-(U2-RT)*%
X68503083Y-25040000D02*
X66153083Y-22690000D01*
X72141024Y-23668456D02*
X70769480Y-25040000D01*
X72141024Y-23290000D02*
X72141024Y-23668456D01*
X71987207Y-23654124D02*
X71987207Y-23443817D01*
X71987207Y-23443817D02*
X72141024Y-23290000D01*
X70769480Y-25040000D02*
X68503083Y-25040000D01*
X72141024Y-21470000D02*
X72141024Y-23290000D01*
%TD*%
%TA.AperFunction,Conductor*%
%TO.N,+5V*%
G36*
X63738266Y-10690960D02*
G01*
X63784021Y-10743764D01*
X63793965Y-10812922D01*
X63764940Y-10876478D01*
X63718680Y-10909835D01*
X63705744Y-10915193D01*
X63580072Y-10967248D01*
X63580063Y-10967253D01*
X63406703Y-11083089D01*
X63406699Y-11083092D01*
X63259269Y-11230522D01*
X63259266Y-11230526D01*
X63143430Y-11403886D01*
X63143425Y-11403895D01*
X63063635Y-11596527D01*
X63063633Y-11596535D01*
X63022958Y-11801023D01*
X63022958Y-12009538D01*
X63063633Y-12214026D01*
X63063635Y-12214034D01*
X63143425Y-12406666D01*
X63143430Y-12406675D01*
X63259266Y-12580035D01*
X63259269Y-12580039D01*
X63406699Y-12727469D01*
X63406703Y-12727472D01*
X63580063Y-12843308D01*
X63580069Y-12843311D01*
X63580070Y-12843312D01*
X63772705Y-12923104D01*
X63922356Y-12952871D01*
X63977200Y-12963780D01*
X63977204Y-12963781D01*
X63977205Y-12963781D01*
X64185712Y-12963781D01*
X64185713Y-12963780D01*
X64390211Y-12923104D01*
X64582846Y-12843312D01*
X64756213Y-12727472D01*
X64903649Y-12580036D01*
X65019489Y-12406669D01*
X65099281Y-12214034D01*
X65139958Y-12009534D01*
X65139958Y-11801028D01*
X65099281Y-11596528D01*
X65035014Y-11441373D01*
X65019490Y-11403895D01*
X65019485Y-11403886D01*
X64903649Y-11230526D01*
X64903646Y-11230522D01*
X64756216Y-11083092D01*
X64756212Y-11083089D01*
X64582852Y-10967253D01*
X64582843Y-10967248D01*
X64463274Y-10917721D01*
X64444235Y-10909835D01*
X64389833Y-10865995D01*
X64367768Y-10799701D01*
X64385047Y-10732002D01*
X64436184Y-10684391D01*
X64491689Y-10671275D01*
X66211227Y-10671275D01*
X66278266Y-10690960D01*
X66324021Y-10743764D01*
X66333965Y-10812922D01*
X66304940Y-10876478D01*
X66258680Y-10909835D01*
X66245744Y-10915193D01*
X66120072Y-10967248D01*
X66120063Y-10967253D01*
X65946703Y-11083089D01*
X65946699Y-11083092D01*
X65799269Y-11230522D01*
X65799266Y-11230526D01*
X65683430Y-11403886D01*
X65683425Y-11403895D01*
X65603635Y-11596527D01*
X65603633Y-11596535D01*
X65562958Y-11801023D01*
X65562958Y-12009538D01*
X65603633Y-12214026D01*
X65603635Y-12214034D01*
X65683425Y-12406666D01*
X65683430Y-12406675D01*
X65799266Y-12580035D01*
X65799269Y-12580039D01*
X65946699Y-12727469D01*
X65946703Y-12727472D01*
X66120063Y-12843308D01*
X66120069Y-12843311D01*
X66120070Y-12843312D01*
X66312705Y-12923104D01*
X66462356Y-12952871D01*
X66517200Y-12963780D01*
X66517204Y-12963781D01*
X66517205Y-12963781D01*
X66725712Y-12963781D01*
X66725713Y-12963780D01*
X66930211Y-12923104D01*
X67122846Y-12843312D01*
X67296213Y-12727472D01*
X67443649Y-12580036D01*
X67559489Y-12406669D01*
X67639281Y-12214034D01*
X67679958Y-12009534D01*
X67679958Y-11801028D01*
X67639281Y-11596528D01*
X67575014Y-11441373D01*
X67559490Y-11403895D01*
X67559485Y-11403886D01*
X67443649Y-11230526D01*
X67443646Y-11230522D01*
X67296216Y-11083092D01*
X67296212Y-11083089D01*
X67122852Y-10967253D01*
X67122843Y-10967248D01*
X67003274Y-10917721D01*
X66984235Y-10909835D01*
X66929833Y-10865995D01*
X66907768Y-10799701D01*
X66925047Y-10732002D01*
X66976184Y-10684391D01*
X67031689Y-10671275D01*
X68751227Y-10671275D01*
X68818266Y-10690960D01*
X68864021Y-10743764D01*
X68873965Y-10812922D01*
X68844940Y-10876478D01*
X68798680Y-10909835D01*
X68785744Y-10915193D01*
X68660072Y-10967248D01*
X68660063Y-10967253D01*
X68486703Y-11083089D01*
X68486699Y-11083092D01*
X68339269Y-11230522D01*
X68339266Y-11230526D01*
X68223430Y-11403886D01*
X68223425Y-11403895D01*
X68143635Y-11596527D01*
X68143633Y-11596535D01*
X68102958Y-11801023D01*
X68102958Y-12009538D01*
X68143633Y-12214026D01*
X68143635Y-12214034D01*
X68223425Y-12406666D01*
X68223430Y-12406675D01*
X68339266Y-12580035D01*
X68339269Y-12580039D01*
X68486699Y-12727469D01*
X68486703Y-12727472D01*
X68660063Y-12843308D01*
X68660069Y-12843311D01*
X68660070Y-12843312D01*
X68852705Y-12923104D01*
X69002356Y-12952871D01*
X69057200Y-12963780D01*
X69057204Y-12963781D01*
X69057205Y-12963781D01*
X69265712Y-12963781D01*
X69265713Y-12963780D01*
X69470211Y-12923104D01*
X69662846Y-12843312D01*
X69836213Y-12727472D01*
X69983649Y-12580036D01*
X70099489Y-12406669D01*
X70179281Y-12214034D01*
X70219958Y-12009534D01*
X70219958Y-11801028D01*
X70179281Y-11596528D01*
X70115014Y-11441373D01*
X70099490Y-11403895D01*
X70099485Y-11403886D01*
X69983649Y-11230526D01*
X69983646Y-11230522D01*
X69836216Y-11083092D01*
X69836212Y-11083089D01*
X69662852Y-10967253D01*
X69662843Y-10967248D01*
X69543274Y-10917721D01*
X69524235Y-10909835D01*
X69469833Y-10865995D01*
X69447768Y-10799701D01*
X69465047Y-10732002D01*
X69516184Y-10684391D01*
X69571689Y-10671275D01*
X71291227Y-10671275D01*
X71358266Y-10690960D01*
X71404021Y-10743764D01*
X71413965Y-10812922D01*
X71384940Y-10876478D01*
X71338680Y-10909835D01*
X71325744Y-10915193D01*
X71200072Y-10967248D01*
X71200063Y-10967253D01*
X71026703Y-11083089D01*
X71026699Y-11083092D01*
X70879269Y-11230522D01*
X70879266Y-11230526D01*
X70763430Y-11403886D01*
X70763425Y-11403895D01*
X70683635Y-11596527D01*
X70683633Y-11596535D01*
X70642958Y-11801023D01*
X70642958Y-12009538D01*
X70683633Y-12214026D01*
X70683635Y-12214034D01*
X70763425Y-12406666D01*
X70763430Y-12406675D01*
X70879266Y-12580035D01*
X70879269Y-12580039D01*
X71026699Y-12727469D01*
X71026703Y-12727472D01*
X71200063Y-12843308D01*
X71200069Y-12843311D01*
X71200070Y-12843312D01*
X71392705Y-12923104D01*
X71542356Y-12952871D01*
X71597200Y-12963780D01*
X71597204Y-12963781D01*
X71597205Y-12963781D01*
X71805712Y-12963781D01*
X71805713Y-12963780D01*
X72010211Y-12923104D01*
X72202846Y-12843312D01*
X72376213Y-12727472D01*
X72523649Y-12580036D01*
X72639489Y-12406669D01*
X72719281Y-12214034D01*
X72759958Y-12009534D01*
X72759958Y-11801028D01*
X72719281Y-11596528D01*
X72655014Y-11441373D01*
X72639490Y-11403895D01*
X72639485Y-11403886D01*
X72523649Y-11230526D01*
X72523646Y-11230522D01*
X72376216Y-11083092D01*
X72376212Y-11083089D01*
X72202852Y-10967253D01*
X72202843Y-10967248D01*
X72083274Y-10917721D01*
X72064235Y-10909835D01*
X72009833Y-10865995D01*
X71987768Y-10799701D01*
X72005047Y-10732002D01*
X72056184Y-10684391D01*
X72111689Y-10671275D01*
X73831227Y-10671275D01*
X73898266Y-10690960D01*
X73944021Y-10743764D01*
X73953965Y-10812922D01*
X73924940Y-10876478D01*
X73878680Y-10909835D01*
X73865744Y-10915193D01*
X73740072Y-10967248D01*
X73740063Y-10967253D01*
X73566703Y-11083089D01*
X73566699Y-11083092D01*
X73419269Y-11230522D01*
X73419266Y-11230526D01*
X73303430Y-11403886D01*
X73303425Y-11403895D01*
X73223635Y-11596527D01*
X73223633Y-11596535D01*
X73182958Y-11801023D01*
X73182958Y-12009538D01*
X73223633Y-12214026D01*
X73223635Y-12214034D01*
X73303425Y-12406666D01*
X73303430Y-12406675D01*
X73419266Y-12580035D01*
X73419269Y-12580039D01*
X73566699Y-12727469D01*
X73566703Y-12727472D01*
X73740063Y-12843308D01*
X73740069Y-12843311D01*
X73740070Y-12843312D01*
X73932705Y-12923104D01*
X74082356Y-12952871D01*
X74137200Y-12963780D01*
X74137204Y-12963781D01*
X74137205Y-12963781D01*
X74345712Y-12963781D01*
X74345713Y-12963780D01*
X74550211Y-12923104D01*
X74742846Y-12843312D01*
X74916213Y-12727472D01*
X75063649Y-12580036D01*
X75179489Y-12406669D01*
X75259281Y-12214034D01*
X75299958Y-12009534D01*
X75299958Y-11801028D01*
X75259281Y-11596528D01*
X75195014Y-11441373D01*
X75179490Y-11403895D01*
X75179485Y-11403886D01*
X75063649Y-11230526D01*
X75063646Y-11230522D01*
X74916216Y-11083092D01*
X74916212Y-11083089D01*
X74742852Y-10967253D01*
X74742843Y-10967248D01*
X74623274Y-10917721D01*
X74604235Y-10909835D01*
X74549833Y-10865995D01*
X74527768Y-10799701D01*
X74545047Y-10732002D01*
X74596184Y-10684391D01*
X74651689Y-10671275D01*
X76371227Y-10671275D01*
X76438266Y-10690960D01*
X76484021Y-10743764D01*
X76493965Y-10812922D01*
X76464940Y-10876478D01*
X76418680Y-10909835D01*
X76405744Y-10915193D01*
X76280072Y-10967248D01*
X76280063Y-10967253D01*
X76106703Y-11083089D01*
X76106699Y-11083092D01*
X75959269Y-11230522D01*
X75959266Y-11230526D01*
X75843430Y-11403886D01*
X75843425Y-11403895D01*
X75763635Y-11596527D01*
X75763633Y-11596535D01*
X75722958Y-11801023D01*
X75722958Y-12009538D01*
X75763633Y-12214026D01*
X75763635Y-12214034D01*
X75843425Y-12406666D01*
X75843430Y-12406675D01*
X75959266Y-12580035D01*
X75959269Y-12580039D01*
X76106699Y-12727469D01*
X76106703Y-12727472D01*
X76280063Y-12843308D01*
X76280069Y-12843311D01*
X76280070Y-12843312D01*
X76472705Y-12923104D01*
X76622356Y-12952871D01*
X76677200Y-12963780D01*
X76677204Y-12963781D01*
X76677205Y-12963781D01*
X76885712Y-12963781D01*
X76885713Y-12963780D01*
X77090211Y-12923104D01*
X77282846Y-12843312D01*
X77456213Y-12727472D01*
X77603649Y-12580036D01*
X77719489Y-12406669D01*
X77799281Y-12214034D01*
X77839958Y-12009534D01*
X77839958Y-11801028D01*
X77799281Y-11596528D01*
X77735014Y-11441373D01*
X77719490Y-11403895D01*
X77719485Y-11403886D01*
X77603649Y-11230526D01*
X77603646Y-11230522D01*
X77456216Y-11083092D01*
X77456212Y-11083089D01*
X77282852Y-10967253D01*
X77282843Y-10967248D01*
X77163274Y-10917721D01*
X77144235Y-10909835D01*
X77089833Y-10865995D01*
X77067768Y-10799701D01*
X77085047Y-10732002D01*
X77136184Y-10684391D01*
X77191689Y-10671275D01*
X78911227Y-10671275D01*
X78978266Y-10690960D01*
X79024021Y-10743764D01*
X79033965Y-10812922D01*
X79004940Y-10876478D01*
X78958680Y-10909835D01*
X78945744Y-10915193D01*
X78820072Y-10967248D01*
X78820063Y-10967253D01*
X78646703Y-11083089D01*
X78646699Y-11083092D01*
X78499269Y-11230522D01*
X78499266Y-11230526D01*
X78383430Y-11403886D01*
X78383425Y-11403895D01*
X78303635Y-11596527D01*
X78303633Y-11596535D01*
X78262958Y-11801023D01*
X78262958Y-12009538D01*
X78303633Y-12214026D01*
X78303635Y-12214034D01*
X78383425Y-12406666D01*
X78383430Y-12406675D01*
X78499266Y-12580035D01*
X78499269Y-12580039D01*
X78646699Y-12727469D01*
X78646703Y-12727472D01*
X78820063Y-12843308D01*
X78820069Y-12843311D01*
X78820070Y-12843312D01*
X79012705Y-12923104D01*
X79162356Y-12952871D01*
X79217200Y-12963780D01*
X79217204Y-12963781D01*
X79217205Y-12963781D01*
X79425712Y-12963781D01*
X79425713Y-12963780D01*
X79630211Y-12923104D01*
X79822846Y-12843312D01*
X79996213Y-12727472D01*
X80143649Y-12580036D01*
X80259489Y-12406669D01*
X80339281Y-12214034D01*
X80379958Y-12009534D01*
X80379958Y-11801028D01*
X80339281Y-11596528D01*
X80275014Y-11441373D01*
X80259490Y-11403895D01*
X80259485Y-11403886D01*
X80143649Y-11230526D01*
X80143646Y-11230522D01*
X79996216Y-11083092D01*
X79996212Y-11083089D01*
X79822852Y-10967253D01*
X79822843Y-10967248D01*
X79703274Y-10917721D01*
X79684235Y-10909835D01*
X79629833Y-10865995D01*
X79607768Y-10799701D01*
X79625047Y-10732002D01*
X79676184Y-10684391D01*
X79731689Y-10671275D01*
X81451227Y-10671275D01*
X81518266Y-10690960D01*
X81564021Y-10743764D01*
X81573965Y-10812922D01*
X81544940Y-10876478D01*
X81498680Y-10909835D01*
X81485744Y-10915193D01*
X81360072Y-10967248D01*
X81360063Y-10967253D01*
X81186703Y-11083089D01*
X81186699Y-11083092D01*
X81039269Y-11230522D01*
X81039266Y-11230526D01*
X80923430Y-11403886D01*
X80923425Y-11403895D01*
X80843635Y-11596527D01*
X80843633Y-11596535D01*
X80802958Y-11801023D01*
X80802958Y-12009538D01*
X80843633Y-12214026D01*
X80843635Y-12214034D01*
X80923425Y-12406666D01*
X80923430Y-12406675D01*
X81039266Y-12580035D01*
X81039269Y-12580039D01*
X81186699Y-12727469D01*
X81186703Y-12727472D01*
X81360063Y-12843308D01*
X81360069Y-12843311D01*
X81360070Y-12843312D01*
X81552705Y-12923104D01*
X81702356Y-12952871D01*
X81757200Y-12963780D01*
X81757204Y-12963781D01*
X81757205Y-12963781D01*
X81965712Y-12963781D01*
X81965713Y-12963780D01*
X82170211Y-12923104D01*
X82286555Y-12874912D01*
X82356020Y-12867444D01*
X82418499Y-12898718D01*
X82421685Y-12901793D01*
X82824075Y-13304183D01*
X82857560Y-13365506D01*
X82860394Y-13391864D01*
X82860394Y-14614533D01*
X82840709Y-14681572D01*
X82824075Y-14702214D01*
X82802005Y-14724283D01*
X82802003Y-14724286D01*
X82741640Y-14828837D01*
X82710394Y-14945448D01*
X82710394Y-15066174D01*
X82741640Y-15182785D01*
X82802003Y-15287336D01*
X82802005Y-15287338D01*
X82857060Y-15342393D01*
X82890545Y-15403716D01*
X82885561Y-15473408D01*
X82857060Y-15517755D01*
X81353380Y-17021435D01*
X81292057Y-17054920D01*
X81222365Y-17049936D01*
X81166432Y-17008064D01*
X81165381Y-17006640D01*
X81089875Y-16902715D01*
X80955368Y-16768208D01*
X80801475Y-16656398D01*
X80631990Y-16570040D01*
X80451074Y-16511256D01*
X80263199Y-16481500D01*
X80263194Y-16481500D01*
X80072972Y-16481500D01*
X80072967Y-16481500D01*
X79885091Y-16511256D01*
X79704175Y-16570040D01*
X79534690Y-16656398D01*
X79471347Y-16702420D01*
X79380798Y-16768208D01*
X79380796Y-16768210D01*
X79380795Y-16768210D01*
X79246290Y-16902715D01*
X79182438Y-16990599D01*
X79129575Y-17032273D01*
X79057482Y-17062135D01*
X79057476Y-17062138D01*
X78941441Y-17139671D01*
X78941437Y-17139674D01*
X78572757Y-17508353D01*
X78572754Y-17508357D01*
X78495219Y-17624395D01*
X78495218Y-17624398D01*
X78441810Y-17753337D01*
X78441807Y-17753346D01*
X78414583Y-17890213D01*
X78414583Y-18029786D01*
X78441807Y-18166653D01*
X78441810Y-18166662D01*
X78495218Y-18295601D01*
X78526583Y-18342543D01*
X78547460Y-18409220D01*
X78528975Y-18476600D01*
X78523798Y-18484318D01*
X78449483Y-18586604D01*
X78363123Y-18756092D01*
X78304339Y-18937008D01*
X78274583Y-19124883D01*
X78274583Y-19395116D01*
X78304339Y-19582991D01*
X78363123Y-19763907D01*
X78433081Y-19901205D01*
X78445977Y-19969874D01*
X78419701Y-20034615D01*
X78362594Y-20074872D01*
X78322596Y-20081500D01*
X72089303Y-20081500D01*
X72031771Y-20096916D01*
X71985406Y-20109339D01*
X71985405Y-20109340D01*
X71892261Y-20163116D01*
X71892256Y-20163120D01*
X71105831Y-20949544D01*
X71050247Y-20981637D01*
X71046109Y-20982745D01*
X70941558Y-21043109D01*
X70941555Y-21043111D01*
X70856194Y-21128472D01*
X70856192Y-21128475D01*
X70795083Y-21234318D01*
X70775377Y-21259998D01*
X70372258Y-21663119D01*
X70296203Y-21739173D01*
X70296199Y-21739178D01*
X70242423Y-21832322D01*
X70242422Y-21832323D01*
X70234664Y-21861278D01*
X70214583Y-21936220D01*
X70214583Y-21936222D01*
X70214583Y-23517317D01*
X70197972Y-23579314D01*
X70195830Y-23583023D01*
X70195829Y-23583024D01*
X70192952Y-23593763D01*
X70164583Y-23699637D01*
X70164583Y-23820363D01*
X70195829Y-23936974D01*
X70256192Y-24041525D01*
X70341558Y-24126891D01*
X70446109Y-24187254D01*
X70562720Y-24218500D01*
X70562723Y-24218500D01*
X70683443Y-24218500D01*
X70683446Y-24218500D01*
X70800057Y-24187254D01*
X70800059Y-24187252D01*
X70800061Y-24187252D01*
X70800062Y-24187251D01*
X70904608Y-24126891D01*
X70989974Y-24041525D01*
X71050337Y-23936974D01*
X71081583Y-23820363D01*
X71081583Y-23699637D01*
X71050337Y-23583026D01*
X71048194Y-23579314D01*
X71031583Y-23517317D01*
X71031583Y-22210567D01*
X71051268Y-22143528D01*
X71067898Y-22122890D01*
X71313013Y-21877774D01*
X71368599Y-21845682D01*
X71400057Y-21837254D01*
X71504608Y-21776891D01*
X71570499Y-21710999D01*
X71584285Y-21703471D01*
X71595002Y-21691983D01*
X71614321Y-21687070D01*
X71631818Y-21677517D01*
X71647489Y-21678637D01*
X71662717Y-21674766D01*
X71681626Y-21681079D01*
X71701510Y-21682501D01*
X71714087Y-21691916D01*
X71728991Y-21696892D01*
X71754800Y-21720966D01*
X71760787Y-21728410D01*
X71774133Y-21751525D01*
X71800945Y-21778337D01*
X71805147Y-21783561D01*
X71816030Y-21809905D01*
X71829690Y-21834920D01*
X71829199Y-21841779D01*
X71831826Y-21848137D01*
X71832524Y-21861278D01*
X71832524Y-23110852D01*
X71812839Y-23177891D01*
X71796205Y-23198533D01*
X71740342Y-23254395D01*
X71737682Y-23257862D01*
X71711207Y-23281083D01*
X71712130Y-23282285D01*
X71705682Y-23287232D01*
X71620316Y-23372599D01*
X71592145Y-23421393D01*
X71559953Y-23477150D01*
X71528707Y-23593761D01*
X71528707Y-23593763D01*
X71528707Y-23714488D01*
X71537650Y-23747865D01*
X71535986Y-23817715D01*
X71505556Y-23867638D01*
X71047065Y-24326129D01*
X70678014Y-24695181D01*
X70616691Y-24728666D01*
X70590333Y-24731500D01*
X68682230Y-24731500D01*
X68615191Y-24711815D01*
X68594549Y-24695181D01*
X66647902Y-22748534D01*
X66614417Y-22687211D01*
X66611583Y-22660853D01*
X66611583Y-22629639D01*
X66611583Y-22629637D01*
X66580337Y-22513026D01*
X66519974Y-22408475D01*
X66434608Y-22323109D01*
X66330057Y-22262746D01*
X66213446Y-22231500D01*
X66092720Y-22231500D01*
X65976109Y-22262746D01*
X65976107Y-22262746D01*
X65976107Y-22262747D01*
X65871558Y-22323109D01*
X65871555Y-22323111D01*
X65786194Y-22408472D01*
X65786192Y-22408475D01*
X65763350Y-22448039D01*
X65725829Y-22513026D01*
X65694583Y-22629637D01*
X65694583Y-22750363D01*
X65725829Y-22866974D01*
X65786192Y-22971525D01*
X65871558Y-23056891D01*
X65976109Y-23117254D01*
X66092720Y-23148500D01*
X66123936Y-23148500D01*
X66190975Y-23168185D01*
X66211617Y-23184819D01*
X68313660Y-25286862D01*
X68356571Y-25311636D01*
X68356572Y-25311636D01*
X68384006Y-25327476D01*
X68462468Y-25348500D01*
X68462470Y-25348500D01*
X70810093Y-25348500D01*
X70810095Y-25348500D01*
X70888557Y-25327476D01*
X70915992Y-25311636D01*
X70958903Y-25286862D01*
X72153125Y-24092637D01*
X72178797Y-24072938D01*
X72268732Y-24021015D01*
X72354098Y-23935649D01*
X72414461Y-23831098D01*
X72419858Y-23810951D01*
X72426299Y-23795420D01*
X72425388Y-23795043D01*
X72428494Y-23787541D01*
X72428500Y-23787533D01*
X72449524Y-23709071D01*
X72449524Y-23249385D01*
X72449524Y-22819637D01*
X76104583Y-22819637D01*
X76104583Y-22940363D01*
X76135829Y-23056974D01*
X76196192Y-23161525D01*
X76281558Y-23246891D01*
X76386109Y-23307254D01*
X76502720Y-23338500D01*
X76502723Y-23338500D01*
X76623443Y-23338500D01*
X76623446Y-23338500D01*
X76740057Y-23307254D01*
X76844608Y-23246891D01*
X76929974Y-23161525D01*
X76990337Y-23056974D01*
X77021583Y-22940363D01*
X77021583Y-22819637D01*
X76990337Y-22703026D01*
X76929974Y-22598475D01*
X76844608Y-22513109D01*
X76740057Y-22452746D01*
X76623446Y-22421500D01*
X76502720Y-22421500D01*
X76386109Y-22452746D01*
X76386107Y-22452746D01*
X76386107Y-22452747D01*
X76281558Y-22513109D01*
X76281555Y-22513111D01*
X76196194Y-22598472D01*
X76196192Y-22598475D01*
X76138547Y-22698319D01*
X76135829Y-22703026D01*
X76104583Y-22819637D01*
X72449524Y-22819637D01*
X72449524Y-21861278D01*
X72469209Y-21794239D01*
X72485843Y-21773597D01*
X72490943Y-21768497D01*
X72507915Y-21751525D01*
X72568278Y-21646974D01*
X72599524Y-21530363D01*
X72599524Y-21409637D01*
X72568278Y-21293026D01*
X72507915Y-21188475D01*
X72429621Y-21110181D01*
X72396136Y-21048858D01*
X72401120Y-20979166D01*
X72442992Y-20923233D01*
X72508456Y-20898816D01*
X72517302Y-20898500D01*
X79647671Y-20898500D01*
X79647674Y-20898500D01*
X79751569Y-20870661D01*
X79844719Y-20816881D01*
X80442902Y-20218698D01*
X80504225Y-20185213D01*
X80573917Y-20190197D01*
X80629850Y-20232069D01*
X80654267Y-20297533D01*
X80654583Y-20306379D01*
X80654583Y-20894305D01*
X80684339Y-21082180D01*
X80743123Y-21263096D01*
X80806874Y-21388213D01*
X80829481Y-21432581D01*
X80941291Y-21586474D01*
X84796609Y-25441792D01*
X84950501Y-25553602D01*
X85119991Y-25639961D01*
X85119993Y-25639962D01*
X85177560Y-25658666D01*
X85300903Y-25698742D01*
X85488783Y-25728500D01*
X85622515Y-25728500D01*
X85689554Y-25748185D01*
X85710196Y-25764819D01*
X85716202Y-25770825D01*
X85792258Y-25846881D01*
X85885408Y-25900661D01*
X85989303Y-25928500D01*
X85989306Y-25928500D01*
X86419603Y-25928500D01*
X86486642Y-25948185D01*
X86532397Y-26000989D01*
X86542341Y-26070147D01*
X86513316Y-26133703D01*
X86467055Y-26167061D01*
X86440076Y-26178235D01*
X86440063Y-26178242D01*
X86266703Y-26294078D01*
X86266699Y-26294081D01*
X86119269Y-26441511D01*
X86119266Y-26441515D01*
X86003430Y-26614875D01*
X86003425Y-26614884D01*
X85923635Y-26807516D01*
X85923633Y-26807524D01*
X85882958Y-27012012D01*
X85882958Y-27220527D01*
X85923633Y-27425015D01*
X85923635Y-27425023D01*
X86003425Y-27617655D01*
X86003433Y-27617669D01*
X86100599Y-27763089D01*
X86121477Y-27829766D01*
X86102992Y-27897146D01*
X86051013Y-27943836D01*
X85998917Y-27955971D01*
X85341807Y-27963499D01*
X85274547Y-27944584D01*
X85228190Y-27892307D01*
X85217455Y-27823267D01*
X85237283Y-27770618D01*
X85339489Y-27617658D01*
X85419281Y-27425023D01*
X85459958Y-27220523D01*
X85459958Y-27012017D01*
X85419281Y-26807517D01*
X85356204Y-26655236D01*
X85339490Y-26614884D01*
X85339485Y-26614875D01*
X85223649Y-26441515D01*
X85223646Y-26441511D01*
X85076216Y-26294081D01*
X85076212Y-26294078D01*
X84902852Y-26178242D01*
X84902843Y-26178237D01*
X84710211Y-26098447D01*
X84710203Y-26098445D01*
X84505715Y-26057770D01*
X84505711Y-26057770D01*
X84297205Y-26057770D01*
X84297200Y-26057770D01*
X84092712Y-26098445D01*
X84092704Y-26098447D01*
X83900072Y-26178237D01*
X83900063Y-26178242D01*
X83726703Y-26294078D01*
X83726699Y-26294081D01*
X83579269Y-26441511D01*
X83579266Y-26441515D01*
X83463430Y-26614875D01*
X83463425Y-26614884D01*
X83383635Y-26807516D01*
X83383633Y-26807524D01*
X83342958Y-27012012D01*
X83342958Y-27220527D01*
X83383633Y-27425015D01*
X83383635Y-27425023D01*
X83463425Y-27617655D01*
X83463430Y-27617664D01*
X83547263Y-27743128D01*
X83579266Y-27791024D01*
X83579896Y-27791966D01*
X83600774Y-27858643D01*
X83582290Y-27926024D01*
X83530311Y-27972714D01*
X83478215Y-27984849D01*
X82781622Y-27992830D01*
X82714361Y-27973915D01*
X82668004Y-27921638D01*
X82657269Y-27852598D01*
X82681443Y-27796877D01*
X82680265Y-27796090D01*
X82799485Y-27617664D01*
X82799485Y-27617663D01*
X82799489Y-27617658D01*
X82879281Y-27425023D01*
X82919958Y-27220523D01*
X82919958Y-27012017D01*
X82879281Y-26807517D01*
X82816204Y-26655236D01*
X82799490Y-26614884D01*
X82799485Y-26614875D01*
X82683649Y-26441515D01*
X82683646Y-26441511D01*
X82536216Y-26294081D01*
X82536212Y-26294078D01*
X82362852Y-26178242D01*
X82362843Y-26178237D01*
X82170211Y-26098447D01*
X82170203Y-26098445D01*
X81965715Y-26057770D01*
X81965711Y-26057770D01*
X81757205Y-26057770D01*
X81757200Y-26057770D01*
X81552712Y-26098445D01*
X81552704Y-26098447D01*
X81360072Y-26178237D01*
X81360063Y-26178242D01*
X81186703Y-26294078D01*
X81186699Y-26294081D01*
X81039269Y-26441511D01*
X81039266Y-26441515D01*
X80923430Y-26614875D01*
X80923425Y-26614884D01*
X80843635Y-26807516D01*
X80843633Y-26807524D01*
X80802958Y-27012012D01*
X80802958Y-27220527D01*
X80843633Y-27425015D01*
X80843635Y-27425023D01*
X80923425Y-27617655D01*
X80923430Y-27617664D01*
X81039266Y-27791024D01*
X81039269Y-27791028D01*
X81050223Y-27801982D01*
X81083708Y-27863305D01*
X81078724Y-27932997D01*
X81036852Y-27988930D01*
X80971388Y-28013347D01*
X80963962Y-28013655D01*
X80213192Y-28022256D01*
X80145932Y-28003341D01*
X80099575Y-27951064D01*
X80088840Y-27882024D01*
X80117135Y-27818140D01*
X80124093Y-27810581D01*
X80143647Y-27791027D01*
X80143649Y-27791025D01*
X80259489Y-27617658D01*
X80339281Y-27425023D01*
X80379958Y-27220523D01*
X80379958Y-27012017D01*
X80339281Y-26807517D01*
X80276204Y-26655236D01*
X80259490Y-26614884D01*
X80259485Y-26614875D01*
X80143649Y-26441515D01*
X80143646Y-26441511D01*
X79996216Y-26294081D01*
X79996212Y-26294078D01*
X79822852Y-26178242D01*
X79822843Y-26178237D01*
X79630211Y-26098447D01*
X79630203Y-26098445D01*
X79425715Y-26057770D01*
X79425711Y-26057770D01*
X79217205Y-26057770D01*
X79217200Y-26057770D01*
X79012712Y-26098445D01*
X79012704Y-26098447D01*
X78820072Y-26178237D01*
X78820063Y-26178242D01*
X78646703Y-26294078D01*
X78646699Y-26294081D01*
X78499269Y-26441511D01*
X78499266Y-26441515D01*
X78383430Y-26614875D01*
X78383425Y-26614884D01*
X78303635Y-26807516D01*
X78303633Y-26807524D01*
X78262958Y-27012012D01*
X78262958Y-27220527D01*
X78303633Y-27425015D01*
X78303635Y-27425023D01*
X78383425Y-27617655D01*
X78383430Y-27617664D01*
X78499266Y-27791024D01*
X78499269Y-27791028D01*
X78538993Y-27830752D01*
X78572478Y-27892075D01*
X78567494Y-27961767D01*
X78525622Y-28017700D01*
X78460158Y-28042117D01*
X78452733Y-28042425D01*
X77643756Y-28051693D01*
X77576495Y-28032778D01*
X77530138Y-27980501D01*
X77519403Y-27911461D01*
X77547698Y-27847577D01*
X77554655Y-27840019D01*
X77603646Y-27791028D01*
X77603647Y-27791027D01*
X77603649Y-27791025D01*
X77719489Y-27617658D01*
X77799281Y-27425023D01*
X77839958Y-27220523D01*
X77839958Y-27012017D01*
X77799281Y-26807517D01*
X77736204Y-26655236D01*
X77719490Y-26614884D01*
X77719485Y-26614875D01*
X77603649Y-26441515D01*
X77603646Y-26441511D01*
X77456216Y-26294081D01*
X77456212Y-26294078D01*
X77282852Y-26178242D01*
X77282843Y-26178237D01*
X77090211Y-26098447D01*
X77090203Y-26098445D01*
X76885715Y-26057770D01*
X76885711Y-26057770D01*
X76677205Y-26057770D01*
X76677200Y-26057770D01*
X76472712Y-26098445D01*
X76472704Y-26098447D01*
X76280072Y-26178237D01*
X76280063Y-26178242D01*
X76106703Y-26294078D01*
X76106699Y-26294081D01*
X75959269Y-26441511D01*
X75959266Y-26441515D01*
X75843430Y-26614875D01*
X75843425Y-26614884D01*
X75763635Y-26807516D01*
X75763633Y-26807524D01*
X75722958Y-27012012D01*
X75722958Y-27220527D01*
X75763633Y-27425015D01*
X75763635Y-27425023D01*
X75843425Y-27617655D01*
X75843430Y-27617664D01*
X75959266Y-27791024D01*
X75959269Y-27791028D01*
X76027763Y-27859522D01*
X76061248Y-27920845D01*
X76056264Y-27990537D01*
X76014392Y-28046470D01*
X75948928Y-28070887D01*
X75941503Y-28071195D01*
X75074319Y-28081130D01*
X75007058Y-28062215D01*
X74960701Y-28009938D01*
X74949966Y-27940898D01*
X74978261Y-27877014D01*
X74985205Y-27869468D01*
X75063649Y-27791025D01*
X75179489Y-27617658D01*
X75259281Y-27425023D01*
X75299958Y-27220523D01*
X75299958Y-27012017D01*
X75259281Y-26807517D01*
X75196204Y-26655236D01*
X75179490Y-26614884D01*
X75179485Y-26614875D01*
X75063649Y-26441515D01*
X75063646Y-26441511D01*
X74916216Y-26294081D01*
X74916212Y-26294078D01*
X74742852Y-26178242D01*
X74742843Y-26178237D01*
X74550211Y-26098447D01*
X74550203Y-26098445D01*
X74345715Y-26057770D01*
X74345711Y-26057770D01*
X74137205Y-26057770D01*
X74137200Y-26057770D01*
X73932712Y-26098445D01*
X73932704Y-26098447D01*
X73740072Y-26178237D01*
X73740063Y-26178242D01*
X73566703Y-26294078D01*
X73566699Y-26294081D01*
X73419269Y-26441511D01*
X73419266Y-26441515D01*
X73303430Y-26614875D01*
X73303425Y-26614884D01*
X73223635Y-26807516D01*
X73223633Y-26807524D01*
X73182958Y-27012012D01*
X73182958Y-27220527D01*
X73223633Y-27425015D01*
X73223635Y-27425023D01*
X73303425Y-27617655D01*
X73303430Y-27617664D01*
X73419266Y-27791024D01*
X73419269Y-27791028D01*
X73516533Y-27888292D01*
X73550018Y-27949615D01*
X73545034Y-28019307D01*
X73503162Y-28075240D01*
X73437698Y-28099657D01*
X73430273Y-28099965D01*
X72504882Y-28110567D01*
X72437621Y-28091652D01*
X72391264Y-28039375D01*
X72380529Y-27970335D01*
X72408824Y-27906451D01*
X72415768Y-27898905D01*
X72523649Y-27791025D01*
X72639489Y-27617658D01*
X72719281Y-27425023D01*
X72759958Y-27220523D01*
X72759958Y-27012017D01*
X72719281Y-26807517D01*
X72656204Y-26655236D01*
X72639490Y-26614884D01*
X72639485Y-26614875D01*
X72523649Y-26441515D01*
X72523646Y-26441511D01*
X72376216Y-26294081D01*
X72376212Y-26294078D01*
X72202852Y-26178242D01*
X72202843Y-26178237D01*
X72010211Y-26098447D01*
X72010203Y-26098445D01*
X71805715Y-26057770D01*
X71805711Y-26057770D01*
X71597205Y-26057770D01*
X71597200Y-26057770D01*
X71392712Y-26098445D01*
X71392704Y-26098447D01*
X71200072Y-26178237D01*
X71200063Y-26178242D01*
X71026703Y-26294078D01*
X71026699Y-26294081D01*
X70879269Y-26441511D01*
X70879266Y-26441515D01*
X70763430Y-26614875D01*
X70763425Y-26614884D01*
X70683635Y-26807516D01*
X70683633Y-26807524D01*
X70642958Y-27012012D01*
X70642958Y-27220527D01*
X70683633Y-27425015D01*
X70683635Y-27425023D01*
X70763425Y-27617655D01*
X70763430Y-27617664D01*
X70879266Y-27791024D01*
X70879269Y-27791028D01*
X71005304Y-27917063D01*
X71038789Y-27978386D01*
X71033805Y-28048078D01*
X70991933Y-28104011D01*
X70926469Y-28128428D01*
X70919043Y-28128736D01*
X69935444Y-28140004D01*
X69868184Y-28121089D01*
X69821827Y-28068812D01*
X69811092Y-27999772D01*
X69839387Y-27935888D01*
X69846331Y-27928342D01*
X69983649Y-27791025D01*
X70099489Y-27617658D01*
X70179281Y-27425023D01*
X70219958Y-27220523D01*
X70219958Y-27012017D01*
X70179281Y-26807517D01*
X70116204Y-26655236D01*
X70099490Y-26614884D01*
X70099485Y-26614875D01*
X69983649Y-26441515D01*
X69983646Y-26441511D01*
X69836216Y-26294081D01*
X69836212Y-26294078D01*
X69662852Y-26178242D01*
X69662843Y-26178237D01*
X69470211Y-26098447D01*
X69470203Y-26098445D01*
X69265715Y-26057770D01*
X69265711Y-26057770D01*
X69057205Y-26057770D01*
X69057200Y-26057770D01*
X68852712Y-26098445D01*
X68852704Y-26098447D01*
X68660072Y-26178237D01*
X68660063Y-26178242D01*
X68486703Y-26294078D01*
X68486699Y-26294081D01*
X68339269Y-26441511D01*
X68339266Y-26441515D01*
X68223430Y-26614875D01*
X68223425Y-26614884D01*
X68143635Y-26807516D01*
X68143633Y-26807524D01*
X68102958Y-27012012D01*
X68102958Y-27220527D01*
X68143633Y-27425015D01*
X68143635Y-27425023D01*
X68223425Y-27617655D01*
X68223430Y-27617664D01*
X68339266Y-27791024D01*
X68339269Y-27791028D01*
X68491010Y-27942769D01*
X68489934Y-27943844D01*
X68525051Y-27995395D01*
X68526924Y-28065239D01*
X68490739Y-28125009D01*
X68427984Y-28155727D01*
X68408474Y-28157498D01*
X67360615Y-28169503D01*
X67293354Y-28150588D01*
X67246997Y-28098311D01*
X67236262Y-28029271D01*
X67264557Y-27965387D01*
X67290303Y-27942409D01*
X67296213Y-27938461D01*
X67443649Y-27791025D01*
X67559489Y-27617658D01*
X67639281Y-27425023D01*
X67679958Y-27220523D01*
X67679958Y-27012017D01*
X67639281Y-26807517D01*
X67576204Y-26655236D01*
X67559490Y-26614884D01*
X67559485Y-26614875D01*
X67443649Y-26441515D01*
X67443646Y-26441511D01*
X67296216Y-26294081D01*
X67296212Y-26294078D01*
X67122852Y-26178242D01*
X67122843Y-26178237D01*
X66930211Y-26098447D01*
X66930203Y-26098445D01*
X66725715Y-26057770D01*
X66725711Y-26057770D01*
X66517205Y-26057770D01*
X66517200Y-26057770D01*
X66312712Y-26098445D01*
X66312704Y-26098447D01*
X66120072Y-26178237D01*
X66120063Y-26178242D01*
X65946703Y-26294078D01*
X65946699Y-26294081D01*
X65799269Y-26441511D01*
X65799266Y-26441515D01*
X65683430Y-26614875D01*
X65683425Y-26614884D01*
X65603635Y-26807516D01*
X65603633Y-26807524D01*
X65562958Y-27012012D01*
X65562958Y-27220527D01*
X65603633Y-27425015D01*
X65603635Y-27425023D01*
X65683425Y-27617655D01*
X65683430Y-27617664D01*
X65799266Y-27791024D01*
X65799269Y-27791028D01*
X65946700Y-27938459D01*
X65946703Y-27938461D01*
X65977483Y-27959028D01*
X66022288Y-28012639D01*
X66030997Y-28081964D01*
X66000842Y-28144992D01*
X65941400Y-28181711D01*
X65910014Y-28186122D01*
X64776304Y-28199111D01*
X64709043Y-28180196D01*
X64662686Y-28127919D01*
X64651951Y-28058879D01*
X64680246Y-27994995D01*
X64705989Y-27972019D01*
X64756213Y-27938461D01*
X64903649Y-27791025D01*
X65019489Y-27617658D01*
X65099281Y-27425023D01*
X65139958Y-27220523D01*
X65139958Y-27012017D01*
X65099281Y-26807517D01*
X65036204Y-26655236D01*
X65019490Y-26614884D01*
X65019485Y-26614875D01*
X64903649Y-26441515D01*
X64903646Y-26441511D01*
X64756216Y-26294081D01*
X64756212Y-26294078D01*
X64582852Y-26178242D01*
X64582843Y-26178237D01*
X64390211Y-26098447D01*
X64390203Y-26098445D01*
X64185715Y-26057770D01*
X64185711Y-26057770D01*
X63977205Y-26057770D01*
X63977200Y-26057770D01*
X63772712Y-26098445D01*
X63772704Y-26098447D01*
X63580072Y-26178237D01*
X63580063Y-26178242D01*
X63406703Y-26294078D01*
X63406699Y-26294081D01*
X63259269Y-26441511D01*
X63259266Y-26441515D01*
X63143430Y-26614875D01*
X63143425Y-26614884D01*
X63063635Y-26807516D01*
X63063633Y-26807524D01*
X63022958Y-27012012D01*
X63022958Y-27220527D01*
X63063633Y-27425015D01*
X63063635Y-27425023D01*
X63143425Y-27617655D01*
X63143430Y-27617664D01*
X63259266Y-27791024D01*
X63259269Y-27791028D01*
X63406699Y-27938458D01*
X63406703Y-27938461D01*
X63480301Y-27987638D01*
X63525106Y-28041250D01*
X63533813Y-28110575D01*
X63503659Y-28173603D01*
X63444216Y-28210322D01*
X63412831Y-28214732D01*
X58226330Y-28274152D01*
X58222069Y-28273473D01*
X58219746Y-28274052D01*
X58185054Y-28267579D01*
X58026217Y-28213662D01*
X57999203Y-28204492D01*
X57984218Y-28198285D01*
X57770086Y-28092686D01*
X57756040Y-28084577D01*
X57649436Y-28013347D01*
X57557519Y-27951930D01*
X57544655Y-27942059D01*
X57540552Y-27938461D01*
X57418138Y-27831106D01*
X57365152Y-27784638D01*
X57353683Y-27773169D01*
X57217307Y-27617663D01*
X57196259Y-27593662D01*
X57186393Y-27580805D01*
X57053742Y-27382278D01*
X57045635Y-27368235D01*
X56940036Y-27154103D01*
X56933832Y-27139125D01*
X56857081Y-26913025D01*
X56852891Y-26897386D01*
X56828039Y-26772445D01*
X56825668Y-26749692D01*
X56819562Y-26209637D01*
X57664583Y-26209637D01*
X57664583Y-26330363D01*
X57695829Y-26446974D01*
X57756192Y-26551525D01*
X57841558Y-26636891D01*
X57946109Y-26697254D01*
X58062720Y-26728500D01*
X58062723Y-26728500D01*
X58183443Y-26728500D01*
X58183446Y-26728500D01*
X58300057Y-26697254D01*
X58404608Y-26636891D01*
X58489974Y-26551525D01*
X58550337Y-26446974D01*
X58581583Y-26330363D01*
X58581583Y-26209637D01*
X58550337Y-26093026D01*
X58489974Y-25988475D01*
X58404608Y-25903109D01*
X58300057Y-25842746D01*
X58183446Y-25811500D01*
X58062720Y-25811500D01*
X57946109Y-25842746D01*
X57946107Y-25842746D01*
X57946107Y-25842747D01*
X57841558Y-25903109D01*
X57841555Y-25903111D01*
X57756194Y-25988472D01*
X57756192Y-25988475D01*
X57702133Y-26082108D01*
X57695829Y-26093026D01*
X57664583Y-26209637D01*
X56819562Y-26209637D01*
X56799551Y-24439637D01*
X62054583Y-24439637D01*
X62054583Y-24560363D01*
X62085829Y-24676974D01*
X62146192Y-24781525D01*
X62231558Y-24866891D01*
X62336109Y-24927254D01*
X62452720Y-24958500D01*
X62452723Y-24958500D01*
X62573443Y-24958500D01*
X62573446Y-24958500D01*
X62690057Y-24927254D01*
X62794608Y-24866891D01*
X62879974Y-24781525D01*
X62940337Y-24676974D01*
X62971583Y-24560363D01*
X62971583Y-24439637D01*
X62940337Y-24323026D01*
X62879974Y-24218475D01*
X62794608Y-24133109D01*
X62690057Y-24072746D01*
X62573446Y-24041500D01*
X62452720Y-24041500D01*
X62336109Y-24072746D01*
X62336107Y-24072746D01*
X62336107Y-24072747D01*
X62231558Y-24133109D01*
X62231555Y-24133111D01*
X62146194Y-24218472D01*
X62146192Y-24218475D01*
X62085829Y-24323026D01*
X62054583Y-24439637D01*
X56799551Y-24439637D01*
X56788055Y-23422795D01*
X56788047Y-23421393D01*
X56788047Y-22455742D01*
X57424583Y-22455742D01*
X57424583Y-22664257D01*
X57465258Y-22868745D01*
X57465260Y-22868753D01*
X57545050Y-23061385D01*
X57545055Y-23061394D01*
X57660891Y-23234754D01*
X57660894Y-23234758D01*
X57808324Y-23382188D01*
X57808328Y-23382191D01*
X57981688Y-23498027D01*
X57981694Y-23498030D01*
X57981695Y-23498031D01*
X58174330Y-23577823D01*
X58378825Y-23618499D01*
X58378829Y-23618500D01*
X58378830Y-23618500D01*
X58587337Y-23618500D01*
X58587338Y-23618499D01*
X58791836Y-23577823D01*
X58984471Y-23498031D01*
X59157838Y-23382191D01*
X59305274Y-23234755D01*
X59421114Y-23061388D01*
X59500906Y-22868753D01*
X59541583Y-22664253D01*
X59541583Y-22455747D01*
X59500906Y-22251247D01*
X59435809Y-22094089D01*
X59421115Y-22058614D01*
X59421110Y-22058605D01*
X59305274Y-21885245D01*
X59305271Y-21885241D01*
X59157841Y-21737811D01*
X59157837Y-21737808D01*
X58984477Y-21621972D01*
X58984468Y-21621967D01*
X58791836Y-21542177D01*
X58791828Y-21542175D01*
X58587340Y-21501500D01*
X58587336Y-21501500D01*
X58378830Y-21501500D01*
X58378825Y-21501500D01*
X58174337Y-21542175D01*
X58174329Y-21542177D01*
X57981697Y-21621967D01*
X57981688Y-21621972D01*
X57808328Y-21737808D01*
X57808324Y-21737811D01*
X57660894Y-21885241D01*
X57660891Y-21885245D01*
X57545055Y-22058605D01*
X57545050Y-22058614D01*
X57465260Y-22251246D01*
X57465258Y-22251254D01*
X57424583Y-22455742D01*
X56788047Y-22455742D01*
X56788047Y-19915742D01*
X57424583Y-19915742D01*
X57424583Y-20124257D01*
X57465258Y-20328745D01*
X57465260Y-20328753D01*
X57545050Y-20521385D01*
X57545055Y-20521394D01*
X57660891Y-20694754D01*
X57660894Y-20694758D01*
X57808324Y-20842188D01*
X57808328Y-20842191D01*
X57981688Y-20958027D01*
X57981697Y-20958032D01*
X57987325Y-20960363D01*
X58174330Y-21037823D01*
X58363919Y-21075534D01*
X58378825Y-21078499D01*
X58378829Y-21078500D01*
X58378830Y-21078500D01*
X58587337Y-21078500D01*
X58587338Y-21078499D01*
X58791836Y-21037823D01*
X58984471Y-20958031D01*
X59157838Y-20842191D01*
X59160392Y-20839637D01*
X67894583Y-20839637D01*
X67894583Y-20960363D01*
X67925829Y-21076974D01*
X67986192Y-21181525D01*
X68071558Y-21266891D01*
X68116110Y-21292613D01*
X68164325Y-21343181D01*
X68177547Y-21411788D01*
X68151579Y-21476652D01*
X68116111Y-21507386D01*
X68088875Y-21523111D01*
X68071558Y-21533109D01*
X68071555Y-21533111D01*
X67986194Y-21618472D01*
X67986192Y-21618475D01*
X67926487Y-21721887D01*
X67925829Y-21723026D01*
X67894583Y-21839637D01*
X67894583Y-21960363D01*
X67925829Y-22076974D01*
X67986192Y-22181525D01*
X68071558Y-22266891D01*
X68116110Y-22292613D01*
X68164325Y-22343181D01*
X68177547Y-22411788D01*
X68151579Y-22476652D01*
X68116111Y-22507386D01*
X68078542Y-22529077D01*
X68071558Y-22533109D01*
X68071555Y-22533111D01*
X67986194Y-22618472D01*
X67986192Y-22618475D01*
X67932633Y-22711242D01*
X67925829Y-22723026D01*
X67894583Y-22839637D01*
X67894583Y-22960363D01*
X67925829Y-23076974D01*
X67986192Y-23181525D01*
X68071558Y-23266891D01*
X68176109Y-23327254D01*
X68292720Y-23358500D01*
X68292723Y-23358500D01*
X68413443Y-23358500D01*
X68413446Y-23358500D01*
X68530057Y-23327254D01*
X68634608Y-23266891D01*
X68719974Y-23181525D01*
X68745696Y-23136972D01*
X68796263Y-23088757D01*
X68864870Y-23075534D01*
X68929735Y-23101502D01*
X68960469Y-23136971D01*
X68986192Y-23181525D01*
X69071558Y-23266891D01*
X69176109Y-23327254D01*
X69292720Y-23358500D01*
X69292723Y-23358500D01*
X69413443Y-23358500D01*
X69413446Y-23358500D01*
X69530057Y-23327254D01*
X69634608Y-23266891D01*
X69719974Y-23181525D01*
X69780337Y-23076974D01*
X69811583Y-22960363D01*
X69811583Y-22839637D01*
X69780337Y-22723026D01*
X69719974Y-22618475D01*
X69634608Y-22533109D01*
X69590055Y-22507386D01*
X69541840Y-22456820D01*
X69528617Y-22388213D01*
X69554585Y-22323348D01*
X69590054Y-22292613D01*
X69634608Y-22266891D01*
X69719974Y-22181525D01*
X69780337Y-22076974D01*
X69811583Y-21960363D01*
X69811583Y-21839637D01*
X69780337Y-21723026D01*
X69719974Y-21618475D01*
X69634608Y-21533109D01*
X69590055Y-21507386D01*
X69541840Y-21456820D01*
X69528617Y-21388213D01*
X69554585Y-21323348D01*
X69590054Y-21292613D01*
X69634608Y-21266891D01*
X69719974Y-21181525D01*
X69780337Y-21076974D01*
X69811583Y-20960363D01*
X69811583Y-20839637D01*
X69780337Y-20723026D01*
X69719974Y-20618475D01*
X69634608Y-20533109D01*
X69530057Y-20472746D01*
X69413446Y-20441500D01*
X69292720Y-20441500D01*
X69176109Y-20472746D01*
X69176107Y-20472746D01*
X69176107Y-20472747D01*
X69071558Y-20533109D01*
X69071555Y-20533111D01*
X68986194Y-20618472D01*
X68986192Y-20618475D01*
X68960632Y-20662747D01*
X68960470Y-20663027D01*
X68909902Y-20711242D01*
X68841295Y-20724464D01*
X68776431Y-20698496D01*
X68745696Y-20663027D01*
X68719974Y-20618475D01*
X68634608Y-20533109D01*
X68530057Y-20472746D01*
X68413446Y-20441500D01*
X68292720Y-20441500D01*
X68176109Y-20472746D01*
X68176107Y-20472746D01*
X68176107Y-20472747D01*
X68071558Y-20533109D01*
X68071555Y-20533111D01*
X67986194Y-20618472D01*
X67986192Y-20618475D01*
X67932633Y-20711242D01*
X67925829Y-20723026D01*
X67894583Y-20839637D01*
X59160392Y-20839637D01*
X59191557Y-20808472D01*
X59256201Y-20743829D01*
X59305271Y-20694758D01*
X59305274Y-20694755D01*
X59421114Y-20521388D01*
X59500906Y-20328753D01*
X59541583Y-20124253D01*
X59541583Y-19915747D01*
X59500906Y-19711247D01*
X59432348Y-19545733D01*
X59421115Y-19518614D01*
X59421110Y-19518605D01*
X59305274Y-19345245D01*
X59305271Y-19345241D01*
X59157843Y-19197813D01*
X59157836Y-19197807D01*
X59025881Y-19109637D01*
X76104583Y-19109637D01*
X76104583Y-19230363D01*
X76135829Y-19346974D01*
X76196192Y-19451525D01*
X76281558Y-19536891D01*
X76386109Y-19597254D01*
X76502720Y-19628500D01*
X76502723Y-19628500D01*
X76623443Y-19628500D01*
X76623446Y-19628500D01*
X76740057Y-19597254D01*
X76844608Y-19536891D01*
X76929974Y-19451525D01*
X76990337Y-19346974D01*
X77021583Y-19230363D01*
X77021583Y-19109637D01*
X76990337Y-18993026D01*
X76929974Y-18888475D01*
X76844608Y-18803109D01*
X76740057Y-18742746D01*
X76623446Y-18711500D01*
X76502720Y-18711500D01*
X76386109Y-18742746D01*
X76386107Y-18742746D01*
X76386107Y-18742747D01*
X76281558Y-18803109D01*
X76281555Y-18803111D01*
X76196194Y-18888472D01*
X76196192Y-18888475D01*
X76135829Y-18993026D01*
X76104583Y-19109637D01*
X59025881Y-19109637D01*
X58984477Y-19081972D01*
X58984468Y-19081967D01*
X58791836Y-19002177D01*
X58791828Y-19002175D01*
X58587340Y-18961500D01*
X58587336Y-18961500D01*
X58378830Y-18961500D01*
X58378825Y-18961500D01*
X58174337Y-19002175D01*
X58174329Y-19002177D01*
X57981697Y-19081967D01*
X57981688Y-19081972D01*
X57808328Y-19197808D01*
X57808324Y-19197811D01*
X57660894Y-19345241D01*
X57660891Y-19345245D01*
X57545055Y-19518605D01*
X57545050Y-19518614D01*
X57465260Y-19711246D01*
X57465258Y-19711254D01*
X57424583Y-19915742D01*
X56788047Y-19915742D01*
X56788047Y-16609458D01*
X57424583Y-16609458D01*
X57424583Y-18350534D01*
X57436680Y-18411353D01*
X57482762Y-18480320D01*
X57551730Y-18526403D01*
X57551731Y-18526404D01*
X57592180Y-18534449D01*
X57612546Y-18538500D01*
X59353619Y-18538499D01*
X59414436Y-18526403D01*
X59483403Y-18480320D01*
X59529486Y-18411353D01*
X59529486Y-18411351D01*
X59529487Y-18411351D01*
X59541582Y-18350541D01*
X59541583Y-18350537D01*
X59541582Y-17379637D01*
X62164583Y-17379637D01*
X62164583Y-17500363D01*
X62195829Y-17616974D01*
X62256192Y-17721525D01*
X62341558Y-17806891D01*
X62446109Y-17867254D01*
X62562720Y-17898500D01*
X62562723Y-17898500D01*
X62683443Y-17898500D01*
X62683446Y-17898500D01*
X62800057Y-17867254D01*
X62904608Y-17806891D01*
X62989974Y-17721525D01*
X63050337Y-17616974D01*
X63081583Y-17500363D01*
X63081583Y-17379637D01*
X63050337Y-17263026D01*
X62989974Y-17158475D01*
X62904608Y-17073109D01*
X62800057Y-17012746D01*
X62683446Y-16981500D01*
X62562720Y-16981500D01*
X62446109Y-17012746D01*
X62446107Y-17012746D01*
X62446107Y-17012747D01*
X62341558Y-17073109D01*
X62341555Y-17073111D01*
X62256194Y-17158472D01*
X62256192Y-17158475D01*
X62195829Y-17263026D01*
X62164583Y-17379637D01*
X59541582Y-17379637D01*
X59541582Y-16609464D01*
X59529486Y-16548647D01*
X59505335Y-16512503D01*
X59483403Y-16479679D01*
X59414435Y-16433596D01*
X59414434Y-16433595D01*
X59353622Y-16421500D01*
X57612548Y-16421500D01*
X57551729Y-16433597D01*
X57482762Y-16479679D01*
X57436679Y-16548647D01*
X57436678Y-16548648D01*
X57424583Y-16609458D01*
X56788047Y-16609458D01*
X56788047Y-14009637D01*
X57564583Y-14009637D01*
X57564583Y-14130363D01*
X57595829Y-14246974D01*
X57656192Y-14351525D01*
X57741558Y-14436891D01*
X57846109Y-14497254D01*
X57962720Y-14528500D01*
X57962723Y-14528500D01*
X58083443Y-14528500D01*
X58083446Y-14528500D01*
X58200057Y-14497254D01*
X58304608Y-14436891D01*
X58389974Y-14351525D01*
X58450337Y-14246974D01*
X58481583Y-14130363D01*
X58481583Y-14009637D01*
X58450337Y-13893026D01*
X58389974Y-13788475D01*
X58304608Y-13703109D01*
X58200057Y-13642746D01*
X58083446Y-13611500D01*
X57962720Y-13611500D01*
X57846109Y-13642746D01*
X57846107Y-13642746D01*
X57846107Y-13642747D01*
X57741558Y-13703109D01*
X57741555Y-13703111D01*
X57656194Y-13788472D01*
X57656192Y-13788475D01*
X57595829Y-13893026D01*
X57564583Y-14009637D01*
X56788047Y-14009637D01*
X56788047Y-12624841D01*
X56788312Y-12616732D01*
X56790717Y-12580035D01*
X56804194Y-12374403D01*
X56806309Y-12358349D01*
X56852890Y-12124167D01*
X56857083Y-12108520D01*
X56933832Y-11882424D01*
X56940032Y-11867453D01*
X57045638Y-11653308D01*
X57053738Y-11639277D01*
X57186398Y-11440737D01*
X57196253Y-11427894D01*
X57353688Y-11248374D01*
X57365146Y-11236916D01*
X57544666Y-11079481D01*
X57557509Y-11069626D01*
X57756049Y-10936966D01*
X57770080Y-10928866D01*
X57984225Y-10823260D01*
X57999196Y-10817060D01*
X58225292Y-10740311D01*
X58240939Y-10736118D01*
X58475121Y-10689537D01*
X58491177Y-10687422D01*
X58713153Y-10672873D01*
X58733505Y-10671540D01*
X58741614Y-10671275D01*
X58753955Y-10671275D01*
X63671227Y-10671275D01*
X63738266Y-10690960D01*
G37*
%TD.AperFunction*%
%TA.AperFunction,Conductor*%
G36*
X89138266Y-10690960D02*
G01*
X89184021Y-10743764D01*
X89193965Y-10812922D01*
X89164940Y-10876478D01*
X89118680Y-10909835D01*
X89105744Y-10915193D01*
X88980072Y-10967248D01*
X88980063Y-10967253D01*
X88806703Y-11083089D01*
X88806699Y-11083092D01*
X88659269Y-11230522D01*
X88659266Y-11230526D01*
X88543430Y-11403886D01*
X88543425Y-11403895D01*
X88463635Y-11596527D01*
X88463633Y-11596535D01*
X88422958Y-11801023D01*
X88422958Y-12009538D01*
X88463633Y-12214026D01*
X88463635Y-12214034D01*
X88543425Y-12406666D01*
X88543430Y-12406675D01*
X88659266Y-12580035D01*
X88659269Y-12580039D01*
X88806699Y-12727469D01*
X88806703Y-12727472D01*
X88980063Y-12843308D01*
X88980069Y-12843311D01*
X88980070Y-12843312D01*
X89172705Y-12923104D01*
X89322356Y-12952871D01*
X89377200Y-12963780D01*
X89377204Y-12963781D01*
X89377205Y-12963781D01*
X89585712Y-12963781D01*
X89585713Y-12963780D01*
X89790211Y-12923104D01*
X89982846Y-12843312D01*
X90156213Y-12727472D01*
X90303649Y-12580036D01*
X90419489Y-12406669D01*
X90499281Y-12214034D01*
X90539958Y-12009534D01*
X90539958Y-11801028D01*
X90499281Y-11596528D01*
X90435014Y-11441373D01*
X90419490Y-11403895D01*
X90419485Y-11403886D01*
X90303649Y-11230526D01*
X90303646Y-11230522D01*
X90156216Y-11083092D01*
X90156212Y-11083089D01*
X89982852Y-10967253D01*
X89982843Y-10967248D01*
X89863274Y-10917721D01*
X89844235Y-10909835D01*
X89789833Y-10865995D01*
X89767768Y-10799701D01*
X89785047Y-10732002D01*
X89836184Y-10684391D01*
X89891689Y-10671275D01*
X91611227Y-10671275D01*
X91678266Y-10690960D01*
X91724021Y-10743764D01*
X91733965Y-10812922D01*
X91704940Y-10876478D01*
X91658680Y-10909835D01*
X91645744Y-10915193D01*
X91520072Y-10967248D01*
X91520063Y-10967253D01*
X91346703Y-11083089D01*
X91346699Y-11083092D01*
X91199269Y-11230522D01*
X91199266Y-11230526D01*
X91083430Y-11403886D01*
X91083425Y-11403895D01*
X91003635Y-11596527D01*
X91003633Y-11596535D01*
X90962958Y-11801023D01*
X90962958Y-12009538D01*
X91003633Y-12214026D01*
X91003635Y-12214034D01*
X91083425Y-12406666D01*
X91083430Y-12406675D01*
X91199266Y-12580035D01*
X91199269Y-12580039D01*
X91346699Y-12727469D01*
X91346703Y-12727472D01*
X91520063Y-12843308D01*
X91520069Y-12843311D01*
X91520070Y-12843312D01*
X91712705Y-12923104D01*
X91862356Y-12952871D01*
X91917200Y-12963780D01*
X91917204Y-12963781D01*
X91917205Y-12963781D01*
X92125712Y-12963781D01*
X92125713Y-12963780D01*
X92330211Y-12923104D01*
X92522846Y-12843312D01*
X92696213Y-12727472D01*
X92843649Y-12580036D01*
X92959489Y-12406669D01*
X93039281Y-12214034D01*
X93079958Y-12009534D01*
X93079958Y-11801028D01*
X93039281Y-11596528D01*
X92975014Y-11441373D01*
X92959490Y-11403895D01*
X92959485Y-11403886D01*
X92843649Y-11230526D01*
X92843646Y-11230522D01*
X92696216Y-11083092D01*
X92696212Y-11083089D01*
X92522852Y-10967253D01*
X92522843Y-10967248D01*
X92403274Y-10917721D01*
X92384235Y-10909835D01*
X92329833Y-10865995D01*
X92307768Y-10799701D01*
X92325047Y-10732002D01*
X92376184Y-10684391D01*
X92431689Y-10671275D01*
X94151227Y-10671275D01*
X94218266Y-10690960D01*
X94264021Y-10743764D01*
X94273965Y-10812922D01*
X94244940Y-10876478D01*
X94198680Y-10909835D01*
X94185744Y-10915193D01*
X94060072Y-10967248D01*
X94060063Y-10967253D01*
X93886703Y-11083089D01*
X93886699Y-11083092D01*
X93739269Y-11230522D01*
X93739266Y-11230526D01*
X93623430Y-11403886D01*
X93623425Y-11403895D01*
X93543635Y-11596527D01*
X93543633Y-11596535D01*
X93502958Y-11801023D01*
X93502958Y-12009538D01*
X93543633Y-12214026D01*
X93543635Y-12214034D01*
X93623425Y-12406666D01*
X93623430Y-12406675D01*
X93739266Y-12580035D01*
X93739269Y-12580039D01*
X93886699Y-12727469D01*
X93886703Y-12727472D01*
X94060063Y-12843308D01*
X94060069Y-12843311D01*
X94060070Y-12843312D01*
X94252705Y-12923104D01*
X94402356Y-12952871D01*
X94457200Y-12963780D01*
X94457204Y-12963781D01*
X94457205Y-12963781D01*
X94665712Y-12963781D01*
X94665713Y-12963780D01*
X94870211Y-12923104D01*
X95062846Y-12843312D01*
X95236213Y-12727472D01*
X95383649Y-12580036D01*
X95499489Y-12406669D01*
X95579281Y-12214034D01*
X95619958Y-12009534D01*
X95619958Y-11801028D01*
X95579281Y-11596528D01*
X95515014Y-11441373D01*
X95499490Y-11403895D01*
X95499485Y-11403886D01*
X95383649Y-11230526D01*
X95383646Y-11230522D01*
X95236216Y-11083092D01*
X95236212Y-11083089D01*
X95062852Y-10967253D01*
X95062843Y-10967248D01*
X94943274Y-10917721D01*
X94924235Y-10909835D01*
X94869833Y-10865995D01*
X94847768Y-10799701D01*
X94865047Y-10732002D01*
X94916184Y-10684391D01*
X94971689Y-10671275D01*
X96042100Y-10671275D01*
X96109139Y-10690960D01*
X96154894Y-10743764D01*
X96164838Y-10812922D01*
X96135813Y-10876478D01*
X96110991Y-10898377D01*
X96101137Y-10904960D01*
X96055054Y-10973928D01*
X96055053Y-10973929D01*
X96042958Y-11034739D01*
X96042958Y-12775815D01*
X96055055Y-12836634D01*
X96101137Y-12905601D01*
X96170105Y-12951684D01*
X96170106Y-12951685D01*
X96210555Y-12959730D01*
X96230921Y-12963781D01*
X97954957Y-12963780D01*
X98021996Y-12983465D01*
X98067751Y-13036268D01*
X98077695Y-13105427D01*
X98062344Y-13149781D01*
X98029730Y-13206270D01*
X98025829Y-13213026D01*
X97994583Y-13329637D01*
X97994583Y-13450363D01*
X98025829Y-13566974D01*
X98086192Y-13671525D01*
X98171558Y-13756891D01*
X98276109Y-13817254D01*
X98392720Y-13848500D01*
X98392723Y-13848500D01*
X98513443Y-13848500D01*
X98513446Y-13848500D01*
X98630057Y-13817254D01*
X98734608Y-13756891D01*
X98819974Y-13671525D01*
X98880337Y-13566974D01*
X98911583Y-13450363D01*
X98911583Y-13329637D01*
X98880337Y-13213026D01*
X98819974Y-13108475D01*
X98734608Y-13023109D01*
X98630057Y-12962746D01*
X98513446Y-12931500D01*
X98392720Y-12931500D01*
X98306756Y-12954534D01*
X98236906Y-12952871D01*
X98179044Y-12913708D01*
X98151540Y-12849480D01*
X98153046Y-12810567D01*
X98159958Y-12775818D01*
X98159957Y-11759637D01*
X103054583Y-11759637D01*
X103054583Y-11880363D01*
X103085829Y-11996974D01*
X103146192Y-12101525D01*
X103231558Y-12186891D01*
X103336109Y-12247254D01*
X103452720Y-12278500D01*
X103452723Y-12278500D01*
X103573443Y-12278500D01*
X103573446Y-12278500D01*
X103690057Y-12247254D01*
X103794608Y-12186891D01*
X103879974Y-12101525D01*
X103940337Y-11996974D01*
X103971583Y-11880363D01*
X103971583Y-11759637D01*
X103940337Y-11643026D01*
X103879974Y-11538475D01*
X103794608Y-11453109D01*
X103690057Y-11392746D01*
X103573446Y-11361500D01*
X103452720Y-11361500D01*
X103336109Y-11392746D01*
X103336107Y-11392746D01*
X103336107Y-11392747D01*
X103231558Y-11453109D01*
X103231555Y-11453111D01*
X103146194Y-11538472D01*
X103146192Y-11538475D01*
X103089648Y-11636412D01*
X103085829Y-11643026D01*
X103054583Y-11759637D01*
X98159957Y-11759637D01*
X98159957Y-11034745D01*
X98147861Y-10973928D01*
X98132569Y-10951043D01*
X98101778Y-10904960D01*
X98091925Y-10898377D01*
X98047120Y-10844765D01*
X98038413Y-10775440D01*
X98068568Y-10712412D01*
X98128011Y-10675693D01*
X98160816Y-10671275D01*
X103823841Y-10671275D01*
X103836182Y-10671275D01*
X103844291Y-10671540D01*
X103866200Y-10672975D01*
X104086616Y-10687422D01*
X104102676Y-10689537D01*
X104336852Y-10736117D01*
X104352507Y-10740312D01*
X104578593Y-10817058D01*
X104593575Y-10823263D01*
X104722858Y-10887019D01*
X104807709Y-10928863D01*
X104821752Y-10936970D01*
X105020279Y-11069621D01*
X105033136Y-11079487D01*
X105037245Y-11083090D01*
X105212643Y-11236911D01*
X105224112Y-11248380D01*
X105381533Y-11427883D01*
X105391404Y-11440747D01*
X105399666Y-11453111D01*
X105524051Y-11639268D01*
X105532160Y-11653314D01*
X105637759Y-11867446D01*
X105643966Y-11882432D01*
X105720709Y-12108510D01*
X105724907Y-12124177D01*
X105771484Y-12358336D01*
X105773602Y-12374417D01*
X105789484Y-12616731D01*
X105789749Y-12624841D01*
X105789749Y-20138406D01*
X105789744Y-20139495D01*
X105730750Y-26856850D01*
X105728372Y-26879952D01*
X105724907Y-26897372D01*
X105720709Y-26913039D01*
X105643966Y-27139117D01*
X105637759Y-27154103D01*
X105532160Y-27368235D01*
X105524051Y-27382281D01*
X105391408Y-27580797D01*
X105381533Y-27593666D01*
X105381532Y-27593667D01*
X105293772Y-27693736D01*
X105234770Y-27731159D01*
X105201966Y-27735968D01*
X98285378Y-27815210D01*
X98218117Y-27796295D01*
X98171760Y-27744018D01*
X98159957Y-27691221D01*
X98159957Y-26245734D01*
X98147861Y-26184917D01*
X98123960Y-26149147D01*
X98101778Y-26115949D01*
X98032810Y-26069866D01*
X98032809Y-26069865D01*
X97971997Y-26057770D01*
X96230923Y-26057770D01*
X96170104Y-26069867D01*
X96101137Y-26115949D01*
X96055054Y-26184917D01*
X96055053Y-26184918D01*
X96042958Y-26245728D01*
X96042958Y-27718312D01*
X96023273Y-27785351D01*
X95970469Y-27831106D01*
X95920378Y-27842304D01*
X95580183Y-27846201D01*
X95512923Y-27827285D01*
X95466566Y-27775009D01*
X95455831Y-27705969D01*
X95475660Y-27653319D01*
X95499489Y-27617658D01*
X95579281Y-27425023D01*
X95619958Y-27220523D01*
X95619958Y-27012017D01*
X95579281Y-26807517D01*
X95516204Y-26655236D01*
X95499490Y-26614884D01*
X95499485Y-26614875D01*
X95383649Y-26441515D01*
X95383646Y-26441511D01*
X95236216Y-26294081D01*
X95236212Y-26294078D01*
X95062852Y-26178242D01*
X95062839Y-26178235D01*
X95035861Y-26167061D01*
X94981457Y-26123220D01*
X94959392Y-26056926D01*
X94976671Y-25989227D01*
X95027808Y-25941616D01*
X95083313Y-25928500D01*
X95136860Y-25928500D01*
X95136863Y-25928500D01*
X95240758Y-25900661D01*
X95333908Y-25846881D01*
X100845970Y-20334819D01*
X100907293Y-20301334D01*
X100933651Y-20298500D01*
X102400401Y-20298500D01*
X102462401Y-20315113D01*
X102466109Y-20317254D01*
X102582720Y-20348500D01*
X102582723Y-20348500D01*
X102703443Y-20348500D01*
X102703446Y-20348500D01*
X102820057Y-20317254D01*
X102924608Y-20256891D01*
X103009974Y-20171525D01*
X103070337Y-20066974D01*
X103101583Y-19950363D01*
X103101583Y-19829637D01*
X103070337Y-19713026D01*
X103009974Y-19608475D01*
X102924608Y-19523109D01*
X102820057Y-19462746D01*
X102703446Y-19431500D01*
X102582720Y-19431500D01*
X102512753Y-19450247D01*
X102466107Y-19462746D01*
X102463260Y-19464390D01*
X102462401Y-19464886D01*
X102400401Y-19481500D01*
X100766862Y-19481500D01*
X100659303Y-19481500D01*
X100601875Y-19496888D01*
X100555406Y-19509339D01*
X100555405Y-19509340D01*
X100462261Y-19563116D01*
X100462256Y-19563120D01*
X99149265Y-20876110D01*
X99087942Y-20909595D01*
X99018250Y-20904611D01*
X98962317Y-20862739D01*
X98954198Y-20850430D01*
X98929978Y-20808481D01*
X98929975Y-20808478D01*
X98929974Y-20808475D01*
X98844608Y-20723109D01*
X98740057Y-20662746D01*
X98623446Y-20631500D01*
X98502720Y-20631500D01*
X98386109Y-20662746D01*
X98386107Y-20662746D01*
X98386107Y-20662747D01*
X98281558Y-20723109D01*
X98281555Y-20723111D01*
X98196194Y-20808472D01*
X98196192Y-20808475D01*
X98146641Y-20894300D01*
X98135829Y-20913026D01*
X98104583Y-21029637D01*
X98104583Y-21150363D01*
X98135829Y-21266974D01*
X98196192Y-21371525D01*
X98281558Y-21456891D01*
X98281561Y-21456892D01*
X98281564Y-21456895D01*
X98323513Y-21481115D01*
X98371728Y-21531682D01*
X98384950Y-21600290D01*
X98358982Y-21665154D01*
X98349193Y-21676182D01*
X94950196Y-25075181D01*
X94888873Y-25108666D01*
X94862515Y-25111500D01*
X86833068Y-25111500D01*
X86766029Y-25091815D01*
X86720274Y-25039011D01*
X86710330Y-24969853D01*
X86715137Y-24949183D01*
X86762635Y-24802994D01*
X86762634Y-24802994D01*
X86762636Y-24802991D01*
X86792394Y-24615111D01*
X86792394Y-24424889D01*
X86762636Y-24237009D01*
X86703855Y-24056097D01*
X86617496Y-23886607D01*
X86505686Y-23732715D01*
X83876422Y-21103451D01*
X83842937Y-21042128D01*
X83847921Y-20972436D01*
X83889793Y-20916503D01*
X83955257Y-20892086D01*
X84023530Y-20906938D01*
X84026079Y-20908369D01*
X84076109Y-20937254D01*
X84192720Y-20968500D01*
X84192723Y-20968500D01*
X84313443Y-20968500D01*
X84313446Y-20968500D01*
X84430057Y-20937254D01*
X84534608Y-20876891D01*
X84619974Y-20791525D01*
X84680337Y-20686974D01*
X84711583Y-20570363D01*
X84711583Y-20449637D01*
X84680337Y-20333026D01*
X84619974Y-20228475D01*
X84534608Y-20143109D01*
X84430057Y-20082746D01*
X84313446Y-20051500D01*
X84192720Y-20051500D01*
X84076109Y-20082746D01*
X84076107Y-20082746D01*
X84076107Y-20082747D01*
X83971558Y-20143109D01*
X83971552Y-20143113D01*
X83955759Y-20158906D01*
X83894434Y-20192388D01*
X83824743Y-20187401D01*
X83780401Y-20158902D01*
X83734610Y-20113111D01*
X83734608Y-20113109D01*
X83630057Y-20052746D01*
X83513446Y-20021500D01*
X83392720Y-20021500D01*
X83276109Y-20052746D01*
X83276108Y-20052746D01*
X83276106Y-20052747D01*
X83257582Y-20063442D01*
X83189681Y-20079913D01*
X83123655Y-20057061D01*
X83080465Y-20002139D01*
X83071583Y-19956054D01*
X83071583Y-19362500D01*
X83091268Y-19295461D01*
X83144072Y-19249706D01*
X83195583Y-19238500D01*
X83273443Y-19238500D01*
X83273446Y-19238500D01*
X83390057Y-19207254D01*
X83494608Y-19146891D01*
X83579974Y-19061525D01*
X83640337Y-18956974D01*
X83671583Y-18840363D01*
X83671583Y-18748263D01*
X85393523Y-18748263D01*
X85393523Y-18868989D01*
X85424769Y-18985600D01*
X85485132Y-19090151D01*
X85570498Y-19175517D01*
X85675049Y-19235880D01*
X85791660Y-19267126D01*
X85822876Y-19267126D01*
X85889915Y-19286811D01*
X85910557Y-19303445D01*
X87326652Y-20719540D01*
X87360137Y-20780863D01*
X87355153Y-20850555D01*
X87313281Y-20906488D01*
X87247817Y-20930905D01*
X87206878Y-20926996D01*
X87141936Y-20909595D01*
X87093065Y-20896500D01*
X86972339Y-20896500D01*
X86855728Y-20927746D01*
X86772206Y-20975967D01*
X86704308Y-20992440D01*
X86638281Y-20969588D01*
X86622526Y-20956261D01*
X86583549Y-20917284D01*
X86583547Y-20917282D01*
X86478996Y-20856919D01*
X86362385Y-20825673D01*
X86241659Y-20825673D01*
X86125048Y-20856919D01*
X86125046Y-20856919D01*
X86125046Y-20856920D01*
X86020497Y-20917282D01*
X86020494Y-20917284D01*
X85935133Y-21002645D01*
X85935131Y-21002648D01*
X85885416Y-21088757D01*
X85874768Y-21107199D01*
X85843522Y-21223810D01*
X85843522Y-21344536D01*
X85874768Y-21461147D01*
X85935131Y-21565698D01*
X86020497Y-21651064D01*
X86125048Y-21711427D01*
X86241659Y-21742673D01*
X86241662Y-21742673D01*
X86362382Y-21742673D01*
X86362385Y-21742673D01*
X86478996Y-21711427D01*
X86478998Y-21711425D01*
X86479000Y-21711425D01*
X86479001Y-21711424D01*
X86562515Y-21663207D01*
X86630415Y-21646733D01*
X86696442Y-21669585D01*
X86712196Y-21682911D01*
X86732757Y-21703471D01*
X86751177Y-21721891D01*
X86855728Y-21782254D01*
X86972339Y-21813500D01*
X86972342Y-21813500D01*
X87015060Y-21813500D01*
X87082099Y-21833185D01*
X87122447Y-21875500D01*
X87171189Y-21959924D01*
X87171191Y-21959926D01*
X87171192Y-21959928D01*
X87256558Y-22045294D01*
X87361109Y-22105657D01*
X87477720Y-22136903D01*
X87477724Y-22136903D01*
X87482676Y-22138230D01*
X87542337Y-22174595D01*
X87572866Y-22237442D01*
X87574583Y-22258005D01*
X87574583Y-22320363D01*
X87605829Y-22436974D01*
X87666192Y-22541525D01*
X87751558Y-22626891D01*
X87856109Y-22687254D01*
X87972720Y-22718500D01*
X87972723Y-22718500D01*
X88093443Y-22718500D01*
X88093446Y-22718500D01*
X88210057Y-22687254D01*
X88275211Y-22649637D01*
X91084583Y-22649637D01*
X91084583Y-22770363D01*
X91115829Y-22886974D01*
X91176192Y-22991525D01*
X91261558Y-23076891D01*
X91366109Y-23137254D01*
X91482720Y-23168500D01*
X91482723Y-23168500D01*
X91603443Y-23168500D01*
X91603446Y-23168500D01*
X91720057Y-23137254D01*
X91824608Y-23076891D01*
X91909974Y-22991525D01*
X91968301Y-22890499D01*
X92018868Y-22842284D01*
X92075688Y-22828500D01*
X92113443Y-22828500D01*
X92113446Y-22828500D01*
X92230057Y-22797254D01*
X92334608Y-22736891D01*
X92419974Y-22651525D01*
X92459454Y-22583143D01*
X92510021Y-22534928D01*
X92578628Y-22521706D01*
X92643493Y-22547674D01*
X92654522Y-22557463D01*
X92735015Y-22637956D01*
X92839566Y-22698319D01*
X92956177Y-22729565D01*
X92956180Y-22729565D01*
X93076900Y-22729565D01*
X93076903Y-22729565D01*
X93193514Y-22698319D01*
X93298065Y-22637956D01*
X93383431Y-22552590D01*
X93443794Y-22448039D01*
X93475040Y-22331428D01*
X93475040Y-22210702D01*
X93443794Y-22094091D01*
X93383431Y-21989540D01*
X93298065Y-21904174D01*
X93193514Y-21843811D01*
X93076903Y-21812565D01*
X93076901Y-21812565D01*
X93070754Y-21810918D01*
X93011093Y-21774553D01*
X92983072Y-21723234D01*
X92980337Y-21713026D01*
X92919974Y-21608475D01*
X92834608Y-21523109D01*
X92730057Y-21462746D01*
X92613446Y-21431500D01*
X92492720Y-21431500D01*
X92376109Y-21462746D01*
X92376107Y-21462746D01*
X92376107Y-21462747D01*
X92271558Y-21523109D01*
X92271555Y-21523111D01*
X92186194Y-21608472D01*
X92186192Y-21608475D01*
X92126998Y-21711002D01*
X92125829Y-21713026D01*
X92097015Y-21820562D01*
X92060650Y-21880222D01*
X91997803Y-21910751D01*
X91993430Y-21911407D01*
X91992721Y-21911500D01*
X91992720Y-21911500D01*
X91876109Y-21942746D01*
X91876107Y-21942746D01*
X91876107Y-21942747D01*
X91771558Y-22003109D01*
X91771555Y-22003111D01*
X91686194Y-22088472D01*
X91686192Y-22088475D01*
X91627864Y-22189501D01*
X91577296Y-22237716D01*
X91520477Y-22251500D01*
X91482720Y-22251500D01*
X91366109Y-22282746D01*
X91366107Y-22282746D01*
X91366107Y-22282747D01*
X91261558Y-22343109D01*
X91261555Y-22343111D01*
X91176194Y-22428472D01*
X91176192Y-22428475D01*
X91145890Y-22480960D01*
X91115829Y-22533026D01*
X91084583Y-22649637D01*
X88275211Y-22649637D01*
X88314608Y-22626891D01*
X88399974Y-22541525D01*
X88460337Y-22436974D01*
X88491583Y-22320363D01*
X88491583Y-22199637D01*
X88460337Y-22083026D01*
X88409225Y-21994498D01*
X88392753Y-21926601D01*
X88415605Y-21860574D01*
X88470526Y-21817383D01*
X88516613Y-21808500D01*
X90764798Y-21808500D01*
X90764801Y-21808500D01*
X90843263Y-21787476D01*
X90876130Y-21768500D01*
X90913609Y-21746862D01*
X92735357Y-19925112D01*
X92796678Y-19891629D01*
X92866369Y-19896613D01*
X92922303Y-19938485D01*
X92946720Y-20003949D01*
X92942811Y-20044887D01*
X92936764Y-20067454D01*
X92936764Y-20067456D01*
X92936764Y-20188182D01*
X92968010Y-20304793D01*
X93028373Y-20409344D01*
X93113739Y-20494710D01*
X93218290Y-20555073D01*
X93334901Y-20586319D01*
X93334904Y-20586319D01*
X93455624Y-20586319D01*
X93455627Y-20586319D01*
X93572238Y-20555073D01*
X93676789Y-20494710D01*
X93762155Y-20409344D01*
X93822518Y-20304793D01*
X93853764Y-20188182D01*
X93853764Y-20067456D01*
X93822518Y-19950845D01*
X93815382Y-19938485D01*
X93799865Y-19911608D01*
X93783392Y-19843708D01*
X93806244Y-19777681D01*
X93819561Y-19761937D01*
X93839974Y-19741525D01*
X93900337Y-19636974D01*
X93931583Y-19520363D01*
X93931583Y-19399637D01*
X93900337Y-19283026D01*
X93839974Y-19178475D01*
X93839971Y-19178472D01*
X93839090Y-19177323D01*
X93838647Y-19176178D01*
X93835910Y-19171437D01*
X93836649Y-19171010D01*
X93813897Y-19112154D01*
X93827936Y-19043709D01*
X93876751Y-18993720D01*
X93937467Y-18977838D01*
X102940330Y-18977838D01*
X103007369Y-18997523D01*
X103028011Y-19014157D01*
X103498264Y-19484410D01*
X103531749Y-19545733D01*
X103534583Y-19572091D01*
X103534583Y-20580615D01*
X103544727Y-20618472D01*
X103555607Y-20659078D01*
X103565214Y-20675716D01*
X103567616Y-20679876D01*
X103576206Y-20694754D01*
X103596221Y-20729423D01*
X104215392Y-21348594D01*
X104248877Y-21409917D01*
X104243893Y-21479609D01*
X104202021Y-21535542D01*
X104136557Y-21559959D01*
X104127711Y-21560275D01*
X104073774Y-21560275D01*
X103959197Y-21590976D01*
X103959195Y-21590976D01*
X103959195Y-21590977D01*
X103856470Y-21650286D01*
X103856467Y-21650288D01*
X103772596Y-21734159D01*
X103772594Y-21734162D01*
X103715423Y-21833185D01*
X103713284Y-21836889D01*
X103682583Y-21951466D01*
X103682583Y-22070084D01*
X103713284Y-22184661D01*
X103772594Y-22287388D01*
X103856470Y-22371264D01*
X103959197Y-22430574D01*
X104073774Y-22461275D01*
X104073777Y-22461275D01*
X104086161Y-22461275D01*
X104153200Y-22480960D01*
X104198955Y-22533764D01*
X104208899Y-22602922D01*
X104179874Y-22666478D01*
X104173842Y-22672956D01*
X101221617Y-25625181D01*
X101160294Y-25658666D01*
X101133936Y-25661500D01*
X101102720Y-25661500D01*
X100986109Y-25692746D01*
X100986107Y-25692746D01*
X100986107Y-25692747D01*
X100881558Y-25753109D01*
X100881555Y-25753111D01*
X100796194Y-25838472D01*
X100796192Y-25838475D01*
X100735829Y-25943026D01*
X100704583Y-26059637D01*
X100704583Y-26180363D01*
X100735829Y-26296974D01*
X100796192Y-26401525D01*
X100881558Y-26486891D01*
X100986109Y-26547254D01*
X101102720Y-26578500D01*
X101102723Y-26578500D01*
X101223443Y-26578500D01*
X101223446Y-26578500D01*
X101340057Y-26547254D01*
X101444608Y-26486891D01*
X101529974Y-26401525D01*
X101590337Y-26296974D01*
X101621583Y-26180363D01*
X101621583Y-26149147D01*
X101624375Y-26139637D01*
X104264583Y-26139637D01*
X104264583Y-26260363D01*
X104295829Y-26376974D01*
X104356192Y-26481525D01*
X104441558Y-26566891D01*
X104546109Y-26627254D01*
X104662720Y-26658500D01*
X104662723Y-26658500D01*
X104783443Y-26658500D01*
X104783446Y-26658500D01*
X104900057Y-26627254D01*
X105004608Y-26566891D01*
X105089974Y-26481525D01*
X105150337Y-26376974D01*
X105181583Y-26260363D01*
X105181583Y-26139637D01*
X105150337Y-26023026D01*
X105089974Y-25918475D01*
X105004608Y-25833109D01*
X104900057Y-25772746D01*
X104783446Y-25741500D01*
X104662720Y-25741500D01*
X104546109Y-25772746D01*
X104546107Y-25772746D01*
X104546107Y-25772747D01*
X104441558Y-25833109D01*
X104441555Y-25833111D01*
X104356194Y-25918472D01*
X104356192Y-25918475D01*
X104296517Y-26021835D01*
X104295829Y-26023026D01*
X104264583Y-26139637D01*
X101624375Y-26139637D01*
X101630227Y-26119706D01*
X101636751Y-26089720D01*
X101640505Y-26084704D01*
X101641268Y-26082108D01*
X101657902Y-26061466D01*
X101675539Y-26043829D01*
X103396344Y-24323024D01*
X105119944Y-22599424D01*
X105143897Y-22557936D01*
X105160559Y-22529077D01*
X105181583Y-22450615D01*
X105181583Y-21529385D01*
X105160559Y-21450923D01*
X105129356Y-21396878D01*
X105119945Y-21380577D01*
X105119943Y-21380575D01*
X105119942Y-21380573D01*
X104187902Y-20448533D01*
X104173198Y-20421605D01*
X104156606Y-20395787D01*
X104155714Y-20389586D01*
X104154417Y-20387210D01*
X104151583Y-20360852D01*
X104151583Y-20340542D01*
X104171268Y-20273503D01*
X104224072Y-20227748D01*
X104293230Y-20217804D01*
X104323034Y-20225980D01*
X104326101Y-20227249D01*
X104326109Y-20227254D01*
X104442720Y-20258500D01*
X104442723Y-20258500D01*
X104563443Y-20258500D01*
X104563446Y-20258500D01*
X104680057Y-20227254D01*
X104784608Y-20166891D01*
X104869974Y-20081525D01*
X104930337Y-19976974D01*
X104961583Y-19860363D01*
X104961583Y-19739637D01*
X104930337Y-19623026D01*
X104869974Y-19518475D01*
X104784608Y-19433109D01*
X104783358Y-19432387D01*
X104782517Y-19431505D01*
X104778159Y-19428161D01*
X104778680Y-19427481D01*
X104735143Y-19381822D01*
X104721918Y-19313216D01*
X104747885Y-19248350D01*
X104778287Y-19222006D01*
X104778159Y-19221839D01*
X104780970Y-19219681D01*
X104783359Y-19217612D01*
X104784608Y-19216891D01*
X104869974Y-19131525D01*
X104930337Y-19026974D01*
X104961583Y-18910363D01*
X104961583Y-18789637D01*
X104930337Y-18673026D01*
X104869974Y-18568475D01*
X104784608Y-18483109D01*
X104680057Y-18422746D01*
X104563446Y-18391500D01*
X104442720Y-18391500D01*
X104326109Y-18422746D01*
X104326107Y-18422746D01*
X104326107Y-18422747D01*
X104221558Y-18483109D01*
X104221555Y-18483111D01*
X104136194Y-18568472D01*
X104136192Y-18568475D01*
X104107476Y-18618213D01*
X104075829Y-18673026D01*
X104044583Y-18789637D01*
X104044583Y-18789639D01*
X104044583Y-18858796D01*
X104024898Y-18925835D01*
X103972094Y-18971590D01*
X103902936Y-18981534D01*
X103839380Y-18952509D01*
X103832902Y-18946477D01*
X103308901Y-18422477D01*
X103308900Y-18422476D01*
X103255247Y-18391500D01*
X103255247Y-18391499D01*
X103255243Y-18391498D01*
X103238554Y-18381862D01*
X103160092Y-18360838D01*
X103160091Y-18360838D01*
X93635374Y-18360838D01*
X93568335Y-18341153D01*
X93527988Y-18298840D01*
X93504827Y-18258726D01*
X93480241Y-18216142D01*
X93463768Y-18148245D01*
X93480240Y-18092144D01*
X93498300Y-18060865D01*
X93529546Y-17944254D01*
X93529546Y-17823528D01*
X93514770Y-17768383D01*
X93514852Y-17764918D01*
X93513211Y-17761865D01*
X93515677Y-17730246D01*
X93516433Y-17698534D01*
X93518456Y-17694640D01*
X93518646Y-17692207D01*
X93524098Y-17683781D01*
X93535761Y-17661340D01*
X93540874Y-17654600D01*
X93606033Y-17589442D01*
X93611694Y-17579637D01*
X98094583Y-17579637D01*
X98094583Y-17700363D01*
X98125829Y-17816974D01*
X98186192Y-17921525D01*
X98271558Y-18006891D01*
X98376109Y-18067254D01*
X98492720Y-18098500D01*
X98492723Y-18098500D01*
X98613443Y-18098500D01*
X98613446Y-18098500D01*
X98730057Y-18067254D01*
X98834608Y-18006891D01*
X98919974Y-17921525D01*
X98980337Y-17816974D01*
X99011583Y-17700363D01*
X99011583Y-17579637D01*
X98980337Y-17463026D01*
X98919974Y-17358475D01*
X98834608Y-17273109D01*
X98730057Y-17212746D01*
X98613446Y-17181500D01*
X98492720Y-17181500D01*
X98376109Y-17212746D01*
X98376107Y-17212746D01*
X98376107Y-17212747D01*
X98271558Y-17273109D01*
X98271555Y-17273111D01*
X98186194Y-17358472D01*
X98186192Y-17358475D01*
X98125829Y-17463026D01*
X98094583Y-17579637D01*
X93611694Y-17579637D01*
X93666396Y-17484891D01*
X93697642Y-17368280D01*
X93697642Y-17247554D01*
X93666396Y-17130943D01*
X93606033Y-17026392D01*
X93531107Y-16951466D01*
X103682583Y-16951466D01*
X103682583Y-17070084D01*
X103713284Y-17184661D01*
X103772594Y-17287388D01*
X103856470Y-17371264D01*
X103959197Y-17430574D01*
X104073774Y-17461275D01*
X104073777Y-17461275D01*
X104192389Y-17461275D01*
X104192392Y-17461275D01*
X104306969Y-17430574D01*
X104409696Y-17371264D01*
X104493572Y-17287388D01*
X104552882Y-17184661D01*
X104583583Y-17070084D01*
X104583583Y-16951466D01*
X104552882Y-16836889D01*
X104493572Y-16734162D01*
X104409696Y-16650286D01*
X104306969Y-16590976D01*
X104192392Y-16560275D01*
X104073774Y-16560275D01*
X103959197Y-16590976D01*
X103959195Y-16590976D01*
X103959195Y-16590977D01*
X103856470Y-16650286D01*
X103856467Y-16650288D01*
X103772596Y-16734159D01*
X103772594Y-16734162D01*
X103727223Y-16812747D01*
X103713284Y-16836889D01*
X103682583Y-16951466D01*
X93531107Y-16951466D01*
X93520667Y-16941026D01*
X93416116Y-16880663D01*
X93299505Y-16849417D01*
X93178779Y-16849417D01*
X93178777Y-16849417D01*
X93138840Y-16860118D01*
X93068990Y-16858455D01*
X93011128Y-16819291D01*
X92986975Y-16772439D01*
X92960337Y-16673026D01*
X92899974Y-16568475D01*
X92814608Y-16483109D01*
X92710057Y-16422746D01*
X92593446Y-16391500D01*
X92472720Y-16391500D01*
X92356109Y-16422746D01*
X92356107Y-16422746D01*
X92356107Y-16422747D01*
X92251558Y-16483109D01*
X92251555Y-16483111D01*
X92166194Y-16568472D01*
X92166192Y-16568475D01*
X92138144Y-16617056D01*
X92105829Y-16673026D01*
X92074583Y-16789637D01*
X92074583Y-16910363D01*
X92105829Y-17026974D01*
X92166192Y-17131525D01*
X92251558Y-17216891D01*
X92356109Y-17277254D01*
X92472720Y-17308500D01*
X92472723Y-17308500D01*
X92593444Y-17308500D01*
X92593446Y-17308500D01*
X92633382Y-17297799D01*
X92642432Y-17298014D01*
X92650756Y-17294450D01*
X92676816Y-17298832D01*
X92703231Y-17299461D01*
X92710728Y-17304535D01*
X92719659Y-17306037D01*
X92739212Y-17323812D01*
X92761094Y-17338622D01*
X92766025Y-17348188D01*
X92771358Y-17353036D01*
X92785251Y-17385481D01*
X92795417Y-17423423D01*
X92793754Y-17493273D01*
X92763325Y-17543195D01*
X92704155Y-17602366D01*
X92646200Y-17702747D01*
X92643792Y-17706917D01*
X92612546Y-17823528D01*
X92612546Y-17944254D01*
X92643792Y-18060865D01*
X92695652Y-18150689D01*
X92712125Y-18218587D01*
X92695653Y-18274687D01*
X92677595Y-18305964D01*
X92677594Y-18305966D01*
X92677594Y-18305967D01*
X92646348Y-18422578D01*
X92646348Y-18543304D01*
X92677594Y-18659915D01*
X92737957Y-18764466D01*
X92737959Y-18764468D01*
X92793014Y-18819523D01*
X92826499Y-18880846D01*
X92821515Y-18950538D01*
X92793014Y-18994885D01*
X91411203Y-20376696D01*
X91349880Y-20410181D01*
X91280188Y-20405197D01*
X91224255Y-20363325D01*
X91199838Y-20297861D01*
X91203747Y-20256925D01*
X91221583Y-20190363D01*
X91221583Y-20069637D01*
X91190337Y-19953026D01*
X91129974Y-19848475D01*
X91044608Y-19763109D01*
X91000055Y-19737386D01*
X90951840Y-19686820D01*
X90938617Y-19618213D01*
X90964585Y-19553348D01*
X91000054Y-19522613D01*
X91044608Y-19496891D01*
X91129974Y-19411525D01*
X91190337Y-19306974D01*
X91221583Y-19190363D01*
X91221583Y-19069637D01*
X91190337Y-18953026D01*
X91129974Y-18848475D01*
X91044608Y-18763109D01*
X91000055Y-18737386D01*
X90951840Y-18686820D01*
X90938617Y-18618213D01*
X90964585Y-18553348D01*
X91000054Y-18522613D01*
X91044608Y-18496891D01*
X91129974Y-18411525D01*
X91190337Y-18306974D01*
X91221583Y-18190363D01*
X91221583Y-18069637D01*
X91190337Y-17953026D01*
X91129974Y-17848475D01*
X91044608Y-17763109D01*
X90940057Y-17702746D01*
X90823446Y-17671500D01*
X90702720Y-17671500D01*
X90586109Y-17702746D01*
X90586107Y-17702746D01*
X90586107Y-17702747D01*
X90481558Y-17763109D01*
X90481555Y-17763111D01*
X90396194Y-17848472D01*
X90396192Y-17848475D01*
X90372092Y-17890218D01*
X90370470Y-17893027D01*
X90319902Y-17941242D01*
X90251295Y-17954464D01*
X90186431Y-17928496D01*
X90155696Y-17893027D01*
X90129974Y-17848475D01*
X90044608Y-17763109D01*
X89940057Y-17702746D01*
X89823446Y-17671500D01*
X89702720Y-17671500D01*
X89586109Y-17702746D01*
X89586107Y-17702746D01*
X89586107Y-17702747D01*
X89481558Y-17763109D01*
X89481555Y-17763111D01*
X89396194Y-17848472D01*
X89396192Y-17848475D01*
X89372092Y-17890218D01*
X89370470Y-17893027D01*
X89319902Y-17941242D01*
X89251295Y-17954464D01*
X89186431Y-17928496D01*
X89155696Y-17893027D01*
X89129974Y-17848475D01*
X89044608Y-17763109D01*
X88940057Y-17702746D01*
X88823446Y-17671500D01*
X88702720Y-17671500D01*
X88586109Y-17702746D01*
X88586107Y-17702746D01*
X88586107Y-17702747D01*
X88481558Y-17763109D01*
X88481555Y-17763111D01*
X88396194Y-17848472D01*
X88396192Y-17848475D01*
X88340894Y-17944254D01*
X88335829Y-17953026D01*
X88304583Y-18069637D01*
X88304583Y-18190363D01*
X88335829Y-18306974D01*
X88396192Y-18411525D01*
X88481558Y-18496891D01*
X88526110Y-18522613D01*
X88574325Y-18573181D01*
X88587547Y-18641788D01*
X88561579Y-18706652D01*
X88526111Y-18737386D01*
X88493712Y-18756092D01*
X88481558Y-18763109D01*
X88481555Y-18763111D01*
X88396194Y-18848472D01*
X88396192Y-18848475D01*
X88342633Y-18941242D01*
X88335829Y-18953026D01*
X88304583Y-19069637D01*
X88304583Y-19190363D01*
X88335829Y-19306974D01*
X88396192Y-19411525D01*
X88481558Y-19496891D01*
X88526110Y-19522613D01*
X88574325Y-19573181D01*
X88587547Y-19641788D01*
X88561579Y-19706652D01*
X88526111Y-19737386D01*
X88492853Y-19756588D01*
X88481558Y-19763109D01*
X88481555Y-19763111D01*
X88396194Y-19848472D01*
X88396192Y-19848475D01*
X88337091Y-19950841D01*
X88335829Y-19953026D01*
X88304583Y-20069637D01*
X88304583Y-20190363D01*
X88335829Y-20306974D01*
X88396192Y-20411525D01*
X88481558Y-20496891D01*
X88586109Y-20557254D01*
X88702720Y-20588500D01*
X88702723Y-20588500D01*
X88823443Y-20588500D01*
X88823446Y-20588500D01*
X88940057Y-20557254D01*
X89044608Y-20496891D01*
X89129974Y-20411525D01*
X89155696Y-20366972D01*
X89206263Y-20318757D01*
X89274870Y-20305534D01*
X89339735Y-20331502D01*
X89370469Y-20366971D01*
X89396192Y-20411525D01*
X89481558Y-20496891D01*
X89586109Y-20557254D01*
X89702720Y-20588500D01*
X89702723Y-20588500D01*
X89823443Y-20588500D01*
X89823446Y-20588500D01*
X89940057Y-20557254D01*
X90044608Y-20496891D01*
X90129974Y-20411525D01*
X90155696Y-20366972D01*
X90206263Y-20318757D01*
X90274870Y-20305534D01*
X90339735Y-20331502D01*
X90370469Y-20366971D01*
X90396192Y-20411525D01*
X90481558Y-20496891D01*
X90586109Y-20557254D01*
X90702720Y-20588500D01*
X90702723Y-20588500D01*
X90823444Y-20588500D01*
X90823446Y-20588500D01*
X90890006Y-20570665D01*
X90959853Y-20572326D01*
X91017716Y-20611488D01*
X91045221Y-20675716D01*
X91033635Y-20744618D01*
X91009779Y-20778120D01*
X90632720Y-21155181D01*
X90571397Y-21188666D01*
X90545039Y-21191500D01*
X88722544Y-21191500D01*
X88655505Y-21171815D01*
X88634863Y-21155181D01*
X86346842Y-18867160D01*
X86313357Y-18805837D01*
X86310523Y-18779479D01*
X86310523Y-18748265D01*
X86310523Y-18748263D01*
X86279277Y-18631652D01*
X86218914Y-18527101D01*
X86133548Y-18441735D01*
X86028997Y-18381372D01*
X85912386Y-18350126D01*
X85791660Y-18350126D01*
X85675049Y-18381372D01*
X85675047Y-18381372D01*
X85675047Y-18381373D01*
X85570498Y-18441735D01*
X85570495Y-18441737D01*
X85485134Y-18527098D01*
X85485132Y-18527101D01*
X85441298Y-18603024D01*
X85424769Y-18631652D01*
X85393523Y-18748263D01*
X83671583Y-18748263D01*
X83671583Y-18719637D01*
X83640337Y-18603026D01*
X83579974Y-18498475D01*
X83524915Y-18443416D01*
X83491430Y-18382093D01*
X83496414Y-18312401D01*
X83524913Y-18268056D01*
X85850034Y-15942935D01*
X85911355Y-15909452D01*
X85981047Y-15914436D01*
X86036980Y-15956308D01*
X86057487Y-15998522D01*
X86062409Y-16016890D01*
X86075829Y-16066975D01*
X86102859Y-16113791D01*
X86136192Y-16171525D01*
X86221558Y-16256891D01*
X86231367Y-16262554D01*
X86279581Y-16313123D01*
X86292802Y-16381730D01*
X86266833Y-16446594D01*
X86257046Y-16457620D01*
X86206195Y-16508471D01*
X86206192Y-16508475D01*
X86147886Y-16609464D01*
X86145829Y-16613026D01*
X86129752Y-16673026D01*
X86122247Y-16701036D01*
X86085882Y-16760696D01*
X86023034Y-16791225D01*
X85970380Y-16788717D01*
X85943446Y-16781500D01*
X85822720Y-16781500D01*
X85706109Y-16812746D01*
X85706107Y-16812746D01*
X85706107Y-16812747D01*
X85601558Y-16873109D01*
X85601555Y-16873111D01*
X85516194Y-16958472D01*
X85516192Y-16958475D01*
X85463387Y-17049936D01*
X85455829Y-17063026D01*
X85424583Y-17179637D01*
X85424583Y-17300363D01*
X85455829Y-17416974D01*
X85516192Y-17521525D01*
X85601558Y-17606891D01*
X85706109Y-17667254D01*
X85822720Y-17698500D01*
X85822723Y-17698500D01*
X85943443Y-17698500D01*
X85943446Y-17698500D01*
X86060057Y-17667254D01*
X86164608Y-17606891D01*
X86249974Y-17521525D01*
X86310337Y-17416974D01*
X86333920Y-17328960D01*
X86370282Y-17269304D01*
X86433129Y-17238774D01*
X86485785Y-17241282D01*
X86512720Y-17248500D01*
X86512722Y-17248500D01*
X86633443Y-17248500D01*
X86633446Y-17248500D01*
X86750057Y-17217254D01*
X86854608Y-17156891D01*
X86939974Y-17071525D01*
X87000337Y-16966974D01*
X87022497Y-16884270D01*
X87058861Y-16824612D01*
X87114109Y-16797774D01*
X87113669Y-16796132D01*
X87121517Y-16794029D01*
X87121520Y-16794029D01*
X87238131Y-16762783D01*
X87342682Y-16702420D01*
X87428048Y-16617054D01*
X87488411Y-16512503D01*
X87519657Y-16395892D01*
X87519657Y-16275166D01*
X87488411Y-16158555D01*
X87428048Y-16054004D01*
X87342682Y-15968638D01*
X87238131Y-15908275D01*
X87121520Y-15877029D01*
X87069430Y-15877029D01*
X87050477Y-15871464D01*
X87030736Y-15870837D01*
X87017642Y-15861822D01*
X87002391Y-15857344D01*
X86989457Y-15842417D01*
X86973187Y-15831216D01*
X86963773Y-15812776D01*
X86956636Y-15804540D01*
X86955057Y-15800934D01*
X86951823Y-15793213D01*
X86930337Y-15713026D01*
X86869974Y-15608475D01*
X86851136Y-15589637D01*
X88774583Y-15589637D01*
X88774583Y-15710363D01*
X88805829Y-15826974D01*
X88866192Y-15931525D01*
X88951558Y-16016891D01*
X89056109Y-16077254D01*
X89172720Y-16108500D01*
X89172723Y-16108500D01*
X89293443Y-16108500D01*
X89293446Y-16108500D01*
X89410057Y-16077254D01*
X89484712Y-16034151D01*
X89552610Y-16017679D01*
X89608710Y-16034151D01*
X89692530Y-16082545D01*
X89809141Y-16113791D01*
X89809144Y-16113791D01*
X89929864Y-16113791D01*
X89929867Y-16113791D01*
X90046478Y-16082545D01*
X90046482Y-16082542D01*
X90052265Y-16080993D01*
X90122115Y-16082656D01*
X90172040Y-16113087D01*
X90179809Y-16120856D01*
X90284360Y-16181219D01*
X90400971Y-16212465D01*
X90400974Y-16212465D01*
X90521694Y-16212465D01*
X90521697Y-16212465D01*
X90638308Y-16181219D01*
X90679529Y-16157419D01*
X90747428Y-16140947D01*
X90803528Y-16157419D01*
X90883934Y-16203842D01*
X91000545Y-16235088D01*
X91000548Y-16235088D01*
X91121268Y-16235088D01*
X91121271Y-16235088D01*
X91237882Y-16203842D01*
X91342433Y-16143479D01*
X91427799Y-16058113D01*
X91488162Y-15953562D01*
X91519408Y-15836951D01*
X91519408Y-15716225D01*
X91488162Y-15599614D01*
X91427799Y-15495063D01*
X91342433Y-15409697D01*
X91237882Y-15349334D01*
X91121271Y-15318088D01*
X91000545Y-15318088D01*
X90918575Y-15340051D01*
X90883929Y-15349335D01*
X90883928Y-15349336D01*
X90842710Y-15373133D01*
X90774810Y-15389604D01*
X90718712Y-15373132D01*
X90638311Y-15326712D01*
X90638312Y-15326712D01*
X90628749Y-15324149D01*
X90521697Y-15295465D01*
X90400971Y-15295465D01*
X90278571Y-15328262D01*
X90208721Y-15326599D01*
X90158797Y-15296168D01*
X90151031Y-15288402D01*
X90151029Y-15288400D01*
X90046478Y-15228037D01*
X89929867Y-15196791D01*
X89809141Y-15196791D01*
X89727171Y-15218754D01*
X89692525Y-15228038D01*
X89617875Y-15271138D01*
X89549974Y-15287611D01*
X89493875Y-15271138D01*
X89410060Y-15222747D01*
X89410061Y-15222747D01*
X89400498Y-15220184D01*
X89293446Y-15191500D01*
X89172720Y-15191500D01*
X89056109Y-15222746D01*
X89056107Y-15222746D01*
X89056107Y-15222747D01*
X88951558Y-15283109D01*
X88951555Y-15283111D01*
X88866194Y-15368472D01*
X88866192Y-15368475D01*
X88838241Y-15416888D01*
X88805829Y-15473026D01*
X88774583Y-15589637D01*
X86851136Y-15589637D01*
X86784608Y-15523109D01*
X86732332Y-15492927D01*
X86680058Y-15462746D01*
X86642922Y-15452795D01*
X86611606Y-15444404D01*
X86551947Y-15408039D01*
X86521418Y-15345192D01*
X86529713Y-15275817D01*
X86556017Y-15236952D01*
X86803332Y-14989637D01*
X91974583Y-14989637D01*
X91974583Y-15110363D01*
X92005829Y-15226974D01*
X92066192Y-15331525D01*
X92151558Y-15416891D01*
X92256109Y-15477254D01*
X92372720Y-15508500D01*
X92372723Y-15508500D01*
X92493443Y-15508500D01*
X92493446Y-15508500D01*
X92610057Y-15477254D01*
X92714608Y-15416891D01*
X92771862Y-15359637D01*
X95174583Y-15359637D01*
X95174583Y-15480363D01*
X95205829Y-15596974D01*
X95266192Y-15701525D01*
X95351558Y-15786891D01*
X95456109Y-15847254D01*
X95572720Y-15878500D01*
X95572723Y-15878500D01*
X95693443Y-15878500D01*
X95693446Y-15878500D01*
X95810057Y-15847254D01*
X95914608Y-15786891D01*
X95999974Y-15701525D01*
X96060337Y-15596974D01*
X96091583Y-15480363D01*
X96091583Y-15359637D01*
X96060337Y-15243026D01*
X95999974Y-15138475D01*
X95914608Y-15053109D01*
X95810057Y-14992746D01*
X95693446Y-14961500D01*
X95572720Y-14961500D01*
X95456109Y-14992746D01*
X95456107Y-14992746D01*
X95456107Y-14992747D01*
X95351558Y-15053109D01*
X95351555Y-15053111D01*
X95266194Y-15138472D01*
X95266192Y-15138475D01*
X95209338Y-15236949D01*
X95205829Y-15243026D01*
X95174583Y-15359637D01*
X92771862Y-15359637D01*
X92799974Y-15331525D01*
X92860337Y-15226974D01*
X92891583Y-15110363D01*
X92891583Y-14989637D01*
X92860337Y-14873026D01*
X92799974Y-14768475D01*
X92714608Y-14683109D01*
X92610057Y-14622746D01*
X92493446Y-14591500D01*
X92372720Y-14591500D01*
X92256109Y-14622746D01*
X92256107Y-14622746D01*
X92256107Y-14622747D01*
X92151558Y-14683109D01*
X92151555Y-14683111D01*
X92066194Y-14768472D01*
X92066192Y-14768475D01*
X92005829Y-14873026D01*
X91974583Y-14989637D01*
X86803332Y-14989637D01*
X87863250Y-13929721D01*
X87975060Y-13775829D01*
X88061419Y-13606339D01*
X88120201Y-13425427D01*
X88127745Y-13377797D01*
X88149958Y-13237552D01*
X88149958Y-11810164D01*
X88120201Y-11622289D01*
X88065231Y-11453111D01*
X88061419Y-11441378D01*
X88061417Y-11441375D01*
X88061417Y-11441373D01*
X87975059Y-11271888D01*
X87970698Y-11265885D01*
X87863250Y-11117996D01*
X87728743Y-10983489D01*
X87607763Y-10895591D01*
X87565099Y-10840263D01*
X87559120Y-10770650D01*
X87591726Y-10708855D01*
X87652565Y-10674497D01*
X87680650Y-10671275D01*
X89071227Y-10671275D01*
X89138266Y-10690960D01*
G37*
%TD.AperFunction*%
%TA.AperFunction,Conductor*%
G36*
X83528285Y-10675193D02*
G01*
X83542165Y-10674300D01*
X83561149Y-10684843D01*
X83581981Y-10690960D01*
X83591087Y-10701468D01*
X83603247Y-10708222D01*
X83613517Y-10727355D01*
X83627736Y-10743764D01*
X83630391Y-10758789D01*
X83636293Y-10769783D01*
X83637447Y-10787716D01*
X84272049Y-11422318D01*
X84208465Y-11439356D01*
X84094451Y-11505182D01*
X84001359Y-11598274D01*
X83935533Y-11712288D01*
X83918495Y-11775872D01*
X83286186Y-11143563D01*
X83286185Y-11143563D01*
X83246838Y-11197720D01*
X83150362Y-11387064D01*
X83096921Y-11551538D01*
X83057483Y-11609214D01*
X82993125Y-11636412D01*
X82924278Y-11624497D01*
X82872803Y-11577253D01*
X82864429Y-11560672D01*
X82799492Y-11403899D01*
X82799485Y-11403886D01*
X82683649Y-11230526D01*
X82683646Y-11230522D01*
X82536216Y-11083092D01*
X82536212Y-11083089D01*
X82362852Y-10967253D01*
X82362843Y-10967248D01*
X82243274Y-10917721D01*
X82224235Y-10909835D01*
X82169833Y-10865995D01*
X82147768Y-10799701D01*
X82165047Y-10732002D01*
X82216184Y-10684391D01*
X82271689Y-10671275D01*
X83514942Y-10671275D01*
X83528285Y-10675193D01*
G37*
%TD.AperFunction*%
%TA.AperFunction,Conductor*%
G36*
X86269305Y-10690960D02*
G01*
X86315060Y-10743764D01*
X86325004Y-10812922D01*
X86295979Y-10876478D01*
X86275154Y-10895590D01*
X86229359Y-10928863D01*
X86154170Y-10983491D01*
X86019668Y-11117993D01*
X86019668Y-11117994D01*
X86019666Y-11117996D01*
X85982396Y-11169293D01*
X85907852Y-11271893D01*
X85861346Y-11363167D01*
X85813372Y-11413963D01*
X85745551Y-11430758D01*
X85679416Y-11408220D01*
X85640377Y-11363167D01*
X85556082Y-11197730D01*
X85516728Y-11143563D01*
X85516727Y-11143563D01*
X84884420Y-11775870D01*
X84867383Y-11712288D01*
X84801557Y-11598274D01*
X84708465Y-11505182D01*
X84594451Y-11439356D01*
X84530867Y-11422318D01*
X85168656Y-10784527D01*
X85178719Y-10736627D01*
X85227770Y-10686870D01*
X85287973Y-10671275D01*
X86202266Y-10671275D01*
X86269305Y-10690960D01*
G37*
%TD.AperFunction*%
%TD*%
M02*
