%TF.GenerationSoftware,KiCad,Pcbnew,10.0.4*%
%TF.CreationDate,2026-09-19T08:13:50+12:00*%
%TF.ProjectId,MicroDev128,4d696372-6f44-4657-9631-32382e6b6963,Rev 1B*%
%TF.SameCoordinates,PX5f5e100PY5f5e100*%
%TF.FileFunction,Legend,Top*%
%TF.FilePolarity,Positive*%
%FSLAX46Y46*%
G04 Gerber Fmt 4.6, Leading zero omitted, Abs format (unit mm)*
G04 Created by KiCad (PCBNEW 10.0.4) date 2026-09-19 08:13:50*
%MOMM*%
%LPD*%
G01*
G04 APERTURE LIST*
%ADD10C,0.125000*%
%ADD11C,0.150000*%
%ADD12C,0.120000*%
G04 APERTURE END LIST*
D10*
X63982535Y-25946811D02*
X63982535Y-25708716D01*
X64125392Y-25994430D02*
X63625392Y-25827764D01*
X63625392Y-25827764D02*
X64125392Y-25661097D01*
X63673011Y-25518240D02*
X63649202Y-25494431D01*
X63649202Y-25494431D02*
X63625392Y-25446812D01*
X63625392Y-25446812D02*
X63625392Y-25327764D01*
X63625392Y-25327764D02*
X63649202Y-25280145D01*
X63649202Y-25280145D02*
X63673011Y-25256336D01*
X63673011Y-25256336D02*
X63720630Y-25232526D01*
X63720630Y-25232526D02*
X63768249Y-25232526D01*
X63768249Y-25232526D02*
X63839678Y-25256336D01*
X63839678Y-25256336D02*
X64125392Y-25542050D01*
X64125392Y-25542050D02*
X64125392Y-25232526D01*
X64397844Y-13888240D02*
X63897844Y-13888240D01*
X63897844Y-13888240D02*
X63897844Y-13769192D01*
X63897844Y-13769192D02*
X63921654Y-13697764D01*
X63921654Y-13697764D02*
X63969273Y-13650145D01*
X63969273Y-13650145D02*
X64016892Y-13626335D01*
X64016892Y-13626335D02*
X64112130Y-13602526D01*
X64112130Y-13602526D02*
X64183558Y-13602526D01*
X64183558Y-13602526D02*
X64278796Y-13626335D01*
X64278796Y-13626335D02*
X64326415Y-13650145D01*
X64326415Y-13650145D02*
X64374035Y-13697764D01*
X64374035Y-13697764D02*
X64397844Y-13769192D01*
X64397844Y-13769192D02*
X64397844Y-13888240D01*
X63897844Y-13435859D02*
X63897844Y-13102526D01*
X63897844Y-13102526D02*
X64397844Y-13316811D01*
X66664916Y-14260144D02*
X66641106Y-14236335D01*
X66641106Y-14236335D02*
X66617297Y-14188716D01*
X66617297Y-14188716D02*
X66664916Y-14093478D01*
X66664916Y-14093478D02*
X66641106Y-14045859D01*
X66641106Y-14045859D02*
X66617297Y-14022049D01*
X66855392Y-13831573D02*
X66355392Y-13831573D01*
X66355392Y-13831573D02*
X66355392Y-13712525D01*
X66355392Y-13712525D02*
X66379202Y-13641097D01*
X66379202Y-13641097D02*
X66426821Y-13593478D01*
X66426821Y-13593478D02*
X66474440Y-13569668D01*
X66474440Y-13569668D02*
X66569678Y-13545859D01*
X66569678Y-13545859D02*
X66641106Y-13545859D01*
X66641106Y-13545859D02*
X66736344Y-13569668D01*
X66736344Y-13569668D02*
X66783963Y-13593478D01*
X66783963Y-13593478D02*
X66831583Y-13641097D01*
X66831583Y-13641097D02*
X66855392Y-13712525D01*
X66855392Y-13712525D02*
X66855392Y-13831573D01*
X66355392Y-13117287D02*
X66355392Y-13212525D01*
X66355392Y-13212525D02*
X66379202Y-13260144D01*
X66379202Y-13260144D02*
X66403011Y-13283954D01*
X66403011Y-13283954D02*
X66474440Y-13331573D01*
X66474440Y-13331573D02*
X66569678Y-13355382D01*
X66569678Y-13355382D02*
X66760154Y-13355382D01*
X66760154Y-13355382D02*
X66807773Y-13331573D01*
X66807773Y-13331573D02*
X66831583Y-13307763D01*
X66831583Y-13307763D02*
X66855392Y-13260144D01*
X66855392Y-13260144D02*
X66855392Y-13164906D01*
X66855392Y-13164906D02*
X66831583Y-13117287D01*
X66831583Y-13117287D02*
X66807773Y-13093478D01*
X66807773Y-13093478D02*
X66760154Y-13069668D01*
X66760154Y-13069668D02*
X66641106Y-13069668D01*
X66641106Y-13069668D02*
X66593487Y-13093478D01*
X66593487Y-13093478D02*
X66569678Y-13117287D01*
X66569678Y-13117287D02*
X66545868Y-13164906D01*
X66545868Y-13164906D02*
X66545868Y-13260144D01*
X66545868Y-13260144D02*
X66569678Y-13307763D01*
X66569678Y-13307763D02*
X66593487Y-13331573D01*
X66593487Y-13331573D02*
X66641106Y-13355382D01*
X66982535Y-25946811D02*
X66982535Y-25708716D01*
X67125392Y-25994430D02*
X66625392Y-25827764D01*
X66625392Y-25827764D02*
X67125392Y-25661097D01*
X66625392Y-25542050D02*
X66625392Y-25232526D01*
X66625392Y-25232526D02*
X66815868Y-25399193D01*
X66815868Y-25399193D02*
X66815868Y-25327764D01*
X66815868Y-25327764D02*
X66839678Y-25280145D01*
X66839678Y-25280145D02*
X66863487Y-25256336D01*
X66863487Y-25256336D02*
X66911106Y-25232526D01*
X66911106Y-25232526D02*
X67030154Y-25232526D01*
X67030154Y-25232526D02*
X67077773Y-25256336D01*
X67077773Y-25256336D02*
X67101583Y-25280145D01*
X67101583Y-25280145D02*
X67125392Y-25327764D01*
X67125392Y-25327764D02*
X67125392Y-25470621D01*
X67125392Y-25470621D02*
X67101583Y-25518240D01*
X67101583Y-25518240D02*
X67077773Y-25542050D01*
X69397844Y-13888240D02*
X68897844Y-13888240D01*
X68897844Y-13888240D02*
X68897844Y-13769192D01*
X68897844Y-13769192D02*
X68921654Y-13697764D01*
X68921654Y-13697764D02*
X68969273Y-13650145D01*
X68969273Y-13650145D02*
X69016892Y-13626335D01*
X69016892Y-13626335D02*
X69112130Y-13602526D01*
X69112130Y-13602526D02*
X69183558Y-13602526D01*
X69183558Y-13602526D02*
X69278796Y-13626335D01*
X69278796Y-13626335D02*
X69326415Y-13650145D01*
X69326415Y-13650145D02*
X69374035Y-13697764D01*
X69374035Y-13697764D02*
X69397844Y-13769192D01*
X69397844Y-13769192D02*
X69397844Y-13888240D01*
X68897844Y-13150145D02*
X68897844Y-13388240D01*
X68897844Y-13388240D02*
X69135939Y-13412049D01*
X69135939Y-13412049D02*
X69112130Y-13388240D01*
X69112130Y-13388240D02*
X69088320Y-13340621D01*
X69088320Y-13340621D02*
X69088320Y-13221573D01*
X69088320Y-13221573D02*
X69112130Y-13173954D01*
X69112130Y-13173954D02*
X69135939Y-13150145D01*
X69135939Y-13150145D02*
X69183558Y-13126335D01*
X69183558Y-13126335D02*
X69302606Y-13126335D01*
X69302606Y-13126335D02*
X69350225Y-13150145D01*
X69350225Y-13150145D02*
X69374035Y-13173954D01*
X69374035Y-13173954D02*
X69397844Y-13221573D01*
X69397844Y-13221573D02*
X69397844Y-13340621D01*
X69397844Y-13340621D02*
X69374035Y-13388240D01*
X69374035Y-13388240D02*
X69350225Y-13412049D01*
X69482535Y-25946811D02*
X69482535Y-25708716D01*
X69625392Y-25994430D02*
X69125392Y-25827764D01*
X69125392Y-25827764D02*
X69625392Y-25661097D01*
X69292059Y-25280145D02*
X69625392Y-25280145D01*
X69101583Y-25399193D02*
X69458725Y-25518240D01*
X69458725Y-25518240D02*
X69458725Y-25208717D01*
X71897844Y-13888240D02*
X71397844Y-13888240D01*
X71397844Y-13888240D02*
X71397844Y-13769192D01*
X71397844Y-13769192D02*
X71421654Y-13697764D01*
X71421654Y-13697764D02*
X71469273Y-13650145D01*
X71469273Y-13650145D02*
X71516892Y-13626335D01*
X71516892Y-13626335D02*
X71612130Y-13602526D01*
X71612130Y-13602526D02*
X71683558Y-13602526D01*
X71683558Y-13602526D02*
X71778796Y-13626335D01*
X71778796Y-13626335D02*
X71826415Y-13650145D01*
X71826415Y-13650145D02*
X71874035Y-13697764D01*
X71874035Y-13697764D02*
X71897844Y-13769192D01*
X71897844Y-13769192D02*
X71897844Y-13888240D01*
X71564511Y-13173954D02*
X71897844Y-13173954D01*
X71374035Y-13293002D02*
X71731177Y-13412049D01*
X71731177Y-13412049D02*
X71731177Y-13102526D01*
X71932535Y-25946811D02*
X71932535Y-25708716D01*
X72075392Y-25994430D02*
X71575392Y-25827764D01*
X71575392Y-25827764D02*
X72075392Y-25661097D01*
X71575392Y-25256336D02*
X71575392Y-25494431D01*
X71575392Y-25494431D02*
X71813487Y-25518240D01*
X71813487Y-25518240D02*
X71789678Y-25494431D01*
X71789678Y-25494431D02*
X71765868Y-25446812D01*
X71765868Y-25446812D02*
X71765868Y-25327764D01*
X71765868Y-25327764D02*
X71789678Y-25280145D01*
X71789678Y-25280145D02*
X71813487Y-25256336D01*
X71813487Y-25256336D02*
X71861106Y-25232526D01*
X71861106Y-25232526D02*
X71980154Y-25232526D01*
X71980154Y-25232526D02*
X72027773Y-25256336D01*
X72027773Y-25256336D02*
X72051583Y-25280145D01*
X72051583Y-25280145D02*
X72075392Y-25327764D01*
X72075392Y-25327764D02*
X72075392Y-25446812D01*
X72075392Y-25446812D02*
X72051583Y-25494431D01*
X72051583Y-25494431D02*
X72027773Y-25518240D01*
X74237844Y-13888240D02*
X73737844Y-13888240D01*
X73737844Y-13888240D02*
X73737844Y-13769192D01*
X73737844Y-13769192D02*
X73761654Y-13697764D01*
X73761654Y-13697764D02*
X73809273Y-13650145D01*
X73809273Y-13650145D02*
X73856892Y-13626335D01*
X73856892Y-13626335D02*
X73952130Y-13602526D01*
X73952130Y-13602526D02*
X74023558Y-13602526D01*
X74023558Y-13602526D02*
X74118796Y-13626335D01*
X74118796Y-13626335D02*
X74166415Y-13650145D01*
X74166415Y-13650145D02*
X74214035Y-13697764D01*
X74214035Y-13697764D02*
X74237844Y-13769192D01*
X74237844Y-13769192D02*
X74237844Y-13888240D01*
X73737844Y-13435859D02*
X73737844Y-13126335D01*
X73737844Y-13126335D02*
X73928320Y-13293002D01*
X73928320Y-13293002D02*
X73928320Y-13221573D01*
X73928320Y-13221573D02*
X73952130Y-13173954D01*
X73952130Y-13173954D02*
X73975939Y-13150145D01*
X73975939Y-13150145D02*
X74023558Y-13126335D01*
X74023558Y-13126335D02*
X74142606Y-13126335D01*
X74142606Y-13126335D02*
X74190225Y-13150145D01*
X74190225Y-13150145D02*
X74214035Y-13173954D01*
X74214035Y-13173954D02*
X74237844Y-13221573D01*
X74237844Y-13221573D02*
X74237844Y-13364430D01*
X74237844Y-13364430D02*
X74214035Y-13412049D01*
X74214035Y-13412049D02*
X74190225Y-13435859D01*
X74322535Y-25946811D02*
X74322535Y-25708716D01*
X74465392Y-25994430D02*
X73965392Y-25827764D01*
X73965392Y-25827764D02*
X74465392Y-25661097D01*
X73965392Y-25280145D02*
X73965392Y-25375383D01*
X73965392Y-25375383D02*
X73989202Y-25423002D01*
X73989202Y-25423002D02*
X74013011Y-25446812D01*
X74013011Y-25446812D02*
X74084440Y-25494431D01*
X74084440Y-25494431D02*
X74179678Y-25518240D01*
X74179678Y-25518240D02*
X74370154Y-25518240D01*
X74370154Y-25518240D02*
X74417773Y-25494431D01*
X74417773Y-25494431D02*
X74441583Y-25470621D01*
X74441583Y-25470621D02*
X74465392Y-25423002D01*
X74465392Y-25423002D02*
X74465392Y-25327764D01*
X74465392Y-25327764D02*
X74441583Y-25280145D01*
X74441583Y-25280145D02*
X74417773Y-25256336D01*
X74417773Y-25256336D02*
X74370154Y-25232526D01*
X74370154Y-25232526D02*
X74251106Y-25232526D01*
X74251106Y-25232526D02*
X74203487Y-25256336D01*
X74203487Y-25256336D02*
X74179678Y-25280145D01*
X74179678Y-25280145D02*
X74155868Y-25327764D01*
X74155868Y-25327764D02*
X74155868Y-25423002D01*
X74155868Y-25423002D02*
X74179678Y-25470621D01*
X74179678Y-25470621D02*
X74203487Y-25494431D01*
X74203487Y-25494431D02*
X74251106Y-25518240D01*
X77015392Y-13888240D02*
X76515392Y-13888240D01*
X76515392Y-13888240D02*
X76515392Y-13769192D01*
X76515392Y-13769192D02*
X76539202Y-13697764D01*
X76539202Y-13697764D02*
X76586821Y-13650145D01*
X76586821Y-13650145D02*
X76634440Y-13626335D01*
X76634440Y-13626335D02*
X76729678Y-13602526D01*
X76729678Y-13602526D02*
X76801106Y-13602526D01*
X76801106Y-13602526D02*
X76896344Y-13626335D01*
X76896344Y-13626335D02*
X76943963Y-13650145D01*
X76943963Y-13650145D02*
X76991583Y-13697764D01*
X76991583Y-13697764D02*
X77015392Y-13769192D01*
X77015392Y-13769192D02*
X77015392Y-13888240D01*
X76563011Y-13412049D02*
X76539202Y-13388240D01*
X76539202Y-13388240D02*
X76515392Y-13340621D01*
X76515392Y-13340621D02*
X76515392Y-13221573D01*
X76515392Y-13221573D02*
X76539202Y-13173954D01*
X76539202Y-13173954D02*
X76563011Y-13150145D01*
X76563011Y-13150145D02*
X76610630Y-13126335D01*
X76610630Y-13126335D02*
X76658249Y-13126335D01*
X76658249Y-13126335D02*
X76729678Y-13150145D01*
X76729678Y-13150145D02*
X77015392Y-13435859D01*
X77015392Y-13435859D02*
X77015392Y-13126335D01*
X76982535Y-25946811D02*
X76982535Y-25708716D01*
X77125392Y-25994430D02*
X76625392Y-25827764D01*
X76625392Y-25827764D02*
X77125392Y-25661097D01*
X76625392Y-25542050D02*
X76625392Y-25208717D01*
X76625392Y-25208717D02*
X77125392Y-25423002D01*
X79577773Y-25673002D02*
X79601583Y-25696811D01*
X79601583Y-25696811D02*
X79625392Y-25768240D01*
X79625392Y-25768240D02*
X79625392Y-25815859D01*
X79625392Y-25815859D02*
X79601583Y-25887287D01*
X79601583Y-25887287D02*
X79553963Y-25934906D01*
X79553963Y-25934906D02*
X79506344Y-25958716D01*
X79506344Y-25958716D02*
X79411106Y-25982525D01*
X79411106Y-25982525D02*
X79339678Y-25982525D01*
X79339678Y-25982525D02*
X79244440Y-25958716D01*
X79244440Y-25958716D02*
X79196821Y-25934906D01*
X79196821Y-25934906D02*
X79149202Y-25887287D01*
X79149202Y-25887287D02*
X79125392Y-25815859D01*
X79125392Y-25815859D02*
X79125392Y-25768240D01*
X79125392Y-25768240D02*
X79149202Y-25696811D01*
X79149202Y-25696811D02*
X79173011Y-25673002D01*
X79125392Y-25363478D02*
X79125392Y-25315859D01*
X79125392Y-25315859D02*
X79149202Y-25268240D01*
X79149202Y-25268240D02*
X79173011Y-25244430D01*
X79173011Y-25244430D02*
X79220630Y-25220621D01*
X79220630Y-25220621D02*
X79315868Y-25196811D01*
X79315868Y-25196811D02*
X79434916Y-25196811D01*
X79434916Y-25196811D02*
X79530154Y-25220621D01*
X79530154Y-25220621D02*
X79577773Y-25244430D01*
X79577773Y-25244430D02*
X79601583Y-25268240D01*
X79601583Y-25268240D02*
X79625392Y-25315859D01*
X79625392Y-25315859D02*
X79625392Y-25363478D01*
X79625392Y-25363478D02*
X79601583Y-25411097D01*
X79601583Y-25411097D02*
X79577773Y-25434906D01*
X79577773Y-25434906D02*
X79530154Y-25458716D01*
X79530154Y-25458716D02*
X79434916Y-25482525D01*
X79434916Y-25482525D02*
X79315868Y-25482525D01*
X79315868Y-25482525D02*
X79220630Y-25458716D01*
X79220630Y-25458716D02*
X79173011Y-25434906D01*
X79173011Y-25434906D02*
X79149202Y-25411097D01*
X79149202Y-25411097D02*
X79125392Y-25363478D01*
X79897844Y-13888240D02*
X79397844Y-13888240D01*
X79397844Y-13888240D02*
X79397844Y-13769192D01*
X79397844Y-13769192D02*
X79421654Y-13697764D01*
X79421654Y-13697764D02*
X79469273Y-13650145D01*
X79469273Y-13650145D02*
X79516892Y-13626335D01*
X79516892Y-13626335D02*
X79612130Y-13602526D01*
X79612130Y-13602526D02*
X79683558Y-13602526D01*
X79683558Y-13602526D02*
X79778796Y-13626335D01*
X79778796Y-13626335D02*
X79826415Y-13650145D01*
X79826415Y-13650145D02*
X79874035Y-13697764D01*
X79874035Y-13697764D02*
X79897844Y-13769192D01*
X79897844Y-13769192D02*
X79897844Y-13888240D01*
X79897844Y-13126335D02*
X79897844Y-13412049D01*
X79897844Y-13269192D02*
X79397844Y-13269192D01*
X79397844Y-13269192D02*
X79469273Y-13316811D01*
X79469273Y-13316811D02*
X79516892Y-13364430D01*
X79516892Y-13364430D02*
X79540701Y-13412049D01*
X82115392Y-13793002D02*
X81877297Y-13959668D01*
X82115392Y-14078716D02*
X81615392Y-14078716D01*
X81615392Y-14078716D02*
X81615392Y-13888240D01*
X81615392Y-13888240D02*
X81639202Y-13840621D01*
X81639202Y-13840621D02*
X81663011Y-13816811D01*
X81663011Y-13816811D02*
X81710630Y-13793002D01*
X81710630Y-13793002D02*
X81782059Y-13793002D01*
X81782059Y-13793002D02*
X81829678Y-13816811D01*
X81829678Y-13816811D02*
X81853487Y-13840621D01*
X81853487Y-13840621D02*
X81877297Y-13888240D01*
X81877297Y-13888240D02*
X81877297Y-14078716D01*
X82091583Y-13602525D02*
X82115392Y-13531097D01*
X82115392Y-13531097D02*
X82115392Y-13412049D01*
X82115392Y-13412049D02*
X82091583Y-13364430D01*
X82091583Y-13364430D02*
X82067773Y-13340621D01*
X82067773Y-13340621D02*
X82020154Y-13316811D01*
X82020154Y-13316811D02*
X81972535Y-13316811D01*
X81972535Y-13316811D02*
X81924916Y-13340621D01*
X81924916Y-13340621D02*
X81901106Y-13364430D01*
X81901106Y-13364430D02*
X81877297Y-13412049D01*
X81877297Y-13412049D02*
X81853487Y-13507287D01*
X81853487Y-13507287D02*
X81829678Y-13554906D01*
X81829678Y-13554906D02*
X81805868Y-13578716D01*
X81805868Y-13578716D02*
X81758249Y-13602525D01*
X81758249Y-13602525D02*
X81710630Y-13602525D01*
X81710630Y-13602525D02*
X81663011Y-13578716D01*
X81663011Y-13578716D02*
X81639202Y-13554906D01*
X81639202Y-13554906D02*
X81615392Y-13507287D01*
X81615392Y-13507287D02*
X81615392Y-13388240D01*
X81615392Y-13388240D02*
X81639202Y-13316811D01*
X81615392Y-13173954D02*
X81615392Y-12888240D01*
X82115392Y-13031097D02*
X81615392Y-13031097D01*
X82077773Y-25673002D02*
X82101583Y-25696811D01*
X82101583Y-25696811D02*
X82125392Y-25768240D01*
X82125392Y-25768240D02*
X82125392Y-25815859D01*
X82125392Y-25815859D02*
X82101583Y-25887287D01*
X82101583Y-25887287D02*
X82053963Y-25934906D01*
X82053963Y-25934906D02*
X82006344Y-25958716D01*
X82006344Y-25958716D02*
X81911106Y-25982525D01*
X81911106Y-25982525D02*
X81839678Y-25982525D01*
X81839678Y-25982525D02*
X81744440Y-25958716D01*
X81744440Y-25958716D02*
X81696821Y-25934906D01*
X81696821Y-25934906D02*
X81649202Y-25887287D01*
X81649202Y-25887287D02*
X81625392Y-25815859D01*
X81625392Y-25815859D02*
X81625392Y-25768240D01*
X81625392Y-25768240D02*
X81649202Y-25696811D01*
X81649202Y-25696811D02*
X81673011Y-25673002D01*
X82125392Y-25196811D02*
X82125392Y-25482525D01*
X82125392Y-25339668D02*
X81625392Y-25339668D01*
X81625392Y-25339668D02*
X81696821Y-25387287D01*
X81696821Y-25387287D02*
X81744440Y-25434906D01*
X81744440Y-25434906D02*
X81768249Y-25482525D01*
X84577773Y-25673002D02*
X84601583Y-25696811D01*
X84601583Y-25696811D02*
X84625392Y-25768240D01*
X84625392Y-25768240D02*
X84625392Y-25815859D01*
X84625392Y-25815859D02*
X84601583Y-25887287D01*
X84601583Y-25887287D02*
X84553963Y-25934906D01*
X84553963Y-25934906D02*
X84506344Y-25958716D01*
X84506344Y-25958716D02*
X84411106Y-25982525D01*
X84411106Y-25982525D02*
X84339678Y-25982525D01*
X84339678Y-25982525D02*
X84244440Y-25958716D01*
X84244440Y-25958716D02*
X84196821Y-25934906D01*
X84196821Y-25934906D02*
X84149202Y-25887287D01*
X84149202Y-25887287D02*
X84125392Y-25815859D01*
X84125392Y-25815859D02*
X84125392Y-25768240D01*
X84125392Y-25768240D02*
X84149202Y-25696811D01*
X84149202Y-25696811D02*
X84173011Y-25673002D01*
X84173011Y-25482525D02*
X84149202Y-25458716D01*
X84149202Y-25458716D02*
X84125392Y-25411097D01*
X84125392Y-25411097D02*
X84125392Y-25292049D01*
X84125392Y-25292049D02*
X84149202Y-25244430D01*
X84149202Y-25244430D02*
X84173011Y-25220621D01*
X84173011Y-25220621D02*
X84220630Y-25196811D01*
X84220630Y-25196811D02*
X84268249Y-25196811D01*
X84268249Y-25196811D02*
X84339678Y-25220621D01*
X84339678Y-25220621D02*
X84625392Y-25506335D01*
X84625392Y-25506335D02*
X84625392Y-25196811D01*
X84547844Y-13614431D02*
X84547844Y-13852526D01*
X84547844Y-13852526D02*
X84785939Y-13876335D01*
X84785939Y-13876335D02*
X84762130Y-13852526D01*
X84762130Y-13852526D02*
X84738320Y-13804907D01*
X84738320Y-13804907D02*
X84738320Y-13685859D01*
X84738320Y-13685859D02*
X84762130Y-13638240D01*
X84762130Y-13638240D02*
X84785939Y-13614431D01*
X84785939Y-13614431D02*
X84833558Y-13590621D01*
X84833558Y-13590621D02*
X84952606Y-13590621D01*
X84952606Y-13590621D02*
X85000225Y-13614431D01*
X85000225Y-13614431D02*
X85024035Y-13638240D01*
X85024035Y-13638240D02*
X85047844Y-13685859D01*
X85047844Y-13685859D02*
X85047844Y-13804907D01*
X85047844Y-13804907D02*
X85024035Y-13852526D01*
X85024035Y-13852526D02*
X85000225Y-13876335D01*
X84547844Y-13447764D02*
X85047844Y-13281098D01*
X85047844Y-13281098D02*
X84547844Y-13114431D01*
X87077773Y-25673002D02*
X87101583Y-25696811D01*
X87101583Y-25696811D02*
X87125392Y-25768240D01*
X87125392Y-25768240D02*
X87125392Y-25815859D01*
X87125392Y-25815859D02*
X87101583Y-25887287D01*
X87101583Y-25887287D02*
X87053963Y-25934906D01*
X87053963Y-25934906D02*
X87006344Y-25958716D01*
X87006344Y-25958716D02*
X86911106Y-25982525D01*
X86911106Y-25982525D02*
X86839678Y-25982525D01*
X86839678Y-25982525D02*
X86744440Y-25958716D01*
X86744440Y-25958716D02*
X86696821Y-25934906D01*
X86696821Y-25934906D02*
X86649202Y-25887287D01*
X86649202Y-25887287D02*
X86625392Y-25815859D01*
X86625392Y-25815859D02*
X86625392Y-25768240D01*
X86625392Y-25768240D02*
X86649202Y-25696811D01*
X86649202Y-25696811D02*
X86673011Y-25673002D01*
X86625392Y-25506335D02*
X86625392Y-25196811D01*
X86625392Y-25196811D02*
X86815868Y-25363478D01*
X86815868Y-25363478D02*
X86815868Y-25292049D01*
X86815868Y-25292049D02*
X86839678Y-25244430D01*
X86839678Y-25244430D02*
X86863487Y-25220621D01*
X86863487Y-25220621D02*
X86911106Y-25196811D01*
X86911106Y-25196811D02*
X87030154Y-25196811D01*
X87030154Y-25196811D02*
X87077773Y-25220621D01*
X87077773Y-25220621D02*
X87101583Y-25244430D01*
X87101583Y-25244430D02*
X87125392Y-25292049D01*
X87125392Y-25292049D02*
X87125392Y-25434906D01*
X87125392Y-25434906D02*
X87101583Y-25482525D01*
X87101583Y-25482525D02*
X87077773Y-25506335D01*
X86795392Y-14476335D02*
X86795392Y-14166811D01*
X86795392Y-14166811D02*
X86985868Y-14333478D01*
X86985868Y-14333478D02*
X86985868Y-14262049D01*
X86985868Y-14262049D02*
X87009678Y-14214430D01*
X87009678Y-14214430D02*
X87033487Y-14190621D01*
X87033487Y-14190621D02*
X87081106Y-14166811D01*
X87081106Y-14166811D02*
X87200154Y-14166811D01*
X87200154Y-14166811D02*
X87247773Y-14190621D01*
X87247773Y-14190621D02*
X87271583Y-14214430D01*
X87271583Y-14214430D02*
X87295392Y-14262049D01*
X87295392Y-14262049D02*
X87295392Y-14404906D01*
X87295392Y-14404906D02*
X87271583Y-14452525D01*
X87271583Y-14452525D02*
X87247773Y-14476335D01*
X87247773Y-13952526D02*
X87271583Y-13928716D01*
X87271583Y-13928716D02*
X87295392Y-13952526D01*
X87295392Y-13952526D02*
X87271583Y-13976335D01*
X87271583Y-13976335D02*
X87247773Y-13952526D01*
X87247773Y-13952526D02*
X87295392Y-13952526D01*
X86795392Y-13762050D02*
X86795392Y-13452526D01*
X86795392Y-13452526D02*
X86985868Y-13619193D01*
X86985868Y-13619193D02*
X86985868Y-13547764D01*
X86985868Y-13547764D02*
X87009678Y-13500145D01*
X87009678Y-13500145D02*
X87033487Y-13476336D01*
X87033487Y-13476336D02*
X87081106Y-13452526D01*
X87081106Y-13452526D02*
X87200154Y-13452526D01*
X87200154Y-13452526D02*
X87247773Y-13476336D01*
X87247773Y-13476336D02*
X87271583Y-13500145D01*
X87271583Y-13500145D02*
X87295392Y-13547764D01*
X87295392Y-13547764D02*
X87295392Y-13690621D01*
X87295392Y-13690621D02*
X87271583Y-13738240D01*
X87271583Y-13738240D02*
X87247773Y-13762050D01*
X86795392Y-13309669D02*
X87295392Y-13143003D01*
X87295392Y-13143003D02*
X86795392Y-12976336D01*
X89363487Y-25756335D02*
X89363487Y-25923002D01*
X89625392Y-25923002D02*
X89125392Y-25923002D01*
X89125392Y-25923002D02*
X89125392Y-25684907D01*
X89125392Y-25256336D02*
X89125392Y-25494431D01*
X89125392Y-25494431D02*
X89363487Y-25518240D01*
X89363487Y-25518240D02*
X89339678Y-25494431D01*
X89339678Y-25494431D02*
X89315868Y-25446812D01*
X89315868Y-25446812D02*
X89315868Y-25327764D01*
X89315868Y-25327764D02*
X89339678Y-25280145D01*
X89339678Y-25280145D02*
X89363487Y-25256336D01*
X89363487Y-25256336D02*
X89411106Y-25232526D01*
X89411106Y-25232526D02*
X89530154Y-25232526D01*
X89530154Y-25232526D02*
X89577773Y-25256336D01*
X89577773Y-25256336D02*
X89601583Y-25280145D01*
X89601583Y-25280145D02*
X89625392Y-25327764D01*
X89625392Y-25327764D02*
X89625392Y-25446812D01*
X89625392Y-25446812D02*
X89601583Y-25494431D01*
X89601583Y-25494431D02*
X89577773Y-25518240D01*
X89249202Y-14026811D02*
X89225392Y-14074430D01*
X89225392Y-14074430D02*
X89225392Y-14145859D01*
X89225392Y-14145859D02*
X89249202Y-14217287D01*
X89249202Y-14217287D02*
X89296821Y-14264906D01*
X89296821Y-14264906D02*
X89344440Y-14288716D01*
X89344440Y-14288716D02*
X89439678Y-14312525D01*
X89439678Y-14312525D02*
X89511106Y-14312525D01*
X89511106Y-14312525D02*
X89606344Y-14288716D01*
X89606344Y-14288716D02*
X89653963Y-14264906D01*
X89653963Y-14264906D02*
X89701583Y-14217287D01*
X89701583Y-14217287D02*
X89725392Y-14145859D01*
X89725392Y-14145859D02*
X89725392Y-14098240D01*
X89725392Y-14098240D02*
X89701583Y-14026811D01*
X89701583Y-14026811D02*
X89677773Y-14003002D01*
X89677773Y-14003002D02*
X89511106Y-14003002D01*
X89511106Y-14003002D02*
X89511106Y-14098240D01*
X89725392Y-13788716D02*
X89225392Y-13788716D01*
X89225392Y-13788716D02*
X89725392Y-13503002D01*
X89725392Y-13503002D02*
X89225392Y-13503002D01*
X89725392Y-13264906D02*
X89225392Y-13264906D01*
X89225392Y-13264906D02*
X89225392Y-13145858D01*
X89225392Y-13145858D02*
X89249202Y-13074430D01*
X89249202Y-13074430D02*
X89296821Y-13026811D01*
X89296821Y-13026811D02*
X89344440Y-13003001D01*
X89344440Y-13003001D02*
X89439678Y-12979192D01*
X89439678Y-12979192D02*
X89511106Y-12979192D01*
X89511106Y-12979192D02*
X89606344Y-13003001D01*
X89606344Y-13003001D02*
X89653963Y-13026811D01*
X89653963Y-13026811D02*
X89701583Y-13074430D01*
X89701583Y-13074430D02*
X89725392Y-13145858D01*
X89725392Y-13145858D02*
X89725392Y-13264906D01*
X91863487Y-25756335D02*
X91863487Y-25923002D01*
X92125392Y-25923002D02*
X91625392Y-25923002D01*
X91625392Y-25923002D02*
X91625392Y-25684907D01*
X91792059Y-25280145D02*
X92125392Y-25280145D01*
X91601583Y-25399193D02*
X91958725Y-25518240D01*
X91958725Y-25518240D02*
X91958725Y-25208717D01*
X91769202Y-14056811D02*
X91745392Y-14104430D01*
X91745392Y-14104430D02*
X91745392Y-14175859D01*
X91745392Y-14175859D02*
X91769202Y-14247287D01*
X91769202Y-14247287D02*
X91816821Y-14294906D01*
X91816821Y-14294906D02*
X91864440Y-14318716D01*
X91864440Y-14318716D02*
X91959678Y-14342525D01*
X91959678Y-14342525D02*
X92031106Y-14342525D01*
X92031106Y-14342525D02*
X92126344Y-14318716D01*
X92126344Y-14318716D02*
X92173963Y-14294906D01*
X92173963Y-14294906D02*
X92221583Y-14247287D01*
X92221583Y-14247287D02*
X92245392Y-14175859D01*
X92245392Y-14175859D02*
X92245392Y-14128240D01*
X92245392Y-14128240D02*
X92221583Y-14056811D01*
X92221583Y-14056811D02*
X92197773Y-14033002D01*
X92197773Y-14033002D02*
X92031106Y-14033002D01*
X92031106Y-14033002D02*
X92031106Y-14128240D01*
X92245392Y-13818716D02*
X91745392Y-13818716D01*
X91745392Y-13818716D02*
X92245392Y-13533002D01*
X92245392Y-13533002D02*
X91745392Y-13533002D01*
X92245392Y-13294906D02*
X91745392Y-13294906D01*
X91745392Y-13294906D02*
X91745392Y-13175858D01*
X91745392Y-13175858D02*
X91769202Y-13104430D01*
X91769202Y-13104430D02*
X91816821Y-13056811D01*
X91816821Y-13056811D02*
X91864440Y-13033001D01*
X91864440Y-13033001D02*
X91959678Y-13009192D01*
X91959678Y-13009192D02*
X92031106Y-13009192D01*
X92031106Y-13009192D02*
X92126344Y-13033001D01*
X92126344Y-13033001D02*
X92173963Y-13056811D01*
X92173963Y-13056811D02*
X92221583Y-13104430D01*
X92221583Y-13104430D02*
X92245392Y-13175858D01*
X92245392Y-13175858D02*
X92245392Y-13294906D01*
X94363487Y-25756335D02*
X94363487Y-25923002D01*
X94625392Y-25923002D02*
X94125392Y-25923002D01*
X94125392Y-25923002D02*
X94125392Y-25684907D01*
X94125392Y-25542050D02*
X94125392Y-25232526D01*
X94125392Y-25232526D02*
X94315868Y-25399193D01*
X94315868Y-25399193D02*
X94315868Y-25327764D01*
X94315868Y-25327764D02*
X94339678Y-25280145D01*
X94339678Y-25280145D02*
X94363487Y-25256336D01*
X94363487Y-25256336D02*
X94411106Y-25232526D01*
X94411106Y-25232526D02*
X94530154Y-25232526D01*
X94530154Y-25232526D02*
X94577773Y-25256336D01*
X94577773Y-25256336D02*
X94601583Y-25280145D01*
X94601583Y-25280145D02*
X94625392Y-25327764D01*
X94625392Y-25327764D02*
X94625392Y-25470621D01*
X94625392Y-25470621D02*
X94601583Y-25518240D01*
X94601583Y-25518240D02*
X94577773Y-25542050D01*
X94397844Y-14066811D02*
X94897844Y-13900145D01*
X94897844Y-13900145D02*
X94397844Y-13733478D01*
X94897844Y-13566812D02*
X94397844Y-13566812D01*
X94897844Y-13328717D02*
X94397844Y-13328717D01*
X94397844Y-13328717D02*
X94897844Y-13043003D01*
X94897844Y-13043003D02*
X94397844Y-13043003D01*
X96863487Y-25756335D02*
X96863487Y-25923002D01*
X97125392Y-25923002D02*
X96625392Y-25923002D01*
X96625392Y-25923002D02*
X96625392Y-25684907D01*
X96673011Y-25518240D02*
X96649202Y-25494431D01*
X96649202Y-25494431D02*
X96625392Y-25446812D01*
X96625392Y-25446812D02*
X96625392Y-25327764D01*
X96625392Y-25327764D02*
X96649202Y-25280145D01*
X96649202Y-25280145D02*
X96673011Y-25256336D01*
X96673011Y-25256336D02*
X96720630Y-25232526D01*
X96720630Y-25232526D02*
X96768249Y-25232526D01*
X96768249Y-25232526D02*
X96839678Y-25256336D01*
X96839678Y-25256336D02*
X97125392Y-25542050D01*
X97125392Y-25542050D02*
X97125392Y-25232526D01*
X97235939Y-14054907D02*
X97235939Y-13888240D01*
X97497844Y-13816812D02*
X97497844Y-14054907D01*
X97497844Y-14054907D02*
X96997844Y-14054907D01*
X96997844Y-14054907D02*
X96997844Y-13816812D01*
X96997844Y-13650145D02*
X97497844Y-13316812D01*
X96997844Y-13316812D02*
X97497844Y-13650145D01*
X96997844Y-13197764D02*
X96997844Y-12912050D01*
X97497844Y-13054907D02*
X96997844Y-13054907D01*
D11*
X102559862Y-12706009D02*
X102893195Y-12706009D01*
X103036052Y-13229819D02*
X102559862Y-13229819D01*
X102559862Y-13229819D02*
X102559862Y-12229819D01*
X102559862Y-12229819D02*
X103036052Y-12229819D01*
X103369386Y-12229819D02*
X104036052Y-13229819D01*
X104036052Y-12229819D02*
X103369386Y-13229819D01*
X104274148Y-12229819D02*
X104845576Y-12229819D01*
X104559862Y-13229819D02*
X104559862Y-12229819D01*
X103596052Y-25539819D02*
X103119862Y-25539819D01*
X103119862Y-25539819D02*
X103072243Y-26016009D01*
X103072243Y-26016009D02*
X103119862Y-25968390D01*
X103119862Y-25968390D02*
X103215100Y-25920771D01*
X103215100Y-25920771D02*
X103453195Y-25920771D01*
X103453195Y-25920771D02*
X103548433Y-25968390D01*
X103548433Y-25968390D02*
X103596052Y-26016009D01*
X103596052Y-26016009D02*
X103643671Y-26111247D01*
X103643671Y-26111247D02*
X103643671Y-26349342D01*
X103643671Y-26349342D02*
X103596052Y-26444580D01*
X103596052Y-26444580D02*
X103548433Y-26492200D01*
X103548433Y-26492200D02*
X103453195Y-26539819D01*
X103453195Y-26539819D02*
X103215100Y-26539819D01*
X103215100Y-26539819D02*
X103119862Y-26492200D01*
X103119862Y-26492200D02*
X103072243Y-26444580D01*
X103929386Y-25539819D02*
X104262719Y-26539819D01*
X104262719Y-26539819D02*
X104596052Y-25539819D01*
D10*
G36*
X58944994Y-27392520D02*
G01*
X58970932Y-27401528D01*
X58992532Y-27416053D01*
X59010511Y-27436545D01*
X59026471Y-27469329D01*
X59032715Y-27507629D01*
X59028280Y-27553461D01*
X58725480Y-27553461D01*
X58743235Y-27505812D01*
X58767261Y-27466386D01*
X58797562Y-27433980D01*
X58833763Y-27408910D01*
X58872089Y-27394252D01*
X58913562Y-27389330D01*
X58944994Y-27392520D01*
G37*
G36*
X58388026Y-27193745D02*
G01*
X58420990Y-27203619D01*
X58444753Y-27218421D01*
X58457176Y-27233562D01*
X58464875Y-27254468D01*
X58467142Y-27283185D01*
X58462155Y-27322422D01*
X58448745Y-27365903D01*
X58429900Y-27398465D01*
X58405964Y-27422302D01*
X58376353Y-27438948D01*
X58337863Y-27449813D01*
X58288086Y-27453810D01*
X58057140Y-27453810D01*
X58112003Y-27190027D01*
X58342949Y-27190027D01*
X58388026Y-27193745D01*
G37*
G36*
X60976619Y-27525850D02*
G01*
X61006243Y-27538241D01*
X61027163Y-27557491D01*
X61040554Y-27582932D01*
X61045921Y-27614251D01*
X61042092Y-27653616D01*
X61033172Y-27684180D01*
X61019607Y-27712509D01*
X60999553Y-27737641D01*
X60967125Y-27762426D01*
X60941908Y-27774732D01*
X60913240Y-27782346D01*
X60880388Y-27785003D01*
X60647381Y-27785003D01*
X60702198Y-27521221D01*
X60935206Y-27521221D01*
X60976619Y-27525850D01*
G37*
G36*
X61006370Y-27194461D02*
G01*
X61040864Y-27205930D01*
X61063695Y-27222756D01*
X61077703Y-27244920D01*
X61083657Y-27274071D01*
X61080057Y-27313126D01*
X61067990Y-27350923D01*
X61049881Y-27380654D01*
X61025716Y-27403784D01*
X60994624Y-27421007D01*
X60954990Y-27432156D01*
X60904614Y-27436224D01*
X60719875Y-27436224D01*
X60771074Y-27190027D01*
X60955814Y-27190027D01*
X61006370Y-27194461D01*
G37*
G36*
X61265823Y-27976780D02*
G01*
X57791861Y-27976780D01*
X57791861Y-27870000D01*
X57875194Y-27870000D01*
X57970632Y-27870000D01*
X58039508Y-27538806D01*
X58285842Y-27538806D01*
X58326765Y-27543215D01*
X58354313Y-27554696D01*
X58372304Y-27572054D01*
X58382647Y-27595390D01*
X58386194Y-27628701D01*
X58380456Y-27675918D01*
X58366214Y-27744474D01*
X58358089Y-27796382D01*
X58356711Y-27837560D01*
X58360627Y-27870000D01*
X58476581Y-27870000D01*
X58481618Y-27845728D01*
X58463774Y-27824132D01*
X58455744Y-27797230D01*
X58455550Y-27766174D01*
X58461697Y-27724461D01*
X58467697Y-27698083D01*
X58473925Y-27670652D01*
X58474043Y-27669858D01*
X58614741Y-27669858D01*
X58616239Y-27726470D01*
X58626838Y-27773929D01*
X58645658Y-27814037D01*
X58667405Y-27842136D01*
X58693673Y-27863874D01*
X58725072Y-27879796D01*
X58762632Y-27889862D01*
X58807728Y-27893447D01*
X58853321Y-27890199D01*
X58895367Y-27880697D01*
X58934460Y-27865086D01*
X58971081Y-27843209D01*
X59013878Y-27805903D01*
X59049180Y-27759591D01*
X59077235Y-27702937D01*
X58991002Y-27702937D01*
X58964507Y-27742746D01*
X58935408Y-27771931D01*
X58903514Y-27792140D01*
X58868191Y-27804283D01*
X58828428Y-27808450D01*
X58792784Y-27804927D01*
X58764554Y-27795162D01*
X58742120Y-27779710D01*
X58724472Y-27758213D01*
X58709549Y-27723360D01*
X58703720Y-27679511D01*
X58708810Y-27623803D01*
X59104987Y-27623803D01*
X59117256Y-27544367D01*
X59118962Y-27481175D01*
X59112322Y-27431244D01*
X59098932Y-27391965D01*
X59079644Y-27361193D01*
X59054483Y-27337390D01*
X59022646Y-27319781D01*
X59019844Y-27318988D01*
X59211141Y-27318988D01*
X59285467Y-27870000D01*
X59378844Y-27870000D01*
X59687742Y-27339504D01*
X60083867Y-27339504D01*
X60244975Y-27339504D01*
X60134700Y-27870000D01*
X60225009Y-27870000D01*
X60534266Y-27870000D01*
X60871916Y-27870000D01*
X60920857Y-27866142D01*
X60965421Y-27854893D01*
X61006393Y-27836413D01*
X61044382Y-27810420D01*
X61077434Y-27778378D01*
X61103829Y-27741807D01*
X61123942Y-27700154D01*
X61137759Y-27652608D01*
X61143237Y-27606679D01*
X61139827Y-27569677D01*
X61128967Y-27539539D01*
X61110234Y-27513523D01*
X61081388Y-27489446D01*
X61039803Y-27467319D01*
X61082750Y-27444089D01*
X61117240Y-27416046D01*
X61144369Y-27383037D01*
X61164734Y-27344465D01*
X61178380Y-27299341D01*
X61182490Y-27266935D01*
X61181311Y-27235823D01*
X61174441Y-27205283D01*
X61160840Y-27173862D01*
X61147626Y-27155314D01*
X61128426Y-27138687D01*
X61101947Y-27123944D01*
X61073176Y-27113866D01*
X61038594Y-27107365D01*
X60997121Y-27105031D01*
X60693314Y-27105031D01*
X60624454Y-27436224D01*
X60551938Y-27785003D01*
X60534266Y-27870000D01*
X60225009Y-27870000D01*
X60379797Y-27125547D01*
X60320309Y-27125547D01*
X60289587Y-27181427D01*
X60263827Y-27215752D01*
X60242182Y-27234678D01*
X60215852Y-27247320D01*
X60170377Y-27260109D01*
X60097880Y-27272093D01*
X60083867Y-27339504D01*
X59687742Y-27339504D01*
X59699688Y-27318988D01*
X59603243Y-27318988D01*
X59358465Y-27765906D01*
X59307632Y-27318988D01*
X59211141Y-27318988D01*
X59019844Y-27318988D01*
X58982601Y-27308449D01*
X58932246Y-27304333D01*
X58878072Y-27309482D01*
X58827915Y-27324680D01*
X58780783Y-27350146D01*
X58735967Y-27386857D01*
X58698058Y-27430258D01*
X58666784Y-27480007D01*
X58642035Y-27536898D01*
X58637454Y-27553461D01*
X58624042Y-27601958D01*
X58614741Y-27669858D01*
X58474043Y-27669858D01*
X58481710Y-27618170D01*
X58481737Y-27595752D01*
X58478687Y-27570909D01*
X58470908Y-27547166D01*
X58456293Y-27525800D01*
X58436066Y-27507621D01*
X58408620Y-27491133D01*
X58453160Y-27467630D01*
X58487920Y-27442789D01*
X58514408Y-27416715D01*
X58535786Y-27386454D01*
X58552561Y-27350774D01*
X58564554Y-27308775D01*
X58570596Y-27258898D01*
X58567186Y-27218438D01*
X58555830Y-27185280D01*
X58536939Y-27157787D01*
X58511411Y-27136204D01*
X58477980Y-27119794D01*
X58434703Y-27109004D01*
X58379082Y-27105031D01*
X58034242Y-27105031D01*
X57961726Y-27453810D01*
X57875194Y-27870000D01*
X57791861Y-27870000D01*
X57791861Y-27021698D01*
X61265823Y-27021698D01*
X61265823Y-27976780D01*
G37*
G36*
X100812932Y-27514517D02*
G01*
X100846139Y-27529948D01*
X100870499Y-27554665D01*
X100885644Y-27586625D01*
X100891380Y-27626763D01*
X100885947Y-27677946D01*
X100871677Y-27723485D01*
X100849811Y-27761596D01*
X100820185Y-27793473D01*
X100784294Y-27817683D01*
X100744498Y-27832167D01*
X100699590Y-27837131D01*
X100655214Y-27831740D01*
X100622262Y-27817001D01*
X100597863Y-27793473D01*
X100582438Y-27762821D01*
X100576407Y-27724321D01*
X100581437Y-27675137D01*
X100596382Y-27626728D01*
X100618690Y-27586807D01*
X100648360Y-27553993D01*
X100684515Y-27528838D01*
X100723960Y-27513937D01*
X100767856Y-27508869D01*
X100812932Y-27514517D01*
G37*
G36*
X100893242Y-27122563D02*
G01*
X100924624Y-27134826D01*
X100948412Y-27154167D01*
X100964686Y-27179800D01*
X100971665Y-27210089D01*
X100968745Y-27247041D01*
X100956885Y-27282607D01*
X100937214Y-27313313D01*
X100909028Y-27339975D01*
X100875595Y-27359918D01*
X100838963Y-27371901D01*
X100798203Y-27376001D01*
X100756924Y-27371464D01*
X100725350Y-27359000D01*
X100701177Y-27339242D01*
X100684558Y-27313113D01*
X100677407Y-27282561D01*
X100680234Y-27245636D01*
X100692136Y-27210093D01*
X100711776Y-27179641D01*
X100739829Y-27153435D01*
X100773164Y-27133943D01*
X100810186Y-27122143D01*
X100851875Y-27118080D01*
X100893242Y-27122563D01*
G37*
G36*
X103832692Y-27130969D02*
G01*
X103868822Y-27144090D01*
X103892516Y-27163510D01*
X103907191Y-27190321D01*
X103913035Y-27227417D01*
X103907536Y-27278975D01*
X103888981Y-27335248D01*
X103861403Y-27376429D01*
X103824814Y-27405624D01*
X103777408Y-27424028D01*
X103715867Y-27430711D01*
X103524319Y-27430711D01*
X103587700Y-27125896D01*
X103779248Y-27125896D01*
X103832692Y-27130969D01*
G37*
G36*
X104236705Y-28112374D02*
G01*
X98867177Y-28112374D01*
X98867177Y-27286120D01*
X98978288Y-27286120D01*
X99210930Y-27286120D01*
X99068780Y-27970000D01*
X99260389Y-27970000D01*
X99561785Y-27970000D01*
X100221362Y-27970000D01*
X100257938Y-27794145D01*
X99847427Y-27794145D01*
X99878576Y-27756591D01*
X100379570Y-27756591D01*
X100385746Y-27816405D01*
X100404534Y-27868223D01*
X100435991Y-27913885D01*
X100477536Y-27950731D01*
X100528436Y-27977821D01*
X100590671Y-27995069D01*
X100666922Y-28001263D01*
X100741666Y-27995576D01*
X100810210Y-27978958D01*
X100873646Y-27951629D01*
X100932842Y-27913213D01*
X100985088Y-27865437D01*
X101025811Y-27812198D01*
X101054753Y-27755242D01*
X101633375Y-27755242D01*
X101638392Y-27817360D01*
X101655075Y-27869775D01*
X101682912Y-27914556D01*
X101720973Y-27951021D01*
X101768680Y-27977868D01*
X101828160Y-27995051D01*
X101902364Y-28001263D01*
X101978762Y-27995625D01*
X102047570Y-27979287D01*
X102069363Y-27970000D01*
X102360808Y-27970000D01*
X103020385Y-27970000D01*
X103206926Y-27970000D01*
X103412212Y-27970000D01*
X103487744Y-27606566D01*
X103743588Y-27606566D01*
X103810339Y-27600697D01*
X103871564Y-27583479D01*
X103928427Y-27554904D01*
X103981786Y-27514181D01*
X104027248Y-27465206D01*
X104064632Y-27408332D01*
X104094109Y-27342536D01*
X104115387Y-27266458D01*
X104125594Y-27187601D01*
X104121934Y-27124224D01*
X104106887Y-27072999D01*
X104081498Y-27031252D01*
X104045875Y-26997794D01*
X103999027Y-26972598D01*
X103938189Y-26956109D01*
X103859665Y-26950041D01*
X103418990Y-26950041D01*
X103319052Y-27430711D01*
X103206926Y-27970000D01*
X103020385Y-27970000D01*
X103056961Y-27794145D01*
X102646450Y-27794145D01*
X102683861Y-27749041D01*
X102739628Y-27701454D01*
X102865108Y-27617801D01*
X102991992Y-27534148D01*
X103050814Y-27483907D01*
X103103550Y-27421980D01*
X103132572Y-27375691D01*
X103154498Y-27326136D01*
X103169496Y-27272808D01*
X103178241Y-27199979D01*
X103173184Y-27139097D01*
X103156158Y-27087548D01*
X103127547Y-27043281D01*
X103088849Y-27007545D01*
X103040068Y-26981063D01*
X102978946Y-26964032D01*
X102902416Y-26957857D01*
X102828163Y-26963648D01*
X102762152Y-26980358D01*
X102702979Y-27007516D01*
X102649564Y-27045357D01*
X102603866Y-27092042D01*
X102566158Y-27147433D01*
X102536284Y-27212731D01*
X102514619Y-27289539D01*
X102509429Y-27321290D01*
X102692795Y-27321290D01*
X102699328Y-27289722D01*
X102714587Y-27237553D01*
X102735566Y-27196055D01*
X102761854Y-27163387D01*
X102794601Y-27138175D01*
X102831288Y-27123208D01*
X102873229Y-27118080D01*
X102913863Y-27123328D01*
X102943487Y-27137643D01*
X102964942Y-27160640D01*
X102977875Y-27190183D01*
X102982503Y-27228029D01*
X102976971Y-27277021D01*
X102961064Y-27329542D01*
X102937012Y-27374941D01*
X102904675Y-27414286D01*
X102831718Y-27473830D01*
X102665562Y-27583668D01*
X102573241Y-27646530D01*
X102506380Y-27702468D01*
X102460092Y-27752318D01*
X102422611Y-27808721D01*
X102389281Y-27880325D01*
X102360808Y-27970000D01*
X102069363Y-27970000D01*
X102110029Y-27952670D01*
X102167123Y-27915594D01*
X102217076Y-27869227D01*
X102256791Y-27815983D01*
X102286911Y-27755026D01*
X102307440Y-27685090D01*
X102314842Y-27626516D01*
X102311829Y-27577805D01*
X102299930Y-27536896D01*
X102278550Y-27500249D01*
X102246184Y-27466538D01*
X102200645Y-27435474D01*
X102270030Y-27389327D01*
X102316783Y-27343883D01*
X102340487Y-27309641D01*
X102358605Y-27271069D01*
X102371127Y-27227501D01*
X102378096Y-27165798D01*
X102372574Y-27113946D01*
X102356023Y-27069655D01*
X102328445Y-27031191D01*
X102292199Y-27000676D01*
X102246725Y-26977893D01*
X102189969Y-26963189D01*
X102119251Y-26957857D01*
X102036392Y-26964879D01*
X101995462Y-26974730D01*
X101947976Y-26992051D01*
X101902141Y-27015624D01*
X101860842Y-27045785D01*
X101824406Y-27083979D01*
X101788302Y-27137925D01*
X101759732Y-27199809D01*
X101738965Y-27273297D01*
X101735485Y-27290027D01*
X101913355Y-27290027D01*
X101930383Y-27233138D01*
X101949568Y-27191044D01*
X101970324Y-27160762D01*
X101997364Y-27137917D01*
X102033563Y-27123406D01*
X102081882Y-27118080D01*
X102118588Y-27122322D01*
X102145010Y-27133732D01*
X102163826Y-27151603D01*
X102175518Y-27175142D01*
X102180037Y-27205532D01*
X102175855Y-27245270D01*
X102157820Y-27298517D01*
X102130057Y-27338066D01*
X102092216Y-27366612D01*
X102042034Y-27384911D01*
X101975698Y-27391632D01*
X101959272Y-27391632D01*
X101931673Y-27524501D01*
X102000855Y-27527439D01*
X102041826Y-27534453D01*
X102069401Y-27547057D01*
X102090860Y-27565117D01*
X102107100Y-27589164D01*
X102116891Y-27616790D01*
X102120065Y-27648367D01*
X102115893Y-27685090D01*
X102102518Y-27727392D01*
X102081577Y-27763539D01*
X102052756Y-27794511D01*
X102018009Y-27818387D01*
X101980933Y-27832406D01*
X101940527Y-27837131D01*
X101897727Y-27832389D01*
X101867079Y-27819700D01*
X101845390Y-27800001D01*
X101831079Y-27772290D01*
X101824522Y-27733871D01*
X101827992Y-27680816D01*
X101641879Y-27680816D01*
X101633375Y-27755242D01*
X101054753Y-27755242D01*
X101055965Y-27752857D01*
X101075846Y-27686372D01*
X101076558Y-27680816D01*
X101171833Y-27680816D01*
X101544059Y-27680816D01*
X101580574Y-27504961D01*
X101208348Y-27504961D01*
X101171833Y-27680816D01*
X101076558Y-27680816D01*
X101083413Y-27627346D01*
X101080674Y-27578375D01*
X101069190Y-27537384D01*
X101048322Y-27500350D01*
X101016124Y-27464840D01*
X100970272Y-27430528D01*
X101031133Y-27394271D01*
X101078960Y-27352065D01*
X101103971Y-27318861D01*
X101123891Y-27277875D01*
X101138372Y-27227623D01*
X101144448Y-27169710D01*
X101138059Y-27119415D01*
X101120166Y-27074801D01*
X101090256Y-27034427D01*
X101051820Y-27001984D01*
X101005726Y-26978234D01*
X100950418Y-26963213D01*
X100883810Y-26957857D01*
X100817066Y-26962787D01*
X100755443Y-26977226D01*
X100698044Y-27001002D01*
X100644147Y-27034427D01*
X100596127Y-27076247D01*
X100559310Y-27122232D01*
X100532570Y-27172871D01*
X100515431Y-27229028D01*
X100509395Y-27276297D01*
X100509766Y-27282561D01*
X100511691Y-27315085D01*
X100520987Y-27347180D01*
X100537718Y-27376086D01*
X100563271Y-27403790D01*
X100599450Y-27430528D01*
X100539488Y-27464735D01*
X100492322Y-27500381D01*
X100456080Y-27537384D01*
X100426711Y-27579825D01*
X100403791Y-27629124D01*
X100387509Y-27686372D01*
X100383218Y-27724321D01*
X100379570Y-27756591D01*
X99878576Y-27756591D01*
X99884838Y-27749041D01*
X99940605Y-27701454D01*
X100066085Y-27617801D01*
X100192969Y-27534148D01*
X100251791Y-27483907D01*
X100304527Y-27421980D01*
X100333549Y-27375691D01*
X100355475Y-27326136D01*
X100370473Y-27272808D01*
X100379218Y-27199979D01*
X100374161Y-27139097D01*
X100357135Y-27087548D01*
X100328524Y-27043281D01*
X100289826Y-27007545D01*
X100241045Y-26981063D01*
X100179923Y-26964032D01*
X100103393Y-26957857D01*
X100029140Y-26963648D01*
X99963129Y-26980358D01*
X99903956Y-27007516D01*
X99850541Y-27045357D01*
X99804843Y-27092042D01*
X99767135Y-27147433D01*
X99737261Y-27212731D01*
X99715596Y-27289539D01*
X99710406Y-27321290D01*
X99893772Y-27321290D01*
X99900305Y-27289722D01*
X99915564Y-27237553D01*
X99936543Y-27196055D01*
X99962831Y-27163387D01*
X99995578Y-27138175D01*
X100032265Y-27123208D01*
X100074206Y-27118080D01*
X100114840Y-27123328D01*
X100144464Y-27137643D01*
X100165919Y-27160640D01*
X100178852Y-27190183D01*
X100183480Y-27228029D01*
X100177948Y-27277021D01*
X100162041Y-27329542D01*
X100137989Y-27374941D01*
X100105652Y-27414286D01*
X100032695Y-27473830D01*
X99866539Y-27583668D01*
X99774218Y-27646530D01*
X99707357Y-27702468D01*
X99661069Y-27752318D01*
X99623588Y-27808721D01*
X99590258Y-27880325D01*
X99561785Y-27970000D01*
X99260389Y-27970000D01*
X99466774Y-26977397D01*
X99339462Y-26977397D01*
X99308125Y-27031149D01*
X99268635Y-27074655D01*
X99220319Y-27109085D01*
X99161757Y-27134786D01*
X99090890Y-27151252D01*
X99005155Y-27157159D01*
X98978288Y-27286120D01*
X98867177Y-27286120D01*
X98867177Y-26838930D01*
X104236705Y-26838930D01*
X104236705Y-28112374D01*
G37*
%TO.C,C13*%
D12*
X100155247Y-23720000D02*
X100370919Y-23720000D01*
X100155247Y-24440000D02*
X100370919Y-24440000D01*
%TO.C,C4*%
X58653663Y-14400000D02*
X58372503Y-14400000D01*
X58653663Y-15420000D02*
X58372503Y-15420000D01*
%TO.C,L2*%
X74673083Y-15860000D02*
X78673083Y-15860000D01*
X74673083Y-20060000D02*
X78673083Y-20060000D01*
%TO.C,D5*%
X96128083Y-20650000D02*
X96128083Y-18650000D01*
X96128083Y-20650000D02*
X99328083Y-20650000D01*
X96428083Y-18350000D02*
X96128083Y-18650000D01*
X96428083Y-18350000D02*
X99328083Y-18350000D01*
X99328083Y-18350000D02*
X99328083Y-20650000D01*
%TO.C,C5*%
X65114335Y-14860000D02*
X63691831Y-14860000D01*
X65114335Y-16680000D02*
X63691831Y-16680000D01*
%TO.C,D1*%
X57318083Y-24495000D02*
X57318083Y-25965000D01*
X57318083Y-25965000D02*
X59603083Y-25965000D01*
X59603083Y-24495000D02*
X57318083Y-24495000D01*
%TO.C,C10*%
X84663083Y-20750580D02*
X84663083Y-20469420D01*
X85683083Y-20750580D02*
X85683083Y-20469420D01*
%TO.C,R3*%
X94723083Y-22413641D02*
X94723083Y-22106359D01*
X95483083Y-22413641D02*
X95483083Y-22106359D01*
%TO.C,C7*%
X80931831Y-21060000D02*
X82354335Y-21060000D01*
X80931831Y-22880000D02*
X82354335Y-22880000D01*
%TO.C,J1*%
X57103083Y-16100000D02*
X58483083Y-16100000D01*
X57103083Y-17480000D02*
X57103083Y-16100000D01*
X57103083Y-18750000D02*
X57103083Y-23940000D01*
X57103083Y-18750000D02*
X59863083Y-18750000D01*
X57103083Y-23940000D02*
X59863083Y-23940000D01*
X59863083Y-18750000D02*
X59863083Y-23940000D01*
%TO.C,U2*%
X67243083Y-19790000D02*
X67718083Y-19790000D01*
X67243083Y-20265000D02*
X67243083Y-19790000D01*
X67243083Y-24010000D02*
X67243083Y-23535000D01*
X67718083Y-24010000D02*
X67243083Y-24010000D01*
X69988083Y-19790000D02*
X70463083Y-19790000D01*
X70463083Y-19790000D02*
X70463083Y-20265000D01*
X70463083Y-23535000D02*
X70463083Y-24010000D01*
X70463083Y-24010000D02*
X69988083Y-24010000D01*
X66713083Y-20650000D02*
X66383083Y-20890000D01*
X66383083Y-20410000D01*
X66713083Y-20650000D01*
G36*
X66713083Y-20650000D02*
G01*
X66383083Y-20890000D01*
X66383083Y-20410000D01*
X66713083Y-20650000D01*
G37*
%TO.C,U1*%
X87153083Y-16520000D02*
X87628083Y-16520000D01*
X87153083Y-16995000D02*
X87153083Y-16520000D01*
X87153083Y-21740000D02*
X87153083Y-21265000D01*
X87628083Y-21740000D02*
X87153083Y-21740000D01*
X91898083Y-16520000D02*
X92373083Y-16520000D01*
X92373083Y-16520000D02*
X92373083Y-16995000D01*
X92373083Y-21265000D02*
X92373083Y-21740000D01*
X92373083Y-21740000D02*
X91898083Y-21740000D01*
X92903083Y-20880000D02*
X93233083Y-20640000D01*
X93233083Y-21120000D01*
X92903083Y-20880000D01*
G36*
X93233083Y-21120000D02*
G01*
X92903083Y-20880000D01*
X93233083Y-20640000D01*
X93233083Y-21120000D01*
G37*
%TO.C,F1*%
X76388362Y-14370000D02*
X76062804Y-14370000D01*
X76388362Y-15390000D02*
X76062804Y-15390000D01*
%TO.C,SW1*%
X102733083Y-15860775D02*
X102733083Y-15160775D01*
X102733083Y-17360775D02*
X102733083Y-17160775D01*
X102733083Y-20360775D02*
X102733083Y-18660775D01*
X102733083Y-21860775D02*
X102733083Y-21660775D01*
X102733083Y-23860775D02*
X102733083Y-23160775D01*
X103733083Y-24460775D02*
X104523083Y-24460775D01*
X104523083Y-14560775D02*
X103733083Y-14560775D01*
X105523083Y-20160775D02*
X106823083Y-20160775D01*
X105523083Y-23860775D02*
X105523083Y-15160775D01*
X106823083Y-18860775D02*
X105523083Y-18860775D01*
X106823083Y-18860775D02*
X107023083Y-19060775D01*
X106823083Y-20160775D02*
X107023083Y-19960775D01*
X107023083Y-19060775D02*
X107023083Y-19960775D01*
%TO.C,D2*%
X94338083Y-18252500D02*
X94338083Y-20537500D01*
X95808083Y-18252500D02*
X94338083Y-18252500D01*
X95808083Y-20537500D02*
X95808083Y-18252500D01*
%TO.C,C3*%
X99823083Y-19030580D02*
X99823083Y-18749420D01*
X100843083Y-19030580D02*
X100843083Y-18749420D01*
%TO.C,C6*%
X80931831Y-16610000D02*
X82354335Y-16610000D01*
X80931831Y-18430000D02*
X82354335Y-18430000D01*
%TO.C,D6*%
X96088083Y-23890000D02*
X96088083Y-21890000D01*
X96088083Y-23890000D02*
X99288083Y-23890000D01*
X96388083Y-21590000D02*
X96088083Y-21890000D01*
X96388083Y-21590000D02*
X99288083Y-21590000D01*
X99288083Y-21590000D02*
X99288083Y-23890000D01*
%TO.C,D4*%
X96128083Y-17080000D02*
X96128083Y-15080000D01*
X96128083Y-17080000D02*
X99328083Y-17080000D01*
X96428083Y-14780000D02*
X96128083Y-15080000D01*
X96428083Y-14780000D02*
X99328083Y-14780000D01*
X99328083Y-14780000D02*
X99328083Y-17080000D01*
%TO.C,C12*%
X100155247Y-20530000D02*
X100370919Y-20530000D01*
X100155247Y-21250000D02*
X100370919Y-21250000D01*
%TO.C,SW2*%
X61103083Y-19200000D02*
X61103083Y-23600000D01*
X62703083Y-19200000D02*
X62603083Y-19200000D01*
X62703083Y-23600000D02*
X62603083Y-23600000D01*
X64203083Y-23600000D02*
X64203083Y-19200000D01*
%TO.C,D3*%
X66780583Y-18965000D02*
X66780583Y-14715000D01*
X66780583Y-18965000D02*
X71590583Y-18965000D01*
X71590583Y-14715000D02*
X66780583Y-14715000D01*
%TO.C,R2*%
X81679442Y-14780000D02*
X81986724Y-14780000D01*
X81679442Y-15540000D02*
X81986724Y-15540000D01*
%TO.C,C2*%
X81958663Y-19390000D02*
X81677503Y-19390000D01*
X81958663Y-20410000D02*
X81677503Y-20410000D01*
%TO.C,R1*%
X84363083Y-16436359D02*
X84363083Y-16743641D01*
X85123083Y-16436359D02*
X85123083Y-16743641D01*
%TO.C,C11*%
X100315247Y-15850000D02*
X100530919Y-15850000D01*
X100315247Y-16570000D02*
X100530919Y-16570000D01*
%TO.C,C1*%
X90713663Y-23280000D02*
X90432503Y-23280000D01*
X90713663Y-24300000D02*
X90432503Y-24300000D01*
%TO.C,L1*%
X74583083Y-20670000D02*
X78583083Y-20670000D01*
X74583083Y-24870000D02*
X78583083Y-24870000D01*
%TO.C,R4*%
X61546724Y-25920000D02*
X61239442Y-25920000D01*
X61546724Y-26680000D02*
X61239442Y-26680000D01*
%TD*%
M02*
