M48
; DRILL file KiCad 10.0.4 date 2026-09-19T08:13:53
; FORMAT={-:-/ absolute / metric / decimal}
; #@! TF.CreationDate,2026-09-19T08:13:53+12:00
; #@! TF.GenerationSoftware,Kicad,Pcbnew,10.0.4
; #@! TF.FileFunction,MixedPlating,1,4
FMAT,2
METRIC
; #@! TA.AperFunction,Plated,PTH,ViaDrill
T1C0.300
; #@! TA.AperFunction,Plated,PTH,ComponentDrill
T2C1.000
; #@! TA.AperFunction,NonPlated,NPTH,ComponentDrill
T3C0.900
%
G90
G05
T1
X58.023Y-14.07
X58.123Y-26.27
X62.513Y-24.5
X62.623Y-17.44
X62.703Y-26.04
X66.153Y-22.69
X68.353Y-20.9
X68.353Y-21.9
X68.353Y-22.9
X69.353Y-20.9
X69.353Y-21.9
X69.353Y-22.9
X70.623Y-23.76
X71.223Y-21.41
X71.691Y-22.74
X71.987Y-23.654
X72.141Y-21.47
X76.563Y-19.17
X76.563Y-22.88
X79.123Y-17.96
X79.483Y-19.3
X79.803Y-24.89
X79.803Y-25.46
X80.168Y-17.69
X80.362Y-25.439
X83.169Y-15.006
X83.213Y-18.78
X83.453Y-20.48
X83.653Y-19.57
X84.253Y-20.51
X85.563Y-17.909
X85.852Y-18.809
X85.883Y-17.24
X86.302Y-21.284
X86.503Y-15.89
X86.573Y-16.79
X87.033Y-21.355
X87.061Y-16.336
X87.538Y-21.678
X88.033Y-22.26
X88.763Y-18.13
X88.763Y-19.13
X88.763Y-20.13
X89.233Y-15.65
X89.763Y-18.13
X89.763Y-19.13
X89.763Y-20.13
X89.87Y-15.655
X90.461Y-15.754
X90.763Y-18.13
X90.763Y-19.13
X90.763Y-20.13
X91.061Y-15.777
X91.543Y-22.71
X92.053Y-22.37
X92.433Y-15.05
X92.533Y-16.85
X92.553Y-21.89
X93.017Y-22.271
X93.071Y-17.884
X93.105Y-18.483
X93.239Y-17.308
X93.395Y-20.128
X93.473Y-19.46
X95.633Y-15.42
X97.238Y-13.595
X97.643Y-14.0
X98.453Y-13.39
X98.553Y-17.64
X98.563Y-21.09
X99.493Y-16.91
X99.543Y-23.17
X99.553Y-20.17
X101.163Y-26.12
X102.643Y-19.89
X103.513Y-11.82
X104.503Y-18.85
X104.503Y-19.8
X104.723Y-26.2
T2
X58.483Y-17.48
X58.483Y-20.02
X58.483Y-22.56
X64.081Y-11.905
X64.081Y-27.116
X66.621Y-11.905
X66.621Y-27.116
X69.161Y-11.905
X69.161Y-27.116
X71.701Y-11.905
X71.701Y-27.116
X74.241Y-11.905
X74.241Y-27.116
X76.781Y-11.905
X76.781Y-27.116
X79.321Y-11.905
X79.321Y-27.116
X81.861Y-11.905
X81.861Y-27.116
X84.401Y-11.905
X84.401Y-27.116
X86.941Y-11.905
X86.941Y-27.116
X89.481Y-11.905
X89.481Y-27.116
X92.021Y-11.905
X92.021Y-27.116
X94.561Y-11.905
X94.561Y-27.116
X97.101Y-11.905
X97.101Y-27.116
T3
X104.133Y-17.011
X104.133Y-22.011
M30
