%TF.GenerationSoftware,KiCad,Pcbnew,10.0.4*%
%TF.CreationDate,2026-09-12T17:22:50+12:00*%
%TF.ProjectId,MicroDev128,4d696372-6f44-4657-9631-32382e6b6963,Rev 1B*%
%TF.SameCoordinates,PX5f5e100PY5f5e100*%
%TF.FileFunction,Copper,L2,Inr*%
%TF.FilePolarity,Positive*%
%FSLAX46Y46*%
G04 Gerber Fmt 4.6, Leading zero omitted, Abs format (unit mm)*
G04 Created by KiCad (PCBNEW 10.0.4) date 2026-09-12 17:22:50*
%MOMM*%
%LPD*%
G01*
G04 APERTURE LIST*
%TA.AperFunction,ComponentPad*%
%ADD10R,1.700000X1.700000*%
%TD*%
%TA.AperFunction,ComponentPad*%
%ADD11C,1.700000*%
%TD*%
%TA.AperFunction,ViaPad*%
%ADD12C,0.500000*%
%TD*%
G04 APERTURE END LIST*
D10*
%TO.N,Net-(J1-Pin_1)*%
%TO.C,J1*%
X58483083Y-17480000D03*
D11*
%TO.N,Net-(J1-Pin_2)*%
X58483083Y-20020000D03*
%TO.N,GND*%
X58483083Y-22560000D03*
%TD*%
D10*
%TO.N,Net-(J3-Pin_1)*%
%TO.C,J3*%
X97101458Y-27116270D03*
D11*
%TO.N,Net-(J3-Pin_2)*%
X94561458Y-27116270D03*
%TO.N,Net-(J3-Pin_3)*%
X92021458Y-27116270D03*
%TO.N,Net-(J3-Pin_4)*%
X89481458Y-27116270D03*
%TO.N,Net-(J3-Pin_5)*%
X86941458Y-27116270D03*
%TO.N,Net-(J3-Pin_6)*%
X84401458Y-27116270D03*
%TO.N,Net-(J3-Pin_7)*%
X81861458Y-27116270D03*
%TO.N,Net-(J3-Pin_8)*%
X79321458Y-27116270D03*
%TO.N,Net-(J3-Pin_9)*%
X76781458Y-27116270D03*
%TO.N,Net-(J3-Pin_10)*%
X74241458Y-27116270D03*
%TO.N,Net-(J3-Pin_11)*%
X71701458Y-27116270D03*
%TO.N,Net-(J3-Pin_12)*%
X69161458Y-27116270D03*
%TO.N,Net-(J3-Pin_13)*%
X66621458Y-27116270D03*
%TO.N,Net-(J3-Pin_14)*%
X64081458Y-27116270D03*
%TD*%
D10*
%TO.N,EXT IO V*%
%TO.C,J4*%
X97101458Y-11905281D03*
D11*
%TO.N,VDC*%
X94561458Y-11905281D03*
%TO.N,GND*%
X92021458Y-11905281D03*
X89481458Y-11905281D03*
%TO.N,+3.3V*%
X86941458Y-11905281D03*
%TO.N,+5V*%
X84401458Y-11905281D03*
%TO.N,Net-(J4-Pin_7)*%
X81861458Y-11905281D03*
%TO.N,Net-(J4-Pin_8)*%
X79321458Y-11905281D03*
%TO.N,Net-(J4-Pin_9)*%
X76781458Y-11905281D03*
%TO.N,Net-(J4-Pin_10)*%
X74241458Y-11905281D03*
%TO.N,Net-(J4-Pin_11)*%
X71701458Y-11905281D03*
%TO.N,Net-(J4-Pin_12)*%
X69161458Y-11905281D03*
%TO.N,Net-(J4-Pin_13)*%
X66621458Y-11905281D03*
%TO.N,Net-(J4-Pin_14)*%
X64081458Y-11905281D03*
%TD*%
D12*
%TO.N,+5V*%
X80362206Y-25439124D03*
X97643083Y-14000000D03*
X79803083Y-25460000D03*
X97238083Y-13595000D03*
X71691024Y-22740000D03*
X83653083Y-19570000D03*
X99493083Y-16910000D03*
X79803083Y-24890000D03*
X99553083Y-20170000D03*
X62703083Y-26040000D03*
X99543083Y-23170000D03*
X85563083Y-17908626D03*
%TO.N,GND*%
X104503083Y-18850000D03*
X90763083Y-19130000D03*
X89763083Y-18130000D03*
X76563083Y-22880000D03*
X69353083Y-22900000D03*
X62623083Y-17440000D03*
X98563083Y-21090000D03*
X68353083Y-21900000D03*
X69353083Y-21900000D03*
X83213083Y-18780000D03*
X90763083Y-20130000D03*
X68353083Y-20900000D03*
X104503083Y-19800000D03*
X68353083Y-22900000D03*
X88763083Y-18130000D03*
X88763083Y-20130000D03*
X69353083Y-20900000D03*
X83453083Y-20480000D03*
X90763083Y-18130000D03*
X76563083Y-19170000D03*
X62513083Y-24500000D03*
X98453083Y-13390000D03*
X89763083Y-20130000D03*
X95633083Y-15420000D03*
X103513083Y-11820000D03*
X58123083Y-26270000D03*
X58023083Y-14070000D03*
X88763083Y-19130000D03*
X89763083Y-19130000D03*
X104723083Y-26200000D03*
X98553083Y-17640000D03*
%TO.N,+3.3V*%
X71223083Y-21410000D03*
X102643083Y-19890000D03*
X70623083Y-23760000D03*
X79123083Y-17960000D03*
X80168083Y-17690000D03*
X79483083Y-19300000D03*
%TO.N,Net-(J4-Pin_7)*%
X83168894Y-15005811D03*
%TO.N,/F1*%
X85852023Y-18808626D03*
X101163083Y-26120000D03*
%TO.N,Net-(J1-Pin_2)*%
X84253083Y-20510000D03*
%TO.N,Net-(U2-RT)*%
X71987207Y-23654124D03*
X72141024Y-21470000D03*
X66153083Y-22690000D03*
%TO.N,Net-(J3-Pin_13)*%
X92053083Y-22370000D03*
%TO.N,Net-(J3-Pin_12)*%
X92553083Y-21890000D03*
%TO.N,Net-(J3-Pin_11)*%
X93016540Y-22271065D03*
%TO.N,Net-(J3-Pin_10)*%
X93395264Y-20127819D03*
%TO.N,Net-(J3-Pin_9)*%
X93473083Y-19460000D03*
%TO.N,Net-(J3-Pin_8)*%
X93104848Y-18482941D03*
%TO.N,Net-(J3-Pin_7)*%
X93071046Y-17883891D03*
%TO.N,Net-(J3-Pin_6)*%
X93239142Y-17307917D03*
%TO.N,Net-(J3-Pin_5)*%
X92533083Y-16850000D03*
%TO.N,Net-(U1-VDDIO2)*%
X91060908Y-15776588D03*
X92433083Y-15050000D03*
%TO.N,Net-(J4-Pin_8)*%
X90461334Y-15753965D03*
%TO.N,Net-(J4-Pin_9)*%
X89869504Y-15655291D03*
%TO.N,Net-(J4-Pin_10)*%
X89233083Y-15650000D03*
%TO.N,Net-(J4-Pin_11)*%
X86503083Y-15890000D03*
%TO.N,Net-(J4-Pin_12)*%
X87061157Y-16335529D03*
%TO.N,Net-(J4-Pin_13)*%
X86573083Y-16790000D03*
%TO.N,Net-(J4-Pin_14)*%
X85883083Y-17240000D03*
%TO.N,Net-(J3-Pin_1)*%
X86302022Y-21284173D03*
%TO.N,Net-(J3-Pin_2)*%
X87032702Y-21355000D03*
%TO.N,Net-(J3-Pin_3)*%
X87538083Y-21678403D03*
%TO.N,Net-(J3-Pin_4)*%
X88033083Y-22260000D03*
%TO.N,Net-(J3-Pin_14)*%
X91543083Y-22710000D03*
%TD*%
%TA.AperFunction,Conductor*%
%TO.N,GND*%
G36*
X63161931Y-10690960D02*
G01*
X63207686Y-10743764D01*
X63217630Y-10812922D01*
X63188605Y-10876478D01*
X63182573Y-10882956D01*
X63045254Y-11020274D01*
X62919564Y-11193271D01*
X62822485Y-11383797D01*
X62822484Y-11383800D01*
X62756409Y-11587163D01*
X62722958Y-11798365D01*
X62722958Y-12012196D01*
X62756409Y-12223398D01*
X62822484Y-12426761D01*
X62822485Y-12426764D01*
X62915373Y-12609064D01*
X62919564Y-12617290D01*
X63045252Y-12790285D01*
X63196454Y-12941487D01*
X63369449Y-13067175D01*
X63462896Y-13114788D01*
X63559974Y-13164253D01*
X63559977Y-13164254D01*
X63661658Y-13197291D01*
X63763342Y-13230330D01*
X63974542Y-13263781D01*
X63974543Y-13263781D01*
X64188373Y-13263781D01*
X64188374Y-13263781D01*
X64399574Y-13230330D01*
X64602941Y-13164253D01*
X64793467Y-13067175D01*
X64966462Y-12941487D01*
X65117664Y-12790285D01*
X65243352Y-12617290D01*
X65243354Y-12617285D01*
X65245728Y-12613413D01*
X65297538Y-12566535D01*
X65366467Y-12555110D01*
X65430631Y-12582764D01*
X65457188Y-12613413D01*
X65459561Y-12617286D01*
X65459563Y-12617289D01*
X65459564Y-12617290D01*
X65585252Y-12790285D01*
X65736454Y-12941487D01*
X65909449Y-13067175D01*
X66002896Y-13114788D01*
X66099974Y-13164253D01*
X66099977Y-13164254D01*
X66201658Y-13197291D01*
X66303342Y-13230330D01*
X66514542Y-13263781D01*
X66514543Y-13263781D01*
X66728373Y-13263781D01*
X66728374Y-13263781D01*
X66939574Y-13230330D01*
X67142941Y-13164253D01*
X67333467Y-13067175D01*
X67506462Y-12941487D01*
X67657664Y-12790285D01*
X67783352Y-12617290D01*
X67783354Y-12617285D01*
X67785728Y-12613413D01*
X67837538Y-12566535D01*
X67906467Y-12555110D01*
X67970631Y-12582764D01*
X67997188Y-12613413D01*
X67999561Y-12617286D01*
X67999563Y-12617289D01*
X67999564Y-12617290D01*
X68125252Y-12790285D01*
X68276454Y-12941487D01*
X68449449Y-13067175D01*
X68542896Y-13114788D01*
X68639974Y-13164253D01*
X68639977Y-13164254D01*
X68741658Y-13197291D01*
X68843342Y-13230330D01*
X69054542Y-13263781D01*
X69054543Y-13263781D01*
X69268373Y-13263781D01*
X69268374Y-13263781D01*
X69479574Y-13230330D01*
X69682941Y-13164253D01*
X69873467Y-13067175D01*
X70046462Y-12941487D01*
X70197664Y-12790285D01*
X70323352Y-12617290D01*
X70323354Y-12617285D01*
X70325728Y-12613413D01*
X70377538Y-12566535D01*
X70446467Y-12555110D01*
X70510631Y-12582764D01*
X70537188Y-12613413D01*
X70539561Y-12617286D01*
X70539563Y-12617289D01*
X70539564Y-12617290D01*
X70665252Y-12790285D01*
X70816454Y-12941487D01*
X70989449Y-13067175D01*
X71082896Y-13114788D01*
X71179974Y-13164253D01*
X71179977Y-13164254D01*
X71281658Y-13197291D01*
X71383342Y-13230330D01*
X71594542Y-13263781D01*
X71594543Y-13263781D01*
X71808373Y-13263781D01*
X71808374Y-13263781D01*
X72019574Y-13230330D01*
X72222941Y-13164253D01*
X72413467Y-13067175D01*
X72586462Y-12941487D01*
X72737664Y-12790285D01*
X72863352Y-12617290D01*
X72863354Y-12617285D01*
X72865728Y-12613413D01*
X72917538Y-12566535D01*
X72986467Y-12555110D01*
X73050631Y-12582764D01*
X73077188Y-12613413D01*
X73079561Y-12617286D01*
X73079563Y-12617289D01*
X73079564Y-12617290D01*
X73205252Y-12790285D01*
X73356454Y-12941487D01*
X73529449Y-13067175D01*
X73622896Y-13114788D01*
X73719974Y-13164253D01*
X73719977Y-13164254D01*
X73821658Y-13197291D01*
X73923342Y-13230330D01*
X74134542Y-13263781D01*
X74134543Y-13263781D01*
X74348373Y-13263781D01*
X74348374Y-13263781D01*
X74559574Y-13230330D01*
X74762941Y-13164253D01*
X74953467Y-13067175D01*
X75126462Y-12941487D01*
X75277664Y-12790285D01*
X75403352Y-12617290D01*
X75403354Y-12617285D01*
X75405728Y-12613413D01*
X75457538Y-12566535D01*
X75526467Y-12555110D01*
X75590631Y-12582764D01*
X75617188Y-12613413D01*
X75619561Y-12617286D01*
X75619563Y-12617289D01*
X75619564Y-12617290D01*
X75745252Y-12790285D01*
X75896454Y-12941487D01*
X76069449Y-13067175D01*
X76162896Y-13114788D01*
X76259974Y-13164253D01*
X76259977Y-13164254D01*
X76361658Y-13197291D01*
X76463342Y-13230330D01*
X76674542Y-13263781D01*
X76674543Y-13263781D01*
X76888373Y-13263781D01*
X76888374Y-13263781D01*
X77099574Y-13230330D01*
X77302941Y-13164253D01*
X77493467Y-13067175D01*
X77666462Y-12941487D01*
X77817664Y-12790285D01*
X77943352Y-12617290D01*
X77943354Y-12617285D01*
X77945728Y-12613413D01*
X77997538Y-12566535D01*
X78066467Y-12555110D01*
X78130631Y-12582764D01*
X78157188Y-12613413D01*
X78159561Y-12617286D01*
X78159563Y-12617289D01*
X78159564Y-12617290D01*
X78285252Y-12790285D01*
X78436454Y-12941487D01*
X78609449Y-13067175D01*
X78702896Y-13114788D01*
X78799974Y-13164253D01*
X78799977Y-13164254D01*
X78901658Y-13197291D01*
X79003342Y-13230330D01*
X79214542Y-13263781D01*
X79214543Y-13263781D01*
X79428373Y-13263781D01*
X79428374Y-13263781D01*
X79639574Y-13230330D01*
X79842941Y-13164253D01*
X80033467Y-13067175D01*
X80206462Y-12941487D01*
X80357664Y-12790285D01*
X80483352Y-12617290D01*
X80483354Y-12617285D01*
X80485728Y-12613413D01*
X80537538Y-12566535D01*
X80606467Y-12555110D01*
X80670631Y-12582764D01*
X80697188Y-12613413D01*
X80699561Y-12617286D01*
X80699563Y-12617289D01*
X80699564Y-12617290D01*
X80825252Y-12790285D01*
X80976454Y-12941487D01*
X81149449Y-13067175D01*
X81242896Y-13114788D01*
X81339974Y-13164253D01*
X81339977Y-13164254D01*
X81441658Y-13197291D01*
X81543342Y-13230330D01*
X81754542Y-13263781D01*
X81754543Y-13263781D01*
X81968373Y-13263781D01*
X81968374Y-13263781D01*
X82179574Y-13230330D01*
X82382941Y-13164253D01*
X82573467Y-13067175D01*
X82746462Y-12941487D01*
X82897664Y-12790285D01*
X83023352Y-12617290D01*
X83023354Y-12617285D01*
X83025728Y-12613413D01*
X83077538Y-12566535D01*
X83146467Y-12555110D01*
X83210631Y-12582764D01*
X83237188Y-12613413D01*
X83239561Y-12617286D01*
X83239563Y-12617289D01*
X83239564Y-12617290D01*
X83365252Y-12790285D01*
X83516454Y-12941487D01*
X83689449Y-13067175D01*
X83782896Y-13114788D01*
X83879974Y-13164253D01*
X83879977Y-13164254D01*
X83981658Y-13197291D01*
X84083342Y-13230330D01*
X84294542Y-13263781D01*
X84294543Y-13263781D01*
X84508373Y-13263781D01*
X84508374Y-13263781D01*
X84719574Y-13230330D01*
X84922941Y-13164253D01*
X85113467Y-13067175D01*
X85286462Y-12941487D01*
X85437664Y-12790285D01*
X85563352Y-12617290D01*
X85563354Y-12617285D01*
X85565728Y-12613413D01*
X85617538Y-12566535D01*
X85686467Y-12555110D01*
X85750631Y-12582764D01*
X85777188Y-12613413D01*
X85779561Y-12617286D01*
X85779563Y-12617289D01*
X85779564Y-12617290D01*
X85905252Y-12790285D01*
X86056454Y-12941487D01*
X86229449Y-13067175D01*
X86322896Y-13114788D01*
X86419974Y-13164253D01*
X86419977Y-13164254D01*
X86521658Y-13197291D01*
X86623342Y-13230330D01*
X86834542Y-13263781D01*
X86834543Y-13263781D01*
X87048373Y-13263781D01*
X87048374Y-13263781D01*
X87259574Y-13230330D01*
X87462941Y-13164253D01*
X87653467Y-13067175D01*
X87826462Y-12941487D01*
X87977664Y-12790285D01*
X88103352Y-12617290D01*
X88105741Y-12612600D01*
X88153712Y-12561803D01*
X88221532Y-12545005D01*
X88287668Y-12567539D01*
X88323654Y-12609064D01*
X88324287Y-12608677D01*
X88326625Y-12612492D01*
X88326709Y-12612589D01*
X88326829Y-12612826D01*
X88326831Y-12612828D01*
X88366186Y-12666997D01*
X88998495Y-12034689D01*
X89015533Y-12098274D01*
X89081359Y-12212288D01*
X89174451Y-12305380D01*
X89288465Y-12371206D01*
X89352048Y-12388243D01*
X88719740Y-13020550D01*
X88719740Y-13020551D01*
X88773907Y-13059905D01*
X88963240Y-13156376D01*
X89165328Y-13222038D01*
X89375212Y-13255281D01*
X89587704Y-13255281D01*
X89797585Y-13222038D01*
X89797588Y-13222038D01*
X89999675Y-13156376D01*
X90189012Y-13059903D01*
X90243174Y-13020551D01*
X90243175Y-13020551D01*
X89610866Y-12388243D01*
X89674451Y-12371206D01*
X89788465Y-12305380D01*
X89881557Y-12212288D01*
X89947383Y-12098274D01*
X89964420Y-12034689D01*
X90596728Y-12666998D01*
X90596728Y-12666997D01*
X90636080Y-12612835D01*
X90640972Y-12603235D01*
X90688946Y-12552438D01*
X90756766Y-12535642D01*
X90822902Y-12558178D01*
X90861944Y-12603235D01*
X90866833Y-12612831D01*
X90906186Y-12666997D01*
X91538495Y-12034689D01*
X91555533Y-12098274D01*
X91621359Y-12212288D01*
X91714451Y-12305380D01*
X91828465Y-12371206D01*
X91892048Y-12388243D01*
X91259740Y-13020550D01*
X91259740Y-13020551D01*
X91313907Y-13059905D01*
X91503240Y-13156376D01*
X91705328Y-13222038D01*
X91915212Y-13255281D01*
X92127704Y-13255281D01*
X92337585Y-13222038D01*
X92337588Y-13222038D01*
X92539675Y-13156376D01*
X92729012Y-13059903D01*
X92783174Y-13020551D01*
X92783175Y-13020551D01*
X92150866Y-12388243D01*
X92214451Y-12371206D01*
X92328465Y-12305380D01*
X92421557Y-12212288D01*
X92487383Y-12098274D01*
X92504420Y-12034689D01*
X93136728Y-12666998D01*
X93136728Y-12666997D01*
X93176079Y-12612837D01*
X93176196Y-12612608D01*
X93176266Y-12612533D01*
X93178626Y-12608683D01*
X93179434Y-12609178D01*
X93224165Y-12561807D01*
X93291984Y-12545004D01*
X93358121Y-12567535D01*
X93397170Y-12612592D01*
X93399563Y-12617289D01*
X93402096Y-12620775D01*
X93525252Y-12790285D01*
X93676454Y-12941487D01*
X93849449Y-13067175D01*
X93942896Y-13114788D01*
X94039974Y-13164253D01*
X94039977Y-13164254D01*
X94141658Y-13197291D01*
X94243342Y-13230330D01*
X94454542Y-13263781D01*
X94454543Y-13263781D01*
X94668373Y-13263781D01*
X94668374Y-13263781D01*
X94879574Y-13230330D01*
X95082941Y-13164253D01*
X95273467Y-13067175D01*
X95446462Y-12941487D01*
X95551642Y-12836306D01*
X95612961Y-12802824D01*
X95682653Y-12807808D01*
X95738587Y-12849679D01*
X95755501Y-12880656D01*
X95800568Y-13001484D01*
X95800569Y-13001485D01*
X95888197Y-13118542D01*
X96005254Y-13206170D01*
X96142257Y-13257270D01*
X96169508Y-13260199D01*
X96202803Y-13263780D01*
X96202820Y-13263781D01*
X96379512Y-13263781D01*
X96446551Y-13283466D01*
X96492306Y-13336270D01*
X96502250Y-13405428D01*
X96501129Y-13411972D01*
X96479583Y-13520289D01*
X96479583Y-13520294D01*
X96479583Y-13669706D01*
X96479583Y-13669708D01*
X96479582Y-13669708D01*
X96508730Y-13816240D01*
X96508733Y-13816250D01*
X96565905Y-13954277D01*
X96565912Y-13954290D01*
X96648917Y-14078515D01*
X96648920Y-14078519D01*
X96754563Y-14184162D01*
X96754571Y-14184168D01*
X96878797Y-14267173D01*
X96896474Y-14274495D01*
X96950878Y-14318335D01*
X96963584Y-14341602D01*
X96970906Y-14359278D01*
X96970912Y-14359290D01*
X97053917Y-14483515D01*
X97053920Y-14483519D01*
X97159563Y-14589162D01*
X97159567Y-14589165D01*
X97283792Y-14672170D01*
X97283805Y-14672177D01*
X97421832Y-14729349D01*
X97421837Y-14729351D01*
X97421841Y-14729351D01*
X97421842Y-14729352D01*
X97568374Y-14758500D01*
X97568377Y-14758500D01*
X97717791Y-14758500D01*
X97816375Y-14738889D01*
X97864329Y-14729351D01*
X98002367Y-14672174D01*
X98126599Y-14589165D01*
X98232248Y-14483516D01*
X98315257Y-14359284D01*
X98372434Y-14221246D01*
X98400825Y-14078519D01*
X98401583Y-14074708D01*
X98401583Y-13925291D01*
X98372435Y-13778759D01*
X98372434Y-13778758D01*
X98372434Y-13778754D01*
X98327265Y-13669706D01*
X98315260Y-13640722D01*
X98315253Y-13640709D01*
X98232248Y-13516484D01*
X98232245Y-13516480D01*
X98133272Y-13417507D01*
X98099787Y-13356184D01*
X98104771Y-13286492D01*
X98146643Y-13230559D01*
X98177612Y-13213648D01*
X98197662Y-13206170D01*
X98314719Y-13118542D01*
X98402347Y-13001485D01*
X98453447Y-12864482D01*
X98457049Y-12830973D01*
X98459957Y-12803935D01*
X98459958Y-12803918D01*
X98459958Y-11006643D01*
X98459957Y-11006626D01*
X98456615Y-10975551D01*
X98453447Y-10946080D01*
X98448366Y-10932458D01*
X98429903Y-10882956D01*
X98413361Y-10838608D01*
X98408376Y-10768918D01*
X98441861Y-10707595D01*
X98503183Y-10674109D01*
X98529543Y-10671275D01*
X103823841Y-10671275D01*
X103836182Y-10671275D01*
X103844291Y-10671540D01*
X103866200Y-10672975D01*
X104086616Y-10687422D01*
X104102676Y-10689537D01*
X104336852Y-10736117D01*
X104352507Y-10740312D01*
X104578593Y-10817058D01*
X104593575Y-10823263D01*
X104722858Y-10887019D01*
X104807709Y-10928863D01*
X104821752Y-10936970D01*
X105020279Y-11069621D01*
X105033140Y-11079490D01*
X105212643Y-11236911D01*
X105224112Y-11248380D01*
X105381533Y-11427883D01*
X105391408Y-11440752D01*
X105524051Y-11639268D01*
X105532160Y-11653314D01*
X105637759Y-11867446D01*
X105643966Y-11882432D01*
X105720709Y-12108510D01*
X105724907Y-12124177D01*
X105771484Y-12358336D01*
X105773602Y-12374417D01*
X105789266Y-12613413D01*
X105789484Y-12616731D01*
X105789749Y-12624841D01*
X105789749Y-26396708D01*
X105789484Y-26404818D01*
X105773602Y-26647132D01*
X105771484Y-26663213D01*
X105724907Y-26897372D01*
X105720709Y-26913039D01*
X105643966Y-27139117D01*
X105637759Y-27154103D01*
X105532160Y-27368235D01*
X105524051Y-27382281D01*
X105391408Y-27580797D01*
X105381533Y-27593666D01*
X105224112Y-27773169D01*
X105212643Y-27784638D01*
X105033140Y-27942059D01*
X105020271Y-27951934D01*
X104821755Y-28084577D01*
X104807710Y-28092686D01*
X104747839Y-28122212D01*
X104692994Y-28135000D01*
X98583958Y-28135000D01*
X98516919Y-28115315D01*
X98471164Y-28062511D01*
X98459958Y-28011000D01*
X98459958Y-26217632D01*
X98459957Y-26217615D01*
X98457494Y-26194708D01*
X100404582Y-26194708D01*
X100433730Y-26341240D01*
X100433733Y-26341250D01*
X100490905Y-26479277D01*
X100490912Y-26479290D01*
X100573917Y-26603515D01*
X100573920Y-26603519D01*
X100679563Y-26709162D01*
X100679567Y-26709165D01*
X100803792Y-26792170D01*
X100803805Y-26792177D01*
X100881049Y-26824172D01*
X100941837Y-26849351D01*
X100941841Y-26849351D01*
X100941842Y-26849352D01*
X101088374Y-26878500D01*
X101088377Y-26878500D01*
X101237791Y-26878500D01*
X101336375Y-26858889D01*
X101384329Y-26849351D01*
X101522367Y-26792174D01*
X101646599Y-26709165D01*
X101752248Y-26603516D01*
X101835257Y-26479284D01*
X101892434Y-26341246D01*
X101901972Y-26293292D01*
X101921583Y-26194708D01*
X101921583Y-26045291D01*
X101892435Y-25898759D01*
X101892434Y-25898758D01*
X101892434Y-25898754D01*
X101892432Y-25898749D01*
X101835260Y-25760722D01*
X101835253Y-25760709D01*
X101752248Y-25636484D01*
X101752245Y-25636480D01*
X101646602Y-25530837D01*
X101646598Y-25530834D01*
X101522373Y-25447829D01*
X101522360Y-25447822D01*
X101384333Y-25390650D01*
X101384323Y-25390647D01*
X101237791Y-25361500D01*
X101237789Y-25361500D01*
X101088377Y-25361500D01*
X101088375Y-25361500D01*
X100941842Y-25390647D01*
X100941832Y-25390650D01*
X100803805Y-25447822D01*
X100803792Y-25447829D01*
X100679567Y-25530834D01*
X100679563Y-25530837D01*
X100573920Y-25636480D01*
X100573917Y-25636484D01*
X100490912Y-25760709D01*
X100490905Y-25760722D01*
X100433733Y-25898749D01*
X100433730Y-25898759D01*
X100404583Y-26045291D01*
X100404583Y-26045294D01*
X100404583Y-26194706D01*
X100404583Y-26194708D01*
X100404582Y-26194708D01*
X98457494Y-26194708D01*
X98454673Y-26168475D01*
X98453447Y-26157069D01*
X98447414Y-26140895D01*
X98425648Y-26082537D01*
X98418397Y-26063098D01*
X98402347Y-26020066D01*
X98314719Y-25903009D01*
X98197662Y-25815381D01*
X98060661Y-25764281D01*
X98000112Y-25757770D01*
X98000096Y-25757770D01*
X96202820Y-25757770D01*
X96202803Y-25757770D01*
X96142255Y-25764281D01*
X96142253Y-25764281D01*
X96005253Y-25815381D01*
X95888197Y-25903009D01*
X95800569Y-26020065D01*
X95755501Y-26140895D01*
X95713629Y-26196828D01*
X95648165Y-26221244D01*
X95579892Y-26206392D01*
X95551639Y-26185241D01*
X95446464Y-26080066D01*
X95446462Y-26080064D01*
X95273467Y-25954376D01*
X95211182Y-25922640D01*
X95082941Y-25857297D01*
X95082938Y-25857296D01*
X94879575Y-25791221D01*
X94770763Y-25773987D01*
X94668374Y-25757770D01*
X94454542Y-25757770D01*
X94384142Y-25768920D01*
X94243340Y-25791221D01*
X94039977Y-25857296D01*
X94039974Y-25857297D01*
X93849448Y-25954376D01*
X93676451Y-26080066D01*
X93525254Y-26231263D01*
X93399563Y-26404261D01*
X93397185Y-26408143D01*
X93345372Y-26455018D01*
X93276442Y-26466439D01*
X93212280Y-26438782D01*
X93185731Y-26408143D01*
X93183352Y-26404261D01*
X93137569Y-26341246D01*
X93057664Y-26231266D01*
X92906462Y-26080064D01*
X92733467Y-25954376D01*
X92671182Y-25922640D01*
X92542941Y-25857297D01*
X92542938Y-25857296D01*
X92339575Y-25791221D01*
X92230763Y-25773987D01*
X92128374Y-25757770D01*
X91914542Y-25757770D01*
X91844142Y-25768920D01*
X91703340Y-25791221D01*
X91499977Y-25857296D01*
X91499974Y-25857297D01*
X91309448Y-25954376D01*
X91136451Y-26080066D01*
X90985254Y-26231263D01*
X90859563Y-26404261D01*
X90857185Y-26408143D01*
X90805372Y-26455018D01*
X90736442Y-26466439D01*
X90672280Y-26438782D01*
X90645731Y-26408143D01*
X90643352Y-26404261D01*
X90597569Y-26341246D01*
X90517664Y-26231266D01*
X90366462Y-26080064D01*
X90193467Y-25954376D01*
X90131182Y-25922640D01*
X90002941Y-25857297D01*
X90002938Y-25857296D01*
X89799575Y-25791221D01*
X89690763Y-25773987D01*
X89588374Y-25757770D01*
X89374542Y-25757770D01*
X89304142Y-25768920D01*
X89163340Y-25791221D01*
X88959977Y-25857296D01*
X88959974Y-25857297D01*
X88769448Y-25954376D01*
X88596451Y-26080066D01*
X88445254Y-26231263D01*
X88319563Y-26404261D01*
X88317185Y-26408143D01*
X88265372Y-26455018D01*
X88196442Y-26466439D01*
X88132280Y-26438782D01*
X88105731Y-26408143D01*
X88103352Y-26404261D01*
X88057569Y-26341246D01*
X87977664Y-26231266D01*
X87826462Y-26080064D01*
X87653467Y-25954376D01*
X87591182Y-25922640D01*
X87462941Y-25857297D01*
X87462938Y-25857296D01*
X87259575Y-25791221D01*
X87150763Y-25773987D01*
X87048374Y-25757770D01*
X86834542Y-25757770D01*
X86764142Y-25768920D01*
X86623340Y-25791221D01*
X86419977Y-25857296D01*
X86419974Y-25857297D01*
X86229448Y-25954376D01*
X86056451Y-26080066D01*
X85905254Y-26231263D01*
X85779563Y-26404261D01*
X85777185Y-26408143D01*
X85725372Y-26455018D01*
X85656442Y-26466439D01*
X85592280Y-26438782D01*
X85565731Y-26408143D01*
X85563352Y-26404261D01*
X85517569Y-26341246D01*
X85437664Y-26231266D01*
X85286462Y-26080064D01*
X85113467Y-25954376D01*
X85051182Y-25922640D01*
X84922941Y-25857297D01*
X84922938Y-25857296D01*
X84719575Y-25791221D01*
X84610763Y-25773987D01*
X84508374Y-25757770D01*
X84294542Y-25757770D01*
X84224142Y-25768920D01*
X84083340Y-25791221D01*
X83879977Y-25857296D01*
X83879974Y-25857297D01*
X83689448Y-25954376D01*
X83516451Y-26080066D01*
X83365254Y-26231263D01*
X83239563Y-26404261D01*
X83237185Y-26408143D01*
X83185372Y-26455018D01*
X83116442Y-26466439D01*
X83052280Y-26438782D01*
X83025731Y-26408143D01*
X83023352Y-26404261D01*
X82977569Y-26341246D01*
X82897664Y-26231266D01*
X82746462Y-26080064D01*
X82573467Y-25954376D01*
X82511182Y-25922640D01*
X82382941Y-25857297D01*
X82382938Y-25857296D01*
X82179575Y-25791221D01*
X82070763Y-25773987D01*
X81968374Y-25757770D01*
X81754542Y-25757770D01*
X81684142Y-25768920D01*
X81543340Y-25791221D01*
X81339977Y-25857296D01*
X81339974Y-25857298D01*
X81221193Y-25917820D01*
X81152523Y-25930716D01*
X81087783Y-25904439D01*
X81047526Y-25847333D01*
X81044534Y-25777527D01*
X81050333Y-25759892D01*
X81091557Y-25660370D01*
X81101095Y-25612416D01*
X81120706Y-25513832D01*
X81120706Y-25364415D01*
X81091558Y-25217883D01*
X81091557Y-25217882D01*
X81091557Y-25217878D01*
X81091555Y-25217873D01*
X81034383Y-25079846D01*
X81034376Y-25079833D01*
X80951371Y-24955608D01*
X80951368Y-24955604D01*
X80845725Y-24849961D01*
X80845721Y-24849958D01*
X80721496Y-24766953D01*
X80721487Y-24766948D01*
X80589829Y-24712414D01*
X80535426Y-24668573D01*
X80522721Y-24645305D01*
X80475260Y-24530722D01*
X80475253Y-24530709D01*
X80392248Y-24406484D01*
X80392245Y-24406480D01*
X80286602Y-24300837D01*
X80286598Y-24300834D01*
X80162373Y-24217829D01*
X80162360Y-24217822D01*
X80024333Y-24160650D01*
X80024323Y-24160647D01*
X79877791Y-24131500D01*
X79877789Y-24131500D01*
X79728377Y-24131500D01*
X79728375Y-24131500D01*
X79581842Y-24160647D01*
X79581832Y-24160650D01*
X79443805Y-24217822D01*
X79443792Y-24217829D01*
X79319567Y-24300834D01*
X79319563Y-24300837D01*
X79213920Y-24406480D01*
X79213917Y-24406484D01*
X79130912Y-24530709D01*
X79130905Y-24530722D01*
X79073733Y-24668749D01*
X79073730Y-24668759D01*
X79044583Y-24815291D01*
X79044583Y-24815294D01*
X79044583Y-24964706D01*
X79044583Y-24964708D01*
X79044582Y-24964708D01*
X79073731Y-25111244D01*
X79073733Y-25111251D01*
X79080484Y-25127550D01*
X79087951Y-25197020D01*
X79080484Y-25222450D01*
X79073733Y-25238748D01*
X79073731Y-25238755D01*
X79044583Y-25385291D01*
X79044583Y-25534710D01*
X79068508Y-25654989D01*
X79062281Y-25724580D01*
X79019418Y-25779758D01*
X78985209Y-25797111D01*
X78799977Y-25857296D01*
X78799974Y-25857297D01*
X78609448Y-25954376D01*
X78436451Y-26080066D01*
X78285254Y-26231263D01*
X78159563Y-26404261D01*
X78157185Y-26408143D01*
X78105372Y-26455018D01*
X78036442Y-26466439D01*
X77972280Y-26438782D01*
X77945731Y-26408143D01*
X77943352Y-26404261D01*
X77897569Y-26341246D01*
X77817664Y-26231266D01*
X77666462Y-26080064D01*
X77493467Y-25954376D01*
X77431182Y-25922640D01*
X77302941Y-25857297D01*
X77302938Y-25857296D01*
X77099575Y-25791221D01*
X76990763Y-25773987D01*
X76888374Y-25757770D01*
X76674542Y-25757770D01*
X76604142Y-25768920D01*
X76463340Y-25791221D01*
X76259977Y-25857296D01*
X76259974Y-25857297D01*
X76069448Y-25954376D01*
X75896451Y-26080066D01*
X75745254Y-26231263D01*
X75619563Y-26404261D01*
X75617185Y-26408143D01*
X75565372Y-26455018D01*
X75496442Y-26466439D01*
X75432280Y-26438782D01*
X75405731Y-26408143D01*
X75403352Y-26404261D01*
X75357569Y-26341246D01*
X75277664Y-26231266D01*
X75126462Y-26080064D01*
X74953467Y-25954376D01*
X74891182Y-25922640D01*
X74762941Y-25857297D01*
X74762938Y-25857296D01*
X74559575Y-25791221D01*
X74450763Y-25773987D01*
X74348374Y-25757770D01*
X74134542Y-25757770D01*
X74064142Y-25768920D01*
X73923340Y-25791221D01*
X73719977Y-25857296D01*
X73719974Y-25857297D01*
X73529448Y-25954376D01*
X73356451Y-26080066D01*
X73205254Y-26231263D01*
X73079563Y-26404261D01*
X73077185Y-26408143D01*
X73025372Y-26455018D01*
X72956442Y-26466439D01*
X72892280Y-26438782D01*
X72865731Y-26408143D01*
X72863352Y-26404261D01*
X72817569Y-26341246D01*
X72737664Y-26231266D01*
X72586462Y-26080064D01*
X72413467Y-25954376D01*
X72351182Y-25922640D01*
X72222941Y-25857297D01*
X72222938Y-25857296D01*
X72019575Y-25791221D01*
X71910763Y-25773987D01*
X71808374Y-25757770D01*
X71594542Y-25757770D01*
X71524142Y-25768920D01*
X71383340Y-25791221D01*
X71179977Y-25857296D01*
X71179974Y-25857297D01*
X70989448Y-25954376D01*
X70816451Y-26080066D01*
X70665254Y-26231263D01*
X70539563Y-26404261D01*
X70537185Y-26408143D01*
X70485372Y-26455018D01*
X70416442Y-26466439D01*
X70352280Y-26438782D01*
X70325731Y-26408143D01*
X70323352Y-26404261D01*
X70277569Y-26341246D01*
X70197664Y-26231266D01*
X70046462Y-26080064D01*
X69873467Y-25954376D01*
X69811182Y-25922640D01*
X69682941Y-25857297D01*
X69682938Y-25857296D01*
X69479575Y-25791221D01*
X69370763Y-25773987D01*
X69268374Y-25757770D01*
X69054542Y-25757770D01*
X68984142Y-25768920D01*
X68843340Y-25791221D01*
X68639977Y-25857296D01*
X68639974Y-25857297D01*
X68449448Y-25954376D01*
X68276451Y-26080066D01*
X68125254Y-26231263D01*
X67999563Y-26404261D01*
X67997185Y-26408143D01*
X67945372Y-26455018D01*
X67876442Y-26466439D01*
X67812280Y-26438782D01*
X67785731Y-26408143D01*
X67783352Y-26404261D01*
X67737569Y-26341246D01*
X67657664Y-26231266D01*
X67506462Y-26080064D01*
X67333467Y-25954376D01*
X67271182Y-25922640D01*
X67142941Y-25857297D01*
X67142938Y-25857296D01*
X66939575Y-25791221D01*
X66830763Y-25773987D01*
X66728374Y-25757770D01*
X66514542Y-25757770D01*
X66444142Y-25768920D01*
X66303340Y-25791221D01*
X66099977Y-25857296D01*
X66099974Y-25857297D01*
X65909448Y-25954376D01*
X65736451Y-26080066D01*
X65585254Y-26231263D01*
X65459563Y-26404261D01*
X65457185Y-26408143D01*
X65405372Y-26455018D01*
X65336442Y-26466439D01*
X65272280Y-26438782D01*
X65245731Y-26408143D01*
X65243352Y-26404261D01*
X65197569Y-26341246D01*
X65117664Y-26231266D01*
X64966462Y-26080064D01*
X64793467Y-25954376D01*
X64731182Y-25922640D01*
X64602941Y-25857297D01*
X64602938Y-25857296D01*
X64399575Y-25791221D01*
X64290763Y-25773987D01*
X64188374Y-25757770D01*
X63974542Y-25757770D01*
X63955942Y-25760716D01*
X63763338Y-25791221D01*
X63570647Y-25853829D01*
X63500806Y-25855824D01*
X63440973Y-25819743D01*
X63417769Y-25783350D01*
X63375260Y-25680721D01*
X63375253Y-25680709D01*
X63292248Y-25556484D01*
X63292245Y-25556480D01*
X63186602Y-25450837D01*
X63186598Y-25450834D01*
X63062373Y-25367829D01*
X63062360Y-25367822D01*
X62924333Y-25310650D01*
X62924323Y-25310647D01*
X62777791Y-25281500D01*
X62777789Y-25281500D01*
X62628377Y-25281500D01*
X62628375Y-25281500D01*
X62481842Y-25310647D01*
X62481832Y-25310650D01*
X62343805Y-25367822D01*
X62343792Y-25367829D01*
X62219567Y-25450834D01*
X62219563Y-25450837D01*
X62113920Y-25556480D01*
X62113917Y-25556484D01*
X62030912Y-25680709D01*
X62030905Y-25680722D01*
X61973733Y-25818749D01*
X61973730Y-25818759D01*
X61944583Y-25965291D01*
X61944583Y-25965294D01*
X61944583Y-26114706D01*
X61944583Y-26114708D01*
X61944582Y-26114708D01*
X61973730Y-26261240D01*
X61973733Y-26261250D01*
X62030905Y-26399277D01*
X62030912Y-26399290D01*
X62113917Y-26523515D01*
X62113920Y-26523519D01*
X62219563Y-26629162D01*
X62219567Y-26629165D01*
X62343792Y-26712170D01*
X62343805Y-26712177D01*
X62481832Y-26769349D01*
X62481837Y-26769351D01*
X62481841Y-26769351D01*
X62481842Y-26769352D01*
X62634352Y-26799689D01*
X62633851Y-26802204D01*
X62688270Y-26824172D01*
X62728635Y-26881202D01*
X62733813Y-26940818D01*
X62722958Y-27009354D01*
X62722958Y-27009358D01*
X62722958Y-27223185D01*
X62756409Y-27434387D01*
X62822484Y-27637750D01*
X62822485Y-27637753D01*
X62919566Y-27828282D01*
X62999364Y-27938115D01*
X63022844Y-28003921D01*
X63007019Y-28071975D01*
X62956913Y-28120670D01*
X62899046Y-28135000D01*
X57884802Y-28135000D01*
X57872519Y-28132136D01*
X57863511Y-28133159D01*
X57829958Y-28122212D01*
X57770086Y-28092686D01*
X57756040Y-28084577D01*
X57651772Y-28014908D01*
X57557519Y-27951930D01*
X57544655Y-27942059D01*
X57365152Y-27784638D01*
X57353683Y-27773169D01*
X57196262Y-27593666D01*
X57186393Y-27580805D01*
X57053742Y-27382278D01*
X57045635Y-27368235D01*
X56940036Y-27154103D01*
X56933829Y-27139117D01*
X56889782Y-27009358D01*
X56857084Y-26913033D01*
X56852888Y-26897372D01*
X56849672Y-26881202D01*
X56806309Y-26663200D01*
X56804193Y-26647124D01*
X56803348Y-26634217D01*
X56803083Y-26626116D01*
X56803083Y-16581345D01*
X57124583Y-16581345D01*
X57124583Y-18378654D01*
X57131094Y-18439202D01*
X57131094Y-18439204D01*
X57175273Y-18557649D01*
X57182194Y-18576204D01*
X57269822Y-18693261D01*
X57324132Y-18733917D01*
X57380648Y-18776225D01*
X57386879Y-18780889D01*
X57507709Y-18825956D01*
X57563640Y-18867827D01*
X57588057Y-18933291D01*
X57573205Y-19001564D01*
X57552055Y-19029818D01*
X57446876Y-19134997D01*
X57321189Y-19307990D01*
X57224110Y-19498516D01*
X57224109Y-19498519D01*
X57158034Y-19701882D01*
X57139263Y-19820396D01*
X57124583Y-19913084D01*
X57124583Y-20126916D01*
X57128353Y-20150716D01*
X57158034Y-20338117D01*
X57224109Y-20541480D01*
X57224110Y-20541483D01*
X57302336Y-20695008D01*
X57321189Y-20732009D01*
X57446877Y-20905004D01*
X57598079Y-21056206D01*
X57771074Y-21181894D01*
X57775763Y-21184283D01*
X57826561Y-21232254D01*
X57843359Y-21300074D01*
X57820825Y-21366210D01*
X57779288Y-21402209D01*
X57779673Y-21402838D01*
X57775887Y-21405157D01*
X57775785Y-21405246D01*
X57775532Y-21405374D01*
X57775523Y-21405380D01*
X57721365Y-21444727D01*
X57721365Y-21444728D01*
X58353674Y-22077037D01*
X58290090Y-22094075D01*
X58176076Y-22159901D01*
X58082984Y-22252993D01*
X58017158Y-22367007D01*
X58000120Y-22430591D01*
X57367811Y-21798282D01*
X57367810Y-21798282D01*
X57328463Y-21852439D01*
X57231987Y-22041782D01*
X57166325Y-22243869D01*
X57166325Y-22243872D01*
X57133083Y-22453753D01*
X57133083Y-22666246D01*
X57166325Y-22876127D01*
X57166325Y-22876130D01*
X57231987Y-23078217D01*
X57328458Y-23267550D01*
X57367811Y-23321716D01*
X58000120Y-22689408D01*
X58017158Y-22752993D01*
X58082984Y-22867007D01*
X58176076Y-22960099D01*
X58290090Y-23025925D01*
X58353673Y-23042962D01*
X57721365Y-23675269D01*
X57721365Y-23675270D01*
X57775532Y-23714624D01*
X57964865Y-23811095D01*
X58166953Y-23876757D01*
X58376837Y-23910000D01*
X58589329Y-23910000D01*
X58799210Y-23876757D01*
X58799213Y-23876757D01*
X58928627Y-23834708D01*
X69864582Y-23834708D01*
X69893730Y-23981240D01*
X69893733Y-23981250D01*
X69950905Y-24119277D01*
X69950912Y-24119290D01*
X70033917Y-24243515D01*
X70033920Y-24243519D01*
X70139563Y-24349162D01*
X70139567Y-24349165D01*
X70263792Y-24432170D01*
X70263805Y-24432177D01*
X70401832Y-24489349D01*
X70401837Y-24489351D01*
X70401841Y-24489351D01*
X70401842Y-24489352D01*
X70548374Y-24518500D01*
X70548377Y-24518500D01*
X70697791Y-24518500D01*
X70796375Y-24498889D01*
X70844329Y-24489351D01*
X70982367Y-24432174D01*
X71106599Y-24349165D01*
X71212248Y-24243516D01*
X71245130Y-24194303D01*
X71298742Y-24149498D01*
X71368067Y-24140791D01*
X71431095Y-24170945D01*
X71435914Y-24175513D01*
X71503687Y-24243286D01*
X71503691Y-24243289D01*
X71627916Y-24326294D01*
X71627929Y-24326301D01*
X71765956Y-24383473D01*
X71765961Y-24383475D01*
X71765965Y-24383475D01*
X71765966Y-24383476D01*
X71912498Y-24412624D01*
X71912501Y-24412624D01*
X72061915Y-24412624D01*
X72160499Y-24393013D01*
X72208453Y-24383475D01*
X72346491Y-24326298D01*
X72470723Y-24243289D01*
X72576372Y-24137640D01*
X72659381Y-24013408D01*
X72716558Y-23875370D01*
X72745707Y-23728830D01*
X72745707Y-23579418D01*
X72745707Y-23579415D01*
X72716559Y-23432883D01*
X72716558Y-23432882D01*
X72716558Y-23432878D01*
X72693825Y-23377995D01*
X72659384Y-23294846D01*
X72659377Y-23294833D01*
X72576372Y-23170608D01*
X72576369Y-23170604D01*
X72470723Y-23064958D01*
X72467153Y-23062028D01*
X72427822Y-23004281D01*
X72424206Y-22941987D01*
X72449524Y-22814708D01*
X72449524Y-22665291D01*
X72420376Y-22518759D01*
X72420375Y-22518758D01*
X72420375Y-22518754D01*
X72411708Y-22497829D01*
X72363201Y-22380722D01*
X72363194Y-22380709D01*
X72352026Y-22363995D01*
X72331148Y-22297318D01*
X72349632Y-22229937D01*
X72401611Y-22183247D01*
X72407666Y-22180547D01*
X72440954Y-22166758D01*
X72500302Y-22142177D01*
X72500305Y-22142175D01*
X72500308Y-22142174D01*
X72624540Y-22059165D01*
X72730189Y-21953516D01*
X72813198Y-21829284D01*
X72870375Y-21691246D01*
X72896427Y-21560275D01*
X72899524Y-21544708D01*
X72899524Y-21395291D01*
X72892281Y-21358881D01*
X85543521Y-21358881D01*
X85572669Y-21505413D01*
X85572672Y-21505423D01*
X85629844Y-21643450D01*
X85629851Y-21643463D01*
X85712856Y-21767688D01*
X85712859Y-21767692D01*
X85818502Y-21873335D01*
X85818506Y-21873338D01*
X85942731Y-21956343D01*
X85942744Y-21956350D01*
X86046110Y-21999165D01*
X86080776Y-22013524D01*
X86080780Y-22013524D01*
X86080781Y-22013525D01*
X86227313Y-22042673D01*
X86227316Y-22042673D01*
X86376730Y-22042673D01*
X86475314Y-22023062D01*
X86523268Y-22013524D01*
X86542111Y-22005719D01*
X86611580Y-21998249D01*
X86658457Y-22017178D01*
X86673409Y-22027169D01*
X86673424Y-22027177D01*
X86806200Y-22082174D01*
X86811456Y-22084351D01*
X86859838Y-22093974D01*
X86921747Y-22126357D01*
X86938750Y-22146701D01*
X86948919Y-22161921D01*
X87054563Y-22267565D01*
X87054571Y-22267571D01*
X87178788Y-22350570D01*
X87178791Y-22350571D01*
X87178799Y-22350577D01*
X87178805Y-22350579D01*
X87178806Y-22350580D01*
X87225389Y-22369875D01*
X87279793Y-22413715D01*
X87299554Y-22460244D01*
X87303730Y-22481240D01*
X87303733Y-22481250D01*
X87360905Y-22619277D01*
X87360912Y-22619290D01*
X87443917Y-22743515D01*
X87443920Y-22743519D01*
X87549563Y-22849162D01*
X87549567Y-22849165D01*
X87673792Y-22932170D01*
X87673805Y-22932177D01*
X87811832Y-22989349D01*
X87811837Y-22989351D01*
X87811841Y-22989351D01*
X87811842Y-22989352D01*
X87958374Y-23018500D01*
X87958377Y-23018500D01*
X88107791Y-23018500D01*
X88206375Y-22998889D01*
X88254329Y-22989351D01*
X88392367Y-22932174D01*
X88516599Y-22849165D01*
X88581056Y-22784708D01*
X90784582Y-22784708D01*
X90813730Y-22931240D01*
X90813733Y-22931250D01*
X90870905Y-23069277D01*
X90870912Y-23069290D01*
X90953917Y-23193515D01*
X90953920Y-23193519D01*
X91059563Y-23299162D01*
X91059567Y-23299165D01*
X91183792Y-23382170D01*
X91183805Y-23382177D01*
X91306222Y-23432883D01*
X91321837Y-23439351D01*
X91321841Y-23439351D01*
X91321842Y-23439352D01*
X91468374Y-23468500D01*
X91468377Y-23468500D01*
X91617791Y-23468500D01*
X91718334Y-23448500D01*
X91764329Y-23439351D01*
X91902367Y-23382174D01*
X92026599Y-23299165D01*
X92081056Y-23244708D01*
X98784582Y-23244708D01*
X98813730Y-23391240D01*
X98813733Y-23391250D01*
X98870905Y-23529277D01*
X98870912Y-23529290D01*
X98953917Y-23653515D01*
X98953920Y-23653519D01*
X99059563Y-23759162D01*
X99059567Y-23759165D01*
X99183792Y-23842170D01*
X99183805Y-23842177D01*
X99321832Y-23899349D01*
X99321837Y-23899351D01*
X99321841Y-23899351D01*
X99321842Y-23899352D01*
X99468374Y-23928500D01*
X99468377Y-23928500D01*
X99617791Y-23928500D01*
X99716375Y-23908889D01*
X99764329Y-23899351D01*
X99902367Y-23842174D01*
X100026599Y-23759165D01*
X100132248Y-23653516D01*
X100215257Y-23529284D01*
X100272434Y-23391246D01*
X100290751Y-23299162D01*
X100301583Y-23244708D01*
X100301583Y-23095291D01*
X100272435Y-22948759D01*
X100272434Y-22948758D01*
X100272434Y-22948754D01*
X100269631Y-22941987D01*
X100215260Y-22810722D01*
X100215253Y-22810709D01*
X100132248Y-22686484D01*
X100132245Y-22686480D01*
X100026602Y-22580837D01*
X100026598Y-22580834D01*
X99902373Y-22497829D01*
X99902360Y-22497822D01*
X99764333Y-22440650D01*
X99764323Y-22440647D01*
X99617791Y-22411500D01*
X99617789Y-22411500D01*
X99468377Y-22411500D01*
X99468375Y-22411500D01*
X99321842Y-22440647D01*
X99321832Y-22440650D01*
X99183805Y-22497822D01*
X99183792Y-22497829D01*
X99059567Y-22580834D01*
X99059563Y-22580837D01*
X98953920Y-22686480D01*
X98953917Y-22686484D01*
X98870912Y-22810709D01*
X98870905Y-22810722D01*
X98813733Y-22948749D01*
X98813730Y-22948759D01*
X98784583Y-23095291D01*
X98784583Y-23095294D01*
X98784583Y-23244706D01*
X98784583Y-23244708D01*
X98784582Y-23244708D01*
X92081056Y-23244708D01*
X92132248Y-23193516D01*
X92154497Y-23160216D01*
X92208107Y-23115412D01*
X92233401Y-23107491D01*
X92274329Y-23099351D01*
X92381089Y-23055129D01*
X92412360Y-23042177D01*
X92412360Y-23042176D01*
X92412367Y-23042174D01*
X92474861Y-23000417D01*
X92541664Y-22955781D01*
X92543158Y-22958017D01*
X92596719Y-22935216D01*
X92658631Y-22943809D01*
X92768583Y-22989352D01*
X92795294Y-23000416D01*
X92795298Y-23000416D01*
X92795299Y-23000417D01*
X92941831Y-23029565D01*
X92941834Y-23029565D01*
X93091248Y-23029565D01*
X93189832Y-23009954D01*
X93237786Y-23000416D01*
X93375824Y-22943239D01*
X93500056Y-22860230D01*
X93605705Y-22754581D01*
X93688714Y-22630349D01*
X93690588Y-22625826D01*
X93708845Y-22581749D01*
X93745891Y-22492311D01*
X93768090Y-22380711D01*
X93775040Y-22345773D01*
X93775040Y-22196356D01*
X93745892Y-22049824D01*
X93745891Y-22049823D01*
X93745891Y-22049819D01*
X93705152Y-21951466D01*
X103682583Y-21951466D01*
X103682583Y-22070084D01*
X103713284Y-22184661D01*
X103772594Y-22287388D01*
X103856470Y-22371264D01*
X103959197Y-22430574D01*
X104073774Y-22461275D01*
X104073777Y-22461275D01*
X104192389Y-22461275D01*
X104192392Y-22461275D01*
X104306969Y-22430574D01*
X104409696Y-22371264D01*
X104493572Y-22287388D01*
X104552882Y-22184661D01*
X104583583Y-22070084D01*
X104583583Y-21951466D01*
X104552882Y-21836889D01*
X104493572Y-21734162D01*
X104409696Y-21650286D01*
X104306969Y-21590976D01*
X104192392Y-21560275D01*
X104073774Y-21560275D01*
X103959197Y-21590976D01*
X103959195Y-21590976D01*
X103959195Y-21590977D01*
X103856470Y-21650286D01*
X103856467Y-21650288D01*
X103772596Y-21734159D01*
X103772594Y-21734162D01*
X103713284Y-21836889D01*
X103682583Y-21951466D01*
X93705152Y-21951466D01*
X93696882Y-21931500D01*
X93688717Y-21911787D01*
X93688710Y-21911774D01*
X93605705Y-21787549D01*
X93605702Y-21787545D01*
X93500059Y-21681902D01*
X93500055Y-21681899D01*
X93375830Y-21598894D01*
X93375821Y-21598889D01*
X93265374Y-21553141D01*
X93210971Y-21509300D01*
X93209752Y-21507511D01*
X93142248Y-21406484D01*
X93142246Y-21406481D01*
X93036602Y-21300837D01*
X93036598Y-21300834D01*
X92912373Y-21217829D01*
X92912360Y-21217822D01*
X92774333Y-21160650D01*
X92774323Y-21160647D01*
X92627791Y-21131500D01*
X92627789Y-21131500D01*
X92478377Y-21131500D01*
X92478375Y-21131500D01*
X92331842Y-21160647D01*
X92331832Y-21160650D01*
X92193805Y-21217822D01*
X92193792Y-21217829D01*
X92069567Y-21300834D01*
X92069563Y-21300837D01*
X91963920Y-21406480D01*
X91963917Y-21406484D01*
X91880912Y-21530709D01*
X91880904Y-21530724D01*
X91855759Y-21591429D01*
X91811918Y-21645832D01*
X91788652Y-21658536D01*
X91693802Y-21697824D01*
X91693792Y-21697829D01*
X91569567Y-21780834D01*
X91569563Y-21780837D01*
X91463924Y-21886477D01*
X91463919Y-21886482D01*
X91441666Y-21919785D01*
X91388053Y-21964588D01*
X91362759Y-21972508D01*
X91321841Y-21980647D01*
X91321834Y-21980649D01*
X91183805Y-22037822D01*
X91183792Y-22037829D01*
X91059567Y-22120834D01*
X91059563Y-22120837D01*
X90953920Y-22226480D01*
X90953917Y-22226484D01*
X90870912Y-22350709D01*
X90870905Y-22350722D01*
X90813733Y-22488749D01*
X90813730Y-22488759D01*
X90784583Y-22635291D01*
X90784583Y-22635294D01*
X90784583Y-22784706D01*
X90784583Y-22784708D01*
X90784582Y-22784708D01*
X88581056Y-22784708D01*
X88622248Y-22743516D01*
X88705257Y-22619284D01*
X88713709Y-22598878D01*
X88720805Y-22581749D01*
X88720805Y-22581747D01*
X88729813Y-22560000D01*
X88762434Y-22481246D01*
X88782432Y-22380711D01*
X88791583Y-22334708D01*
X88791583Y-22185291D01*
X88762435Y-22038759D01*
X88762434Y-22038758D01*
X88762434Y-22038754D01*
X88757639Y-22027177D01*
X88705260Y-21900722D01*
X88705253Y-21900709D01*
X88622248Y-21776484D01*
X88622245Y-21776480D01*
X88516602Y-21670837D01*
X88516598Y-21670834D01*
X88392373Y-21587829D01*
X88392360Y-21587822D01*
X88345776Y-21568527D01*
X88291372Y-21524686D01*
X88271611Y-21478157D01*
X88267434Y-21457157D01*
X88226726Y-21358879D01*
X88210260Y-21319125D01*
X88210253Y-21319112D01*
X88127248Y-21194887D01*
X88127245Y-21194883D01*
X88021602Y-21089240D01*
X88021598Y-21089237D01*
X87897373Y-21006232D01*
X87897360Y-21006225D01*
X87759333Y-20949053D01*
X87759323Y-20949050D01*
X87710945Y-20939427D01*
X87649034Y-20907042D01*
X87632035Y-20886701D01*
X87621867Y-20871484D01*
X87621864Y-20871480D01*
X87516221Y-20765837D01*
X87516217Y-20765834D01*
X87391992Y-20682829D01*
X87391979Y-20682822D01*
X87253952Y-20625650D01*
X87253942Y-20625647D01*
X87107410Y-20596500D01*
X87107408Y-20596500D01*
X86957996Y-20596500D01*
X86957994Y-20596500D01*
X86811457Y-20625648D01*
X86811455Y-20625648D01*
X86792606Y-20633456D01*
X86723137Y-20640922D01*
X86676266Y-20621995D01*
X86672310Y-20619352D01*
X86661306Y-20611999D01*
X86661305Y-20611998D01*
X86661303Y-20611997D01*
X86523272Y-20554823D01*
X86523262Y-20554820D01*
X86376730Y-20525673D01*
X86376728Y-20525673D01*
X86227316Y-20525673D01*
X86227314Y-20525673D01*
X86080781Y-20554820D01*
X86080771Y-20554823D01*
X85942744Y-20611995D01*
X85942731Y-20612002D01*
X85818506Y-20695007D01*
X85818502Y-20695010D01*
X85712859Y-20800653D01*
X85712856Y-20800657D01*
X85629851Y-20924882D01*
X85629844Y-20924895D01*
X85572672Y-21062922D01*
X85572669Y-21062932D01*
X85543522Y-21209464D01*
X85543522Y-21209467D01*
X85543522Y-21358879D01*
X85543522Y-21358881D01*
X85543521Y-21358881D01*
X72892281Y-21358881D01*
X72870376Y-21248759D01*
X72870375Y-21248758D01*
X72870375Y-21248754D01*
X72859839Y-21223318D01*
X72813201Y-21110722D01*
X72813194Y-21110709D01*
X72730189Y-20986484D01*
X72730186Y-20986480D01*
X72624543Y-20880837D01*
X72624539Y-20880834D01*
X72500314Y-20797829D01*
X72500301Y-20797822D01*
X72362274Y-20740650D01*
X72362264Y-20740647D01*
X72215732Y-20711500D01*
X72215730Y-20711500D01*
X72066318Y-20711500D01*
X72066316Y-20711500D01*
X71919783Y-20740647D01*
X71919777Y-20740649D01*
X71827248Y-20778975D01*
X71782004Y-20797717D01*
X71776113Y-20800157D01*
X71775102Y-20797717D01*
X71717829Y-20809557D01*
X71659066Y-20789073D01*
X71582378Y-20737832D01*
X71582360Y-20737822D01*
X71444333Y-20680650D01*
X71444323Y-20680647D01*
X71297791Y-20651500D01*
X71297789Y-20651500D01*
X71148377Y-20651500D01*
X71148375Y-20651500D01*
X71001842Y-20680647D01*
X71001832Y-20680650D01*
X70863805Y-20737822D01*
X70863792Y-20737829D01*
X70739567Y-20820834D01*
X70739563Y-20820837D01*
X70633920Y-20926480D01*
X70633917Y-20926484D01*
X70550912Y-21050709D01*
X70550905Y-21050722D01*
X70493733Y-21188749D01*
X70493730Y-21188759D01*
X70464583Y-21335291D01*
X70464583Y-21335294D01*
X70464583Y-21484706D01*
X70464583Y-21484708D01*
X70464582Y-21484708D01*
X70493730Y-21631240D01*
X70493733Y-21631250D01*
X70550905Y-21769277D01*
X70550912Y-21769290D01*
X70633917Y-21893515D01*
X70633920Y-21893519D01*
X70739563Y-21999162D01*
X70739567Y-21999165D01*
X70863792Y-22082170D01*
X70863805Y-22082177D01*
X71001882Y-22139370D01*
X71056286Y-22183211D01*
X71078351Y-22249505D01*
X71061072Y-22317204D01*
X71057533Y-22322821D01*
X71018852Y-22380711D01*
X71018846Y-22380722D01*
X70961674Y-22518749D01*
X70961671Y-22518759D01*
X70932524Y-22665291D01*
X70932524Y-22814710D01*
X70944675Y-22875797D01*
X70938448Y-22945388D01*
X70895585Y-23000566D01*
X70829695Y-23023810D01*
X70798867Y-23021605D01*
X70697792Y-23001500D01*
X70697789Y-23001500D01*
X70548377Y-23001500D01*
X70548375Y-23001500D01*
X70401842Y-23030647D01*
X70401832Y-23030650D01*
X70263805Y-23087822D01*
X70263792Y-23087829D01*
X70139567Y-23170834D01*
X70139563Y-23170837D01*
X70033920Y-23276480D01*
X70033917Y-23276484D01*
X69950912Y-23400709D01*
X69950905Y-23400722D01*
X69893733Y-23538749D01*
X69893730Y-23538759D01*
X69864583Y-23685291D01*
X69864583Y-23685294D01*
X69864583Y-23834706D01*
X69864583Y-23834708D01*
X69864582Y-23834708D01*
X58928627Y-23834708D01*
X59001300Y-23811095D01*
X59190637Y-23714622D01*
X59244799Y-23675270D01*
X59244799Y-23675269D01*
X58612491Y-23042962D01*
X58676076Y-23025925D01*
X58790090Y-22960099D01*
X58883182Y-22867007D01*
X58949008Y-22752993D01*
X58966045Y-22689408D01*
X59598353Y-23321717D01*
X59598353Y-23321716D01*
X59637705Y-23267554D01*
X59734178Y-23078217D01*
X59799840Y-22876130D01*
X59799840Y-22876127D01*
X59817488Y-22764708D01*
X65394582Y-22764708D01*
X65423730Y-22911240D01*
X65423733Y-22911250D01*
X65480905Y-23049277D01*
X65480912Y-23049290D01*
X65563917Y-23173515D01*
X65563920Y-23173519D01*
X65669563Y-23279162D01*
X65669567Y-23279165D01*
X65793792Y-23362170D01*
X65793805Y-23362177D01*
X65886862Y-23400722D01*
X65931837Y-23419351D01*
X65931841Y-23419351D01*
X65931842Y-23419352D01*
X66078374Y-23448500D01*
X66078377Y-23448500D01*
X66227791Y-23448500D01*
X66326375Y-23428889D01*
X66374329Y-23419351D01*
X66512367Y-23362174D01*
X66636599Y-23279165D01*
X66742248Y-23173516D01*
X66825257Y-23049284D01*
X66882434Y-22911246D01*
X66894783Y-22849162D01*
X66911583Y-22764708D01*
X66911583Y-22615291D01*
X66882435Y-22468759D01*
X66882434Y-22468758D01*
X66882434Y-22468754D01*
X66878909Y-22460244D01*
X66825260Y-22330722D01*
X66825253Y-22330709D01*
X66742248Y-22206484D01*
X66742245Y-22206480D01*
X66636602Y-22100837D01*
X66636598Y-22100834D01*
X66512373Y-22017829D01*
X66512360Y-22017822D01*
X66374333Y-21960650D01*
X66374323Y-21960647D01*
X66227791Y-21931500D01*
X66227789Y-21931500D01*
X66078377Y-21931500D01*
X66078375Y-21931500D01*
X65931842Y-21960647D01*
X65931832Y-21960650D01*
X65793805Y-22017822D01*
X65793792Y-22017829D01*
X65669567Y-22100834D01*
X65669563Y-22100837D01*
X65563920Y-22206480D01*
X65563917Y-22206484D01*
X65480912Y-22330709D01*
X65480905Y-22330722D01*
X65423733Y-22468749D01*
X65423730Y-22468759D01*
X65394583Y-22615291D01*
X65394583Y-22615294D01*
X65394583Y-22764706D01*
X65394583Y-22764708D01*
X65394582Y-22764708D01*
X59817488Y-22764708D01*
X59833083Y-22666246D01*
X59833083Y-22453753D01*
X59799840Y-22243872D01*
X59799840Y-22243869D01*
X59734178Y-22041782D01*
X59637707Y-21852449D01*
X59598353Y-21798282D01*
X59598352Y-21798282D01*
X58966045Y-22430590D01*
X58949008Y-22367007D01*
X58883182Y-22252993D01*
X58790090Y-22159901D01*
X58676076Y-22094075D01*
X58612492Y-22077037D01*
X59244799Y-21444728D01*
X59190630Y-21405373D01*
X59190628Y-21405371D01*
X59190391Y-21405251D01*
X59190317Y-21405181D01*
X59186479Y-21402829D01*
X59186973Y-21402022D01*
X59139598Y-21357274D01*
X59122807Y-21289451D01*
X59145349Y-21223318D01*
X59190402Y-21184283D01*
X59195092Y-21181894D01*
X59368087Y-21056206D01*
X59519289Y-20905004D01*
X59644977Y-20732009D01*
X59742055Y-20541483D01*
X59808132Y-20338116D01*
X59841583Y-20126916D01*
X59841583Y-19913084D01*
X59808132Y-19701884D01*
X59764347Y-19567126D01*
X59742056Y-19498519D01*
X59742055Y-19498516D01*
X59644976Y-19307990D01*
X59633461Y-19292141D01*
X59519289Y-19134996D01*
X59414111Y-19029818D01*
X59380626Y-18968495D01*
X59385610Y-18898803D01*
X59427482Y-18842870D01*
X59458450Y-18825959D01*
X59579287Y-18780889D01*
X59696344Y-18693261D01*
X59783972Y-18576204D01*
X59831604Y-18448500D01*
X59835071Y-18439204D01*
X59835071Y-18439203D01*
X59835072Y-18439201D01*
X59840131Y-18392145D01*
X59841582Y-18378654D01*
X59841583Y-18378637D01*
X59841583Y-18034708D01*
X78364582Y-18034708D01*
X78393730Y-18181240D01*
X78393733Y-18181250D01*
X78450905Y-18319277D01*
X78450912Y-18319290D01*
X78533917Y-18443515D01*
X78533920Y-18443519D01*
X78639563Y-18549162D01*
X78639567Y-18549165D01*
X78763792Y-18632170D01*
X78763804Y-18632177D01*
X78822573Y-18656519D01*
X78876977Y-18700359D01*
X78899042Y-18766653D01*
X78881763Y-18834353D01*
X78878224Y-18839970D01*
X78810911Y-18940711D01*
X78810905Y-18940722D01*
X78753733Y-19078749D01*
X78753730Y-19078759D01*
X78724583Y-19225291D01*
X78724583Y-19225294D01*
X78724583Y-19374706D01*
X78724583Y-19374708D01*
X78724582Y-19374708D01*
X78753730Y-19521240D01*
X78753733Y-19521250D01*
X78810905Y-19659277D01*
X78810912Y-19659290D01*
X78893917Y-19783515D01*
X78893920Y-19783519D01*
X78999563Y-19889162D01*
X78999567Y-19889165D01*
X79123792Y-19972170D01*
X79123805Y-19972177D01*
X79254906Y-20026480D01*
X79261837Y-20029351D01*
X79261841Y-20029351D01*
X79261842Y-20029352D01*
X79408374Y-20058500D01*
X79408377Y-20058500D01*
X79557791Y-20058500D01*
X79656375Y-20038889D01*
X79704329Y-20029351D01*
X79842367Y-19972174D01*
X79966599Y-19889165D01*
X80072248Y-19783516D01*
X80155257Y-19659284D01*
X80161295Y-19644708D01*
X82894582Y-19644708D01*
X82923730Y-19791240D01*
X82923733Y-19791250D01*
X82980905Y-19929277D01*
X82980912Y-19929290D01*
X83063917Y-20053515D01*
X83063920Y-20053519D01*
X83169563Y-20159162D01*
X83169567Y-20159165D01*
X83293792Y-20242170D01*
X83293805Y-20242177D01*
X83420770Y-20294767D01*
X83475174Y-20338608D01*
X83497239Y-20404902D01*
X83494937Y-20433511D01*
X83494583Y-20435289D01*
X83494583Y-20435294D01*
X83494583Y-20584706D01*
X83494583Y-20584708D01*
X83494582Y-20584708D01*
X83523730Y-20731240D01*
X83523733Y-20731250D01*
X83580905Y-20869277D01*
X83580912Y-20869290D01*
X83663917Y-20993515D01*
X83663920Y-20993519D01*
X83769563Y-21099162D01*
X83769567Y-21099165D01*
X83893792Y-21182170D01*
X83893805Y-21182177D01*
X84014703Y-21232254D01*
X84031837Y-21239351D01*
X84031841Y-21239351D01*
X84031842Y-21239352D01*
X84178374Y-21268500D01*
X84178377Y-21268500D01*
X84327791Y-21268500D01*
X84427083Y-21248749D01*
X84474329Y-21239351D01*
X84596469Y-21188759D01*
X84612360Y-21182177D01*
X84612360Y-21182176D01*
X84612367Y-21182174D01*
X84644582Y-21160649D01*
X84734941Y-21100273D01*
X84734942Y-21100272D01*
X84734943Y-21100272D01*
X84735930Y-21099611D01*
X84736599Y-21099165D01*
X84842248Y-20993516D01*
X84925257Y-20869284D01*
X84982434Y-20731246D01*
X84998297Y-20651500D01*
X85011583Y-20584708D01*
X85011583Y-20435291D01*
X84982435Y-20288759D01*
X84982434Y-20288758D01*
X84982434Y-20288754D01*
X84963140Y-20242174D01*
X84925260Y-20150722D01*
X84925253Y-20150709D01*
X84842248Y-20026484D01*
X84842245Y-20026480D01*
X84736602Y-19920837D01*
X84736598Y-19920834D01*
X84612373Y-19837829D01*
X84612364Y-19837824D01*
X84485394Y-19785232D01*
X84430991Y-19741391D01*
X84408926Y-19675097D01*
X84411231Y-19646472D01*
X84411583Y-19644706D01*
X84411583Y-19495294D01*
X84411583Y-19495291D01*
X84382435Y-19348759D01*
X84382434Y-19348758D01*
X84382434Y-19348754D01*
X84382432Y-19348749D01*
X84325260Y-19210722D01*
X84325253Y-19210709D01*
X84242248Y-19086484D01*
X84242245Y-19086480D01*
X84136602Y-18980837D01*
X84136598Y-18980834D01*
X84012373Y-18897829D01*
X84012360Y-18897822D01*
X83874333Y-18840650D01*
X83874323Y-18840647D01*
X83727791Y-18811500D01*
X83727789Y-18811500D01*
X83578377Y-18811500D01*
X83578375Y-18811500D01*
X83431842Y-18840647D01*
X83431832Y-18840650D01*
X83293805Y-18897822D01*
X83293792Y-18897829D01*
X83169567Y-18980834D01*
X83169563Y-18980837D01*
X83063920Y-19086480D01*
X83063917Y-19086484D01*
X82980912Y-19210709D01*
X82980905Y-19210722D01*
X82923733Y-19348749D01*
X82923730Y-19348759D01*
X82894583Y-19495291D01*
X82894583Y-19495294D01*
X82894583Y-19644706D01*
X82894583Y-19644708D01*
X82894582Y-19644708D01*
X80161295Y-19644708D01*
X80212434Y-19521246D01*
X80216955Y-19498517D01*
X80223621Y-19465010D01*
X80223621Y-19465009D01*
X80241582Y-19374710D01*
X80241583Y-19374708D01*
X80241583Y-19225291D01*
X80212435Y-19078759D01*
X80212434Y-19078758D01*
X80212434Y-19078754D01*
X80209680Y-19072106D01*
X80155260Y-18940722D01*
X80155253Y-18940709D01*
X80072248Y-18816484D01*
X80072245Y-18816480D01*
X79966602Y-18710837D01*
X79966598Y-18710834D01*
X79872158Y-18647731D01*
X79827353Y-18594119D01*
X79818646Y-18524794D01*
X79848800Y-18461766D01*
X79908244Y-18425047D01*
X79965241Y-18423012D01*
X80093374Y-18448500D01*
X80093377Y-18448500D01*
X80242791Y-18448500D01*
X80341375Y-18428889D01*
X80389329Y-18419351D01*
X80527367Y-18362174D01*
X80651599Y-18279165D01*
X80757248Y-18173516D01*
X80840257Y-18049284D01*
X80867574Y-17983334D01*
X84804582Y-17983334D01*
X84833730Y-18129866D01*
X84833733Y-18129876D01*
X84890905Y-18267903D01*
X84890912Y-18267916D01*
X84973917Y-18392141D01*
X84973920Y-18392145D01*
X85083517Y-18501742D01*
X85117002Y-18563065D01*
X85117453Y-18613615D01*
X85093523Y-18733917D01*
X85093523Y-18733920D01*
X85093523Y-18883332D01*
X85093523Y-18883334D01*
X85093522Y-18883334D01*
X85122670Y-19029866D01*
X85122673Y-19029876D01*
X85179845Y-19167903D01*
X85179852Y-19167916D01*
X85262857Y-19292141D01*
X85262860Y-19292145D01*
X85368503Y-19397788D01*
X85368507Y-19397791D01*
X85492732Y-19480796D01*
X85492745Y-19480803D01*
X85590394Y-19521250D01*
X85630777Y-19537977D01*
X85630781Y-19537977D01*
X85630782Y-19537978D01*
X85777314Y-19567126D01*
X85777317Y-19567126D01*
X85926731Y-19567126D01*
X86025315Y-19547515D01*
X86073269Y-19537977D01*
X86211307Y-19480800D01*
X86335539Y-19397791D01*
X86441188Y-19292142D01*
X86524197Y-19167910D01*
X86581374Y-19029872D01*
X86599107Y-18940722D01*
X86610523Y-18883334D01*
X86610523Y-18733917D01*
X86581375Y-18587385D01*
X86581374Y-18587384D01*
X86581374Y-18587380D01*
X86574444Y-18570649D01*
X86524200Y-18449348D01*
X86524193Y-18449335D01*
X86441188Y-18325110D01*
X86441185Y-18325106D01*
X86331588Y-18215509D01*
X86329823Y-18212277D01*
X86326697Y-18210329D01*
X86313204Y-18181842D01*
X86298103Y-18154186D01*
X86297904Y-18149539D01*
X86296789Y-18147184D01*
X86297110Y-18130948D01*
X86296297Y-18111893D01*
X86296832Y-18107757D01*
X86321583Y-17983332D01*
X86321583Y-17916753D01*
X86322611Y-17908820D01*
X86333589Y-17883864D01*
X86341268Y-17857716D01*
X86348830Y-17849221D01*
X86350747Y-17844866D01*
X86355529Y-17841697D01*
X86362588Y-17833769D01*
X86362291Y-17833472D01*
X86366595Y-17829167D01*
X86366599Y-17829165D01*
X86472248Y-17723516D01*
X86552479Y-17603440D01*
X86606090Y-17558636D01*
X86643436Y-17548928D01*
X86647777Y-17548500D01*
X86647789Y-17548500D01*
X86794329Y-17519351D01*
X86916469Y-17468759D01*
X86932360Y-17462177D01*
X86932360Y-17462176D01*
X86932367Y-17462174D01*
X87056599Y-17379165D01*
X87162248Y-17273516D01*
X87245257Y-17149284D01*
X87260108Y-17113426D01*
X87303948Y-17059023D01*
X87327218Y-17046317D01*
X87420434Y-17007706D01*
X87420434Y-17007705D01*
X87420441Y-17007703D01*
X87544652Y-16924708D01*
X91774582Y-16924708D01*
X91803730Y-17071240D01*
X91803733Y-17071250D01*
X91860905Y-17209277D01*
X91860912Y-17209290D01*
X91943917Y-17333515D01*
X91943920Y-17333519D01*
X92049563Y-17439162D01*
X92049567Y-17439165D01*
X92173792Y-17522170D01*
X92173799Y-17522174D01*
X92260711Y-17558174D01*
X92315113Y-17602013D01*
X92337179Y-17668307D01*
X92334875Y-17696925D01*
X92312546Y-17809180D01*
X92312546Y-17809185D01*
X92312546Y-17958597D01*
X92312546Y-17958599D01*
X92312545Y-17958599D01*
X92341693Y-18105131D01*
X92341696Y-18105141D01*
X92371642Y-18177437D01*
X92379111Y-18246906D01*
X92375748Y-18260864D01*
X92375497Y-18261689D01*
X92346348Y-18408232D01*
X92346348Y-18408235D01*
X92346348Y-18557647D01*
X92346348Y-18557649D01*
X92346347Y-18557649D01*
X92375495Y-18704181D01*
X92375498Y-18704191D01*
X92432670Y-18842218D01*
X92432677Y-18842231D01*
X92515682Y-18966456D01*
X92515685Y-18966460D01*
X92621329Y-19072104D01*
X92621332Y-19072106D01*
X92689741Y-19117815D01*
X92734545Y-19171426D01*
X92743253Y-19240751D01*
X92742467Y-19245108D01*
X92714583Y-19385289D01*
X92714583Y-19534710D01*
X92742355Y-19674329D01*
X92736128Y-19743920D01*
X92723848Y-19767399D01*
X92723096Y-19768523D01*
X92723088Y-19768538D01*
X92665913Y-19906572D01*
X92665911Y-19906578D01*
X92636764Y-20053110D01*
X92636764Y-20053113D01*
X92636764Y-20202525D01*
X92636764Y-20202527D01*
X92636763Y-20202527D01*
X92665911Y-20349059D01*
X92665914Y-20349069D01*
X92723086Y-20487096D01*
X92723093Y-20487109D01*
X92806098Y-20611334D01*
X92806101Y-20611338D01*
X92911744Y-20716981D01*
X92911748Y-20716984D01*
X93035973Y-20799989D01*
X93035986Y-20799996D01*
X93174013Y-20857168D01*
X93174018Y-20857170D01*
X93174022Y-20857170D01*
X93174023Y-20857171D01*
X93320555Y-20886319D01*
X93320558Y-20886319D01*
X93469972Y-20886319D01*
X93568556Y-20866708D01*
X93616510Y-20857170D01*
X93754548Y-20799993D01*
X93878780Y-20716984D01*
X93984429Y-20611335D01*
X94067438Y-20487103D01*
X94124615Y-20349065D01*
X94144463Y-20249284D01*
X94145373Y-20244708D01*
X98794582Y-20244708D01*
X98823730Y-20391240D01*
X98823733Y-20391250D01*
X98880905Y-20529277D01*
X98880912Y-20529290D01*
X98963917Y-20653515D01*
X98963920Y-20653519D01*
X99069563Y-20759162D01*
X99069567Y-20759165D01*
X99193792Y-20842170D01*
X99193805Y-20842177D01*
X99301297Y-20886701D01*
X99331837Y-20899351D01*
X99331841Y-20899351D01*
X99331842Y-20899352D01*
X99478374Y-20928500D01*
X99478377Y-20928500D01*
X99627791Y-20928500D01*
X99735664Y-20907042D01*
X99774329Y-20899351D01*
X99912367Y-20842174D01*
X100036599Y-20759165D01*
X100142248Y-20653516D01*
X100225257Y-20529284D01*
X100282434Y-20391246D01*
X100291972Y-20343292D01*
X100311583Y-20244708D01*
X100311583Y-20095291D01*
X100285608Y-19964708D01*
X101884582Y-19964708D01*
X101913730Y-20111240D01*
X101913733Y-20111250D01*
X101970905Y-20249277D01*
X101970912Y-20249290D01*
X102053917Y-20373515D01*
X102053920Y-20373519D01*
X102159563Y-20479162D01*
X102159567Y-20479165D01*
X102283792Y-20562170D01*
X102283805Y-20562177D01*
X102404095Y-20612002D01*
X102421837Y-20619351D01*
X102421841Y-20619351D01*
X102421842Y-20619352D01*
X102568374Y-20648500D01*
X102568377Y-20648500D01*
X102717791Y-20648500D01*
X102832677Y-20625647D01*
X102864329Y-20619351D01*
X103002367Y-20562174D01*
X103126599Y-20479165D01*
X103232248Y-20373516D01*
X103315257Y-20249284D01*
X103317153Y-20244708D01*
X103352585Y-20159165D01*
X103372434Y-20111246D01*
X103388725Y-20029349D01*
X103401583Y-19964708D01*
X103401583Y-19815291D01*
X103372435Y-19668759D01*
X103372434Y-19668758D01*
X103372434Y-19668754D01*
X103368514Y-19659290D01*
X103315260Y-19530722D01*
X103315253Y-19530709D01*
X103232248Y-19406484D01*
X103232245Y-19406480D01*
X103126602Y-19300837D01*
X103126598Y-19300834D01*
X103002373Y-19217829D01*
X103002360Y-19217822D01*
X102864333Y-19160650D01*
X102864323Y-19160647D01*
X102717791Y-19131500D01*
X102717789Y-19131500D01*
X102568377Y-19131500D01*
X102568375Y-19131500D01*
X102421842Y-19160647D01*
X102421832Y-19160650D01*
X102283805Y-19217822D01*
X102283792Y-19217829D01*
X102159567Y-19300834D01*
X102159563Y-19300837D01*
X102053920Y-19406480D01*
X102053917Y-19406484D01*
X101970912Y-19530709D01*
X101970905Y-19530722D01*
X101913733Y-19668749D01*
X101913730Y-19668759D01*
X101884583Y-19815291D01*
X101884583Y-19815294D01*
X101884583Y-19964706D01*
X101884583Y-19964708D01*
X101884582Y-19964708D01*
X100285608Y-19964708D01*
X100282435Y-19948759D01*
X100282434Y-19948758D01*
X100282434Y-19948754D01*
X100274372Y-19929290D01*
X100244286Y-19856654D01*
X100225258Y-19810719D01*
X100225257Y-19810716D01*
X100225255Y-19810713D01*
X100225253Y-19810709D01*
X100142248Y-19686484D01*
X100142245Y-19686480D01*
X100036602Y-19580837D01*
X100036598Y-19580834D01*
X99912373Y-19497829D01*
X99912360Y-19497822D01*
X99774333Y-19440650D01*
X99774323Y-19440647D01*
X99627791Y-19411500D01*
X99627789Y-19411500D01*
X99478377Y-19411500D01*
X99478375Y-19411500D01*
X99331842Y-19440647D01*
X99331832Y-19440650D01*
X99193805Y-19497822D01*
X99193792Y-19497829D01*
X99069567Y-19580834D01*
X99069563Y-19580837D01*
X98963920Y-19686480D01*
X98963917Y-19686484D01*
X98880912Y-19810709D01*
X98880905Y-19810722D01*
X98823733Y-19948749D01*
X98823730Y-19948759D01*
X98794583Y-20095291D01*
X98794583Y-20095294D01*
X98794583Y-20244706D01*
X98794583Y-20244708D01*
X98794582Y-20244708D01*
X94145373Y-20244708D01*
X94153764Y-20202527D01*
X94153764Y-20098503D01*
X94153764Y-20053113D01*
X94125425Y-19910647D01*
X94124995Y-19907794D01*
X94129352Y-19875927D01*
X94132218Y-19843898D01*
X94134266Y-19839981D01*
X94134460Y-19838569D01*
X94135867Y-19836921D01*
X94144509Y-19820402D01*
X94145257Y-19819284D01*
X94202434Y-19681246D01*
X94222407Y-19580835D01*
X94231583Y-19534708D01*
X94231583Y-19385291D01*
X94202435Y-19238759D01*
X94202434Y-19238758D01*
X94202434Y-19238754D01*
X94196859Y-19225294D01*
X94145260Y-19100722D01*
X94145253Y-19100709D01*
X94062248Y-18976484D01*
X94062245Y-18976480D01*
X93956601Y-18870836D01*
X93913781Y-18842225D01*
X93888189Y-18825125D01*
X93843384Y-18771513D01*
X93834677Y-18702189D01*
X93835463Y-18697831D01*
X93836373Y-18693260D01*
X93860762Y-18570649D01*
X93863348Y-18557649D01*
X93863348Y-18408232D01*
X93834200Y-18261700D01*
X93834199Y-18261699D01*
X93834199Y-18261695D01*
X93804251Y-18189395D01*
X93796782Y-18119926D01*
X93800153Y-18105940D01*
X93800392Y-18105148D01*
X93800397Y-18105137D01*
X93829546Y-17958597D01*
X93829546Y-17827193D01*
X93849231Y-17760154D01*
X93850444Y-17758302D01*
X93911316Y-17667201D01*
X93968493Y-17529163D01*
X93989191Y-17425110D01*
X93997642Y-17382625D01*
X93997642Y-17233208D01*
X93968494Y-17086676D01*
X93968493Y-17086675D01*
X93968493Y-17086671D01*
X93968491Y-17086666D01*
X93926259Y-16984708D01*
X98734582Y-16984708D01*
X98763730Y-17131240D01*
X98763733Y-17131250D01*
X98820905Y-17269277D01*
X98820912Y-17269290D01*
X98903917Y-17393515D01*
X98903920Y-17393519D01*
X99009563Y-17499162D01*
X99009567Y-17499165D01*
X99133792Y-17582170D01*
X99133805Y-17582177D01*
X99271832Y-17639349D01*
X99271837Y-17639351D01*
X99271841Y-17639351D01*
X99271842Y-17639352D01*
X99418374Y-17668500D01*
X99418377Y-17668500D01*
X99567791Y-17668500D01*
X99666375Y-17648889D01*
X99714329Y-17639351D01*
X99852367Y-17582174D01*
X99976599Y-17499165D01*
X100082248Y-17393516D01*
X100165257Y-17269284D01*
X100222434Y-17131246D01*
X100239328Y-17046317D01*
X100251583Y-16984708D01*
X100251583Y-16951466D01*
X103682583Y-16951466D01*
X103682583Y-17070084D01*
X103713284Y-17184661D01*
X103772594Y-17287388D01*
X103856470Y-17371264D01*
X103959197Y-17430574D01*
X104073774Y-17461275D01*
X104073777Y-17461275D01*
X104192389Y-17461275D01*
X104192392Y-17461275D01*
X104306969Y-17430574D01*
X104409696Y-17371264D01*
X104493572Y-17287388D01*
X104552882Y-17184661D01*
X104583583Y-17070084D01*
X104583583Y-16951466D01*
X104552882Y-16836889D01*
X104493572Y-16734162D01*
X104409696Y-16650286D01*
X104306969Y-16590976D01*
X104192392Y-16560275D01*
X104073774Y-16560275D01*
X103959197Y-16590976D01*
X103959195Y-16590976D01*
X103959195Y-16590977D01*
X103856470Y-16650286D01*
X103856467Y-16650288D01*
X103772596Y-16734159D01*
X103772594Y-16734162D01*
X103714207Y-16835291D01*
X103713284Y-16836889D01*
X103682583Y-16951466D01*
X100251583Y-16951466D01*
X100251583Y-16835291D01*
X100222435Y-16688759D01*
X100222434Y-16688758D01*
X100222434Y-16688754D01*
X100222432Y-16688749D01*
X100165260Y-16550722D01*
X100165253Y-16550709D01*
X100082248Y-16426484D01*
X100082245Y-16426480D01*
X99976602Y-16320837D01*
X99976598Y-16320834D01*
X99852373Y-16237829D01*
X99852360Y-16237822D01*
X99714333Y-16180650D01*
X99714323Y-16180647D01*
X99567791Y-16151500D01*
X99567789Y-16151500D01*
X99418377Y-16151500D01*
X99418375Y-16151500D01*
X99271842Y-16180647D01*
X99271832Y-16180650D01*
X99133805Y-16237822D01*
X99133792Y-16237829D01*
X99009567Y-16320834D01*
X99009563Y-16320837D01*
X98903920Y-16426480D01*
X98903917Y-16426484D01*
X98820912Y-16550709D01*
X98820905Y-16550722D01*
X98763733Y-16688749D01*
X98763730Y-16688759D01*
X98734583Y-16835291D01*
X98734583Y-16835294D01*
X98734583Y-16984706D01*
X98734583Y-16984708D01*
X98734582Y-16984708D01*
X93926259Y-16984708D01*
X93911319Y-16948639D01*
X93911312Y-16948626D01*
X93877547Y-16898093D01*
X93828307Y-16824401D01*
X93828304Y-16824397D01*
X93722661Y-16718754D01*
X93722657Y-16718751D01*
X93598432Y-16635746D01*
X93598419Y-16635739D01*
X93460392Y-16578567D01*
X93460382Y-16578564D01*
X93313850Y-16549417D01*
X93313848Y-16549417D01*
X93310760Y-16549417D01*
X93309200Y-16548959D01*
X93307788Y-16548820D01*
X93307814Y-16548552D01*
X93243721Y-16529732D01*
X93207658Y-16494308D01*
X93122248Y-16366484D01*
X93122245Y-16366480D01*
X93016602Y-16260837D01*
X93016598Y-16260834D01*
X92892373Y-16177829D01*
X92892360Y-16177822D01*
X92754333Y-16120650D01*
X92754323Y-16120647D01*
X92607791Y-16091500D01*
X92607789Y-16091500D01*
X92458377Y-16091500D01*
X92458375Y-16091500D01*
X92311842Y-16120647D01*
X92311832Y-16120650D01*
X92173805Y-16177822D01*
X92173792Y-16177829D01*
X92049567Y-16260834D01*
X92049563Y-16260837D01*
X91943920Y-16366480D01*
X91943917Y-16366484D01*
X91860912Y-16490709D01*
X91860905Y-16490722D01*
X91803733Y-16628749D01*
X91803730Y-16628759D01*
X91774583Y-16775291D01*
X91774583Y-16775294D01*
X91774583Y-16924706D01*
X91774583Y-16924708D01*
X91774582Y-16924708D01*
X87544652Y-16924708D01*
X87544673Y-16924694D01*
X87650322Y-16819045D01*
X87707041Y-16734159D01*
X87729658Y-16700311D01*
X87733327Y-16694819D01*
X87733327Y-16694818D01*
X87733331Y-16694813D01*
X87790508Y-16556775D01*
X87805120Y-16483316D01*
X87819657Y-16410237D01*
X87819657Y-16260820D01*
X87790509Y-16114288D01*
X87790508Y-16114287D01*
X87790508Y-16114283D01*
X87747019Y-16009290D01*
X87733334Y-15976251D01*
X87733327Y-15976238D01*
X87650322Y-15852013D01*
X87650319Y-15852009D01*
X87544676Y-15746366D01*
X87544672Y-15746363D01*
X87512263Y-15724708D01*
X88474582Y-15724708D01*
X88503730Y-15871240D01*
X88503733Y-15871250D01*
X88560905Y-16009277D01*
X88560912Y-16009290D01*
X88643917Y-16133515D01*
X88643920Y-16133519D01*
X88749563Y-16239162D01*
X88749567Y-16239165D01*
X88873792Y-16322170D01*
X88873805Y-16322177D01*
X88980773Y-16366484D01*
X89011837Y-16379351D01*
X89011841Y-16379351D01*
X89011842Y-16379352D01*
X89158374Y-16408500D01*
X89158377Y-16408500D01*
X89307791Y-16408500D01*
X89407691Y-16388628D01*
X89454329Y-16379351D01*
X89497453Y-16361487D01*
X89566920Y-16354018D01*
X89592350Y-16361484D01*
X89648258Y-16384642D01*
X89648262Y-16384642D01*
X89648263Y-16384643D01*
X89794795Y-16413791D01*
X89794798Y-16413791D01*
X89944210Y-16413791D01*
X90001226Y-16402449D01*
X90070813Y-16408675D01*
X90094301Y-16420961D01*
X90102050Y-16426139D01*
X90102053Y-16426140D01*
X90102056Y-16426142D01*
X90188853Y-16462094D01*
X90240088Y-16483316D01*
X90240092Y-16483316D01*
X90240093Y-16483317D01*
X90386625Y-16512465D01*
X90386628Y-16512465D01*
X90536042Y-16512465D01*
X90536043Y-16512464D01*
X90682580Y-16483316D01*
X90686355Y-16481751D01*
X90755824Y-16474280D01*
X90781263Y-16481749D01*
X90839662Y-16505939D01*
X90839666Y-16505939D01*
X90839667Y-16505940D01*
X90986199Y-16535088D01*
X90986202Y-16535088D01*
X91135616Y-16535088D01*
X91249351Y-16512464D01*
X91282154Y-16505939D01*
X91420192Y-16448762D01*
X91544424Y-16365753D01*
X91650073Y-16260104D01*
X91733082Y-16135872D01*
X91742027Y-16114278D01*
X91751461Y-16091500D01*
X91790259Y-15997834D01*
X91799797Y-15949880D01*
X91819408Y-15851296D01*
X91819408Y-15784183D01*
X91839093Y-15717144D01*
X91891897Y-15671389D01*
X91961055Y-15661445D01*
X92012298Y-15681080D01*
X92073799Y-15722174D01*
X92073801Y-15722175D01*
X92073805Y-15722177D01*
X92175527Y-15764311D01*
X92211837Y-15779351D01*
X92211841Y-15779351D01*
X92211842Y-15779352D01*
X92358374Y-15808500D01*
X92358377Y-15808500D01*
X92507791Y-15808500D01*
X92630037Y-15784183D01*
X92654329Y-15779351D01*
X92761089Y-15735129D01*
X92792360Y-15722177D01*
X92792360Y-15722176D01*
X92792367Y-15722174D01*
X92916599Y-15639165D01*
X93022248Y-15533516D01*
X93105257Y-15409284D01*
X93106419Y-15406480D01*
X93123561Y-15365095D01*
X93162434Y-15271246D01*
X93184433Y-15160650D01*
X93191583Y-15124708D01*
X93191583Y-14975291D01*
X93162435Y-14828759D01*
X93162434Y-14828758D01*
X93162434Y-14828754D01*
X93162432Y-14828749D01*
X93105260Y-14690722D01*
X93105253Y-14690709D01*
X93022248Y-14566484D01*
X93022245Y-14566480D01*
X92916602Y-14460837D01*
X92916598Y-14460834D01*
X92792373Y-14377829D01*
X92792360Y-14377822D01*
X92654333Y-14320650D01*
X92654323Y-14320647D01*
X92507791Y-14291500D01*
X92507789Y-14291500D01*
X92358377Y-14291500D01*
X92358375Y-14291500D01*
X92211842Y-14320647D01*
X92211832Y-14320650D01*
X92073805Y-14377822D01*
X92073792Y-14377829D01*
X91949567Y-14460834D01*
X91949563Y-14460837D01*
X91843920Y-14566480D01*
X91843917Y-14566484D01*
X91760912Y-14690709D01*
X91760905Y-14690722D01*
X91703733Y-14828749D01*
X91703730Y-14828759D01*
X91674583Y-14975291D01*
X91674583Y-15042404D01*
X91654898Y-15109443D01*
X91602094Y-15155198D01*
X91532936Y-15165142D01*
X91481693Y-15145506D01*
X91420203Y-15104420D01*
X91420185Y-15104410D01*
X91282158Y-15047238D01*
X91282148Y-15047235D01*
X91135616Y-15018088D01*
X91135614Y-15018088D01*
X90986202Y-15018088D01*
X90986200Y-15018088D01*
X90839668Y-15047235D01*
X90839659Y-15047238D01*
X90835868Y-15048808D01*
X90766398Y-15056268D01*
X90740977Y-15048802D01*
X90682584Y-15024615D01*
X90682574Y-15024612D01*
X90536042Y-14995465D01*
X90536040Y-14995465D01*
X90386628Y-14995465D01*
X90329612Y-15006806D01*
X90260021Y-15000577D01*
X90236531Y-14988290D01*
X90228794Y-14983120D01*
X90228781Y-14983113D01*
X90090754Y-14925941D01*
X90090744Y-14925938D01*
X89944212Y-14896791D01*
X89944210Y-14896791D01*
X89794798Y-14896791D01*
X89794796Y-14896791D01*
X89648264Y-14925938D01*
X89648256Y-14925940D01*
X89605130Y-14943803D01*
X89535660Y-14951270D01*
X89510229Y-14943803D01*
X89467105Y-14925941D01*
X89454329Y-14920649D01*
X89454327Y-14920648D01*
X89454323Y-14920647D01*
X89307791Y-14891500D01*
X89307789Y-14891500D01*
X89158377Y-14891500D01*
X89158375Y-14891500D01*
X89011842Y-14920647D01*
X89011832Y-14920650D01*
X88873805Y-14977822D01*
X88873792Y-14977829D01*
X88749567Y-15060834D01*
X88749563Y-15060837D01*
X88643920Y-15166480D01*
X88643917Y-15166484D01*
X88560912Y-15290709D01*
X88560905Y-15290722D01*
X88503733Y-15428749D01*
X88503730Y-15428759D01*
X88474583Y-15575291D01*
X88474583Y-15575294D01*
X88474583Y-15724706D01*
X88474583Y-15724708D01*
X88474582Y-15724708D01*
X87512263Y-15724708D01*
X87444074Y-15679145D01*
X87444069Y-15679143D01*
X87420441Y-15663355D01*
X87282403Y-15606178D01*
X87252830Y-15600295D01*
X87241631Y-15595678D01*
X87223453Y-15581078D01*
X87202793Y-15570271D01*
X87194093Y-15557498D01*
X87187156Y-15551926D01*
X87184120Y-15542854D01*
X87179144Y-15535547D01*
X87178130Y-15536090D01*
X87175256Y-15530714D01*
X87092251Y-15406488D01*
X87092245Y-15406480D01*
X86986602Y-15300837D01*
X86986598Y-15300834D01*
X86862373Y-15217829D01*
X86862360Y-15217822D01*
X86724333Y-15160650D01*
X86724323Y-15160647D01*
X86577791Y-15131500D01*
X86577789Y-15131500D01*
X86428377Y-15131500D01*
X86428375Y-15131500D01*
X86281842Y-15160647D01*
X86281832Y-15160650D01*
X86143805Y-15217822D01*
X86143792Y-15217829D01*
X86019567Y-15300834D01*
X86019563Y-15300837D01*
X85913920Y-15406480D01*
X85913917Y-15406484D01*
X85830912Y-15530709D01*
X85830905Y-15530722D01*
X85773733Y-15668749D01*
X85773730Y-15668759D01*
X85744583Y-15815291D01*
X85744583Y-15815294D01*
X85744583Y-15964706D01*
X85744583Y-15964708D01*
X85744582Y-15964708D01*
X85773730Y-16111240D01*
X85773733Y-16111250D01*
X85830905Y-16249277D01*
X85830912Y-16249290D01*
X85862121Y-16295997D01*
X85882999Y-16362675D01*
X85864514Y-16430055D01*
X85812536Y-16476745D01*
X85783211Y-16486505D01*
X85661842Y-16510647D01*
X85661832Y-16510650D01*
X85523805Y-16567822D01*
X85523792Y-16567829D01*
X85399567Y-16650834D01*
X85399563Y-16650837D01*
X85293920Y-16756480D01*
X85293917Y-16756484D01*
X85210912Y-16880709D01*
X85210905Y-16880722D01*
X85153733Y-17018749D01*
X85153730Y-17018759D01*
X85124583Y-17165291D01*
X85124583Y-17223869D01*
X85104898Y-17290908D01*
X85083578Y-17314857D01*
X85083874Y-17315153D01*
X84973920Y-17425106D01*
X84973917Y-17425110D01*
X84890912Y-17549335D01*
X84890905Y-17549348D01*
X84833733Y-17687375D01*
X84833730Y-17687385D01*
X84804583Y-17833917D01*
X84804583Y-17833920D01*
X84804583Y-17983332D01*
X84804583Y-17983334D01*
X84804582Y-17983334D01*
X80867574Y-17983334D01*
X80897434Y-17911246D01*
X80910638Y-17844866D01*
X80918840Y-17803636D01*
X80918840Y-17803635D01*
X80926582Y-17764710D01*
X80926583Y-17764708D01*
X80926583Y-17615291D01*
X80897435Y-17468759D01*
X80897434Y-17468758D01*
X80897434Y-17468754D01*
X80894710Y-17462177D01*
X80840260Y-17330722D01*
X80840253Y-17330709D01*
X80757248Y-17206484D01*
X80757245Y-17206480D01*
X80651602Y-17100837D01*
X80651598Y-17100834D01*
X80527373Y-17017829D01*
X80527360Y-17017822D01*
X80389333Y-16960650D01*
X80389323Y-16960647D01*
X80242791Y-16931500D01*
X80242789Y-16931500D01*
X80093377Y-16931500D01*
X80093375Y-16931500D01*
X79946842Y-16960647D01*
X79946832Y-16960650D01*
X79808805Y-17017822D01*
X79808792Y-17017829D01*
X79684567Y-17100834D01*
X79684563Y-17100837D01*
X79578924Y-17206477D01*
X79578917Y-17206485D01*
X79571953Y-17216907D01*
X79518339Y-17261710D01*
X79449014Y-17270415D01*
X79421402Y-17262573D01*
X79344333Y-17230650D01*
X79344323Y-17230647D01*
X79197791Y-17201500D01*
X79197789Y-17201500D01*
X79048377Y-17201500D01*
X79048375Y-17201500D01*
X78901842Y-17230647D01*
X78901832Y-17230650D01*
X78763805Y-17287822D01*
X78763792Y-17287829D01*
X78639567Y-17370834D01*
X78639563Y-17370837D01*
X78533920Y-17476480D01*
X78533917Y-17476484D01*
X78450912Y-17600709D01*
X78450905Y-17600722D01*
X78393733Y-17738749D01*
X78393730Y-17738759D01*
X78364583Y-17885291D01*
X78364583Y-17885294D01*
X78364583Y-18034706D01*
X78364583Y-18034708D01*
X78364582Y-18034708D01*
X59841583Y-18034708D01*
X59841583Y-16581362D01*
X59841582Y-16581345D01*
X59836032Y-16529732D01*
X59835072Y-16520799D01*
X59831963Y-16512464D01*
X59797836Y-16420967D01*
X59783972Y-16383796D01*
X59696344Y-16266739D01*
X59579287Y-16179111D01*
X59575831Y-16177822D01*
X59442286Y-16128011D01*
X59381737Y-16121500D01*
X59381721Y-16121500D01*
X57584445Y-16121500D01*
X57584428Y-16121500D01*
X57523880Y-16128011D01*
X57523878Y-16128011D01*
X57386878Y-16179111D01*
X57269822Y-16266739D01*
X57182194Y-16383795D01*
X57131094Y-16520795D01*
X57131094Y-16520797D01*
X57124583Y-16581345D01*
X56803083Y-16581345D01*
X56803083Y-15080519D01*
X82410393Y-15080519D01*
X82439541Y-15227051D01*
X82439544Y-15227061D01*
X82496716Y-15365088D01*
X82496723Y-15365101D01*
X82579728Y-15489326D01*
X82579731Y-15489330D01*
X82685374Y-15594973D01*
X82685378Y-15594976D01*
X82809603Y-15677981D01*
X82809616Y-15677988D01*
X82947643Y-15735160D01*
X82947648Y-15735162D01*
X82947652Y-15735162D01*
X82947653Y-15735163D01*
X83094185Y-15764311D01*
X83094188Y-15764311D01*
X83243602Y-15764311D01*
X83342186Y-15744700D01*
X83390140Y-15735162D01*
X83528178Y-15677985D01*
X83652410Y-15594976D01*
X83758059Y-15489327D01*
X83841068Y-15365095D01*
X83898245Y-15227057D01*
X83921640Y-15109443D01*
X83927394Y-15080519D01*
X83927394Y-14931102D01*
X83898246Y-14784570D01*
X83898245Y-14784569D01*
X83898245Y-14784565D01*
X83851693Y-14672177D01*
X83841071Y-14646533D01*
X83841064Y-14646520D01*
X83758059Y-14522295D01*
X83758056Y-14522291D01*
X83652413Y-14416648D01*
X83652409Y-14416645D01*
X83528184Y-14333640D01*
X83528171Y-14333633D01*
X83390144Y-14276461D01*
X83390134Y-14276458D01*
X83243602Y-14247311D01*
X83243600Y-14247311D01*
X83094188Y-14247311D01*
X83094186Y-14247311D01*
X82947653Y-14276458D01*
X82947643Y-14276461D01*
X82809616Y-14333633D01*
X82809603Y-14333640D01*
X82685378Y-14416645D01*
X82685374Y-14416648D01*
X82579731Y-14522291D01*
X82579728Y-14522295D01*
X82496723Y-14646520D01*
X82496716Y-14646533D01*
X82439544Y-14784560D01*
X82439541Y-14784570D01*
X82410394Y-14931102D01*
X82410394Y-14931105D01*
X82410394Y-15080517D01*
X82410394Y-15080519D01*
X82410393Y-15080519D01*
X56803083Y-15080519D01*
X56803083Y-12395432D01*
X56803348Y-12387330D01*
X56804193Y-12374425D01*
X56806309Y-12358349D01*
X56852890Y-12124167D01*
X56857083Y-12108520D01*
X56933832Y-11882424D01*
X56940032Y-11867453D01*
X57045638Y-11653308D01*
X57053738Y-11639277D01*
X57186398Y-11440737D01*
X57196253Y-11427894D01*
X57353688Y-11248374D01*
X57365146Y-11236916D01*
X57544666Y-11079481D01*
X57557509Y-11069626D01*
X57756049Y-10936966D01*
X57770080Y-10928866D01*
X57984225Y-10823260D01*
X57999196Y-10817060D01*
X58225292Y-10740311D01*
X58240939Y-10736118D01*
X58475121Y-10689537D01*
X58491177Y-10687422D01*
X58713153Y-10672873D01*
X58733505Y-10671540D01*
X58741614Y-10671275D01*
X58753955Y-10671275D01*
X63094892Y-10671275D01*
X63161931Y-10690960D01*
G37*
%TD.AperFunction*%
%TA.AperFunction,Conductor*%
G36*
X88661981Y-10690960D02*
G01*
X88707736Y-10743764D01*
X88715087Y-10785356D01*
X89352049Y-11422318D01*
X89288465Y-11439356D01*
X89174451Y-11505182D01*
X89081359Y-11598274D01*
X89015533Y-11712288D01*
X88998495Y-11775872D01*
X88366186Y-11143563D01*
X88366185Y-11143563D01*
X88326838Y-11197721D01*
X88326832Y-11197730D01*
X88326704Y-11197983D01*
X88326630Y-11198061D01*
X88324296Y-11201871D01*
X88323494Y-11201380D01*
X88278722Y-11248771D01*
X88210899Y-11265556D01*
X88144767Y-11243009D01*
X88105741Y-11197961D01*
X88103352Y-11193272D01*
X87977664Y-11020277D01*
X87840343Y-10882956D01*
X87806858Y-10821633D01*
X87811842Y-10751941D01*
X87853714Y-10696008D01*
X87919178Y-10671591D01*
X87928024Y-10671275D01*
X88594942Y-10671275D01*
X88661981Y-10690960D01*
G37*
%TD.AperFunction*%
%TA.AperFunction,Conductor*%
G36*
X91201981Y-10690960D02*
G01*
X91247736Y-10743764D01*
X91255087Y-10785356D01*
X91892049Y-11422318D01*
X91828465Y-11439356D01*
X91714451Y-11505182D01*
X91621359Y-11598274D01*
X91555533Y-11712288D01*
X91538495Y-11775872D01*
X90906186Y-11143563D01*
X90906185Y-11143563D01*
X90866838Y-11197721D01*
X90861941Y-11207332D01*
X90813964Y-11258126D01*
X90746142Y-11274919D01*
X90680008Y-11252379D01*
X90640974Y-11207329D01*
X90636084Y-11197733D01*
X90596728Y-11143563D01*
X90596727Y-11143563D01*
X89964420Y-11775871D01*
X89947383Y-11712288D01*
X89881557Y-11598274D01*
X89788465Y-11505182D01*
X89674451Y-11439356D01*
X89610867Y-11422318D01*
X90248656Y-10784527D01*
X90258719Y-10736627D01*
X90307770Y-10686870D01*
X90367973Y-10671275D01*
X91134942Y-10671275D01*
X91201981Y-10690960D01*
G37*
%TD.AperFunction*%
%TA.AperFunction,Conductor*%
G36*
X93641931Y-10690960D02*
G01*
X93687686Y-10743764D01*
X93697630Y-10812922D01*
X93668605Y-10876478D01*
X93662573Y-10882956D01*
X93525254Y-11020274D01*
X93399561Y-11193275D01*
X93397167Y-11197974D01*
X93349189Y-11248766D01*
X93281366Y-11265556D01*
X93215233Y-11243013D01*
X93179262Y-11201496D01*
X93178629Y-11201885D01*
X93176284Y-11198059D01*
X93176201Y-11197963D01*
X93176082Y-11197730D01*
X93136728Y-11143563D01*
X93136727Y-11143563D01*
X92504420Y-11775871D01*
X92487383Y-11712288D01*
X92421557Y-11598274D01*
X92328465Y-11505182D01*
X92214451Y-11439356D01*
X92150867Y-11422318D01*
X92788656Y-10784527D01*
X92798719Y-10736627D01*
X92847770Y-10686870D01*
X92907973Y-10671275D01*
X93574892Y-10671275D01*
X93641931Y-10690960D01*
G37*
%TD.AperFunction*%
%TD*%
M02*
