%TF.GenerationSoftware,KiCad,Pcbnew,10.0.4*%
%TF.CreationDate,2026-09-12T17:22:50+12:00*%
%TF.ProjectId,MicroDev128,4d696372-6f44-4657-9631-32382e6b6963,Rev 1B*%
%TF.SameCoordinates,PX5f5e100PY5f5e100*%
%TF.FileFunction,Copper,L4,Bot*%
%TF.FilePolarity,Positive*%
%FSLAX46Y46*%
G04 Gerber Fmt 4.6, Leading zero omitted, Abs format (unit mm)*
G04 Created by KiCad (PCBNEW 10.0.4) date 2026-09-12 17:22:50*
%MOMM*%
%LPD*%
G01*
G04 APERTURE LIST*
%TA.AperFunction,ComponentPad*%
%ADD10R,1.700000X1.700000*%
%TD*%
%TA.AperFunction,ComponentPad*%
%ADD11C,1.700000*%
%TD*%
%TA.AperFunction,ViaPad*%
%ADD12C,0.500000*%
%TD*%
%TA.AperFunction,Conductor*%
%ADD13C,1.000000*%
%TD*%
%TA.AperFunction,Conductor*%
%ADD14C,0.200000*%
%TD*%
G04 APERTURE END LIST*
D10*
%TO.P,J1,1,Pin_1_1*%
%TO.N,Net-(J1-Pin_1)*%
X58483083Y-17480000D03*
D11*
%TO.P,J1,2,Pin_2_2*%
%TO.N,Net-(J1-Pin_2)*%
X58483083Y-20020000D03*
%TO.P,J1,3,Pin_3_3*%
%TO.N,GND*%
X58483083Y-22560000D03*
%TD*%
D10*
%TO.P,J3,1,Pin_1_1*%
%TO.N,Net-(J3-Pin_1)*%
X97101458Y-27116270D03*
D11*
%TO.P,J3,2,Pin_2_2*%
%TO.N,Net-(J3-Pin_2)*%
X94561458Y-27116270D03*
%TO.P,J3,3,Pin_3_3*%
%TO.N,Net-(J3-Pin_3)*%
X92021458Y-27116270D03*
%TO.P,J3,4,Pin_4_4*%
%TO.N,Net-(J3-Pin_4)*%
X89481458Y-27116270D03*
%TO.P,J3,5,Pin_5_5*%
%TO.N,Net-(J3-Pin_5)*%
X86941458Y-27116270D03*
%TO.P,J3,6,Pin_6_6*%
%TO.N,Net-(J3-Pin_6)*%
X84401458Y-27116270D03*
%TO.P,J3,7,Pin_7_7*%
%TO.N,Net-(J3-Pin_7)*%
X81861458Y-27116270D03*
%TO.P,J3,8,Pin_8_8*%
%TO.N,Net-(J3-Pin_8)*%
X79321458Y-27116270D03*
%TO.P,J3,9,Pin_9_9*%
%TO.N,Net-(J3-Pin_9)*%
X76781458Y-27116270D03*
%TO.P,J3,10,Pin_10_10*%
%TO.N,Net-(J3-Pin_10)*%
X74241458Y-27116270D03*
%TO.P,J3,11,Pin_11_11*%
%TO.N,Net-(J3-Pin_11)*%
X71701458Y-27116270D03*
%TO.P,J3,12,Pin_12_12*%
%TO.N,Net-(J3-Pin_12)*%
X69161458Y-27116270D03*
%TO.P,J3,13,Pin_13_13*%
%TO.N,Net-(J3-Pin_13)*%
X66621458Y-27116270D03*
%TO.P,J3,14,Pin_14_14*%
%TO.N,Net-(J3-Pin_14)*%
X64081458Y-27116270D03*
%TD*%
D10*
%TO.P,J4,1,Pin_1_1*%
%TO.N,EXT IO V*%
X97101458Y-11905281D03*
D11*
%TO.P,J4,2,Pin_2_2*%
%TO.N,VDC*%
X94561458Y-11905281D03*
%TO.P,J4,3,Pin_3_3*%
%TO.N,GND*%
X92021458Y-11905281D03*
%TO.P,J4,4,Pin_4_4*%
X89481458Y-11905281D03*
%TO.P,J4,5,Pin_5_5*%
%TO.N,+3.3V*%
X86941458Y-11905281D03*
%TO.P,J4,6,Pin_6_6*%
%TO.N,+5V*%
X84401458Y-11905281D03*
%TO.P,J4,7,Pin_7_7*%
%TO.N,Net-(J4-Pin_7)*%
X81861458Y-11905281D03*
%TO.P,J4,8,Pin_8_8*%
%TO.N,Net-(J4-Pin_8)*%
X79321458Y-11905281D03*
%TO.P,J4,9,Pin_9_9*%
%TO.N,Net-(J4-Pin_9)*%
X76781458Y-11905281D03*
%TO.P,J4,10,Pin_10_10*%
%TO.N,Net-(J4-Pin_10)*%
X74241458Y-11905281D03*
%TO.P,J4,11,Pin_11_11*%
%TO.N,Net-(J4-Pin_11)*%
X71701458Y-11905281D03*
%TO.P,J4,12,Pin_12_12*%
%TO.N,Net-(J4-Pin_12)*%
X69161458Y-11905281D03*
%TO.P,J4,13,Pin_13_13*%
%TO.N,Net-(J4-Pin_13)*%
X66621458Y-11905281D03*
%TO.P,J4,14,Pin_14_14*%
%TO.N,Net-(J4-Pin_14)*%
X64081458Y-11905281D03*
%TD*%
D12*
%TO.N,+5V*%
X80362206Y-25439124D03*
X97643083Y-14000000D03*
X79803083Y-25460000D03*
X97238083Y-13595000D03*
X71691024Y-22740000D03*
X83653083Y-19570000D03*
X99493083Y-16910000D03*
X79803083Y-24890000D03*
X99553083Y-20170000D03*
X62703083Y-26040000D03*
X99543083Y-23170000D03*
X85563083Y-17908626D03*
%TO.N,GND*%
X104503083Y-18850000D03*
X90763083Y-19130000D03*
X89763083Y-18130000D03*
X76563083Y-22880000D03*
X69353083Y-22900000D03*
X62623083Y-17440000D03*
X98563083Y-21090000D03*
X68353083Y-21900000D03*
X69353083Y-21900000D03*
X83213083Y-18780000D03*
X90763083Y-20130000D03*
X68353083Y-20900000D03*
X104503083Y-19800000D03*
X68353083Y-22900000D03*
X88763083Y-18130000D03*
X88763083Y-20130000D03*
X69353083Y-20900000D03*
X83453083Y-20480000D03*
X90763083Y-18130000D03*
X76563083Y-19170000D03*
X62513083Y-24500000D03*
X98453083Y-13390000D03*
X89763083Y-20130000D03*
X95633083Y-15420000D03*
X103513083Y-11820000D03*
X58123083Y-26270000D03*
X58023083Y-14070000D03*
X88763083Y-19130000D03*
X89763083Y-19130000D03*
X104723083Y-26200000D03*
X98553083Y-17640000D03*
%TO.N,+3.3V*%
X71223083Y-21410000D03*
X102643083Y-19890000D03*
X70623083Y-23760000D03*
X79123083Y-17960000D03*
X80168083Y-17690000D03*
X79483083Y-19300000D03*
%TO.N,Net-(J4-Pin_7)*%
X83168894Y-15005811D03*
%TO.N,/F1*%
X85852023Y-18808626D03*
X101163083Y-26120000D03*
%TO.N,Net-(J1-Pin_2)*%
X84253083Y-20510000D03*
%TO.N,Net-(U2-RT)*%
X71987207Y-23654124D03*
X72141024Y-21470000D03*
X66153083Y-22690000D03*
%TO.N,Net-(J3-Pin_13)*%
X92053083Y-22370000D03*
%TO.N,Net-(J3-Pin_12)*%
X92553083Y-21890000D03*
%TO.N,Net-(J3-Pin_11)*%
X93016540Y-22271065D03*
%TO.N,Net-(J3-Pin_10)*%
X93395264Y-20127819D03*
%TO.N,Net-(J3-Pin_9)*%
X93473083Y-19460000D03*
%TO.N,Net-(J3-Pin_8)*%
X93104848Y-18482941D03*
%TO.N,Net-(J3-Pin_7)*%
X93071046Y-17883891D03*
%TO.N,Net-(J3-Pin_6)*%
X93239142Y-17307917D03*
%TO.N,Net-(J3-Pin_5)*%
X92533083Y-16850000D03*
%TO.N,Net-(U1-VDDIO2)*%
X91060908Y-15776588D03*
X92433083Y-15050000D03*
%TO.N,Net-(J4-Pin_8)*%
X90461334Y-15753965D03*
%TO.N,Net-(J4-Pin_9)*%
X89869504Y-15655291D03*
%TO.N,Net-(J4-Pin_10)*%
X89233083Y-15650000D03*
%TO.N,Net-(J4-Pin_11)*%
X86503083Y-15890000D03*
%TO.N,Net-(J4-Pin_12)*%
X87061157Y-16335529D03*
%TO.N,Net-(J4-Pin_13)*%
X86573083Y-16790000D03*
%TO.N,Net-(J4-Pin_14)*%
X85883083Y-17240000D03*
%TO.N,Net-(J3-Pin_1)*%
X86302022Y-21284173D03*
%TO.N,Net-(J3-Pin_2)*%
X87032702Y-21355000D03*
%TO.N,Net-(J3-Pin_3)*%
X87538083Y-21678403D03*
%TO.N,Net-(J3-Pin_4)*%
X88033083Y-22260000D03*
%TO.N,Net-(J3-Pin_14)*%
X91543083Y-22710000D03*
%TD*%
%TO.N,+5V*%
D13*
X85851458Y-13355281D02*
X96998364Y-13355281D01*
D14*
X85314457Y-17908626D02*
X85563083Y-17908626D01*
D13*
X97238083Y-13595000D02*
X97643083Y-14000000D01*
X96998364Y-13355281D02*
X97238083Y-13595000D01*
D14*
X83653083Y-19570000D02*
X85314457Y-17908626D01*
X99493083Y-16910000D02*
X99643083Y-16760000D01*
D13*
X84401458Y-11905281D02*
X85851458Y-13355281D01*
%TO.N,GND*%
D14*
X76563083Y-19170000D02*
X76953083Y-19560000D01*
X76953083Y-19560000D02*
X76963083Y-19560000D01*
X76963083Y-19560000D02*
X77103083Y-19420000D01*
%TO.N,Net-(J1-Pin_2)*%
X83763083Y-20020000D02*
X83253083Y-20020000D01*
X84253083Y-20510000D02*
X83763083Y-20020000D01*
X83253083Y-20020000D02*
X58483083Y-20020000D01*
%TO.N,Net-(J3-Pin_13)*%
X87722422Y-23010000D02*
X88343744Y-23010000D01*
X87283083Y-22570661D02*
X87722422Y-23010000D01*
X90163083Y-22220000D02*
X91183083Y-23240000D01*
X92053083Y-22836397D02*
X92053083Y-22370000D01*
X89963083Y-22446397D02*
X89963083Y-22220000D01*
X91183083Y-23240000D02*
X91649480Y-23240000D01*
X89326686Y-22710000D02*
X89699480Y-22710000D01*
X87227422Y-22428403D02*
X87283083Y-22428403D01*
X87283083Y-22428403D02*
X87283083Y-22570661D01*
X66621458Y-27116270D02*
X71517728Y-22220000D01*
X87019019Y-22220000D02*
X87227422Y-22428403D01*
X71517728Y-22220000D02*
X87019019Y-22220000D01*
X89963083Y-22220000D02*
X90163083Y-22220000D01*
X89063083Y-22220000D02*
X89063083Y-22446397D01*
X89063083Y-22446397D02*
X89326686Y-22710000D01*
X91649480Y-23240000D02*
X92053083Y-22836397D01*
X88783083Y-22220000D02*
X89063083Y-22220000D01*
X89699480Y-22710000D02*
X89963083Y-22446397D01*
X88783083Y-22570661D02*
X88783083Y-22220000D01*
X88343744Y-23010000D02*
X88783083Y-22570661D01*
%TO.N,Net-(J3-Pin_12)*%
X74853464Y-23540000D02*
X91773744Y-23540000D01*
X69161458Y-27116270D02*
X72537728Y-23740000D01*
X72537728Y-23740000D02*
X74653464Y-23740000D01*
X74653464Y-23740000D02*
X74853464Y-23540000D01*
X92553083Y-22760661D02*
X92553083Y-21890000D01*
X91773744Y-23540000D02*
X92553083Y-22760661D01*
%TO.N,Net-(J3-Pin_11)*%
X71701458Y-27116270D02*
X74977728Y-23840000D01*
X91898008Y-23840000D02*
X93016540Y-22721468D01*
X93016540Y-22721468D02*
X93016540Y-22271065D01*
X74977728Y-23840000D02*
X91898008Y-23840000D01*
%TO.N,Net-(J3-Pin_10)*%
X77217728Y-24140000D02*
X92022272Y-24140000D01*
X74241458Y-27116270D02*
X77217728Y-24140000D01*
X93466540Y-20199095D02*
X93395264Y-20127819D01*
X92022272Y-24140000D02*
X93466540Y-22695732D01*
X93466540Y-22695732D02*
X93466540Y-20199095D01*
%TO.N,Net-(J3-Pin_9)*%
X93845264Y-19832181D02*
X93473083Y-19460000D01*
X93845264Y-22741272D02*
X93845264Y-19832181D01*
X76781458Y-27116270D02*
X79457728Y-24440000D01*
X92146536Y-24440000D02*
X93845264Y-22741272D01*
X79457728Y-24440000D02*
X92146536Y-24440000D01*
%TO.N,Net-(J3-Pin_8)*%
X79321458Y-27116270D02*
X81697728Y-24740000D01*
X94145264Y-22865536D02*
X94145264Y-19495784D01*
X94145264Y-19495784D02*
X93132421Y-18482941D01*
X93132421Y-18482941D02*
X93104848Y-18482941D01*
X92270800Y-24740000D02*
X94145264Y-22865536D01*
X81697728Y-24740000D02*
X92270800Y-24740000D01*
%TO.N,Net-(J3-Pin_7)*%
X81861458Y-27116270D02*
X83937728Y-25040000D01*
X92395064Y-25040000D02*
X94445264Y-22989800D01*
X83937728Y-25040000D02*
X92395064Y-25040000D01*
X94445264Y-22989800D02*
X94445264Y-19180414D01*
X94445264Y-19180414D02*
X93148741Y-17883891D01*
X93148741Y-17883891D02*
X93071046Y-17883891D01*
%TO.N,Net-(J3-Pin_6)*%
X94745264Y-18814039D02*
X93239142Y-17307917D01*
X94745264Y-23114064D02*
X94745264Y-18814039D01*
X84401458Y-27116270D02*
X86177728Y-25340000D01*
X86177728Y-25340000D02*
X92519328Y-25340000D01*
X92519328Y-25340000D02*
X94745264Y-23114064D01*
%TO.N,Net-(J3-Pin_5)*%
X95045264Y-23238328D02*
X95045264Y-18477642D01*
X92643592Y-25640000D02*
X95045264Y-23238328D01*
X88417728Y-25640000D02*
X92643592Y-25640000D01*
X95045264Y-18477642D02*
X93417622Y-16850000D01*
X93417622Y-16850000D02*
X92533083Y-16850000D01*
X86941458Y-27116270D02*
X88417728Y-25640000D01*
%TO.N,Net-(U1-VDDIO2)*%
X92433083Y-15050000D02*
X91787496Y-15050000D01*
X91787496Y-15050000D02*
X91060908Y-15776588D01*
%TO.N,Net-(J4-Pin_8)*%
X90055901Y-15205291D02*
X90319504Y-15468894D01*
X79321458Y-11905281D02*
X81306177Y-13890000D01*
X85561509Y-14055281D02*
X88762628Y-14055281D01*
X88762628Y-14055281D02*
X89912638Y-15205291D01*
X90319504Y-15468894D02*
X90319504Y-15753965D01*
X90319504Y-15753965D02*
X90461334Y-15753965D01*
X81306177Y-13890000D02*
X85396228Y-13890000D01*
X85396228Y-13890000D02*
X85561509Y-14055281D01*
X89912638Y-15205291D02*
X90055901Y-15205291D01*
%TO.N,Net-(J4-Pin_9)*%
X80671913Y-13680000D02*
X81181913Y-14190000D01*
X85271964Y-14190000D02*
X85437245Y-14355281D01*
X85437245Y-14355281D02*
X88638364Y-14355281D01*
X88638364Y-14355281D02*
X89869504Y-15586421D01*
X78556177Y-13680000D02*
X80671913Y-13680000D01*
X89869504Y-15586421D02*
X89869504Y-15655291D01*
X81181913Y-14190000D02*
X85271964Y-14190000D01*
X76781458Y-11905281D02*
X78556177Y-13680000D01*
%TO.N,Net-(J4-Pin_10)*%
X86166686Y-15590000D02*
X86316686Y-15440000D01*
X86953083Y-15703603D02*
X86953083Y-15830000D01*
X77926177Y-15590000D02*
X86166686Y-15590000D01*
X74241458Y-11905281D02*
X77926177Y-15590000D01*
X86689480Y-15440000D02*
X86953083Y-15703603D01*
X86316686Y-15440000D02*
X86689480Y-15440000D01*
X89053083Y-15830000D02*
X89233083Y-15650000D01*
X86953083Y-15830000D02*
X89053083Y-15830000D01*
%TO.N,Net-(J4-Pin_11)*%
X71701458Y-11905281D02*
X75686177Y-15890000D01*
X75686177Y-15890000D02*
X86503083Y-15890000D01*
%TO.N,Net-(J4-Pin_12)*%
X69161458Y-11905281D02*
X73596177Y-16340000D01*
X73596177Y-16340000D02*
X87056686Y-16340000D01*
X87056686Y-16340000D02*
X87061157Y-16335529D01*
%TO.N,Net-(J4-Pin_13)*%
X66621458Y-11905281D02*
X71506177Y-16790000D01*
X71506177Y-16790000D02*
X86573083Y-16790000D01*
%TO.N,Net-(J4-Pin_14)*%
X64081458Y-11905281D02*
X69416177Y-17240000D01*
X69416177Y-17240000D02*
X85883083Y-17240000D01*
%TO.N,Net-(J3-Pin_1)*%
X93242272Y-15650000D02*
X93092272Y-15500000D01*
X87923083Y-16420000D02*
X87613083Y-16420000D01*
X93092272Y-15500000D02*
X91973894Y-15500000D01*
X97101458Y-27116270D02*
X97101458Y-18836780D01*
X91043894Y-16430000D02*
X87933083Y-16430000D01*
X86302022Y-17731061D02*
X86302022Y-21284173D01*
X97101458Y-18836780D02*
X93914678Y-15650000D01*
X87933083Y-16430000D02*
X87923083Y-16420000D01*
X93914678Y-15650000D02*
X93242272Y-15650000D01*
X87613083Y-16420000D02*
X86302022Y-17731061D01*
X91973894Y-15500000D02*
X91043894Y-16430000D01*
%TO.N,Net-(J3-Pin_2)*%
X92968008Y-15800000D02*
X92098158Y-15800000D01*
X95945264Y-25732464D02*
X95945264Y-18104850D01*
X93790414Y-15950000D02*
X93118008Y-15950000D01*
X93118008Y-15950000D02*
X92968008Y-15800000D01*
X92098158Y-15800000D02*
X91483083Y-16415075D01*
X91483083Y-16415075D02*
X91483083Y-16730000D01*
X91483083Y-16730000D02*
X87808819Y-16730000D01*
X95945264Y-18104850D02*
X93790414Y-15950000D01*
X94561458Y-27116270D02*
X95945264Y-25732464D01*
X87798819Y-16720000D02*
X87737347Y-16720000D01*
X87032702Y-17424645D02*
X87032702Y-21355000D01*
X87737347Y-16720000D02*
X87032702Y-17424645D01*
X87808819Y-16730000D02*
X87798819Y-16720000D01*
%TO.N,Net-(J3-Pin_3)*%
X93666150Y-16250000D02*
X92993744Y-16250000D01*
X87913083Y-17030000D02*
X87733083Y-17210000D01*
X91783083Y-17030000D02*
X87913083Y-17030000D01*
X92993744Y-16250000D02*
X92843744Y-16100000D01*
X87733083Y-17280000D02*
X87663083Y-17280000D01*
X87733083Y-17210000D02*
X87733083Y-17280000D01*
X87538083Y-17405000D02*
X87538083Y-21678403D01*
X95645264Y-18229114D02*
X93666150Y-16250000D01*
X92021458Y-27116270D02*
X95645264Y-23492464D01*
X92222422Y-16100000D02*
X91783083Y-16539339D01*
X95645264Y-23492464D02*
X95645264Y-18229114D01*
X92843744Y-16100000D02*
X92222422Y-16100000D01*
X87663083Y-17280000D02*
X87538083Y-17405000D01*
X91783083Y-16539339D02*
X91783083Y-17030000D01*
%TO.N,Net-(J3-Pin_4)*%
X93541886Y-16550000D02*
X92869480Y-16550000D01*
X92346686Y-16400000D02*
X92083083Y-16663603D01*
X88033083Y-17334264D02*
X88033083Y-22260000D01*
X90657728Y-25940000D02*
X92767856Y-25940000D01*
X92376686Y-17330000D02*
X88037347Y-17330000D01*
X92869480Y-16550000D02*
X92719480Y-16400000D01*
X92083083Y-16663603D02*
X92083083Y-17036397D01*
X92719480Y-16400000D02*
X92346686Y-16400000D01*
X92767856Y-25940000D02*
X95345264Y-23362592D01*
X95345264Y-23362592D02*
X95345264Y-18353378D01*
X89481458Y-27116270D02*
X90657728Y-25940000D01*
X88037347Y-17330000D02*
X88033083Y-17334264D01*
X95345264Y-18353378D02*
X93541886Y-16550000D01*
X92083083Y-17036397D02*
X92376686Y-17330000D01*
%TO.N,Net-(J3-Pin_14)*%
X87583083Y-22446397D02*
X87846686Y-22710000D01*
X89699480Y-21810000D02*
X89809480Y-21920000D01*
X88333083Y-21923603D02*
X88333083Y-21920000D01*
X89809480Y-21920000D02*
X90753083Y-21920000D01*
X87583083Y-22128403D02*
X87583083Y-22446397D01*
X71393464Y-21920000D02*
X87143283Y-21920000D01*
X67817728Y-23380000D02*
X69933464Y-23380000D01*
X87351686Y-22128403D02*
X87583083Y-22128403D01*
X89326686Y-21810000D02*
X89699480Y-21810000D01*
X87846686Y-22710000D02*
X88219480Y-22710000D01*
X90753083Y-21920000D02*
X91543083Y-22710000D01*
X69933464Y-23380000D02*
X71393464Y-21920000D01*
X88483083Y-22073603D02*
X88333083Y-21923603D01*
X87143283Y-21920000D02*
X87351686Y-22128403D01*
X64081458Y-27116270D02*
X67817728Y-23380000D01*
X88483083Y-22446397D02*
X88483083Y-22073603D01*
X88333083Y-21920000D02*
X89216686Y-21920000D01*
X88219480Y-22710000D02*
X88483083Y-22446397D01*
X89216686Y-21920000D02*
X89326686Y-21810000D01*
%TD*%
%TA.AperFunction,Conductor*%
%TO.N,GND*%
G36*
X63738266Y-10690960D02*
G01*
X63784021Y-10743764D01*
X63793965Y-10812922D01*
X63764940Y-10876478D01*
X63718680Y-10909835D01*
X63705744Y-10915193D01*
X63580072Y-10967248D01*
X63580063Y-10967253D01*
X63406703Y-11083089D01*
X63406699Y-11083092D01*
X63259269Y-11230522D01*
X63259266Y-11230526D01*
X63143430Y-11403886D01*
X63143425Y-11403895D01*
X63063635Y-11596527D01*
X63063633Y-11596535D01*
X63022958Y-11801023D01*
X63022958Y-12009538D01*
X63063633Y-12214026D01*
X63063635Y-12214034D01*
X63143425Y-12406666D01*
X63143430Y-12406675D01*
X63259266Y-12580035D01*
X63259269Y-12580039D01*
X63406699Y-12727469D01*
X63406703Y-12727472D01*
X63580063Y-12843308D01*
X63580069Y-12843311D01*
X63580070Y-12843312D01*
X63772705Y-12923104D01*
X63977200Y-12963780D01*
X63977204Y-12963781D01*
X63977205Y-12963781D01*
X64185712Y-12963781D01*
X64185713Y-12963780D01*
X64390211Y-12923104D01*
X64506555Y-12874912D01*
X64576020Y-12867444D01*
X64638499Y-12898718D01*
X64641685Y-12901793D01*
X69226754Y-17486862D01*
X69271351Y-17512610D01*
X69297100Y-17527476D01*
X69375562Y-17548500D01*
X78616458Y-17548500D01*
X78683497Y-17568185D01*
X78729252Y-17620989D01*
X78739196Y-17690147D01*
X78723845Y-17734500D01*
X78695830Y-17783022D01*
X78695829Y-17783026D01*
X78664583Y-17899637D01*
X78664583Y-18020363D01*
X78695829Y-18136974D01*
X78756192Y-18241525D01*
X78841558Y-18326891D01*
X78946109Y-18387254D01*
X79062720Y-18418500D01*
X79062723Y-18418500D01*
X79183443Y-18418500D01*
X79183446Y-18418500D01*
X79300057Y-18387254D01*
X79404608Y-18326891D01*
X79489974Y-18241525D01*
X79550337Y-18136974D01*
X79581583Y-18020363D01*
X79581583Y-18020359D01*
X79583041Y-18014918D01*
X79619406Y-17955257D01*
X79682253Y-17924728D01*
X79751628Y-17933023D01*
X79794723Y-17966499D01*
X79795445Y-17965778D01*
X79801185Y-17971518D01*
X79801190Y-17971522D01*
X79801192Y-17971525D01*
X79886558Y-18056891D01*
X79991109Y-18117254D01*
X80107720Y-18148500D01*
X80107723Y-18148500D01*
X80228443Y-18148500D01*
X80228446Y-18148500D01*
X80345057Y-18117254D01*
X80449608Y-18056891D01*
X80534974Y-17971525D01*
X80595337Y-17866974D01*
X80626583Y-17750363D01*
X80626583Y-17672500D01*
X80646268Y-17605461D01*
X80699072Y-17559706D01*
X80750583Y-17548500D01*
X84938936Y-17548500D01*
X85005975Y-17568185D01*
X85051730Y-17620989D01*
X85061674Y-17690147D01*
X85032649Y-17753703D01*
X85026617Y-17760181D01*
X83711617Y-19075181D01*
X83650294Y-19108666D01*
X83623936Y-19111500D01*
X83592720Y-19111500D01*
X83476109Y-19142746D01*
X83476107Y-19142746D01*
X83476107Y-19142747D01*
X83371558Y-19203109D01*
X83371555Y-19203111D01*
X83286194Y-19288472D01*
X83286192Y-19288475D01*
X83253416Y-19345245D01*
X83225829Y-19393026D01*
X83194583Y-19509637D01*
X83194583Y-19509639D01*
X83194583Y-19587500D01*
X83174898Y-19654539D01*
X83122094Y-19700294D01*
X83070583Y-19711500D01*
X79989708Y-19711500D01*
X79922669Y-19691815D01*
X79876914Y-19639011D01*
X79866970Y-19569853D01*
X79882321Y-19525500D01*
X79910335Y-19476977D01*
X79910334Y-19476977D01*
X79910337Y-19476974D01*
X79941583Y-19360363D01*
X79941583Y-19239637D01*
X79910337Y-19123026D01*
X79849974Y-19018475D01*
X79764608Y-18933109D01*
X79660057Y-18872746D01*
X79543446Y-18841500D01*
X79422720Y-18841500D01*
X79306109Y-18872746D01*
X79306107Y-18872746D01*
X79306107Y-18872747D01*
X79201558Y-18933109D01*
X79201555Y-18933111D01*
X79116194Y-19018472D01*
X79116192Y-19018475D01*
X79062484Y-19111500D01*
X79055829Y-19123026D01*
X79024583Y-19239637D01*
X79024583Y-19360363D01*
X79052017Y-19462746D01*
X79055830Y-19476977D01*
X79083845Y-19525500D01*
X79100318Y-19593400D01*
X79077466Y-19659427D01*
X79022544Y-19702618D01*
X78976458Y-19711500D01*
X59583865Y-19711500D01*
X59516826Y-19691815D01*
X59471071Y-19639011D01*
X59469304Y-19634953D01*
X59421115Y-19518614D01*
X59421110Y-19518605D01*
X59305274Y-19345245D01*
X59305271Y-19345241D01*
X59157841Y-19197811D01*
X59157837Y-19197808D01*
X58984477Y-19081972D01*
X58984468Y-19081967D01*
X58791836Y-19002177D01*
X58791828Y-19002175D01*
X58587340Y-18961500D01*
X58587336Y-18961500D01*
X58378830Y-18961500D01*
X58378825Y-18961500D01*
X58174337Y-19002175D01*
X58174329Y-19002177D01*
X57981697Y-19081967D01*
X57981688Y-19081972D01*
X57808328Y-19197808D01*
X57808324Y-19197811D01*
X57660894Y-19345241D01*
X57660891Y-19345245D01*
X57545055Y-19518605D01*
X57545050Y-19518614D01*
X57465260Y-19711246D01*
X57465258Y-19711254D01*
X57424583Y-19915742D01*
X57424583Y-20124257D01*
X57465258Y-20328745D01*
X57465260Y-20328753D01*
X57545050Y-20521385D01*
X57545055Y-20521394D01*
X57660891Y-20694754D01*
X57660894Y-20694758D01*
X57808324Y-20842188D01*
X57808328Y-20842191D01*
X57981688Y-20958027D01*
X57981694Y-20958030D01*
X57981695Y-20958031D01*
X58174330Y-21037823D01*
X58378825Y-21078499D01*
X58378829Y-21078500D01*
X58378830Y-21078500D01*
X58587337Y-21078500D01*
X58587338Y-21078499D01*
X58791836Y-21037823D01*
X58984471Y-20958031D01*
X59157838Y-20842191D01*
X59305274Y-20694755D01*
X59421114Y-20521388D01*
X59469304Y-20405046D01*
X59513145Y-20350644D01*
X59579439Y-20328579D01*
X59583865Y-20328500D01*
X83212468Y-20328500D01*
X83583936Y-20328500D01*
X83613376Y-20337144D01*
X83643363Y-20343668D01*
X83648378Y-20347422D01*
X83650975Y-20348185D01*
X83671617Y-20364819D01*
X83758264Y-20451466D01*
X83791749Y-20512789D01*
X83794583Y-20539147D01*
X83794583Y-20570363D01*
X83825829Y-20686974D01*
X83886192Y-20791525D01*
X83971558Y-20876891D01*
X84076109Y-20937254D01*
X84192720Y-20968500D01*
X84192723Y-20968500D01*
X84313443Y-20968500D01*
X84313446Y-20968500D01*
X84430057Y-20937254D01*
X84534608Y-20876891D01*
X84619974Y-20791525D01*
X84680337Y-20686974D01*
X84711583Y-20570363D01*
X84711583Y-20449637D01*
X84680337Y-20333026D01*
X84619974Y-20228475D01*
X84534608Y-20143109D01*
X84430057Y-20082746D01*
X84313446Y-20051500D01*
X84313443Y-20051500D01*
X84282230Y-20051500D01*
X84252789Y-20042855D01*
X84222803Y-20036332D01*
X84217787Y-20032577D01*
X84215191Y-20031815D01*
X84194549Y-20015181D01*
X84091250Y-19911882D01*
X84057765Y-19850559D01*
X84062749Y-19780867D01*
X84071541Y-19762208D01*
X84080337Y-19746974D01*
X84111583Y-19630363D01*
X84111583Y-19599146D01*
X84131268Y-19532107D01*
X84147897Y-19511469D01*
X85286099Y-18373267D01*
X85296624Y-18367520D01*
X85304263Y-18358267D01*
X85326727Y-18351083D01*
X85347420Y-18339784D01*
X85361048Y-18340107D01*
X85370813Y-18336985D01*
X85405858Y-18341172D01*
X85407825Y-18341698D01*
X85411370Y-18342648D01*
X85471034Y-18379006D01*
X85501570Y-18441849D01*
X85493283Y-18511226D01*
X85486676Y-18524426D01*
X85424770Y-18631648D01*
X85424769Y-18631652D01*
X85393523Y-18748263D01*
X85393523Y-18868989D01*
X85424769Y-18985600D01*
X85485132Y-19090151D01*
X85570498Y-19175517D01*
X85675049Y-19235880D01*
X85791660Y-19267126D01*
X85791663Y-19267126D01*
X85869522Y-19267126D01*
X85936561Y-19286811D01*
X85982316Y-19339615D01*
X85993522Y-19391126D01*
X85993522Y-20892895D01*
X85973837Y-20959934D01*
X85957203Y-20980576D01*
X85935133Y-21002645D01*
X85935131Y-21002648D01*
X85911770Y-21043111D01*
X85874768Y-21107199D01*
X85843522Y-21223810D01*
X85843522Y-21344536D01*
X85866824Y-21431500D01*
X85873230Y-21455407D01*
X85871567Y-21525257D01*
X85832404Y-21583119D01*
X85768176Y-21610623D01*
X85753455Y-21611500D01*
X72723524Y-21611500D01*
X72656485Y-21591815D01*
X72610730Y-21539011D01*
X72599524Y-21487500D01*
X72599524Y-21409639D01*
X72599524Y-21409637D01*
X72568278Y-21293026D01*
X72507915Y-21188475D01*
X72422549Y-21103109D01*
X72317998Y-21042746D01*
X72201387Y-21011500D01*
X72080661Y-21011500D01*
X71964050Y-21042746D01*
X71964048Y-21042746D01*
X71964048Y-21042747D01*
X71859499Y-21103109D01*
X71793610Y-21168998D01*
X71732286Y-21202482D01*
X71662595Y-21197497D01*
X71606661Y-21155626D01*
X71598541Y-21143314D01*
X71589974Y-21128475D01*
X71504608Y-21043109D01*
X71400057Y-20982746D01*
X71283446Y-20951500D01*
X71162720Y-20951500D01*
X71046109Y-20982746D01*
X71046107Y-20982746D01*
X71046107Y-20982747D01*
X70941558Y-21043109D01*
X70941555Y-21043111D01*
X70856194Y-21128472D01*
X70856192Y-21128475D01*
X70795829Y-21233026D01*
X70764583Y-21349637D01*
X70764583Y-21470363D01*
X70795829Y-21586974D01*
X70856192Y-21691525D01*
X70856194Y-21691527D01*
X70933241Y-21768574D01*
X70966726Y-21829897D01*
X70961742Y-21899589D01*
X70933241Y-21943936D01*
X69841998Y-23035181D01*
X69780675Y-23068666D01*
X69754317Y-23071500D01*
X67858343Y-23071500D01*
X67777113Y-23071500D01*
X67698652Y-23092523D01*
X67698651Y-23092523D01*
X67698649Y-23092524D01*
X67628308Y-23133136D01*
X67628302Y-23133140D01*
X64641685Y-26119756D01*
X64580362Y-26153241D01*
X64510670Y-26148257D01*
X64506552Y-26146636D01*
X64390215Y-26098448D01*
X64390203Y-26098445D01*
X64185715Y-26057770D01*
X64185711Y-26057770D01*
X63977205Y-26057770D01*
X63977200Y-26057770D01*
X63772712Y-26098445D01*
X63772704Y-26098447D01*
X63580072Y-26178237D01*
X63580063Y-26178242D01*
X63406703Y-26294078D01*
X63318910Y-26381870D01*
X63318902Y-26381879D01*
X63259267Y-26441515D01*
X63180102Y-26559992D01*
X63180087Y-26560013D01*
X63143429Y-26614877D01*
X63143425Y-26614884D01*
X63063635Y-26807516D01*
X63063633Y-26807524D01*
X63022958Y-27012012D01*
X63022958Y-27220527D01*
X63063633Y-27425015D01*
X63063635Y-27425023D01*
X63143425Y-27617655D01*
X63143430Y-27617664D01*
X63259266Y-27791024D01*
X63259269Y-27791028D01*
X63406699Y-27938458D01*
X63406703Y-27938461D01*
X63580063Y-28054297D01*
X63580072Y-28054302D01*
X63718677Y-28111714D01*
X63773080Y-28155555D01*
X63795145Y-28221849D01*
X63777866Y-28289548D01*
X63726729Y-28337159D01*
X63671224Y-28350275D01*
X58741614Y-28350275D01*
X58733504Y-28350010D01*
X58491189Y-28334128D01*
X58475108Y-28332010D01*
X58240949Y-28285433D01*
X58225282Y-28281235D01*
X57999204Y-28204492D01*
X57984218Y-28198285D01*
X57770086Y-28092686D01*
X57756040Y-28084577D01*
X57700734Y-28047623D01*
X57557519Y-27951930D01*
X57544655Y-27942059D01*
X57540552Y-27938461D01*
X57372435Y-27791025D01*
X57365152Y-27784638D01*
X57353683Y-27773169D01*
X57196262Y-27593666D01*
X57186393Y-27580805D01*
X57053742Y-27382278D01*
X57045635Y-27368235D01*
X56940036Y-27154103D01*
X56933829Y-27139117D01*
X56907414Y-27061301D01*
X56857084Y-26913033D01*
X56852888Y-26897372D01*
X56806309Y-26663202D01*
X56804194Y-26647142D01*
X56788312Y-26404817D01*
X56788047Y-26396708D01*
X56788047Y-25979637D01*
X62244583Y-25979637D01*
X62244583Y-26100363D01*
X62275829Y-26216974D01*
X62336192Y-26321525D01*
X62421558Y-26406891D01*
X62526109Y-26467254D01*
X62642720Y-26498500D01*
X62642723Y-26498500D01*
X62763443Y-26498500D01*
X62763446Y-26498500D01*
X62880057Y-26467254D01*
X62984608Y-26406891D01*
X63069974Y-26321525D01*
X63130337Y-26216974D01*
X63161583Y-26100363D01*
X63161583Y-25979637D01*
X63130337Y-25863026D01*
X63069974Y-25758475D01*
X62984608Y-25673109D01*
X62880057Y-25612746D01*
X62763446Y-25581500D01*
X62642720Y-25581500D01*
X62526109Y-25612746D01*
X62526107Y-25612746D01*
X62526107Y-25612747D01*
X62421558Y-25673109D01*
X62421555Y-25673111D01*
X62336194Y-25758472D01*
X62336192Y-25758475D01*
X62293351Y-25832678D01*
X62275829Y-25863026D01*
X62244583Y-25979637D01*
X56788047Y-25979637D01*
X56788047Y-22664206D01*
X57425082Y-22664206D01*
X57465740Y-22868601D01*
X57465743Y-22868611D01*
X57545494Y-23061149D01*
X57545496Y-23061152D01*
X57661277Y-23234431D01*
X57661283Y-23234439D01*
X57808643Y-23381799D01*
X57808651Y-23381805D01*
X57981930Y-23497586D01*
X57981933Y-23497588D01*
X58174471Y-23577339D01*
X58174481Y-23577342D01*
X58378876Y-23618000D01*
X58587289Y-23618000D01*
X58791684Y-23577342D01*
X58791694Y-23577339D01*
X58984232Y-23497588D01*
X58984235Y-23497586D01*
X59157514Y-23381805D01*
X59157522Y-23381799D01*
X59304882Y-23234439D01*
X59304888Y-23234431D01*
X59420669Y-23061152D01*
X59420671Y-23061149D01*
X59500422Y-22868611D01*
X59500425Y-22868601D01*
X59541083Y-22664206D01*
X59541083Y-22629637D01*
X65694583Y-22629637D01*
X65694583Y-22750363D01*
X65725829Y-22866974D01*
X65786192Y-22971525D01*
X65871558Y-23056891D01*
X65976109Y-23117254D01*
X66092720Y-23148500D01*
X66092723Y-23148500D01*
X66213443Y-23148500D01*
X66213446Y-23148500D01*
X66330057Y-23117254D01*
X66434608Y-23056891D01*
X66519974Y-22971525D01*
X66580337Y-22866974D01*
X66611583Y-22750363D01*
X66611583Y-22629637D01*
X66580337Y-22513026D01*
X66519974Y-22408475D01*
X66434608Y-22323109D01*
X66330057Y-22262746D01*
X66213446Y-22231500D01*
X66092720Y-22231500D01*
X65976109Y-22262746D01*
X65976107Y-22262746D01*
X65976107Y-22262747D01*
X65871558Y-22323109D01*
X65871555Y-22323111D01*
X65786194Y-22408472D01*
X65786192Y-22408475D01*
X65725829Y-22513026D01*
X65694583Y-22629637D01*
X59541083Y-22629637D01*
X59541083Y-22455793D01*
X59500425Y-22251398D01*
X59500422Y-22251388D01*
X59420671Y-22058850D01*
X59420669Y-22058847D01*
X59304888Y-21885568D01*
X59304882Y-21885560D01*
X59157522Y-21738200D01*
X59157514Y-21738194D01*
X58984235Y-21622413D01*
X58984232Y-21622411D01*
X58791694Y-21542660D01*
X58791684Y-21542657D01*
X58587289Y-21502000D01*
X58378877Y-21502000D01*
X58174481Y-21542657D01*
X58174471Y-21542660D01*
X57981933Y-21622411D01*
X57981930Y-21622413D01*
X57808651Y-21738194D01*
X57808643Y-21738200D01*
X57661283Y-21885560D01*
X57661277Y-21885568D01*
X57545496Y-22058847D01*
X57545494Y-22058850D01*
X57465743Y-22251388D01*
X57465740Y-22251398D01*
X57425083Y-22455793D01*
X57425083Y-22664206D01*
X57425082Y-22664206D01*
X56788047Y-22664206D01*
X56788047Y-16609458D01*
X57424583Y-16609458D01*
X57424583Y-18350534D01*
X57436680Y-18411353D01*
X57482762Y-18480320D01*
X57551730Y-18526403D01*
X57551731Y-18526404D01*
X57592180Y-18534449D01*
X57612546Y-18538500D01*
X59353619Y-18538499D01*
X59414436Y-18526403D01*
X59483403Y-18480320D01*
X59529486Y-18411353D01*
X59529486Y-18411351D01*
X59529487Y-18411351D01*
X59541582Y-18350541D01*
X59541583Y-18350537D01*
X59541582Y-16609464D01*
X59529486Y-16548647D01*
X59505759Y-16513137D01*
X59483403Y-16479679D01*
X59414435Y-16433596D01*
X59414434Y-16433595D01*
X59353622Y-16421500D01*
X57612548Y-16421500D01*
X57551729Y-16433597D01*
X57482762Y-16479679D01*
X57436679Y-16548647D01*
X57436678Y-16548648D01*
X57424583Y-16609458D01*
X56788047Y-16609458D01*
X56788047Y-12624841D01*
X56788312Y-12616732D01*
X56790076Y-12589820D01*
X56804194Y-12374403D01*
X56806309Y-12358349D01*
X56852890Y-12124167D01*
X56857083Y-12108520D01*
X56933832Y-11882424D01*
X56940032Y-11867453D01*
X57045638Y-11653308D01*
X57053738Y-11639277D01*
X57186398Y-11440737D01*
X57196253Y-11427894D01*
X57353688Y-11248374D01*
X57365146Y-11236916D01*
X57544666Y-11079481D01*
X57557509Y-11069626D01*
X57756049Y-10936966D01*
X57770080Y-10928866D01*
X57984225Y-10823260D01*
X57999196Y-10817060D01*
X58225292Y-10740311D01*
X58240939Y-10736118D01*
X58475121Y-10689537D01*
X58491177Y-10687422D01*
X58713153Y-10672873D01*
X58733505Y-10671540D01*
X58741614Y-10671275D01*
X58753955Y-10671275D01*
X63671227Y-10671275D01*
X63738266Y-10690960D01*
G37*
%TD.AperFunction*%
%TA.AperFunction,Conductor*%
G36*
X103844291Y-10671540D02*
G01*
X103866200Y-10672975D01*
X104086616Y-10687422D01*
X104102676Y-10689537D01*
X104336852Y-10736117D01*
X104352507Y-10740312D01*
X104578593Y-10817058D01*
X104593575Y-10823263D01*
X104716856Y-10884059D01*
X104807709Y-10928863D01*
X104821752Y-10936970D01*
X105020279Y-11069621D01*
X105033136Y-11079487D01*
X105142421Y-11175328D01*
X105212643Y-11236911D01*
X105224112Y-11248380D01*
X105381533Y-11427883D01*
X105391408Y-11440752D01*
X105524051Y-11639268D01*
X105532160Y-11653314D01*
X105637759Y-11867446D01*
X105643966Y-11882432D01*
X105720709Y-12108510D01*
X105724907Y-12124177D01*
X105771484Y-12358336D01*
X105773602Y-12374417D01*
X105789484Y-12616731D01*
X105789749Y-12624841D01*
X105789749Y-24155994D01*
X105789748Y-24156483D01*
X105780339Y-26540739D01*
X105780075Y-26548359D01*
X105773602Y-26647131D01*
X105771484Y-26663213D01*
X105724907Y-26897372D01*
X105720709Y-26913039D01*
X105643966Y-27139117D01*
X105637759Y-27154103D01*
X105532160Y-27368235D01*
X105524051Y-27382281D01*
X105391408Y-27580797D01*
X105381533Y-27593666D01*
X105224112Y-27773169D01*
X105212643Y-27784638D01*
X105033140Y-27942059D01*
X105020271Y-27951934D01*
X104821755Y-28084577D01*
X104807709Y-28092686D01*
X104593577Y-28198285D01*
X104578591Y-28204492D01*
X104352513Y-28281235D01*
X104336846Y-28285433D01*
X104102687Y-28332010D01*
X104086606Y-28334128D01*
X103844292Y-28350010D01*
X103836182Y-28350275D01*
X98160817Y-28350275D01*
X98093778Y-28330590D01*
X98048023Y-28277786D01*
X98038079Y-28208628D01*
X98067104Y-28145072D01*
X98091927Y-28123172D01*
X98101778Y-28116590D01*
X98147861Y-28047623D01*
X98147861Y-28047621D01*
X98147862Y-28047621D01*
X98159957Y-27986811D01*
X98159958Y-27986807D01*
X98159957Y-26245734D01*
X98147861Y-26184917D01*
X98101778Y-26115950D01*
X98101776Y-26115949D01*
X98101776Y-26115948D01*
X98032810Y-26069866D01*
X98032809Y-26069865D01*
X97981386Y-26059637D01*
X100704583Y-26059637D01*
X100704583Y-26180363D01*
X100735829Y-26296974D01*
X100796192Y-26401525D01*
X100881558Y-26486891D01*
X100986109Y-26547254D01*
X101102720Y-26578500D01*
X101102723Y-26578500D01*
X101223443Y-26578500D01*
X101223446Y-26578500D01*
X101340057Y-26547254D01*
X101444608Y-26486891D01*
X101529974Y-26401525D01*
X101590337Y-26296974D01*
X101621583Y-26180363D01*
X101621583Y-26059637D01*
X101590337Y-25943026D01*
X101529974Y-25838475D01*
X101444608Y-25753109D01*
X101340057Y-25692746D01*
X101223446Y-25661500D01*
X101102720Y-25661500D01*
X100986109Y-25692746D01*
X100986107Y-25692746D01*
X100986107Y-25692747D01*
X100881558Y-25753109D01*
X100881555Y-25753111D01*
X100796194Y-25838472D01*
X100796192Y-25838475D01*
X100751362Y-25916123D01*
X100735829Y-25943026D01*
X100704583Y-26059637D01*
X97981386Y-26059637D01*
X97971999Y-26057770D01*
X97971995Y-26057770D01*
X97533958Y-26057770D01*
X97466919Y-26038085D01*
X97421164Y-25985281D01*
X97409958Y-25933770D01*
X97409958Y-23109637D01*
X99084583Y-23109637D01*
X99084583Y-23230363D01*
X99115829Y-23346974D01*
X99176192Y-23451525D01*
X99261558Y-23536891D01*
X99366109Y-23597254D01*
X99482720Y-23628500D01*
X99482723Y-23628500D01*
X99603443Y-23628500D01*
X99603446Y-23628500D01*
X99720057Y-23597254D01*
X99824608Y-23536891D01*
X99909974Y-23451525D01*
X99970337Y-23346974D01*
X100001583Y-23230363D01*
X100001583Y-23109637D01*
X99970337Y-22993026D01*
X99909974Y-22888475D01*
X99824608Y-22803109D01*
X99720057Y-22742746D01*
X99603446Y-22711500D01*
X99482720Y-22711500D01*
X99366109Y-22742746D01*
X99366107Y-22742746D01*
X99366107Y-22742747D01*
X99261558Y-22803109D01*
X99261555Y-22803111D01*
X99176194Y-22888472D01*
X99176192Y-22888475D01*
X99117263Y-22990543D01*
X99115829Y-22993026D01*
X99084583Y-23109637D01*
X97409958Y-23109637D01*
X97409958Y-21951466D01*
X103682583Y-21951466D01*
X103682583Y-22070084D01*
X103713284Y-22184661D01*
X103772594Y-22287388D01*
X103856470Y-22371264D01*
X103959197Y-22430574D01*
X104073774Y-22461275D01*
X104073777Y-22461275D01*
X104192389Y-22461275D01*
X104192392Y-22461275D01*
X104306969Y-22430574D01*
X104409696Y-22371264D01*
X104493572Y-22287388D01*
X104552882Y-22184661D01*
X104583583Y-22070084D01*
X104583583Y-21951466D01*
X104552882Y-21836889D01*
X104493572Y-21734162D01*
X104409696Y-21650286D01*
X104306969Y-21590976D01*
X104192392Y-21560275D01*
X104073774Y-21560275D01*
X103959197Y-21590976D01*
X103959195Y-21590976D01*
X103959195Y-21590977D01*
X103856470Y-21650286D01*
X103856467Y-21650288D01*
X103772596Y-21734159D01*
X103772594Y-21734162D01*
X103727328Y-21812565D01*
X103713284Y-21836889D01*
X103682583Y-21951466D01*
X97409958Y-21951466D01*
X97409958Y-20109637D01*
X99094583Y-20109637D01*
X99094583Y-20230363D01*
X99125829Y-20346974D01*
X99186192Y-20451525D01*
X99271558Y-20536891D01*
X99376109Y-20597254D01*
X99492720Y-20628500D01*
X99492723Y-20628500D01*
X99613443Y-20628500D01*
X99613446Y-20628500D01*
X99730057Y-20597254D01*
X99834608Y-20536891D01*
X99919974Y-20451525D01*
X99980337Y-20346974D01*
X100011583Y-20230363D01*
X100011583Y-20109637D01*
X99980337Y-19993026D01*
X99919974Y-19888475D01*
X99861136Y-19829637D01*
X102184583Y-19829637D01*
X102184583Y-19950363D01*
X102215829Y-20066974D01*
X102276192Y-20171525D01*
X102361558Y-20256891D01*
X102466109Y-20317254D01*
X102582720Y-20348500D01*
X102582723Y-20348500D01*
X102703443Y-20348500D01*
X102703446Y-20348500D01*
X102820057Y-20317254D01*
X102924608Y-20256891D01*
X103009974Y-20171525D01*
X103070337Y-20066974D01*
X103101583Y-19950363D01*
X103101583Y-19829637D01*
X103070337Y-19713026D01*
X103009974Y-19608475D01*
X102924608Y-19523109D01*
X102820057Y-19462746D01*
X102703446Y-19431500D01*
X102582720Y-19431500D01*
X102466109Y-19462746D01*
X102466107Y-19462746D01*
X102466107Y-19462747D01*
X102361558Y-19523109D01*
X102361555Y-19523111D01*
X102276194Y-19608472D01*
X102276192Y-19608475D01*
X102215829Y-19713026D01*
X102184583Y-19829637D01*
X99861136Y-19829637D01*
X99834608Y-19803109D01*
X99730057Y-19742746D01*
X99613446Y-19711500D01*
X99492720Y-19711500D01*
X99376109Y-19742746D01*
X99376107Y-19742746D01*
X99376107Y-19742747D01*
X99271558Y-19803109D01*
X99271555Y-19803111D01*
X99186194Y-19888472D01*
X99186192Y-19888475D01*
X99150184Y-19950843D01*
X99125829Y-19993026D01*
X99094583Y-20109637D01*
X97409958Y-20109637D01*
X97409958Y-18796167D01*
X97409958Y-18796165D01*
X97388934Y-18717703D01*
X97356703Y-18661878D01*
X97356703Y-18661877D01*
X97356701Y-18661875D01*
X97355569Y-18659915D01*
X97348319Y-18647356D01*
X95550600Y-16849637D01*
X99034583Y-16849637D01*
X99034583Y-16970363D01*
X99065829Y-17086974D01*
X99126192Y-17191525D01*
X99211558Y-17276891D01*
X99316109Y-17337254D01*
X99432720Y-17368500D01*
X99432723Y-17368500D01*
X99553443Y-17368500D01*
X99553446Y-17368500D01*
X99670057Y-17337254D01*
X99774608Y-17276891D01*
X99859974Y-17191525D01*
X99920337Y-17086974D01*
X99951583Y-16970363D01*
X99951583Y-16951466D01*
X103682583Y-16951466D01*
X103682583Y-17070084D01*
X103713284Y-17184661D01*
X103772594Y-17287388D01*
X103856470Y-17371264D01*
X103959197Y-17430574D01*
X104073774Y-17461275D01*
X104073777Y-17461275D01*
X104192389Y-17461275D01*
X104192392Y-17461275D01*
X104306969Y-17430574D01*
X104409696Y-17371264D01*
X104493572Y-17287388D01*
X104552882Y-17184661D01*
X104583583Y-17070084D01*
X104583583Y-16951466D01*
X104552882Y-16836889D01*
X104493572Y-16734162D01*
X104409696Y-16650286D01*
X104306969Y-16590976D01*
X104192392Y-16560275D01*
X104073774Y-16560275D01*
X103959197Y-16590976D01*
X103959195Y-16590976D01*
X103959195Y-16590977D01*
X103856470Y-16650286D01*
X103856467Y-16650288D01*
X103772596Y-16734159D01*
X103772594Y-16734162D01*
X103720077Y-16825124D01*
X103713284Y-16836889D01*
X103682583Y-16951466D01*
X99951583Y-16951466D01*
X99951583Y-16849637D01*
X99949691Y-16842577D01*
X99949410Y-16827425D01*
X99953672Y-16811845D01*
X99953672Y-16809090D01*
X99950521Y-16808676D01*
X99951582Y-16800617D01*
X99951582Y-16719388D01*
X99951582Y-16719385D01*
X99933068Y-16650288D01*
X99930560Y-16640926D01*
X99912396Y-16609465D01*
X99889945Y-16570577D01*
X99832506Y-16513138D01*
X99832505Y-16513137D01*
X99774552Y-16479679D01*
X99762159Y-16472524D01*
X99762158Y-16472523D01*
X99762155Y-16472522D01*
X99762157Y-16472522D01*
X99683699Y-16451501D01*
X99683698Y-16451501D01*
X99602468Y-16451501D01*
X99594407Y-16452562D01*
X99594014Y-16449579D01*
X99561896Y-16449565D01*
X99561502Y-16452561D01*
X99553447Y-16451500D01*
X99553446Y-16451500D01*
X99432720Y-16451500D01*
X99316109Y-16482746D01*
X99316107Y-16482746D01*
X99316107Y-16482747D01*
X99211558Y-16543109D01*
X99211555Y-16543111D01*
X99126194Y-16628472D01*
X99126192Y-16628475D01*
X99119005Y-16640924D01*
X99065829Y-16733026D01*
X99034583Y-16849637D01*
X95550600Y-16849637D01*
X94104101Y-15403138D01*
X94104100Y-15403137D01*
X94053226Y-15373766D01*
X94053224Y-15373765D01*
X94052130Y-15373133D01*
X94033755Y-15362524D01*
X94033754Y-15362523D01*
X94033753Y-15362523D01*
X93984011Y-15349195D01*
X93955293Y-15341500D01*
X93955292Y-15341500D01*
X93421419Y-15341500D01*
X93354380Y-15321815D01*
X93333738Y-15305181D01*
X93281696Y-15253139D01*
X93281695Y-15253138D01*
X93234577Y-15225935D01*
X93211349Y-15212524D01*
X93132887Y-15191500D01*
X93132884Y-15191500D01*
X93015583Y-15191500D01*
X92948544Y-15171815D01*
X92902789Y-15119011D01*
X92891583Y-15067500D01*
X92891583Y-14989639D01*
X92891583Y-14989637D01*
X92860337Y-14873026D01*
X92799974Y-14768475D01*
X92714608Y-14683109D01*
X92610057Y-14622746D01*
X92493446Y-14591500D01*
X92372720Y-14591500D01*
X92256109Y-14622746D01*
X92256107Y-14622746D01*
X92256107Y-14622747D01*
X92151558Y-14683109D01*
X92151555Y-14683111D01*
X92129486Y-14705181D01*
X92068163Y-14738666D01*
X92041805Y-14741500D01*
X91828111Y-14741500D01*
X91746881Y-14741500D01*
X91668420Y-14762523D01*
X91668419Y-14762523D01*
X91668417Y-14762524D01*
X91598076Y-14803136D01*
X91598070Y-14803140D01*
X91119442Y-15281769D01*
X91058119Y-15315254D01*
X91031761Y-15318088D01*
X91000545Y-15318088D01*
X90918575Y-15340051D01*
X90883929Y-15349335D01*
X90883928Y-15349336D01*
X90842710Y-15373133D01*
X90833546Y-15375355D01*
X90826099Y-15381140D01*
X90800135Y-15383460D01*
X90774810Y-15389604D01*
X90764049Y-15386685D01*
X90756507Y-15387360D01*
X90730665Y-15377631D01*
X90723225Y-15375614D01*
X90720929Y-15374413D01*
X90638308Y-15326711D01*
X90620792Y-15322017D01*
X90608640Y-15315659D01*
X90592966Y-15300532D01*
X90574368Y-15289194D01*
X90567747Y-15281271D01*
X90566362Y-15279466D01*
X90245325Y-14958430D01*
X90245323Y-14958428D01*
X90222843Y-14945450D01*
X90197681Y-14930923D01*
X90174978Y-14917815D01*
X90096516Y-14896791D01*
X90073456Y-14896791D01*
X90055910Y-14891488D01*
X90041389Y-14881993D01*
X90024746Y-14877106D01*
X90004104Y-14860472D01*
X89419094Y-14275462D01*
X89385609Y-14214139D01*
X89390593Y-14144447D01*
X89432465Y-14088514D01*
X89497929Y-14064097D01*
X89506775Y-14063781D01*
X96653531Y-14063781D01*
X96720570Y-14083466D01*
X96741212Y-14100100D01*
X97191433Y-14550321D01*
X97191436Y-14550323D01*
X97191440Y-14550327D01*
X97307482Y-14627865D01*
X97307487Y-14627867D01*
X97436416Y-14681270D01*
X97436424Y-14681273D01*
X97573296Y-14708498D01*
X97573299Y-14708499D01*
X97573301Y-14708499D01*
X97712865Y-14708499D01*
X97712866Y-14708498D01*
X97758901Y-14699341D01*
X97849741Y-14681273D01*
X97849749Y-14681270D01*
X97928000Y-14648858D01*
X97978683Y-14627865D01*
X98094725Y-14550327D01*
X98094731Y-14550321D01*
X98094732Y-14550321D01*
X98193404Y-14451649D01*
X98193404Y-14451648D01*
X98193410Y-14451642D01*
X98270948Y-14335600D01*
X98324355Y-14206661D01*
X98351582Y-14069781D01*
X98351582Y-13930218D01*
X98351582Y-13930215D01*
X98351581Y-13930213D01*
X98324356Y-13793341D01*
X98324353Y-13793333D01*
X98270950Y-13664404D01*
X98270949Y-13664402D01*
X98270948Y-13664399D01*
X98193410Y-13548357D01*
X98193406Y-13548353D01*
X98193404Y-13548350D01*
X98193403Y-13548349D01*
X97820516Y-13175461D01*
X97787031Y-13114138D01*
X97792015Y-13044446D01*
X97833887Y-12988513D01*
X97899351Y-12964096D01*
X97908197Y-12963780D01*
X97971993Y-12963780D01*
X97971994Y-12963780D01*
X98032811Y-12951684D01*
X98101778Y-12905601D01*
X98147861Y-12836634D01*
X98147861Y-12836632D01*
X98147862Y-12836632D01*
X98159957Y-12775822D01*
X98159958Y-12775818D01*
X98159957Y-11034745D01*
X98147861Y-10973928D01*
X98132569Y-10951043D01*
X98101778Y-10904960D01*
X98091925Y-10898377D01*
X98047120Y-10844765D01*
X98038413Y-10775440D01*
X98068568Y-10712412D01*
X98128011Y-10675693D01*
X98160816Y-10671275D01*
X103823841Y-10671275D01*
X103836182Y-10671275D01*
X103844291Y-10671540D01*
G37*
%TD.AperFunction*%
%TA.AperFunction,Conductor*%
G36*
X86869312Y-22537144D02*
G01*
X86899299Y-22543668D01*
X86904314Y-22547422D01*
X86906911Y-22548185D01*
X86927553Y-22564819D01*
X86951297Y-22588563D01*
X86983390Y-22644148D01*
X86995606Y-22689736D01*
X87002396Y-22701496D01*
X87002397Y-22701500D01*
X87036216Y-22760077D01*
X87036220Y-22760082D01*
X87036221Y-22760084D01*
X87247664Y-22971527D01*
X87295957Y-23019819D01*
X87329442Y-23081142D01*
X87324458Y-23150833D01*
X87282587Y-23206767D01*
X87217122Y-23231184D01*
X87208276Y-23231500D01*
X74894079Y-23231500D01*
X74812849Y-23231500D01*
X74734388Y-23252523D01*
X74734387Y-23252523D01*
X74734385Y-23252524D01*
X74664044Y-23293136D01*
X74664038Y-23293140D01*
X74561998Y-23395181D01*
X74500675Y-23428666D01*
X74474317Y-23431500D01*
X72497110Y-23431500D01*
X72494608Y-23432171D01*
X72492416Y-23432118D01*
X72489057Y-23432561D01*
X72488987Y-23432036D01*
X72424758Y-23430504D01*
X72366898Y-23391337D01*
X72355136Y-23374396D01*
X72354100Y-23372602D01*
X72354096Y-23372597D01*
X72268734Y-23287235D01*
X72268732Y-23287233D01*
X72164181Y-23226870D01*
X72124595Y-23216262D01*
X72064937Y-23179899D01*
X72034408Y-23117052D01*
X72042703Y-23047676D01*
X72053880Y-23028580D01*
X72053851Y-23028563D01*
X72057913Y-23021526D01*
X72057915Y-23021525D01*
X72118278Y-22916974D01*
X72149524Y-22800363D01*
X72149524Y-22679637D01*
X72149523Y-22679635D01*
X72148463Y-22671581D01*
X72151167Y-22671224D01*
X72152520Y-22614727D01*
X72191691Y-22556870D01*
X72255923Y-22529375D01*
X72270627Y-22528500D01*
X86839872Y-22528500D01*
X86869312Y-22537144D01*
G37*
%TD.AperFunction*%
%TA.AperFunction,Conductor*%
G36*
X92514201Y-17624378D02*
G01*
X92543454Y-17625075D01*
X92548480Y-17628477D01*
X92554511Y-17629198D01*
X92577082Y-17647834D01*
X92601317Y-17664236D01*
X92603707Y-17669817D01*
X92608389Y-17673683D01*
X92617301Y-17701561D01*
X92628822Y-17728465D01*
X92628288Y-17735930D01*
X92629664Y-17740235D01*
X92625474Y-17775280D01*
X92612546Y-17823528D01*
X92612546Y-17944254D01*
X92643792Y-18060865D01*
X92695652Y-18150689D01*
X92712125Y-18218587D01*
X92695653Y-18274687D01*
X92677595Y-18305964D01*
X92677594Y-18305966D01*
X92677594Y-18305967D01*
X92646348Y-18422578D01*
X92646348Y-18543304D01*
X92677594Y-18659915D01*
X92737957Y-18764466D01*
X92823323Y-18849832D01*
X92927874Y-18910195D01*
X93044485Y-18941441D01*
X93044488Y-18941441D01*
X93052545Y-18942502D01*
X93052356Y-18943934D01*
X93110903Y-18961126D01*
X93156658Y-19013930D01*
X93166602Y-19083088D01*
X93137577Y-19146644D01*
X93131545Y-19153122D01*
X93106194Y-19178472D01*
X93106192Y-19178475D01*
X93045829Y-19283026D01*
X93014583Y-19399637D01*
X93014583Y-19520363D01*
X93045829Y-19636974D01*
X93045830Y-19636977D01*
X93068481Y-19676209D01*
X93084954Y-19744109D01*
X93062102Y-19810136D01*
X93048779Y-19825887D01*
X93028373Y-19846293D01*
X93028373Y-19846294D01*
X92968010Y-19950845D01*
X92936764Y-20067456D01*
X92936764Y-20188182D01*
X92968010Y-20304793D01*
X93028373Y-20409344D01*
X93028375Y-20409346D01*
X93119486Y-20500457D01*
X93117519Y-20502423D01*
X93150729Y-20547906D01*
X93158040Y-20589853D01*
X93158040Y-21558043D01*
X93138355Y-21625082D01*
X93085551Y-21670837D01*
X93016393Y-21680781D01*
X92952837Y-21651756D01*
X92926653Y-21620044D01*
X92921720Y-21611500D01*
X92919974Y-21608475D01*
X92834608Y-21523109D01*
X92730057Y-21462746D01*
X92613446Y-21431500D01*
X92492720Y-21431500D01*
X92376109Y-21462746D01*
X92376107Y-21462746D01*
X92376107Y-21462747D01*
X92271558Y-21523109D01*
X92271555Y-21523111D01*
X92186194Y-21608472D01*
X92186192Y-21608475D01*
X92138242Y-21691527D01*
X92125829Y-21713026D01*
X92097015Y-21820562D01*
X92060650Y-21880222D01*
X91997803Y-21910751D01*
X91993430Y-21911407D01*
X91992721Y-21911500D01*
X91992720Y-21911500D01*
X91876109Y-21942746D01*
X91876107Y-21942746D01*
X91876107Y-21942747D01*
X91771558Y-22003109D01*
X91771555Y-22003111D01*
X91686194Y-22088472D01*
X91686188Y-22088481D01*
X91646806Y-22156691D01*
X91596239Y-22204906D01*
X91527632Y-22218128D01*
X91462767Y-22192160D01*
X91451739Y-22182371D01*
X90942507Y-21673139D01*
X90942506Y-21673138D01*
X90888349Y-21641871D01*
X90888349Y-21641870D01*
X90888345Y-21641869D01*
X90872160Y-21632524D01*
X90793698Y-21611500D01*
X90793697Y-21611500D01*
X89988627Y-21611500D01*
X89921588Y-21591815D01*
X89900946Y-21575181D01*
X89888905Y-21563140D01*
X89888903Y-21563138D01*
X89883944Y-21560275D01*
X89844305Y-21537388D01*
X89844305Y-21537389D01*
X89818559Y-21522525D01*
X89818558Y-21522524D01*
X89818557Y-21522524D01*
X89740095Y-21501500D01*
X89286071Y-21501500D01*
X89238993Y-21514114D01*
X89207607Y-21522524D01*
X89207606Y-21522525D01*
X89172436Y-21542830D01*
X89172436Y-21542831D01*
X89142223Y-21560275D01*
X89137262Y-21563139D01*
X89137259Y-21563141D01*
X89125220Y-21575181D01*
X89063897Y-21608666D01*
X89037539Y-21611500D01*
X88465583Y-21611500D01*
X88398544Y-21591815D01*
X88352789Y-21539011D01*
X88341583Y-21487500D01*
X88341583Y-17762500D01*
X88361268Y-17695461D01*
X88414072Y-17649706D01*
X88465583Y-17638500D01*
X92417299Y-17638500D01*
X92417301Y-17638500D01*
X92473605Y-17623413D01*
X92479672Y-17623557D01*
X92485135Y-17620904D01*
X92514201Y-17624378D01*
G37*
%TD.AperFunction*%
%TD*%
M02*
